<svg width="15" height="12" viewBox="0 0 15 12" fill="none" xmlns="http://www.w3.org/2000/svg">
<path id="Union" fill-rule="evenodd" clip-rule="evenodd" d="M7.78603 6.28406C7.59573 6.40938 7.34909 6.40938 7.15879 6.28406L0.27764 1.75221C-0.194899 1.441 0.0254455 0.705811 0.591258 0.705811H14.3536C14.9194 0.705811 15.1397 1.441 14.6672 1.75221L7.78603 6.28406ZM0.879275 3.47685C0.499846 3.2321 0 3.50449 0 3.95601V11.4299C0 11.7448 0.255286 12.0001 0.570196 12.0001H14.3766C14.6915 12.0001 14.9468 11.7448 14.9468 11.4299V3.71318C14.9468 3.25506 14.4338 2.98399 14.0553 3.24209L7.78587 7.51726C7.59648 7.6464 7.34818 7.64958 7.15555 7.52532L0.879275 3.47685Z" fill="#FFC600"/>
</svg>
