<svg width="8" height="11" viewBox="0 0 8 11" fill="none" xmlns="http://www.w3.org/2000/svg">
<path fill-rule="evenodd" clip-rule="evenodd" d="M6.5625 3.875H6.09375V2.98214C6.09375 1.75 5.04375 0.75 3.75 0.75C2.45625 0.75 1.40625 1.75 1.40625 2.98214V3.875H0.9375C0.421875 3.875 0 4.27679 0 4.76786V9.23214C0 9.72322 0.421875 10.125 0.9375 10.125H6.5625C7.07813 10.125 7.5 9.72322 7.5 9.23214V4.76786C7.5 4.27679 7.07813 3.875 6.5625 3.875ZM3.75 7.89286C3.23438 7.89286 2.8125 7.49107 2.8125 7C2.8125 6.50893 3.23438 6.10714 3.75 6.10714C4.26562 6.10714 4.6875 6.50893 4.6875 7C4.6875 7.49107 4.26562 7.89286 3.75 7.89286ZM2.34375 2.98214V3.875H5.15625V2.98214C5.15625 2.24107 4.52812 1.64286 3.75 1.64286C2.97187 1.64286 2.34375 2.24107 2.34375 2.98214Z" fill="#FFC600"/>
</svg>
