<svg xmlns="http://www.w3.org/2000/svg" width="24" height="24" viewBox="0 0 24 24" fill="none">
  <path d="M23.6189 21.7779C23.4015 21.7874 22.9436 21.5599 22.7661 21.4388L18.1014 18.261L16.9144 19.8729L21.5672 23.0669C21.7444 23.1884 22.1184 23.5299 22.1808 23.7307C22.224 23.8689 22.3423 23.9815 22.4911 23.9991C22.8762 24.0447 24.156 22.3067 23.9842 21.9715C23.9179 21.8419 23.7684 21.771 23.6189 21.7779Z" fill="#FFC600"/>
  <path d="M17.2637 17.5036L17.6465 17.931L16.4336 19.5781L15.8886 19.3711C13.8436 18.5949 11.7688 18.9367 10.5289 19.141L10.4015 19.1618C10.3837 19.1647 10.3666 19.1636 10.3485 19.1652C8.24086 19.5671 5.8058 19.0862 3.72727 17.6648C0.104164 15.1871 -1.08305 10.78 1.08139 7.84069C2.55454 5.84016 5.4825 4.67877 8.88221 5.74369C8.8093 6.19784 8.76163 6.79524 8.64439 7.16542C6.23149 6.32496 3.60622 6.90204 2.30089 8.67466C0.613703 10.9659 1.64157 14.4714 4.59259 16.4891C7.54317 18.5069 11.3168 18.2849 13.0039 15.9937C13.6353 15.1362 14.0381 13.3015 13.4377 11.631C13.4377 11.631 13.9061 10.8174 14.2927 10.4593C14.7 10.9822 15.0898 11.7234 15.266 12.9532C15.4805 14.1622 15.8967 15.9754 17.2637 17.5036ZM15.5785 17.7547C15.1933 17.2173 14.8958 16.6651 14.6621 16.1241C14.5347 16.3661 14.3903 16.6021 14.2235 16.8281C14.0568 17.0545 13.8738 17.2637 13.6783 17.4595C14.2858 17.4934 14.9245 17.5818 15.5785 17.7547Z" fill="#FFC600"/>
  <path d="M13.0841 1.87138C13.0862 1.86722 13.0883 1.86309 13.0905 1.85897C13.0973 1.84562 13.1048 1.83251 13.1129 1.81968C13.2685 1.57367 13.3058 1.27168 13.2158 0.973629C13.1086 0.645829 12.8793 0.367839 12.5721 0.193174C12.265 0.0185087 11.9016 -0.0404835 11.552 0.0275513C11.3769 0.0642886 11.2165 0.14875 11.0898 0.270878C10.9631 0.393007 10.8755 0.547653 10.8374 0.716399L9.31901 7.40667L10.1852 7.91542L13.0841 1.87138Z" fill="#FFC600"/>
  <path d="M9.22387 9.55475L8.43248 9.08994L8.89561 8.35763L9.68701 8.82244L9.22387 9.55475Z" fill="#FFC600"/>
  <path d="M10.1316 10.0879L10.5947 9.35556L11.3861 9.82036L10.923 10.5527L10.1316 10.0879Z" fill="#FFC600"/>
  <path d="M7.87927 9.96466L7.60474 10.3987C7.26685 10.9343 7.16323 11.5772 7.3166 12.1863C7.46997 12.7954 7.86781 13.321 8.42283 13.6478C8.97858 13.9734 9.64567 14.0732 10.2777 13.9254C10.9098 13.7776 11.4552 13.3943 11.7943 12.8594L12.0688 12.4253L7.87927 9.96466Z" fill="#FFC600"/>
  <path d="M11.8306 11.0858L12.2938 10.3535L13.0852 10.8183L12.622 11.5506L11.8306 11.0858Z" fill="#FFC600"/>
  <path d="M11.9886 8.97457L11.0989 8.45203L14.0351 2.33055C14.3756 1.82279 15.1388 1.70047 15.7512 2.06015C16.0525 2.23245 16.2758 2.50725 16.3771 2.83037C16.4645 3.11894 16.4324 3.41104 16.2892 3.65254L11.9886 8.97457Z" fill="#FFC600"/>
  <path d="M13.7689 10.0202L12.9023 9.51123L17.1483 4.25839C17.1607 4.24292 17.1723 4.22677 17.1828 4.21003C17.5156 3.68383 18.2922 3.55253 18.914 3.91772C19.2155 4.09011 19.4388 4.36536 19.5396 4.68892C19.5435 4.7013 19.547 4.71351 19.5504 4.72599C19.5967 4.89292 19.5923 5.06915 19.5377 5.23372C19.483 5.39829 19.3805 5.54427 19.2422 5.65429L13.7689 10.0202Z" fill="#FFC600"/>
</svg>