<svg xmlns="http://www.w3.org/2000/svg" width="24" height="24" viewBox="0 0 24 24" fill="none">
<path d="M3.95424 5.47298C3.30732 5.84722 2.58041 6.03293 1.8404 6.03293C1.23253 6.03293 0.616113 5.90754 0.0279573 5.65881C0.345343 8.07759 2.38695 9.95178 4.87467 10C4.70107 8.17222 5.5194 6.44165 7.01114 5.57801C7.90017 5.06303 8.92937 4.89639 9.96005 5.09193C9.9606 5.06144 9.96087 5.03087 9.96087 5.00024C9.96087 2.56072 8.21852 0.529199 5.91337 0.0882722C6.53026 2.2086 5.76104 4.42714 3.95424 5.47298Z" fill="#FFC600"/>
<path d="M4.90381 0C5.59668 1.81456 5.01674 3.78248 3.48975 4.66635C2.45042 5.26811 1.13493 5.24135 0 4.61068C0.196519 2.05363 2.3113 0.0353289 4.90381 0Z" fill="#FFC600"/>
<path d="M9.85676 6.02156C9.02187 5.84786 8.18886 5.97213 7.4761 6.38464C6.29575 7.06746 5.6538 8.45713 5.80137 9.9323C7.82856 9.59258 9.44166 8.02703 9.85676 6.02156Z" fill="#FFC600"/>
<path d="M4.4878 21.7245L4.74235 21.9791C5.62975 21.0406 6.77169 19.7839 9.25 17.3058C9.83131 16.7245 10.3205 16.0886 10.755 15.4761L12.0375 16.7585C11.425 17.1926 10.789 17.6821 10.2077 18.2634C7.72936 20.7416 6.47264 21.8834 5.5341 22.7708L5.66059 22.8972C5.9206 23.1572 5.93036 23.5726 5.68245 23.8205C5.43454 24.0684 5.01915 24.0582 4.75914 23.7986L3.58635 22.6259C3.32634 22.3659 3.31658 21.9506 3.56449 21.7027C3.8124 21.4548 4.22779 21.4645 4.4878 21.7245Z" fill="#FFC600"/>
<path d="M12.9851 16.1042L11.4082 14.5275C11.8033 13.9466 12.1597 13.4344 12.5099 13.0839C13.4899 12.104 20.6132 4.26864 20.9974 3.88489C21.8454 3.03698 22.9123 3.85405 23.2832 4.22452C23.6553 4.59617 24.4767 5.66738 23.6287 6.51568C23.2446 6.89981 15.4091 14.0223 14.4292 15.0026C14.0782 15.3528 13.5656 15.7092 12.9851 16.1042Z" fill="#FFC600"/>
</svg>