<svg width="24" height="24" viewBox="0 0 24 24" fill="none" xmlns="http://www.w3.org/2000/svg">
<path d="M9.05721 0.365596C10.0023 0.126845 10.9921 0 12.0115 0C13.7939 0 15.4856 0.38776 17.0067 1.08344C17.2928 3.3675 17.1458 5.69048 16.5684 7.99514C16.2871 9.11779 15.9092 10.1967 15.4465 11.22C14.2446 10.3466 13.0089 9.53934 11.7281 8.79096C11.843 8.48378 11.9355 8.16642 12.0042 7.84039C12.5805 5.10306 11.3566 2.17928 9.05721 0.365596Z" fill="#FF9800"/>
<path d="M18.6931 2.02602C21.7085 4.04573 23.7572 7.39376 24 11.2316C21.9734 11.5197 20.1785 12.5266 18.8892 13.9817C18.1833 13.3599 17.4689 12.7659 16.7431 12.1981C17.3142 10.9933 17.7755 9.71515 18.1097 8.38053C18.6394 6.26569 18.8346 4.13499 18.6931 2.02602Z" fill="#FF9800"/>
<path d="M23.9953 12.8395C23.8765 14.5565 23.3961 16.1741 22.6297 17.6169C21.7822 16.7148 20.9288 15.8602 20.0643 15.0499C21.0615 13.9166 22.4372 13.1154 23.9953 12.8395Z" fill="#FF9800"/>
<path d="M21.76 19.0135C20.9618 20.1187 19.9798 21.0828 18.8589 21.861C18.5574 21.0943 18.4014 20.2751 18.4014 19.4375C18.4014 18.335 18.6728 17.2938 19.1532 16.3754C20.0317 17.206 20.8987 18.0842 21.76 19.0135Z" fill="#FF9800"/>
<path d="M17.4807 22.687C15.8403 23.5264 13.9813 24 12.0115 24C9.62932 24 7.40908 23.3073 5.54163 22.1126C9.83665 20.89 13.5966 17.7926 15.9921 13.632C16.6531 14.1559 17.3047 14.7025 17.949 15.273C17.2264 16.4975 16.8121 17.9206 16.8121 19.4375C16.8121 20.5656 17.0405 21.6669 17.4807 22.687Z" fill="#FF9800"/>
<path d="M3.91763 20.8673C1.54905 18.7087 0.0484736 15.6158 0 12.1721C0.822403 12.6637 1.73527 13.0205 2.70183 13.2239C4.77482 13.6596 6.87782 13.3503 8.62621 12.353C9.60083 11.7967 10.4015 11.0644 10.992 10.2042C12.2772 10.9587 13.5156 11.7747 14.7195 12.6601C12.3195 16.9452 8.36962 20.0254 3.91763 20.8673Z" fill="#FF9800"/>
<path d="M0.114384 10.3286C0.331791 8.77015 0.848817 7.30756 1.60545 6.00074C4.49995 6.97096 7.13802 8.0936 9.59864 9.4201C9.14986 10.0363 8.55488 10.5648 7.83781 10.9739C6.42782 11.7782 4.71962 12.0251 3.02943 11.6703C1.9472 11.4427 0.949824 10.9825 0.114384 10.3286Z" fill="#FF9800"/>
<path d="M2.52563 4.63645C5.33515 5.59961 7.91011 6.70624 10.32 8.00158C10.371 7.84184 10.4141 7.67892 10.449 7.51314C10.9618 5.07815 9.54536 2.34213 7.17265 1.01331C5.33712 1.82119 3.74235 3.07462 2.52563 4.63645Z" fill="#FF9800"/>
</svg>
