<svg width="48" height="16" viewBox="0 0 48 16" fill="none" xmlns="http://www.w3.org/2000/svg">
<rect width="48" height="16" rx="4" fill="#FF5353" fill-opacity="0.5"/>
<path d="M13.799 12V4.72727H14.8963V11.0554H18.1918V12H13.799ZM21.6559 12.1101C21.1445 12.1101 20.6983 11.9929 20.3171 11.7585C19.936 11.5241 19.64 11.1963 19.4293 10.7749C19.2186 10.3535 19.1133 9.86103 19.1133 9.29759C19.1133 8.73177 19.2186 8.23698 19.4293 7.81321C19.64 7.38944 19.936 7.06037 20.3171 6.82599C20.6983 6.59162 21.1445 6.47443 21.6559 6.47443C22.1673 6.47443 22.6135 6.59162 22.9947 6.82599C23.3758 7.06037 23.6718 7.38944 23.8825 7.81321C24.0932 8.23698 24.1985 8.73177 24.1985 9.29759C24.1985 9.86103 24.0932 10.3535 23.8825 10.7749C23.6718 11.1963 23.3758 11.5241 22.9947 11.7585C22.6135 11.9929 22.1673 12.1101 21.6559 12.1101ZM21.6594 11.2188C21.9909 11.2188 22.2655 11.1312 22.4833 10.956C22.7011 10.7808 22.8621 10.5476 22.9663 10.2564C23.0728 9.9652 23.1261 9.64441 23.1261 9.29403C23.1261 8.94602 23.0728 8.62642 22.9663 8.33523C22.8621 8.04167 22.7011 7.80611 22.4833 7.62855C22.2655 7.45099 21.9909 7.36222 21.6594 7.36222C21.3256 7.36222 21.0487 7.45099 20.8285 7.62855C20.6107 7.80611 20.4485 8.04167 20.342 8.33523C20.2378 8.62642 20.1857 8.94602 20.1857 9.29403C20.1857 9.64441 20.2378 9.9652 20.342 10.2564C20.4485 10.5476 20.6107 10.7808 20.8285 10.956C21.0487 11.1312 21.3256 11.2188 21.6594 11.2188ZM29.4711 7.87713L28.5087 8.04759C28.4685 7.92448 28.4045 7.80729 28.3169 7.69602C28.2317 7.58475 28.1157 7.49361 27.9689 7.42259C27.8221 7.35156 27.6387 7.31605 27.4185 7.31605C27.1178 7.31605 26.8669 7.38352 26.6657 7.51847C26.4644 7.65104 26.3638 7.82268 26.3638 8.03338C26.3638 8.21567 26.4313 8.36245 26.5662 8.47372C26.7012 8.58499 26.919 8.67614 27.2196 8.74716L28.0861 8.94602C28.588 9.06203 28.9621 9.24077 29.2083 9.48224C29.4545 9.72372 29.5776 10.0374 29.5776 10.4233C29.5776 10.75 29.4829 11.0412 29.2935 11.2969C29.1065 11.5502 28.8449 11.7491 28.5087 11.8935C28.1749 12.0379 27.7878 12.1101 27.3475 12.1101C26.7367 12.1101 26.2383 11.9799 25.8525 11.7195C25.4666 11.4567 25.2298 11.0838 25.1422 10.6009L26.1685 10.4446C26.2324 10.7121 26.3638 10.9145 26.5627 11.0518C26.7615 11.1868 27.0208 11.2543 27.3404 11.2543C27.6884 11.2543 27.9666 11.1821 28.1749 11.0376C28.3832 10.8909 28.4874 10.7121 28.4874 10.5014C28.4874 10.331 28.4235 10.1877 28.2956 10.0717C28.1702 9.95573 27.9772 9.86813 27.7168 9.80895L26.7935 9.60653C26.2845 9.49053 25.9081 9.30587 25.6642 9.05256C25.4228 8.79924 25.302 8.47846 25.302 8.0902C25.302 7.76823 25.392 7.48651 25.5719 7.24503C25.7518 7.00355 26.0004 6.81534 26.3176 6.6804C26.6349 6.54309 26.9983 6.47443 27.4078 6.47443C27.9973 6.47443 28.4614 6.60227 28.7999 6.85795C29.1384 7.11127 29.3622 7.45099 29.4711 7.87713ZM33.2912 6.54545V7.39773H30.3118V6.54545H33.2912ZM31.1108 5.23864H32.1726V10.3984C32.1726 10.6044 32.2034 10.7595 32.2649 10.8636C32.3265 10.9654 32.4058 11.0353 32.5028 11.0732C32.6023 11.1087 32.71 11.1264 32.826 11.1264C32.9112 11.1264 32.9858 11.1205 33.0497 11.1087C33.1136 11.0968 33.1634 11.0874 33.1989 11.0803L33.3906 11.9574C33.3291 11.9811 33.2415 12.0047 33.1278 12.0284C33.0142 12.0545 32.8722 12.0687 32.7017 12.071C32.4223 12.0758 32.1619 12.026 31.9205 11.9219C31.679 11.8177 31.4837 11.6567 31.3345 11.4389C31.1854 11.2211 31.1108 10.9477 31.1108 10.6186V5.23864Z" fill="white"/>
</svg>
