<svg width="33" height="16" viewBox="0 0 33 16" fill="none" xmlns="http://www.w3.org/2000/svg">
<rect width="33" height="16" rx="4" fill="#F79E1B" fill-opacity="0.5"/>
<path d="M7.43466 4.72727L9.45881 10.6506H9.54048L11.5646 4.72727H12.7507L10.1335 12H8.86577L6.24858 4.72727H7.43466ZM15.4664 12.1101C14.9551 12.1101 14.5088 11.9929 14.1277 11.7585C13.7465 11.5241 13.4506 11.1963 13.2399 10.7749C13.0292 10.3535 12.9238 9.86103 12.9238 9.29759C12.9238 8.73177 13.0292 8.23698 13.2399 7.81321C13.4506 7.38944 13.7465 7.06037 14.1277 6.82599C14.5088 6.59162 14.9551 6.47443 15.4664 6.47443C15.9778 6.47443 16.4241 6.59162 16.8052 6.82599C17.1864 7.06037 17.4823 7.38944 17.693 7.81321C17.9037 8.23698 18.0091 8.73177 18.0091 9.29759C18.0091 9.86103 17.9037 10.3535 17.693 10.7749C17.4823 11.1963 17.1864 11.5241 16.8052 11.7585C16.4241 11.9929 15.9778 12.1101 15.4664 12.1101ZM15.47 11.2188C15.8014 11.2188 16.0761 11.1312 16.2939 10.956C16.5117 10.7808 16.6726 10.5476 16.7768 10.2564C16.8833 9.9652 16.9366 9.64441 16.9366 9.29403C16.9366 8.94602 16.8833 8.62642 16.7768 8.33523C16.6726 8.04167 16.5117 7.80611 16.2939 7.62855C16.0761 7.45099 15.8014 7.36222 15.47 7.36222C15.1362 7.36222 14.8592 7.45099 14.639 7.62855C14.4212 7.80611 14.2591 8.04167 14.1525 8.33523C14.0484 8.62642 13.9963 8.94602 13.9963 9.29403C13.9963 9.64441 14.0484 9.9652 14.1525 10.2564C14.2591 10.5476 14.4212 10.7808 14.639 10.956C14.8592 11.1312 15.1362 11.2188 15.47 11.2188ZM19.1942 12V6.54545H20.256V12H19.1942ZM19.7305 5.70384C19.5458 5.70384 19.3872 5.64228 19.2546 5.51918C19.1244 5.3937 19.0593 5.24455 19.0593 5.07173C19.0593 4.89654 19.1244 4.7474 19.2546 4.62429C19.3872 4.49882 19.5458 4.43608 19.7305 4.43608C19.9151 4.43608 20.0726 4.49882 20.2028 4.62429C20.3353 4.7474 20.4016 4.89654 20.4016 5.07173C20.4016 5.24455 20.3353 5.3937 20.2028 5.51918C20.0726 5.64228 19.9151 5.70384 19.7305 5.70384ZM23.7264 12.1065C23.286 12.1065 22.8931 11.9941 22.5474 11.7692C22.2041 11.5419 21.9342 11.2187 21.7377 10.7997C21.5436 10.3783 21.4466 9.87287 21.4466 9.28338C21.4466 8.69389 21.5448 8.18963 21.7413 7.7706C21.9402 7.35156 22.2124 7.03078 22.5581 6.80824C22.9037 6.5857 23.2955 6.47443 23.7335 6.47443C24.072 6.47443 24.3443 6.53125 24.5502 6.64489C24.7586 6.75616 24.9196 6.88636 25.0332 7.03551C25.1492 7.18466 25.2392 7.31605 25.3031 7.42969H25.367V4.72727H26.4288V12H25.3919V11.1513H25.3031C25.2392 11.2673 25.1468 11.3999 25.0261 11.549C24.9077 11.6982 24.7444 11.8284 24.536 11.9396C24.3277 12.0509 24.0578 12.1065 23.7264 12.1065ZM23.9608 11.201C24.2662 11.201 24.5242 11.1205 24.7349 10.9595C24.948 10.7962 25.109 10.5701 25.2179 10.2812C25.3291 9.99242 25.3848 9.65625 25.3848 9.27273C25.3848 8.89394 25.3303 8.5625 25.2214 8.27841C25.1125 7.99432 24.9527 7.77296 24.742 7.61435C24.5313 7.45573 24.2709 7.37642 23.9608 7.37642C23.6412 7.37642 23.3748 7.45928 23.1618 7.625C22.9487 7.79072 22.7877 8.01681 22.6788 8.30327C22.5723 8.58973 22.519 8.91288 22.519 9.27273C22.519 9.63731 22.5734 9.9652 22.6824 10.2564C22.7913 10.5476 22.9522 10.7784 23.1653 10.9489C23.3807 11.117 23.6459 11.201 23.9608 11.201Z" fill="white"/>
</svg>
