<svg width="13" height="15" viewBox="0 0 13 15" xmlns="http://www.w3.org/2000/svg">
<path d="M9.97089 6.18718H9.17135V4.95502H9.99354C10.1506 4.95502 10.2857 4.98295 10.399 5.03882C10.5137 5.09469 10.6021 5.1717 10.664 5.26985C10.7259 5.368 10.7568 5.48125 10.7568 5.6096C10.7568 5.78476 10.6942 5.92519 10.5688 6.03089C10.4435 6.13508 10.2442 6.18718 9.97089 6.18718Z"/>
<path d="M9.89841 4.29137H9.17135V3.14302H9.91653C10.134 3.14302 10.3016 3.19436 10.4194 3.29704C10.5386 3.39972 10.5983 3.53486 10.5983 3.70247C10.5983 3.82478 10.5673 3.92973 10.5054 4.01731C10.445 4.10489 10.362 4.17284 10.2563 4.22116C10.1521 4.26797 10.0328 4.29137 9.89841 4.29137Z"/>
<path fill-rule="evenodd" clip-rule="evenodd" d="M2.6717 0C2.02969 0 1.50924 0.52222 1.50924 1.16641V12.6798C1.50924 13.3239 2.02969 13.8462 2.6717 13.8462L10.8089 13.8462L12.5487 12.1025V1.16641C12.5487 0.522221 12.0282 0 11.3862 0H2.6717ZM2.5716 1.79379C2.5716 1.47443 2.85653 1.29768 3.09836 1.29768H7.55345C7.79527 1.29768 8.08021 1.47442 8.08021 1.79379C8.08021 2.11315 7.79527 2.2899 7.55345 2.2899H3.09836C2.85653 2.2899 2.5716 2.11315 2.5716 1.79379ZM2.5716 4.27039C2.5716 3.95103 2.85653 3.77428 3.09836 3.77428H6.01499C6.25681 3.77428 6.54175 3.95103 6.54175 4.27039C6.54175 4.58976 6.25681 4.7665 6.01499 4.7665H3.09836C2.85653 4.7665 2.5716 4.58976 2.5716 4.27039ZM2.5716 6.69228C2.5716 6.37292 2.85653 6.19617 3.09836 6.19617H6.97653C7.21835 6.19617 7.50329 6.37292 7.50329 6.69228C7.50329 7.01165 7.21835 7.18839 6.97653 7.18839H3.09836C2.85653 7.18839 2.5716 7.01164 2.5716 6.69228ZM2.5716 9.16889C2.5716 8.84953 2.85653 8.67278 3.09836 8.67278H10.9598C11.2016 8.67278 11.4865 8.84953 11.4865 9.16889C11.4865 9.48825 11.2016 9.665 10.9598 9.665H3.09836C2.85653 9.665 2.5716 9.48825 2.5716 9.16889ZM2.5716 11.5908C2.5716 11.2714 2.85653 11.0947 3.09836 11.0947H10.9598C11.2016 11.0947 11.4865 11.2714 11.4865 11.5908C11.4865 11.9101 11.2016 12.0869 10.9598 12.0869H3.09836C2.85653 12.0869 2.5716 11.9101 2.5716 11.5908ZM8.1906 2.35027V6.98898H10.1725C10.5198 6.98898 10.812 6.93311 11.049 6.82137C11.2861 6.70963 11.465 6.55788 11.5858 6.36611C11.7081 6.17283 11.7693 5.95313 11.7693 5.707C11.7693 5.47899 11.721 5.28269 11.6243 5.1181C11.5277 4.952 11.4016 4.82289 11.2461 4.73078C11.0921 4.63867 10.9267 4.58884 10.75 4.58129V4.53599C10.9116 4.49975 11.0551 4.4386 11.1804 4.35253C11.3072 4.26495 11.4069 4.15321 11.4794 4.01731C11.5519 3.8799 11.5881 3.72059 11.5881 3.53939C11.5881 3.30685 11.5307 3.10149 11.416 2.92331C11.3012 2.74362 11.1298 2.60319 10.9018 2.50202C10.6738 2.40085 10.3892 2.35027 10.0479 2.35027H8.1906Z"/>
<path d="M0.932318 1.74332C0.932318 1.53932 0.984512 1.34755 1.07623 1.18073C0.554032 1.29523 0.163086 1.76193 0.163086 2.32025V13.8336C0.163086 14.4778 0.683537 15 1.32555 15L9.46279 15L10.0384 14.4231L2.09478 14.4231C1.45277 14.4231 0.932318 13.9009 0.932318 13.2567V1.74332Z"/>
</svg>
