<svg width="202" height="202" viewBox="0 0 202 202" fill="none" xmlns="http://www.w3.org/2000/svg">
<circle cx="101" cy="101" r="101" fill="#2C3538"/>
<path fill-rule="evenodd" clip-rule="evenodd" d="M138.991 69.5987V128.695C138.991 133.339 135.192 137.138 130.549 137.138H71.4517C66.8084 137.138 63.0093 133.339 63.0093 128.695V69.5987C63.0093 64.9553 66.8084 61.1562 71.4517 61.1562H130.549C135.192 61.1562 138.991 64.9553 138.991 69.5987ZM96.779 118.184L87.9145 107.504C87.028 106.449 85.424 106.491 84.6219 107.589L74.1111 121.097C73.0136 122.49 73.9845 124.516 75.7574 124.516H126.37C128.1 124.516 129.113 122.532 128.058 121.139L113.242 101.384C112.397 100.244 110.709 100.244 109.865 101.341L96.779 118.184Z" fill="#4D585D"/>
<rect x="23" y="23" width="156" height="156" rx="20" fill="#2C3538"/>
<rect x="48" y="36" width="106" height="107.828" rx="53" fill="#2C3538"/>
<path d="M74.7203 98.4259C74.7203 96.5914 75.8916 95.1042 77.3364 95.1042H124.426C125.871 95.1042 127.042 96.5914 127.042 98.4259V121.678C127.042 123.513 125.871 125 124.426 125H77.3364C75.8916 125 74.7203 123.513 74.7203 121.678V98.4259Z" fill="#FFC600"/>
<path d="M74.7203 85.7229C74.7203 87.5575 75.8916 89.0447 77.3364 89.0447H124.426C125.871 89.0447 127.042 87.5574 127.042 85.7229V82.4011C127.042 80.5666 125.871 79.0794 124.426 79.0794H77.3364C75.8916 79.0794 74.7203 80.5666 74.7203 82.4011V85.7229Z" fill="#FFC600"/>
<path fill-rule="evenodd" clip-rule="evenodd" d="M100.881 76.5565C97.9223 72.5762 93.0625 67.935 88.8158 65.9375C85.732 64.487 80.8455 64.7334 79.125 68.125C77.3485 71.6269 78.5607 75.7451 81.9771 77.8489C83.7398 78.9344 86.0582 79.6396 88.4203 80.0983C93.0883 81.0048 98.3348 81.0216 100.881 80.7467C103.427 81.0216 108.674 81.0048 113.342 80.0983C115.704 79.6396 118.022 78.9344 119.785 77.8489C123.201 75.7451 124.651 71.6269 122.875 68.125C121.124 64.6738 115.789 64.4689 112.667 65.9375C108.42 67.935 103.84 72.5762 100.881 76.5565ZM81.7366 69.7646C82.8868 67.4972 86.3384 68.8276 88.0002 69.6092C91.4486 71.2312 95.3001 74.4012 97.9792 77.577C95.4041 77.6107 91.9641 77.4261 88.8158 76.8148C86.5452 76.3738 84.5307 75.7296 83.1187 74.8601C81.2491 73.7088 80.7263 71.7561 81.7366 69.7646ZM120.025 69.7646C118.875 67.4972 115.424 68.8276 113.762 69.6092C110.313 71.2312 106.462 74.4012 103.783 77.577C106.358 77.6107 109.798 77.4261 112.946 76.8148C115.217 76.3738 117.231 75.7296 118.643 74.8601C120.513 73.7088 121.036 71.7561 120.025 69.7646Z" fill="#FFC600"/>
<path d="M127.959 56.0077C128.394 54.6641 130.288 54.6641 130.723 56.0077L131.299 57.7852C131.494 58.386 132.052 58.7929 132.681 58.7929H134.544C135.952 58.7929 136.537 60.6006 135.398 61.431L133.891 62.5296C133.382 62.9009 133.169 63.5592 133.363 64.16L133.939 65.9375C134.374 67.2811 132.841 68.3983 131.702 67.568L130.195 66.4694C129.686 66.0981 128.996 66.0981 128.487 66.4694L126.98 67.568C125.841 68.3983 124.308 67.2811 124.743 65.9375L125.319 64.16C125.514 63.5592 125.3 62.9009 124.791 62.5296L123.284 61.431C122.145 60.6006 122.73 58.7929 124.138 58.7929H126.001C126.631 58.7929 127.189 58.386 127.383 57.7852L127.959 56.0077Z" fill="#FFC600"/>
<path d="M108.121 55.5717C108.358 54.8094 109.392 54.8094 109.629 55.5717L109.943 56.5801C110.05 56.9209 110.354 57.1517 110.698 57.1517H111.714C112.482 57.1517 112.802 58.1773 112.18 58.6484L111.358 59.2716C111.08 59.4822 110.964 59.8557 111.07 60.1966L111.384 61.2049C111.621 61.9672 110.785 62.601 110.163 62.1299L109.341 61.5067C109.063 61.296 108.687 61.296 108.409 61.5067L107.587 62.1299C106.965 62.601 106.129 61.9672 106.366 61.2049L106.68 60.1966C106.787 59.8557 106.67 59.4822 106.392 59.2716L105.57 58.6484C104.948 58.1773 105.268 57.1517 106.036 57.1517H107.052C107.396 57.1517 107.701 56.9209 107.807 56.5801L108.121 55.5717Z" fill="#FFC600"/>
<path d="M74.0411 66.8455C73.6061 68.1891 71.7117 68.1891 71.2766 66.8455L70.7011 65.068C70.5065 64.4671 69.9484 64.0603 69.3188 64.0603H67.4562C66.0482 64.0603 65.4629 62.2525 66.6019 61.4222L68.1088 60.3236C68.6182 59.9523 68.8313 59.294 68.6368 58.6931L68.0612 56.9157C67.6261 55.5721 69.1587 54.4548 70.2977 55.2852L71.8046 56.3837C72.314 56.7551 73.0038 56.7551 73.5132 56.3837L75.0201 55.2852C76.1591 54.4548 77.6917 55.5721 77.2566 56.9157L76.681 58.6931C76.4864 59.294 76.6996 59.9523 77.209 60.3236L78.7159 61.4222C79.8549 62.2525 79.2695 64.0603 77.8616 64.0603H75.999C75.3693 64.0603 74.8113 64.4671 74.6167 65.068L74.0411 66.8455Z" fill="#FFC600"/>
<path d="M93.8792 62.9065C93.6418 63.6687 92.6081 63.6687 92.3707 62.9065L92.0567 61.8981C91.9505 61.5572 91.646 61.3264 91.3024 61.3264H90.2861C89.5178 61.3264 89.1984 60.3009 89.8199 59.8298L90.6422 59.2066C90.9201 58.9959 91.0364 58.6225 90.9303 58.2816L90.6162 57.2732C90.3788 56.511 91.215 55.8772 91.8366 56.3483L92.6588 56.9715C92.9368 57.1821 93.3132 57.1821 93.5911 56.9715L94.4134 56.3483C95.0349 55.8772 95.8711 56.511 95.6337 57.2732L95.3197 58.2816C95.2135 58.6225 95.3298 58.9959 95.6078 59.2066L96.43 59.8298C97.0515 60.3009 96.7321 61.3264 95.9639 61.3264H94.9475C94.6039 61.3264 94.2994 61.5572 94.1933 61.8981L93.8792 62.9065Z" fill="#FFC600"/>
<rect x="107" y="96" width="29" height="29" rx="14.5" fill="#BE202F"/>
<path d="M121.536 100.234C115.93 100.079 111.337 104.598 111.337 110.201H109.365C108.869 110.201 108.627 110.799 108.979 111.142L112.052 114.243C112.273 114.465 112.614 114.465 112.835 114.243L115.908 111.142C116.26 110.799 116.007 110.201 115.522 110.201H113.539C113.539 105.882 117.042 102.394 121.36 102.449C125.457 102.505 128.905 105.971 128.96 110.09C129.015 114.42 125.545 117.953 121.25 117.953C119.476 117.953 117.835 117.344 116.535 116.314C116.095 115.971 115.478 116.004 115.082 116.403C114.619 116.879 114.652 117.654 115.17 118.064C116.844 119.382 118.959 120.168 121.25 120.168C126.812 120.168 131.317 115.55 131.163 109.913C131.02 104.719 126.702 100.378 121.536 100.234Z" fill="#FFC600"/>
<path d="M120.705 105.977C120.254 105.977 119.879 106.354 119.879 106.808V110.883C119.879 111.271 120.088 111.636 120.419 111.835L123.855 113.884C124.252 114.117 124.759 113.984 124.99 113.596C125.221 113.197 125.089 112.688 124.703 112.455L121.531 110.562V106.797C121.531 106.354 121.168 105.977 120.705 105.977Z" fill="#FFC600"/>
<path d="M64.3468 158V149.273H67.6877C68.3184 149.273 68.8425 149.372 69.2602 149.571C69.6806 149.767 69.9945 150.036 70.2019 150.376C70.4122 150.717 70.5173 151.104 70.5173 151.536C70.5173 151.891 70.4491 152.195 70.3127 152.447C70.1764 152.697 69.9931 152.901 69.763 153.057C69.5329 153.213 69.2758 153.325 68.9917 153.393V153.479C69.3014 153.496 69.5982 153.591 69.8823 153.764C70.1693 153.935 70.4036 154.176 70.5854 154.489C70.7673 154.801 70.8582 155.179 70.8582 155.622C70.8582 156.074 70.7488 156.48 70.53 156.841C70.3113 157.199 69.9818 157.482 69.5414 157.689C69.1011 157.896 68.5471 158 67.8795 158H64.3468ZM65.9278 156.679H67.6281C68.2019 156.679 68.6153 156.57 68.8681 156.351C69.1238 156.129 69.2516 155.845 69.2516 155.499C69.2516 155.24 69.1877 155.007 69.0599 154.8C68.932 154.589 68.7502 154.425 68.5144 154.305C68.2786 154.183 67.9974 154.122 67.6707 154.122H65.9278V156.679ZM65.9278 152.984H67.4917C67.7644 152.984 68.0102 152.935 68.2289 152.835C68.4477 152.733 68.6195 152.589 68.7445 152.405C68.8724 152.217 68.9363 151.996 68.9363 151.74C68.9363 151.402 68.817 151.124 68.5783 150.905C68.3425 150.686 67.9917 150.577 67.5258 150.577H65.9278V152.984ZM74.3005 158.128C73.6613 158.128 73.1073 157.987 72.6385 157.706C72.1698 157.425 71.8061 157.031 71.5476 156.526C71.2919 156.02 71.1641 155.429 71.1641 154.753C71.1641 154.077 71.2919 153.484 71.5476 152.976C71.8061 152.467 72.1698 152.072 72.6385 151.791C73.1073 151.51 73.6613 151.369 74.3005 151.369C74.9397 151.369 75.4936 151.51 75.9624 151.791C76.4311 152.072 76.7934 152.467 77.049 152.976C77.3076 153.484 77.4368 154.077 77.4368 154.753C77.4368 155.429 77.3076 156.02 77.049 156.526C76.7934 157.031 76.4311 157.425 75.9624 157.706C75.4936 157.987 74.9397 158.128 74.3005 158.128ZM74.309 156.892C74.6556 156.892 74.9453 156.797 75.1783 156.607C75.4113 156.413 75.5846 156.155 75.6982 155.831C75.8147 155.507 75.8729 155.146 75.8729 154.749C75.8729 154.348 75.8147 153.986 75.6982 153.662C75.5846 153.335 75.4113 153.075 75.1783 152.882C74.9453 152.689 74.6556 152.592 74.309 152.592C73.9539 152.592 73.6584 152.689 73.4226 152.882C73.1897 153.075 73.0149 153.335 72.8985 153.662C72.7848 153.986 72.728 154.348 72.728 154.749C72.728 155.146 72.7848 155.507 72.8985 155.831C73.0149 156.155 73.1897 156.413 73.4226 156.607C73.6584 156.797 73.9539 156.892 74.309 156.892ZM79.5687 154.165V158H78.0261V151.455H79.5006V152.567H79.5773C79.7278 152.2 79.9679 151.909 80.2974 151.693C80.6298 151.477 81.0403 151.369 81.529 151.369C81.9807 151.369 82.3741 151.466 82.7094 151.659C83.0474 151.852 83.3088 152.132 83.4935 152.499C83.681 152.865 83.7733 153.31 83.7704 153.832V158H82.2278V154.071C82.2278 153.634 82.1142 153.291 81.8869 153.044C81.6625 152.797 81.3514 152.673 80.9537 152.673C80.6838 152.673 80.4437 152.733 80.2335 152.852C80.0261 152.969 79.8628 153.138 79.7435 153.359C79.627 153.581 79.5687 153.849 79.5687 154.165ZM88.7905 155.247V151.455H90.3331V158H88.8374V156.837H88.7692C88.6215 157.203 88.3786 157.503 88.0405 157.736C87.7053 157.969 87.2919 158.085 86.8004 158.085C86.3715 158.085 85.9922 157.99 85.6627 157.8C85.336 157.607 85.0803 157.327 84.8956 156.96C84.711 156.591 84.6186 156.145 84.6186 155.622V151.455H86.1612V155.384C86.1612 155.798 86.2749 156.128 86.5022 156.372C86.7294 156.616 87.0277 156.739 87.397 156.739C87.6243 156.739 87.8445 156.683 88.0575 156.572C88.2706 156.462 88.4453 156.297 88.5817 156.078C88.7209 155.857 88.7905 155.58 88.7905 155.247ZM96.3727 153.185L94.9665 153.338C94.9267 153.196 94.8571 153.062 94.7576 152.938C94.6611 152.812 94.5304 152.712 94.3656 152.635C94.2008 152.558 93.9991 152.52 93.7605 152.52C93.4395 152.52 93.1696 152.589 92.9508 152.729C92.7349 152.868 92.6284 153.048 92.6312 153.27C92.6284 153.46 92.698 153.615 92.84 153.734C92.9849 153.854 93.2236 153.952 93.5559 154.028L94.6724 154.267C95.2917 154.401 95.752 154.612 96.0531 154.902C96.3571 155.192 96.5105 155.571 96.5133 156.04C96.5105 156.452 96.3898 156.815 96.1511 157.131C95.9153 157.443 95.5872 157.687 95.1667 157.864C94.7463 158.04 94.2633 158.128 93.7179 158.128C92.9167 158.128 92.2719 157.96 91.7832 157.625C91.2946 157.287 91.0034 156.817 90.9096 156.214L92.4139 156.07C92.4821 156.365 92.627 156.588 92.8486 156.739C93.0701 156.889 93.3585 156.964 93.7136 156.964C94.0801 156.964 94.3741 156.889 94.5957 156.739C94.8201 156.588 94.9324 156.402 94.9324 156.18C94.9324 155.993 94.8599 155.838 94.715 155.716C94.573 155.594 94.3514 155.5 94.0503 155.435L92.9338 155.2C92.3059 155.07 91.8415 154.849 91.5403 154.54C91.2392 154.227 91.09 153.832 91.0929 153.355C91.09 152.952 91.1994 152.602 91.421 152.307C91.6454 152.009 91.9565 151.778 92.3542 151.616C92.7548 151.452 93.2165 151.369 93.7392 151.369C94.5062 151.369 95.1099 151.533 95.5503 151.859C95.9934 152.186 96.2676 152.628 96.3727 153.185ZM99.3901 158V149.273H100.971V152.967H105.015V149.273H106.6V158H105.015V154.293H100.971V158H99.3901ZM107.532 158V151.455H109.074V158H107.532ZM108.307 150.526C108.063 150.526 107.853 150.445 107.676 150.283C107.5 150.118 107.412 149.92 107.412 149.69C107.412 149.457 107.5 149.26 107.676 149.098C107.853 148.933 108.063 148.851 108.307 148.851C108.554 148.851 108.765 148.933 108.938 149.098C109.114 149.26 109.202 149.457 109.202 149.69C109.202 149.92 109.114 150.118 108.938 150.283C108.765 150.445 108.554 150.526 108.307 150.526ZM115.114 153.185L113.708 153.338C113.668 153.196 113.598 153.062 113.499 152.938C113.402 152.812 113.271 152.712 113.107 152.635C112.942 152.558 112.74 152.52 112.502 152.52C112.181 152.52 111.911 152.589 111.692 152.729C111.476 152.868 111.369 153.048 111.372 153.27C111.369 153.46 111.439 153.615 111.581 153.734C111.726 153.854 111.965 153.952 112.297 154.028L113.414 154.267C114.033 154.401 114.493 154.612 114.794 154.902C115.098 155.192 115.252 155.571 115.254 156.04C115.252 156.452 115.131 156.815 114.892 157.131C114.656 157.443 114.328 157.687 113.908 157.864C113.487 158.04 113.004 158.128 112.459 158.128C111.658 158.128 111.013 157.96 110.524 157.625C110.036 157.287 109.744 156.817 109.651 156.214L111.155 156.07C111.223 156.365 111.368 156.588 111.59 156.739C111.811 156.889 112.1 156.964 112.455 156.964C112.821 156.964 113.115 156.889 113.337 156.739C113.561 156.588 113.673 156.402 113.673 156.18C113.673 155.993 113.601 155.838 113.456 155.716C113.314 155.594 113.092 155.5 112.791 155.435L111.675 155.2C111.047 155.07 110.583 154.849 110.281 154.54C109.98 154.227 109.831 153.832 109.834 153.355C109.831 152.952 109.941 152.602 110.162 152.307C110.387 152.009 110.698 151.778 111.095 151.616C111.496 151.452 111.958 151.369 112.48 151.369C113.247 151.369 113.851 151.533 114.291 151.859C114.735 152.186 115.009 152.628 115.114 153.185ZM119.075 151.455V152.648H115.312V151.455H119.075ZM116.241 149.886H117.784V156.031C117.784 156.239 117.815 156.398 117.877 156.509C117.943 156.616 118.028 156.69 118.133 156.73C118.238 156.77 118.355 156.79 118.483 156.79C118.579 156.79 118.667 156.783 118.747 156.768C118.829 156.754 118.892 156.741 118.934 156.73L119.194 157.936C119.112 157.964 118.994 157.996 118.841 158.03C118.69 158.064 118.505 158.084 118.287 158.089C117.9 158.101 117.552 158.043 117.243 157.915C116.933 157.784 116.687 157.582 116.505 157.31C116.326 157.037 116.238 156.696 116.241 156.287V149.886ZM122.43 158.128C121.791 158.128 121.237 157.987 120.768 157.706C120.299 157.425 119.936 157.031 119.677 156.526C119.421 156.02 119.293 155.429 119.293 154.753C119.293 154.077 119.421 153.484 119.677 152.976C119.936 152.467 120.299 152.072 120.768 151.791C121.237 151.51 121.791 151.369 122.43 151.369C123.069 151.369 123.623 151.51 124.092 151.791C124.561 152.072 124.923 152.467 125.178 152.976C125.437 153.484 125.566 154.077 125.566 154.753C125.566 155.429 125.437 156.02 125.178 156.526C124.923 157.031 124.561 157.425 124.092 157.706C123.623 157.987 123.069 158.128 122.43 158.128ZM122.438 156.892C122.785 156.892 123.075 156.797 123.308 156.607C123.541 156.413 123.714 156.155 123.828 155.831C123.944 155.507 124.002 155.146 124.002 154.749C124.002 154.348 123.944 153.986 123.828 153.662C123.714 153.335 123.541 153.075 123.308 152.882C123.075 152.689 122.785 152.592 122.438 152.592C122.083 152.592 121.788 152.689 121.552 152.882C121.319 153.075 121.144 153.335 121.028 153.662C120.914 153.986 120.857 154.348 120.857 154.749C120.857 155.146 120.914 155.507 121.028 155.831C121.144 156.155 121.319 156.413 121.552 156.607C121.788 156.797 122.083 156.892 122.438 156.892ZM126.156 158V151.455H127.651V152.545H127.719C127.839 152.168 128.043 151.876 128.333 151.672C128.626 151.464 128.959 151.361 129.334 151.361C129.42 151.361 129.515 151.365 129.62 151.374C129.728 151.379 129.817 151.389 129.888 151.403V152.822C129.823 152.8 129.719 152.78 129.577 152.763C129.438 152.743 129.303 152.733 129.173 152.733C128.891 152.733 128.638 152.794 128.414 152.916C128.192 153.036 128.018 153.202 127.89 153.415C127.762 153.628 127.698 153.874 127.698 154.152V158H126.156ZM131.351 160.455C131.141 160.455 130.947 160.438 130.768 160.403C130.591 160.372 130.451 160.335 130.346 160.293L130.704 159.091C130.928 159.156 131.128 159.188 131.304 159.185C131.481 159.182 131.635 159.126 131.769 159.018C131.905 158.913 132.02 158.737 132.114 158.49L132.246 158.136L129.873 151.455H131.509L133.018 156.398H133.086L134.599 151.455H136.239L133.618 158.793C133.496 159.139 133.334 159.436 133.133 159.683C132.931 159.933 132.684 160.124 132.391 160.254C132.101 160.388 131.755 160.455 131.351 160.455Z" fill="#FFC600"/>
</svg>