<svg width="35" height="13" viewBox="0 0 35 13" fill="none" xmlns="http://www.w3.org/2000/svg">
<rect width="35" height="13" rx="2" fill="#A3A7AA"/>
<path d="M2.79901 10V2.72727H5.46236C5.97846 2.72727 6.40578 2.8125 6.74432 2.98295C7.08286 3.15104 7.33617 3.3795 7.50426 3.66832C7.67235 3.95478 7.75639 4.27794 7.75639 4.63778C7.75639 4.94081 7.70076 5.1965 7.58949 5.40483C7.47822 5.6108 7.32907 5.77651 7.14205 5.90199C6.95739 6.02509 6.75379 6.11506 6.53125 6.17188V6.2429C6.77273 6.25473 7.00829 6.33286 7.23793 6.47727C7.46993 6.61932 7.6617 6.82173 7.81321 7.08452C7.96473 7.3473 8.04048 7.6669 8.04048 8.04332C8.04048 8.41501 7.95289 8.74882 7.7777 9.04474C7.60488 9.3383 7.33736 9.5715 6.97514 9.74432C6.61293 9.91477 6.15009 10 5.58665 10H2.79901ZM3.89631 9.05895H5.48011C6.00568 9.05895 6.3821 8.95715 6.60938 8.75355C6.83665 8.54995 6.95028 8.29545 6.95028 7.99006C6.95028 7.76042 6.89228 7.54972 6.77628 7.35795C6.66027 7.16619 6.49455 7.01349 6.27912 6.89986C6.06605 6.78622 5.81274 6.7294 5.51918 6.7294H3.89631V9.05895ZM3.89631 5.87358H5.36648C5.61269 5.87358 5.83404 5.82623 6.03054 5.73153C6.2294 5.63684 6.38684 5.50426 6.50284 5.33381C6.62121 5.16098 6.6804 4.95739 6.6804 4.72301C6.6804 4.42235 6.57505 4.17022 6.36435 3.96662C6.15365 3.76302 5.83049 3.66122 5.39489 3.66122H3.89631V5.87358ZM11.5543 10.1101C11.043 10.1101 10.5967 9.9929 10.2156 9.75852C9.8344 9.52415 9.53847 9.19626 9.32777 8.77486C9.11707 8.35346 9.01172 7.86103 9.01172 7.29759C9.01172 6.73177 9.11707 6.23698 9.32777 5.81321C9.53847 5.38944 9.8344 5.06037 10.2156 4.82599C10.5967 4.59162 11.043 4.47443 11.5543 4.47443C12.0657 4.47443 12.512 4.59162 12.8931 4.82599C13.2743 5.06037 13.5702 5.38944 13.7809 5.81321C13.9916 6.23698 14.0969 6.73177 14.0969 7.29759C14.0969 7.86103 13.9916 8.35346 13.7809 8.77486C13.5702 9.19626 13.2743 9.52415 12.8931 9.75852C12.512 9.9929 12.0657 10.1101 11.5543 10.1101ZM11.5579 9.21875C11.8893 9.21875 12.1639 9.13116 12.3817 8.95597C12.5996 8.78078 12.7605 8.54759 12.8647 8.25639C12.9712 7.9652 13.0245 7.64441 13.0245 7.29403C13.0245 6.94602 12.9712 6.62642 12.8647 6.33523C12.7605 6.04167 12.5996 5.80611 12.3817 5.62855C12.1639 5.45099 11.8893 5.36222 11.5579 5.36222C11.2241 5.36222 10.9471 5.45099 10.7269 5.62855C10.5091 5.80611 10.3469 6.04167 10.2404 6.33523C10.1362 6.62642 10.0842 6.94602 10.0842 7.29403C10.0842 7.64441 10.1362 7.9652 10.2404 8.25639C10.3469 8.54759 10.5091 8.78078 10.7269 8.95597C10.9471 9.13116 11.2241 9.21875 11.5579 9.21875ZM16.3439 6.76136V10H15.2821V4.54545H16.3013V5.43324H16.3688C16.4943 5.14441 16.6908 4.91241 16.9583 4.73722C17.2282 4.56203 17.5679 4.47443 17.9775 4.47443C18.3491 4.47443 18.6747 4.55256 18.954 4.70881C19.2334 4.86269 19.45 5.09233 19.6039 5.39773C19.7578 5.70312 19.8347 6.08073 19.8347 6.53054V10H18.7729V6.65838C18.7729 6.26302 18.6699 5.95407 18.464 5.73153C18.258 5.50663 17.9751 5.39418 17.6152 5.39418C17.369 5.39418 17.15 5.44744 16.9583 5.55398C16.7689 5.66051 16.6185 5.81676 16.5073 6.02273C16.3984 6.22633 16.3439 6.47254 16.3439 6.76136ZM24.714 7.73793V4.54545H25.7793V10H24.7353V9.0554H24.6784C24.553 9.34659 24.3517 9.58925 24.0748 9.78338C23.8001 9.97514 23.458 10.071 23.0485 10.071C22.6981 10.071 22.388 9.99408 22.1181 9.8402C21.8506 9.68395 21.6399 9.45312 21.486 9.14773C21.3345 8.84233 21.2587 8.46473 21.2587 8.01491V4.54545H22.3205V7.88707C22.3205 8.25876 22.4235 8.55469 22.6294 8.77486C22.8354 8.99503 23.1029 9.10511 23.432 9.10511C23.6309 9.10511 23.8285 9.0554 24.025 8.95597C24.2239 8.85653 24.3884 8.7062 24.5186 8.50497C24.6512 8.30374 24.7163 8.04806 24.714 7.73793ZM31.2933 5.87713L30.331 6.04759C30.2907 5.92448 30.2268 5.80729 30.1392 5.69602C30.054 5.58475 29.938 5.49361 29.7912 5.42259C29.6444 5.35156 29.4609 5.31605 29.2408 5.31605C28.9401 5.31605 28.6892 5.38352 28.4879 5.51847C28.2867 5.65104 28.1861 5.82268 28.1861 6.03338C28.1861 6.21567 28.2536 6.36245 28.3885 6.47372C28.5234 6.58499 28.7412 6.67614 29.0419 6.74716L29.9084 6.94602C30.4103 7.06203 30.7843 7.24077 31.0305 7.48224C31.2768 7.72372 31.3999 8.03741 31.3999 8.4233C31.3999 8.75 31.3052 9.04119 31.1158 9.29688C30.9287 9.55019 30.6671 9.74905 30.331 9.89347C29.9972 10.0379 29.6101 10.1101 29.1697 10.1101C28.5589 10.1101 28.0606 9.97988 27.6747 9.71946C27.2888 9.45668 27.0521 9.08381 26.9645 8.60085L27.9908 8.4446C28.0547 8.71212 28.1861 8.91454 28.3849 9.05185C28.5838 9.18679 28.843 9.25426 29.1626 9.25426C29.5107 9.25426 29.7888 9.18205 29.9972 9.03764C30.2055 8.89086 30.3097 8.71212 30.3097 8.50142C30.3097 8.33097 30.2457 8.18774 30.1179 8.07173C29.9924 7.95573 29.7995 7.86813 29.5391 7.80895L28.6158 7.60653C28.1068 7.49053 27.7304 7.30587 27.4865 7.05256C27.245 6.79924 27.1243 6.47846 27.1243 6.0902C27.1243 5.76823 27.2143 5.48651 27.3942 5.24503C27.5741 5.00355 27.8227 4.81534 28.1399 4.6804C28.4571 4.54309 28.8205 4.47443 29.2301 4.47443C29.8196 4.47443 30.2836 4.60227 30.6222 4.85795C30.9607 5.11127 31.1844 5.45099 31.2933 5.87713Z" fill="#2C3538"/>
</svg>
