<svg width="10" height="13" viewBox="0 0 10 13" fill="none" xmlns="http://www.w3.org/2000/svg">
<rect width="10" height="13" rx="2" fill="#A3A7AA"/>
<path d="M2.79901 10V2.72727H5.46236C5.97846 2.72727 6.40578 2.8125 6.74432 2.98295C7.08286 3.15104 7.33617 3.3795 7.50426 3.66832C7.67235 3.95478 7.75639 4.27794 7.75639 4.63778C7.75639 4.94081 7.70076 5.1965 7.58949 5.40483C7.47822 5.6108 7.32907 5.77651 7.14205 5.90199C6.95739 6.02509 6.75379 6.11506 6.53125 6.17188V6.2429C6.77273 6.25473 7.00829 6.33286 7.23793 6.47727C7.46993 6.61932 7.6617 6.82173 7.81321 7.08452C7.96473 7.3473 8.04048 7.6669 8.04048 8.04332C8.04048 8.41501 7.95289 8.74882 7.7777 9.04474C7.60488 9.3383 7.33736 9.5715 6.97514 9.74432C6.61293 9.91477 6.15009 10 5.58665 10H2.79901ZM3.89631 9.05895H5.48011C6.00568 9.05895 6.3821 8.95715 6.60938 8.75355C6.83665 8.54995 6.95028 8.29545 6.95028 7.99006C6.95028 7.76042 6.89228 7.54972 6.77628 7.35795C6.66027 7.16619 6.49455 7.01349 6.27912 6.89986C6.06605 6.78622 5.81274 6.7294 5.51918 6.7294H3.89631V9.05895ZM3.89631 5.87358H5.36648C5.61269 5.87358 5.83404 5.82623 6.03054 5.73153C6.2294 5.63684 6.38684 5.50426 6.50284 5.33381C6.62121 5.16098 6.6804 4.95739 6.6804 4.72301C6.6804 4.42235 6.57505 4.17022 6.36435 3.96662C6.15365 3.76302 5.83049 3.66122 5.39489 3.66122H3.89631V5.87358Z" fill="#2C3538"/>
</svg>
