<svg
    xmlns="http://www.w3.org/2000/svg"
    width="12"
    height="12"
    viewBox="0 0 12 12"
    fill="none"
    >
    <g clip-path="url(#clip0_5153_16926)">
        <path
        d="M3.5 5.5H4.5V6.5H3.5V5.5ZM10.5 3V10C10.5 10.55 10.05 11 9.5 11H2.5C1.945 11 1.5 10.55 1.5 10L1.505 3C1.505 2.45 1.945 2 2.5 2H3V1H4V2H8V1H9V2H9.5C10.05 2 10.5 2.45 10.5 3ZM2.5 4H9.5V3H2.5V4ZM9.5 10V5H2.5V10H9.5ZM7.5 6.5H8.5V5.5H7.5V6.5ZM5.5 6.5H6.5V5.5H5.5V6.5Z"
        fill="white"
        />
    </g>
    <defs>
        <clipPath id="clip0_5153_16926">
        <rect width="12" height="12" fill="white" />
        </clipPath>
    </defs>
</svg>