<svg width="36" height="20" viewBox="0 0 36 20" fill="none" xmlns="http://www.w3.org/2000/svg">
<rect x="0.5" y="0.5" width="35" height="19" rx="3.5" fill="#2C3538"/>
<rect x="0.5" y="0.5" width="35" height="19" rx="3.5" stroke="#4D585D"/>
<path d="M17.4588 9.32812H15.5923C15.5582 9.08665 15.4886 8.87216 15.3835 8.68466C15.2784 8.49432 15.1435 8.33239 14.9787 8.19886C14.8139 8.06534 14.6236 7.96307 14.4077 7.89205C14.1946 7.82102 13.9631 7.78551 13.7131 7.78551C13.2614 7.78551 12.8679 7.89773 12.5327 8.12216C12.1974 8.34375 11.9375 8.66761 11.7528 9.09375C11.5682 9.51705 11.4759 10.0312 11.4759 10.6364C11.4759 11.2585 11.5682 11.7812 11.7528 12.2045C11.9403 12.6278 12.2017 12.9474 12.5369 13.1634C12.8722 13.3793 13.2599 13.4872 13.7003 13.4872C13.9474 13.4872 14.1761 13.4545 14.3864 13.3892C14.5994 13.3239 14.7884 13.2287 14.9531 13.1037C15.1179 12.9759 15.2543 12.821 15.3622 12.6392C15.473 12.4574 15.5497 12.25 15.5923 12.017L17.4588 12.0256C17.4105 12.4261 17.2898 12.8125 17.0966 13.1847C16.9063 13.554 16.6491 13.8849 16.3253 14.1776C16.0043 14.4673 15.6207 14.6974 15.1747 14.8679C14.7315 15.0355 14.2301 15.1193 13.6705 15.1193C12.892 15.1193 12.196 14.9432 11.5824 14.5909C10.9716 14.2386 10.4886 13.7287 10.1335 13.0611C9.78125 12.3935 9.60511 11.5852 9.60511 10.6364C9.60511 9.68466 9.78409 8.875 10.142 8.20739C10.5 7.53977 10.9858 7.03125 11.5994 6.68182C12.2131 6.32955 12.9034 6.15341 13.6705 6.15341C14.1761 6.15341 14.6449 6.22443 15.0767 6.36648C15.5114 6.50852 15.8963 6.71591 16.2315 6.98864C16.5668 7.25852 16.8395 7.58949 17.0497 7.98153C17.2628 8.37358 17.3991 8.82244 17.4588 9.32812ZM26.8018 10.6364C26.8018 11.5881 26.6214 12.3977 26.2607 13.0653C25.9027 13.733 25.4141 14.2429 24.7947 14.5952C24.1783 14.9446 23.4851 15.1193 22.7152 15.1193C21.9396 15.1193 21.2436 14.9432 20.6271 14.5909C20.0107 14.2386 19.5234 13.7287 19.1655 13.0611C18.8075 12.3935 18.6286 11.5852 18.6286 10.6364C18.6286 9.68466 18.8075 8.875 19.1655 8.20739C19.5234 7.53977 20.0107 7.03125 20.6271 6.68182C21.2436 6.32955 21.9396 6.15341 22.7152 6.15341C23.4851 6.15341 24.1783 6.32955 24.7947 6.68182C25.4141 7.03125 25.9027 7.53977 26.2607 8.20739C26.6214 8.875 26.8018 9.68466 26.8018 10.6364ZM24.9311 10.6364C24.9311 10.0199 24.8388 9.5 24.6541 9.0767C24.4723 8.65341 24.2152 8.33239 23.8828 8.11364C23.5504 7.89489 23.1612 7.78551 22.7152 7.78551C22.2692 7.78551 21.88 7.89489 21.5476 8.11364C21.2152 8.33239 20.9567 8.65341 20.772 9.0767C20.5902 9.5 20.4993 10.0199 20.4993 10.6364C20.4993 11.2528 20.5902 11.7727 20.772 12.196C20.9567 12.6193 21.2152 12.9403 21.5476 13.1591C21.88 13.3778 22.2692 13.4872 22.7152 13.4872C23.1612 13.4872 23.5504 13.3778 23.8828 13.1591C24.2152 12.9403 24.4723 12.6193 24.6541 12.196C24.8388 11.7727 24.9311 11.2528 24.9311 10.6364Z" fill="#4CAF50"/>
</svg>
