<svg xmlns="http://www.w3.org/2000/svg" width="24" height="24" viewBox="0 0 24 24" fill="none">
  <path fill-rule="evenodd" clip-rule="evenodd" d="M15.8812 7.43563C18.0981 7.43563 19.8952 5.61259 19.8952 3.36375C19.8952 2.14411 19.3666 1.04971 18.5291 0.303443C19.8302 -0.865408 22.3684 1.71938 22.3684 1.71938C22.3684 1.71938 24.8446 4.45959 23.696 5.61474C23.2673 6.04574 15.0854 13.6126 12.2181 16.2633C11.6657 16.774 10.8193 16.7465 10.2921 16.209C10.0998 16.013 9.92983 15.8399 9.7735 15.6809C9.59328 15.8443 9.41553 16.0132 9.24141 16.1883C6.50587 18.9383 4.86916 20.4798 3.66905 21.6102L3.66901 21.6102L3.6687 21.6105C3.39629 21.8671 3.14637 22.1025 2.9112 22.326L3.08253 22.4983C3.43471 22.8523 3.44793 23.4179 3.11214 23.7555C2.77636 24.093 2.21372 24.0792 1.86154 23.7257L0.273042 22.1288C-0.0791355 21.7748 -0.0923552 21.2091 0.24343 20.8716C0.579214 20.534 1.14185 20.5473 1.49403 20.9014L1.8388 21.248C2.06124 21.0114 2.29549 20.7601 2.55084 20.4861C3.67524 19.2797 5.20871 17.6343 7.94427 14.8843C8.11919 14.7084 8.28795 14.5289 8.4511 14.3469C8.29912 14.1948 8.13439 14.0302 7.94877 13.845C7.41028 13.3076 7.38489 12.4377 7.8987 11.876C9.03615 10.6325 11.0674 8.41248 13.0494 6.24947C13.7752 6.98254 14.7761 7.43563 15.8812 7.43563Z" fill="#FFC600"/>
  <path d="M15.1971 3.68193C14.7664 3.93369 14.2824 4.05863 13.7897 4.05863C13.385 4.05863 12.9746 3.97428 12.5831 3.80694C12.7944 5.43417 14.1536 6.69502 15.8099 6.72746C15.6943 5.49783 16.2391 4.33359 17.2323 3.75259C17.8242 3.40614 18.5094 3.29403 19.1956 3.42558C19.196 3.40506 19.1962 3.3845 19.1962 3.36389C19.1962 1.72272 18.0361 0.356017 16.5014 0.0593848C16.9121 1.48583 16.4 2.97834 15.1971 3.68193Z" fill="#FFC600"/>
  <path d="M15.8293 0C16.2906 1.22074 15.9045 2.54465 14.8878 3.13927C14.1959 3.5441 13.3201 3.5261 12.5645 3.10182C12.6953 1.38157 14.1033 0.0237674 15.8293 0Z" fill="#FFC600"/>
  <path d="M19.1268 4.05098C18.571 3.93412 18.0164 4.01773 17.5419 4.29524C16.756 4.75461 16.3286 5.6895 16.4269 6.68192C17.7765 6.45337 18.8505 5.40015 19.1268 4.05098Z" fill="#FFC600"/>
</svg>