<svg xmlns="http://www.w3.org/2000/svg" width="24" height="24" viewBox="0 0 24 24" fill="none">
  <path d="M3.55407 3.59875L3.53007 3.57175C2.68985 2.60366 0 2.56234 0 2.56234L2.59688 5.48277L4.6546 5.49704C5.32344 6.62966 6.97412 9.36751 7.90933 10.4192C9.71208 12.4466 11.8373 12.8832 11.8373 12.8832C11.8373 12.8832 11.6826 10.7563 9.87989 8.72894C8.93207 7.66303 6.35923 5.67186 5.32609 4.88679L5.58339 2.92043L2.98651 0C2.98651 0 2.68985 2.60365 3.55407 3.59875Z" fill="#FFC600"/>
  <path d="M23.9759 14.552C23.5886 20.1341 18.6259 24.3536 12.8914 23.9766C7.15686 23.5995 2.82215 18.7687 3.20949 13.1866C3.34626 11.2156 4.05344 9.41453 5.16362 7.92567C5.39499 8.27574 5.69091 8.71759 5.99754 9.16518C5.21347 10.3624 4.71785 11.7625 4.61263 13.2789C4.27763 18.1066 8.02658 22.2846 12.9861 22.6107C17.9457 22.9368 22.2378 19.2875 22.5728 14.4598C22.9078 9.63202 19.1588 5.454 14.1993 5.1279C12.1622 4.99396 10.2377 5.53069 8.65382 6.54429C8.23389 6.17543 7.84535 5.84137 7.57029 5.60724C9.45816 4.30168 11.8033 3.59828 14.2941 3.76205C20.0286 4.1391 24.3633 8.96993 23.9759 14.552Z" fill="#FFC600"/>
  <path d="M6.01577 13.3711C6.0899 12.3028 6.3937 11.3028 6.8771 10.4138C7.10229 10.721 7.29958 10.976 7.43971 11.1322C7.57194 11.2796 7.71564 11.4277 7.86981 11.5742C7.62168 12.1607 7.46524 12.7957 7.4189 13.4634C7.18859 16.7825 9.76603 19.6549 13.1757 19.879C16.5854 20.1032 19.5362 17.5943 19.7665 14.2753C19.9968 10.9562 17.4194 8.08378 14.0097 7.85959C12.8438 7.78293 11.7316 8.02583 10.7634 8.51139C10.5057 8.23641 10.1342 7.88064 9.7265 7.50584C11.0025 6.76975 12.5128 6.38909 14.1045 6.49375C18.2891 6.76889 21.4523 10.2941 21.1697 14.3675C20.887 18.4409 17.2655 21.52 13.0809 21.2449C8.89631 20.9697 5.73311 17.4446 6.01577 13.3711Z" fill="#FFC600"/>
  <path d="M8.82204 13.5556C8.84767 13.1863 8.91689 12.8299 9.02449 12.491C9.36696 12.7162 9.73486 12.9209 10.1228 13.0923C10.998 13.4792 12.2395 13.7346 12.7508 13.814C12.7325 13.4011 12.6511 12.4079 12.4721 11.7375C12.3241 11.1835 12.0088 10.3787 11.5852 9.64398C12.2902 9.32586 13.085 9.17087 13.915 9.22544C16.5497 9.39868 18.5414 11.6182 18.3634 14.183C18.1854 16.7477 15.9052 18.6864 13.2705 18.5132C10.6357 18.34 8.64407 16.1204 8.82204 13.5556Z" fill="#FFC600"/>
</svg>