<svg width="16" height="16" viewBox="0 0 16 16" fill="none" xmlns="http://www.w3.org/2000/svg">
<path fill-rule="evenodd" clip-rule="evenodd" d="M8 2.8877C4.68502 2.8877 1.69721 4.92886 0.5 7.98155C1.94993 11.8886 5.67317 13.1125 7.99991 13.1125C10.9999 13.1125 14.1003 11.4804 15.5 7.99541C13.7893 4.03459 10.5 2.8877 8 2.8877ZM11.4129 7.84172C11.4129 9.98949 9.9329 11.4165 7.99991 11.4165C6.06691 11.4165 4.57727 9.90912 4.57727 7.8278C4.57727 6.4356 6.06691 4.57177 7.99991 4.57177C9.53469 4.57177 11.3155 5.73951 11.4129 7.84172Z" fill="#FFC600"/>
<path d="M10.0759 7.9729C10.0759 9.1194 9.1465 10.0488 8 10.0488C6.8535 10.0488 5.92407 9.1194 5.92407 7.9729C5.92407 6.8264 6.8535 5.89697 8 5.89697C9.1465 5.89697 10.0759 6.8264 10.0759 7.9729Z" fill="#FFC600"/>
</svg>
