<svg width="11" height="16" viewBox="0 0 11 16" fill="none" xmlns="http://www.w3.org/2000/svg">
<path d="M10.3519 10.5244C10.495 7.53778 8.6444 5.83111 8.6444 5.83111C8.6444 5.83111 8.71639 6.50667 8.36083 7.18222C8.00528 7.85778 7.50662 8.03556 7.50662 8.03556C7.50662 8.03556 7.71996 5.04889 7.08083 3.12889C6.44171 1.20889 4.37773 0 4.37773 0C4.37773 0 4.88962 0.911094 3.7743 3.12889C2.93915 4.78957 0.538542 6.11556 0.040718 9.45778C-0.457106 12.8 3.7743 15.8026 3.7743 15.8026C3.7743 15.8026 2.3875 14.2933 2.3875 12.6578C2.3875 11.0222 3.24083 10.1689 3.24083 10.1689C3.24083 10.1689 3.27625 10.5244 3.52528 11.0933C3.7743 11.6622 4.37773 12.0889 4.37773 12.0889C4.37773 12.0889 3.80885 10.3822 4.09329 8.67556C4.37773 6.96889 5.72885 6.47111 5.72885 6.47111C5.72885 6.47111 5.37417 7.18222 5.72885 8.24889C6.08353 9.31556 7.57949 9.95556 8.00528 12.0889C8.43107 14.2222 6.51107 16 6.51107 16C6.51107 16 10.2088 13.5111 10.3519 10.5244Z" fill="#FF253A"/>
<path d="M9.20351 7.98C9.20351 7.98 9.61113 8.76 9.50063 11C9.39012 13.24 7.45675 15 7.45675 15C7.45675 15 8.00452 13.6667 7.67572 12.0667C7.34692 10.4667 5.69818 9.98667 5.42429 9.18667C5.1504 8.38667 5.42429 7.85333 5.42429 7.85333C5.42429 7.85333 4.38095 8.22667 4.16129 9.50667C3.94164 10.7867 4.38095 12.0667 4.38095 12.0667C4.38095 12.0667 4.00062 12 3.50062 11.5L3.00062 11C3.00062 11 2.50062 11.2733 2.50062 12.5C2.50062 13.7267 3.00062 15 3.00062 15C3.00062 15 0.967859 12.4733 1.49993 10.5C2.03201 8.52667 2.67737 7.8742 4.00063 7C5.21516 6.19762 5.57854 4.46199 5.46576 4.07103C5.439 4.02422 5.42429 4 5.42429 4C5.44175 4.01181 5.45566 4.03604 5.46576 4.07103C5.60272 4.31062 6.05544 5.14202 6.46831 6.34667C6.96185 7.78667 7 9.50667 7 9.50667C7 9.50667 8.20351 9.48 8.70351 8.98C9.20351 8.48 9.20351 7.98 9.20351 7.98Z" fill="#FFC600"/>
</svg>
