<svg width="24" height="24" viewBox="0 0 24 24" fill="none" xmlns="http://www.w3.org/2000/svg">
<path d="M12.335 1.65459C12.2119 1.90317 12.0935 2.14565 11.9853 2.36912L8.02692 3.80042C7.99875 3.79246 7.95919 3.78139 7.9094 3.76775C7.80408 3.73888 7.65282 3.69841 7.46665 3.65131C7.0949 3.55726 6.58102 3.43603 6.01404 3.32794C5.44874 3.22017 4.82063 3.12352 4.22276 3.08157L4.18029 3.07868L4.30473 2.79445C6.38987 1.05009 9.07651 0 12.0086 0C12.3971 0 12.7812 0.0184312 13.1602 0.0544662C13.1331 0.103909 13.106 0.153941 13.0788 0.204324C12.8398 0.647757 12.5775 1.16489 12.335 1.65459Z" fill="#1EAC50"/>
<path d="M14.4975 0.258063C14.4097 0.406406 14.3066 0.59005 14.1918 0.803234C13.9627 1.22833 13.7076 1.73086 13.468 2.21471C13.3599 2.43311 13.2553 2.64693 13.1582 2.84711L15.5755 5.10758C15.7483 5.13466 15.9849 5.17264 16.267 5.22017C16.8733 5.32234 17.6924 5.46914 18.5397 5.64722C19.3842 5.82469 20.2703 6.03601 21.0054 6.2687C21.1448 6.31282 21.2807 6.35832 21.4115 6.40521L21.7598 4.99481C20.0428 2.61248 17.4732 0.884774 14.4975 0.258063Z" fill="#1EAC50"/>
<path d="M24 12.6478L23.687 12.5891C23.6245 12.6974 23.5516 12.8228 23.47 12.9617C23.183 13.4504 22.7858 14.1099 22.3469 14.7908C21.9093 15.4696 21.4235 16.1799 20.9594 16.7654C20.7275 17.058 20.4941 17.3282 20.2689 17.5508C20.2194 17.5997 20.1686 17.6482 20.1165 17.6952L19.6361 20.4084L20.252 20.7261C22.4238 18.6766 23.8308 15.8263 24 12.6478Z" fill="#1EAC50"/>
<path d="M19.2049 21.6075L18.9835 21.4933L14.6626 23.3144L14.2863 23.7844C16.1051 23.4355 17.778 22.6765 19.2049 21.6075Z" fill="#1EAC50"/>
<path d="M12.5029 23.99L13.5852 22.6381L12.0134 20.9716C11.8883 20.9628 11.7393 20.9516 11.5703 20.9379C11.0308 20.894 10.285 20.8234 9.4596 20.7161C8.06724 20.5351 6.38247 20.2422 5.08755 19.7715L3.84816 20.8036C5.9903 22.7874 8.85773 24 12.0086 24C12.1742 24 12.3389 23.9967 12.5029 23.99Z" fill="#1EAC50"/>
<path d="M0.385532 15.0278L0.524444 13.6166C0.51745 13.5814 0.510258 13.5449 0.502892 13.507C0.419403 13.0772 0.313349 12.4715 0.222421 11.7648C0.1724 11.3761 0.126515 10.9535 0.0916262 10.5103C0.0311478 10.9984 0 11.4956 0 12C0 13.0459 0.13391 14.0606 0.385532 15.0278Z" fill="#1EAC50"/>
<path d="M7.15641 4.87583L7.17066 4.87944L7.24143 8.29738C6.49091 9.08867 5.37261 10.4638 4.42544 11.6611C3.89932 12.3261 3.41779 12.9468 3.06787 13.4011L3.06321 13.4071L1.68408 12.9477C1.6171 12.5775 1.54241 12.1186 1.47616 11.6038C1.40024 11.0137 1.10606 7.42105 1.25745 7.01752L3.48565 4.32438C3.68094 4.31923 3.8984 4.32508 4.13422 4.34162C4.66462 4.37884 5.23968 4.46625 5.77716 4.56872C6.31296 4.67087 6.80147 4.78604 7.15641 4.87583Z" fill="#1EAC50"/>
<path d="M5.41705 12.4444C6.31666 11.3073 7.32286 10.0714 8.0178 9.31714L12.4289 10.142C12.4857 10.297 12.5516 10.4771 12.6245 10.6772C12.8759 11.3672 13.211 12.2933 13.5459 13.2385C13.8812 14.1846 14.2149 15.1461 14.4643 15.9084C14.5821 16.2683 14.6795 16.5789 14.7489 16.8202L12.1196 19.7128C11.9954 19.7041 11.8449 19.6929 11.6728 19.6789C11.1479 19.6362 10.423 19.5675 9.62266 19.4635C8.25821 19.2861 6.73787 19.0134 5.60911 18.6168L3.89449 14.3992C3.94824 14.3292 4.00678 14.253 4.06959 14.1715C4.41725 13.7201 4.89527 13.104 5.41705 12.4444Z" fill="#1EAC50"/>
<path d="M13.8122 10.245C13.74 10.0467 13.6746 9.86785 13.6181 9.71357L15.8196 6.42624C15.8943 6.43853 15.9735 6.45171 16.0568 6.46574C16.6527 6.56617 17.4541 6.70986 18.2796 6.88334C19.108 7.05743 19.9471 7.25873 20.6237 7.47289C20.9465 7.57508 21.2199 7.67632 21.432 7.77377L22.7301 11.7171L22.7125 11.748C22.6341 11.8855 22.5204 12.083 22.3799 12.3223C22.0985 12.8013 21.7108 13.4451 21.2842 14.1067C20.8563 14.7705 20.3958 15.442 19.9685 15.9811C19.7548 16.2507 19.5563 16.4784 19.3802 16.6525L15.9101 16.2888C15.8421 16.0626 15.7591 15.8009 15.6658 15.5158C15.4116 14.7389 15.0738 13.766 14.7375 12.8169C14.4009 11.8669 14.0644 10.9371 13.8122 10.245Z" fill="#1EAC50"/>
</svg>
