<svg width="11" height="16" viewBox="0 0 11 16" fill="none" xmlns="http://www.w3.org/2000/svg">
<path d="M10.3519 10.5244C10.495 7.53778 8.6444 5.83111 8.6444 5.83111C8.6444 5.83111 8.71639 6.50667 8.36083 7.18222C8.00528 7.85778 7.50662 8.03556 7.50662 8.03556C7.50662 8.03556 7.71996 5.04889 7.08083 3.12889C6.44171 1.20889 4.37773 0 4.37773 0C4.37773 0 4.88962 0.911094 3.7743 3.12889C2.93915 4.78957 0.538542 6.11556 0.040718 9.45778C-0.457106 12.8 3.7743 15.8026 3.7743 15.8026C3.7743 15.8026 2.3875 14.2933 2.3875 12.6578C2.3875 11.0222 3.24083 10.1689 3.24083 10.1689C3.24083 10.1689 3.27625 10.5244 3.52528 11.0933C3.7743 11.6622 4.37773 12.0889 4.37773 12.0889C4.37773 12.0889 3.80885 10.3822 4.09329 8.67556C4.37773 6.96889 5.72885 6.47111 5.72885 6.47111C5.72885 6.47111 5.37417 7.18222 5.72885 8.24889C6.08353 9.31556 7.57949 9.95556 8.00528 12.0889C8.43107 14.2222 6.51107 16 6.51107 16C6.51107 16 10.2088 13.5111 10.3519 10.5244Z" fill="#FF5353"/>
</svg>
