<svg width="79" height="16" viewBox="0 0 79 16" fill="none" xmlns="http://www.w3.org/2000/svg">
<rect width="79" height="16" rx="2" fill="#18242A"/>
<path d="M15.3519 10.5244C15.495 7.53778 13.6444 5.83111 13.6444 5.83111C13.6444 5.83111 13.7164 6.50667 13.3608 7.18222C13.0053 7.85778 12.5066 8.03556 12.5066 8.03556C12.5066 8.03556 12.72 5.04889 12.0808 3.12889C11.4417 1.20889 9.37773 0 9.37773 0C9.37773 0 9.88962 0.911094 8.7743 3.12889C7.93915 4.78957 5.53854 6.11556 5.04072 9.45778C4.54289 12.8 8.7743 15.8026 8.7743 15.8026C8.7743 15.8026 7.3875 14.2933 7.3875 12.6578C7.3875 11.0222 8.24083 10.1689 8.24083 10.1689C8.24083 10.1689 8.27625 10.5244 8.52528 11.0933C8.7743 11.6622 9.37773 12.0889 9.37773 12.0889C9.37773 12.0889 8.80885 10.3822 9.09329 8.67556C9.37773 6.96889 10.7288 6.47111 10.7288 6.47111C10.7288 6.47111 10.3742 7.18222 10.7288 8.24889C11.0835 9.31556 12.5795 9.95556 13.0053 12.0889C13.4311 14.2222 11.5111 16 11.5111 16C11.5111 16 15.2088 13.5111 15.3519 10.5244Z" fill="#FF5353"/>
<path d="M19.0568 12V3.27273H24.2898V4.21023H20.1136V7.15909H23.8977V8.09659H20.1136V12H19.0568ZM25.8931 12V5.45455H26.8647V6.44318H26.9329C27.0522 6.11932 27.2681 5.85653 27.5806 5.65483C27.8931 5.45312 28.2454 5.35227 28.6374 5.35227C28.7113 5.35227 28.8036 5.35369 28.9144 5.35653C29.0252 5.35937 29.109 5.36364 29.1658 5.36932V6.39205C29.1317 6.38352 29.0536 6.37074 28.9315 6.35369C28.8121 6.33381 28.6857 6.32386 28.5522 6.32386C28.234 6.32386 27.9499 6.39062 27.6999 6.52415C27.4528 6.65483 27.2567 6.83665 27.1119 7.0696C26.9698 7.29972 26.8988 7.5625 26.8988 7.85795V12H25.8931ZM32.9031 12.1364C32.2724 12.1364 31.7283 11.9972 31.271 11.7188C30.8164 11.4375 30.4656 11.0455 30.2184 10.5426C29.9741 10.0369 29.8519 9.44886 29.8519 8.77841C29.8519 8.10795 29.9741 7.51705 30.2184 7.00568C30.4656 6.49148 30.8093 6.09091 31.2496 5.80398C31.6928 5.5142 32.2099 5.36932 32.8008 5.36932C33.1417 5.36932 33.4783 5.42614 33.8107 5.53977C34.1431 5.65341 34.4457 5.83807 34.7184 6.09375C34.9911 6.34659 35.2085 6.68182 35.3704 7.09943C35.5323 7.51705 35.6133 8.03125 35.6133 8.64205V9.06818H30.5678V8.19886H34.5906C34.5906 7.82955 34.5167 7.5 34.369 7.21023C34.2241 6.92045 34.0167 6.69176 33.7468 6.52415C33.4798 6.35653 33.1644 6.27273 32.8008 6.27273C32.4002 6.27273 32.0536 6.37216 31.761 6.57102C31.4712 6.76705 31.2482 7.02273 31.092 7.33807C30.9357 7.65341 30.8576 7.99148 30.8576 8.35227V8.93182C30.8576 9.42614 30.9428 9.84517 31.1133 10.1889C31.2866 10.5298 31.5266 10.7898 31.8335 10.9688C32.1403 11.1449 32.4968 11.233 32.9031 11.233C33.1673 11.233 33.4059 11.196 33.619 11.1222C33.8349 11.0455 34.021 10.9318 34.1772 10.7812C34.3335 10.6278 34.4542 10.4375 34.5394 10.2102L35.511 10.483C35.4087 10.8125 35.2369 11.1023 34.9954 11.3523C34.7539 11.5994 34.4556 11.7926 34.1005 11.9318C33.7454 12.0682 33.3462 12.1364 32.9031 12.1364ZM39.8874 12.1364C39.2567 12.1364 38.7127 11.9972 38.2553 11.7188C37.8008 11.4375 37.4499 11.0455 37.2028 10.5426C36.9585 10.0369 36.8363 9.44886 36.8363 8.77841C36.8363 8.10795 36.9585 7.51705 37.2028 7.00568C37.4499 6.49148 37.7937 6.09091 38.234 5.80398C38.6772 5.5142 39.1942 5.36932 39.7852 5.36932C40.1261 5.36932 40.4627 5.42614 40.7951 5.53977C41.1275 5.65341 41.43 5.83807 41.7028 6.09375C41.9755 6.34659 42.1928 6.68182 42.3548 7.09943C42.5167 7.51705 42.5977 8.03125 42.5977 8.64205V9.06818H37.5522V8.19886H41.5749C41.5749 7.82955 41.5011 7.5 41.3533 7.21023C41.2085 6.92045 41.0011 6.69176 40.7312 6.52415C40.4641 6.35653 40.1488 6.27273 39.7852 6.27273C39.3846 6.27273 39.038 6.37216 38.7454 6.57102C38.4556 6.76705 38.2326 7.02273 38.0763 7.33807C37.9201 7.65341 37.842 7.99148 37.842 8.35227V8.93182C37.842 9.42614 37.9272 9.84517 38.0977 10.1889C38.271 10.5298 38.511 10.7898 38.8178 10.9688C39.1246 11.1449 39.4812 11.233 39.8874 11.233C40.1516 11.233 40.3903 11.196 40.6033 11.1222C40.8192 11.0455 41.0053 10.9318 41.1616 10.7812C41.3178 10.6278 41.4386 10.4375 41.5238 10.2102L42.4954 10.483C42.3931 10.8125 42.2212 11.1023 41.9798 11.3523C41.7383 11.5994 41.44 11.7926 41.0849 11.9318C40.7298 12.0682 40.3306 12.1364 39.8874 12.1364ZM47.8775 7.78977V8.72727H44.0593V7.78977H47.8775ZM49.7834 12V3.27273H52.8345C53.4425 3.27273 53.9439 3.37784 54.3388 3.58807C54.7337 3.79545 55.0277 4.07528 55.2209 4.42756C55.4141 4.77699 55.5107 5.16477 55.5107 5.59091C55.5107 5.96591 55.4439 6.27557 55.3104 6.51989C55.1797 6.7642 55.0064 6.95739 54.7905 7.09943C54.5774 7.24148 54.3459 7.34659 54.0959 7.41477V7.5C54.3629 7.51705 54.6314 7.6108 54.9013 7.78125C55.1712 7.9517 55.397 8.19602 55.5788 8.5142C55.7607 8.83239 55.8516 9.22159 55.8516 9.68182C55.8516 10.1193 55.7521 10.5128 55.5533 10.8622C55.3544 11.2116 55.0405 11.4886 54.6115 11.6932C54.1825 11.8977 53.6243 12 52.9368 12H49.7834ZM50.8402 11.0625H52.9368C53.6271 11.0625 54.1172 10.929 54.407 10.6619C54.6996 10.392 54.8459 10.0653 54.8459 9.68182C54.8459 9.38636 54.7706 9.11364 54.62 8.86364C54.4695 8.6108 54.255 8.40909 53.9766 8.25852C53.6982 8.10511 53.3686 8.02841 52.9879 8.02841H50.8402V11.0625ZM50.8402 7.10795H52.8004C53.1186 7.10795 53.4055 7.04545 53.6612 6.92045C53.9197 6.79545 54.1243 6.61932 54.2749 6.39205C54.4283 6.16477 54.505 5.89773 54.505 5.59091C54.505 5.20739 54.3714 4.8821 54.1044 4.61506C53.8374 4.34517 53.4141 4.21023 52.8345 4.21023H50.8402V7.10795ZM60.196 12.1364C59.5653 12.1364 59.0213 11.9972 58.5639 11.7188C58.1094 11.4375 57.7585 11.0455 57.5114 10.5426C57.267 10.0369 57.1449 9.44886 57.1449 8.77841C57.1449 8.10795 57.267 7.51705 57.5114 7.00568C57.7585 6.49148 58.1023 6.09091 58.5426 5.80398C58.9858 5.5142 59.5028 5.36932 60.0938 5.36932C60.4347 5.36932 60.7713 5.42614 61.1037 5.53977C61.4361 5.65341 61.7386 5.83807 62.0114 6.09375C62.2841 6.34659 62.5014 6.68182 62.6634 7.09943C62.8253 7.51705 62.9062 8.03125 62.9062 8.64205V9.06818H57.8608V8.19886H61.8835C61.8835 7.82955 61.8097 7.5 61.6619 7.21023C61.517 6.92045 61.3097 6.69176 61.0398 6.52415C60.7727 6.35653 60.4574 6.27273 60.0938 6.27273C59.6932 6.27273 59.3466 6.37216 59.054 6.57102C58.7642 6.76705 58.5412 7.02273 58.3849 7.33807C58.2287 7.65341 58.1506 7.99148 58.1506 8.35227V8.93182C58.1506 9.42614 58.2358 9.84517 58.4062 10.1889C58.5795 10.5298 58.8196 10.7898 59.1264 10.9688C59.4332 11.1449 59.7898 11.233 60.196 11.233C60.4602 11.233 60.6989 11.196 60.9119 11.1222C61.1278 11.0455 61.3139 10.9318 61.4702 10.7812C61.6264 10.6278 61.7472 10.4375 61.8324 10.2102L62.804 10.483C62.7017 10.8125 62.5298 11.1023 62.2884 11.3523C62.0469 11.5994 61.7486 11.7926 61.3935 11.9318C61.0384 12.0682 60.6392 12.1364 60.196 12.1364ZM67.2827 5.45455V6.30682H63.8906V5.45455H67.2827ZM64.8793 3.88636H65.8849V10.125C65.8849 10.4091 65.9261 10.6222 66.0085 10.7642C66.0938 10.9034 66.2017 10.9972 66.3324 11.0455C66.4659 11.0909 66.6065 11.1136 66.7543 11.1136C66.8651 11.1136 66.956 11.108 67.027 11.0966C67.098 11.0824 67.1548 11.071 67.1974 11.0625L67.402 11.9659C67.3338 11.9915 67.2386 12.017 67.1165 12.0426C66.9943 12.071 66.8395 12.0852 66.652 12.0852C66.3679 12.0852 66.0895 12.0241 65.8168 11.902C65.5469 11.7798 65.3224 11.5938 65.1435 11.3438C64.9673 11.0938 64.8793 10.7784 64.8793 10.3977V3.88636Z" fill="white"/>
</svg>
