<svg width="16" height="16" viewBox="0 0 16 16" fill="none" xmlns="http://www.w3.org/2000/svg">
<rect width="15" height="16" rx="2" fill="#18242A"/>
<path d="M13.3519 10.5244C13.495 7.53778 11.6444 5.83111 11.6444 5.83111C11.6444 5.83111 11.7164 6.50667 11.3608 7.18222C11.0053 7.85778 10.5066 8.03556 10.5066 8.03556C10.5066 8.03556 10.72 5.04889 10.0808 3.12889C9.44171 1.20889 7.37773 0 7.37773 0C7.37773 0 7.88962 0.911094 6.7743 3.12889C5.93915 4.78957 3.53854 6.11556 3.04072 9.45778C2.54289 12.8 6.7743 15.8026 6.7743 15.8026C6.7743 15.8026 5.3875 14.2933 5.3875 12.6578C5.3875 11.0222 6.24083 10.1689 6.24083 10.1689C6.24083 10.1689 6.27625 10.5244 6.52528 11.0933C6.7743 11.6622 7.37773 12.0889 7.37773 12.0889C7.37773 12.0889 6.80885 10.3822 7.09329 8.67556C7.37773 6.96889 8.72885 6.47111 8.72885 6.47111C8.72885 6.47111 8.37417 7.18222 8.72885 8.24889C9.08353 9.31556 10.5795 9.95556 11.0053 12.0889C11.4311 14.2222 9.51107 16 9.51107 16C9.51107 16 13.2088 13.5111 13.3519 10.5244Z" fill="#FF5353"/>
</svg>
