<svg width="16" height="16" viewBox="0 0 16 16" fill="none" xmlns="http://www.w3.org/2000/svg">
<rect width="16" height="16" rx="4" fill="#4D585D"/>
<path d="M6.64171 8.2849L6.64152 8.28512L6.63481 8.27848L3.89448 5.56598L3.78678 5.45937L3.89448 5.35277L4.35856 4.89339L4.46409 4.78894L4.56961 4.89339L8.10552 8.39339L8.21322 8.5L8.10552 8.60661L4.56961 12.1066L4.46409 12.2111L4.35856 12.1066L3.89448 11.6472L3.78678 11.5406L3.89448 11.434L6.63481 8.72152L6.6346 8.72131L6.64171 8.7151L6.88822 8.5L6.64171 8.2849Z" fill="#FFC600" stroke="#FFC600" stroke-width="0.3"/>
<path d="M10.6417 8.2849L10.6415 8.28512L10.6348 8.27848L7.89448 5.56598L7.78678 5.45937L7.89448 5.35277L8.35856 4.89339L8.46409 4.78894L8.56961 4.89339L12.1055 8.39339L12.2132 8.5L12.1055 8.60661L8.56961 12.1066L8.46409 12.2111L8.35856 12.1066L7.89448 11.6472L7.78678 11.5406L7.89448 11.434L10.6348 8.72152L10.6346 8.72131L10.6417 8.7151L10.8882 8.5L10.6417 8.2849Z" fill="#FFC600" stroke="#FFC600" stroke-width="0.3"/>
</svg>
