<svg xmlns="http://www.w3.org/2000/svg" width="24" height="24" viewBox="0 0 24 24" fill="none">
  <path d="M15.0152 0.381978C14.0518 0.132651 13.0414 0 12 0C10.9595 0 9.94994 0.132426 8.98724 0.381343C9.14922 0.528279 9.28259 0.668981 9.38766 0.789986C9.84668 0.647684 10.641 0.447547 11.6593 0.374249C11.8857 0.35637 12.1181 0.35637 12.3475 0.374249C13.363 0.447487 14.1574 0.647352 14.6165 0.789633C14.7212 0.668708 14.854 0.528379 15.0152 0.381978Z" fill="#FFC600"/>
  <path d="M7.60133 0.831799C4.67734 1.98436 2.31487 4.25203 1.03789 7.11085C1.43406 7.3883 2.04526 7.77526 2.65107 8.13896C3.22823 7.58059 4.53097 6.49709 6.72941 5.56807C6.74873 5.55985 6.76815 5.55206 6.78766 5.5447C6.87938 4.85757 7.21483 3.37566 8.44059 1.51784C8.2619 1.32046 7.98145 1.05615 7.60133 0.831799Z" fill="#FFC600"/>
  <path d="M0.596796 8.25235C0.209501 9.4315 0 10.6913 0 12C0 13.1176 0.152771 14.1995 0.438569 15.2259L1.9526 14.2417C1.75321 13.336 1.40009 11.1627 2.03058 9.15682C1.63788 8.92076 1.0746 8.57496 0.596796 8.25235Z" fill="#FFC600"/>
  <path d="M0.829639 16.3932C1.97126 19.2936 4.20988 21.6421 7.03448 22.9277C7.51084 22.6906 7.93243 22.3312 8.20914 22.0631C7.25049 20.7693 6.95842 18.8968 6.87301 18.0631C5.95886 17.762 3.74338 16.9049 2.47607 15.3229L0.829639 16.3932Z" fill="#FFC600"/>
  <path d="M8.41486 23.4553C9.54699 23.8092 10.7512 24 12 24C13.2488 24 14.453 23.8092 15.5851 23.4553C15.252 23.201 14.9806 22.9424 14.7968 22.7528C14.3 22.8797 13.3635 23.0886 12.3624 23.161C12.2403 23.17 12.1211 23.1759 11.999 23.1759C11.8798 23.1759 11.7607 23.173 11.6415 23.164C10.6348 23.0914 9.69601 22.8812 9.2012 22.7544C9.01737 22.9438 8.74676 23.2016 8.41486 23.4553Z" fill="#FFC600"/>
  <path d="M16.9639 22.9284C19.7898 21.6428 22.0294 19.2933 23.171 16.3916L21.5304 15.324C20.2587 16.913 18.0327 17.7706 17.1245 18.0676C17.0387 18.9056 16.7466 20.7731 15.7891 22.0615C16.0643 22.3292 16.4859 22.6899 16.9639 22.9284Z" fill="#FFC600"/>
  <path d="M23.5619 15.2241C23.8474 14.1982 24 13.1169 24 12C24 10.6925 23.7909 9.43386 23.4043 8.25567C22.928 8.57712 22.3676 8.92052 21.9759 9.1556C22.6074 11.1631 22.2531 13.3373 22.0538 14.2426L23.5619 15.2241Z" fill="#FFC600"/>
  <path d="M22.9634 7.11383C22.5676 7.39124 21.9578 7.77684 21.3536 8.13827C20.7739 7.578 19.4665 6.4898 17.2566 5.55619C17.2428 5.55036 17.2289 5.54476 17.215 5.53938C17.1216 4.84974 16.7835 3.37005 15.5618 1.51629C15.739 1.31961 16.0182 1.05598 16.3985 0.831712C19.3236 1.98465 21.6867 4.25354 22.9634 7.11383Z" fill="#FFC600"/>
  <path d="M7.98106 5.62193C7.99185 5.62767 8.00259 5.63356 8.01328 5.63959C8.95458 6.1621 10.6537 7.14938 12.0032 8.17924C13.3508 7.15004 15.0656 6.15234 16.0204 5.62174L16.023 5.62029C15.9306 5.01986 15.6027 3.67625 14.4446 1.98336C14.1258 1.87311 13.3364 1.6377 12.2611 1.56022C12.0883 1.5483 11.9155 1.5483 11.7457 1.56022C10.6614 1.6377 9.878 1.87311 9.56224 1.98336C8.40305 3.67779 8.07402 5.02231 7.98106 5.62193Z" fill="#FFC600"/>
  <path d="M8.06161 17.9572C8.14309 18.7334 8.42527 20.5386 9.32695 21.549C9.69335 21.6473 10.6823 21.8946 11.7249 21.9691C11.9066 21.981 12.0913 21.981 12.273 21.9691C13.3126 21.8946 14.3046 21.6473 14.671 21.549C15.5098 20.604 15.8454 18.8852 15.9395 17.9544C14.2914 17.0716 12.6985 15.9355 12.0032 15.4209C11.3065 15.9361 9.7098 17.074 8.06161 17.9572Z" fill="#FFC600"/>
  <path d="M16.628 16.9719C14.9242 16.075 13.2084 14.8325 12.5977 14.3795V9.22434C13.8965 8.21121 15.6391 7.19807 16.5953 6.66767C16.6549 6.63191 16.7263 6.62893 16.7889 6.65575C19.2345 7.68975 20.4648 8.9234 20.7299 9.20947C21.5193 11.2715 20.9384 13.8044 20.8193 14.2692C19.7945 15.8694 17.3638 16.7395 16.628 16.9719Z" fill="#FFC600"/>
  <path d="M3.1846 14.2692C4.21229 15.8753 6.64004 16.7425 7.37581 16.9749C9.07971 16.078 10.7985 14.8354 11.4062 14.3824V9.22135C10.1014 8.20225 8.3767 7.20102 7.43241 6.67657L7.42943 6.67359C7.35794 6.63187 7.27155 6.62889 7.1941 6.66167C4.76636 7.68971 3.54206 8.91443 3.27396 9.20347C2.48159 11.2715 3.06544 13.8014 3.1846 14.2692Z" fill="#FFC600"/>
</svg>