<svg width="16" height="15" viewBox="0 0 16 15" xmlns="http://www.w3.org/2000/svg">
<path d="M7.8084 0.221889C7.71564 -0.0739631 7.29138 -0.073963 7.19863 0.221889L6.85654 1.31303C6.81518 1.44496 6.69158 1.53492 6.55166 1.53492H5.41277C5.10738 1.53492 4.9764 1.91756 5.2192 2.10038L6.16694 2.81402C6.27338 2.89416 6.31783 3.03136 6.27825 3.15759L5.92263 4.2919C5.83079 4.58485 6.17408 4.82147 6.42109 4.63547L7.30994 3.96619C7.42425 3.88011 7.58277 3.88011 7.69708 3.96619L8.58593 4.63547C8.83294 4.82147 9.17623 4.58485 9.08439 4.2919L8.72877 3.15759C8.6892 3.03136 8.73365 2.89416 8.84009 2.81402L9.78783 2.10038C10.0306 1.91756 9.89964 1.53492 9.59426 1.53492H8.45537C8.31545 1.53492 8.19184 1.44496 8.15048 1.31303L7.8084 0.221889Z"/>
<path fill-rule="evenodd" clip-rule="evenodd" d="M0.30715 2.45111C0.327388 2.47262 0.350423 2.49285 0.376368 2.51145L1.23357 3.12617C1.39017 3.23847 1.4557 3.43753 1.39588 3.61924L1.06846 4.61388C0.934706 5.02019 1.40586 5.35806 1.75603 5.10695L2.61322 4.49223C2.76983 4.37993 2.98188 4.37993 3.13848 4.49223L3.99568 5.10695C4.34585 5.35806 4.817 5.02019 4.68325 4.61388L4.35582 3.61924C4.29601 3.43753 4.36154 3.23847 4.51814 3.12617L5.23123 2.6148L5.63231 2.9168C5.78132 3.02901 5.84355 3.22108 5.78815 3.39781L5.29028 4.98584C5.1617 5.39597 5.64231 5.72724 5.98812 5.46684L7.23251 4.52984C7.39255 4.40934 7.61447 4.40934 7.77451 4.52984L9.0189 5.46684C9.36472 5.72724 9.84532 5.39597 9.71674 4.98584L9.21888 3.39781C9.16347 3.22108 9.2257 3.02901 9.37471 2.9168L9.7758 2.6148L10.4889 3.12617C10.6455 3.23847 10.711 3.43753 10.6512 3.61924L10.3238 4.61388C10.19 5.02019 10.6612 5.35806 11.0113 5.10695L11.8685 4.49223C12.0251 4.37993 12.2372 4.37993 12.3938 4.49223L13.251 5.10695C13.6012 5.35806 14.0723 5.02019 13.9386 4.61388L13.6111 3.61924C13.5513 3.43753 13.6169 3.23847 13.7735 3.12617L14.6307 2.51145C14.6765 2.47858 14.7133 2.44063 14.7416 2.39951H14.8439C15.0202 2.39951 15.1631 2.54055 15.1631 2.71453V14.685C15.1631 14.859 15.0202 15 14.8439 15H0.482235C0.305974 15 0.163086 14.859 0.163086 14.685V2.71453C0.163086 2.60437 0.220375 2.50741 0.30715 2.45111ZM8.15132 7.80472L5.91894 12.1649H7.09429L9.3293 7.78137V6.84964H5.55082V7.76839H8.15132V7.80472ZM3.60107 8.14661L1.92678 11.4167H2.8083L4.48456 8.12909V7.4303H1.65069V8.11936H3.60107V8.14661ZM10.863 11.4167L12.5372 8.14661V8.11936H10.5869V7.4303H13.4207V8.12909L11.7445 11.4167H10.863Z"/>
<path d="M2.57232 1.1165C2.66786 0.826273 3.08384 0.826273 3.17938 1.1165L3.41325 1.82695C3.45598 1.95674 3.57852 2.04462 3.71678 2.04462H4.47361C4.78277 2.04462 4.91132 2.43511 4.6612 2.61448L4.04891 3.05357C3.93705 3.13378 3.89025 3.27597 3.93298 3.40576L4.16685 4.11621C4.26239 4.40644 3.92585 4.64778 3.67573 4.46841L3.06344 4.02932C2.95159 3.94911 2.80012 3.94911 2.68826 4.02932L2.07598 4.46841C1.82585 4.64778 1.48932 4.40644 1.58486 4.11621L1.81873 3.40576C1.86145 3.27597 1.81465 3.13378 1.70279 3.05357L1.09051 2.61448C0.840385 2.43511 0.96893 2.04462 1.2781 2.04462H2.03492C2.17319 2.04462 2.29573 1.95674 2.33845 1.82695L2.57232 1.1165Z"/>
<path d="M12.4347 1.1165C12.3392 0.826273 11.9232 0.826273 11.8276 1.1165L11.5938 1.82695C11.551 1.95674 11.4285 2.04462 11.2902 2.04462H10.5334C10.2242 2.04462 10.0957 2.43511 10.3458 2.61448L10.9581 3.05357C11.07 3.13378 11.1168 3.27597 11.074 3.40576L10.8402 4.11621C10.7446 4.40644 11.0812 4.64778 11.3313 4.46841L11.9436 4.02932C12.0554 3.94911 12.2069 3.94911 12.3188 4.02932L12.931 4.46841C13.1812 4.64778 13.5177 4.40644 13.4222 4.11621L13.1883 3.40576C13.1456 3.27597 13.1924 3.13378 13.3042 3.05357L13.9165 2.61448C14.1666 2.43511 14.0381 2.04462 13.7289 2.04462H12.9721C12.8338 2.04462 12.7113 1.95674 12.6686 1.82695L12.4347 1.1165Z"/>
</svg>
