<svg width="16" height="15" viewBox="0 0 16 15" xmlns="http://www.w3.org/2000/svg">
<path fill-rule="evenodd" clip-rule="evenodd" d="M8.21179 4.28571C8.75795 3.84376 9.10714 3.16802 9.10714 2.41071C9.10714 1.07931 8.02783 0 6.69643 0C5.7635 0 4.95435 0.529943 4.55357 1.30522C4.1528 0.529943 3.34365 0 2.41071 0C1.07931 0 0 1.07931 0 2.41071C0 3.16802 0.349192 3.84376 0.895353 4.28571H0V11.25H9.10714V9.9442L10.7143 11.25V4.28571L9.10714 6.02679V4.28571H8.21179ZM4.55357 3.51621C4.70772 3.8144 4.92228 4.0763 5.18107 4.28571H3.92608C4.18486 4.0763 4.39942 3.8144 4.55357 3.51621ZM8.03571 2.41071C8.03571 3.15038 7.4361 3.75 6.69643 3.75C5.95676 3.75 5.35714 3.15038 5.35714 2.41071C5.35714 1.67105 5.95676 1.07143 6.69643 1.07143C7.4361 1.07143 8.03571 1.67105 8.03571 2.41071ZM2.41071 3.75C3.15038 3.75 3.75 3.15038 3.75 2.41071C3.75 1.67105 3.15038 1.07143 2.41071 1.07143C1.67105 1.07143 1.07143 1.67105 1.07143 2.41071C1.07143 3.15038 1.67105 3.75 2.41071 3.75ZM6.16071 8.2318C6.51786 8.02561 6.51786 7.51012 6.16071 7.30391L4.15179 6.14406C3.79464 5.93787 3.34821 6.1956 3.34821 6.608V8.92772C3.34821 9.34011 3.79464 9.59785 4.15179 9.39166L6.16071 8.2318Z"/>
<path d="M11.7741 11.7857C11.7153 11.7857 11.657 11.783 11.5994 11.7777V10.9282C11.6567 10.9359 11.715 10.9398 11.7741 10.9398C12.6424 10.9398 14.4643 10.102 14.4643 7.76786C14.4643 5.43371 12.6424 4.59586 11.7741 4.59586C11.715 4.59586 11.6567 4.5998 11.5994 4.60748V3.75802C11.657 3.75271 11.7153 3.75 11.7741 3.75C13.0283 3.75 15.163 5.01078 15.163 7.76786C15.163 10.5249 13.0283 11.7857 11.7741 11.7857Z"/>
<path d="M11.4247 9.89907C11.3659 9.89907 11.3077 9.89683 11.25 9.89245V9.19072C11.3074 9.19706 11.3656 9.20031 11.4247 9.20031C12.293 9.20031 12.9969 8.49641 12.9969 7.62811C12.9969 6.7598 12.293 6.0559 11.4247 6.0559C11.3656 6.0559 11.3074 6.05915 11.25 6.0655V5.36376C11.3077 5.35938 11.3659 5.35714 11.4247 5.35714C12.6789 5.35714 13.6957 6.37389 13.6957 7.62811C13.6957 8.88232 12.6789 9.89907 11.4247 9.89907Z"/>
<path d="M12.3214 7.5C12.3214 7.79587 12.0816 8.03571 11.7857 8.03571C11.4898 8.03571 11.25 7.79587 11.25 7.5C11.25 7.20413 11.4898 6.96429 11.7857 6.96429C12.0816 6.96429 12.3214 7.20413 12.3214 7.5Z"/>
<path d="M6 12H7.5L9 15H7.5L6 12Z"/>
<path d="M3 12H1.5L0 15H1.5L3 12Z"/>
</svg>
