<svg width="15" height="17" viewBox="0 0 15 17" fill="none" xmlns="http://www.w3.org/2000/svg">
<path fill-rule="evenodd" clip-rule="evenodd" d="M7.78615 0.0939962C7.59585 -0.0313322 7.34921 -0.031332 7.15891 0.0939964L0.277755 4.62585C-0.194784 4.93705 0.0255605 5.67224 0.591373 5.67224H14.3537C14.9195 5.67224 15.1398 4.93705 14.6673 4.62584L7.78615 0.0939962ZM0.879275 7.58663C0.499846 7.34188 0 7.61427 0 8.06578V15.5396C0 15.8546 0.255286 16.1098 0.570196 16.1098H14.3766C14.6915 16.1098 14.9468 15.8546 14.9468 15.5396V7.82295C14.9468 7.36483 14.4338 7.09376 14.0553 7.35186L7.78587 11.627C7.59648 11.7562 7.34818 11.7593 7.15555 11.6351L0.879275 7.58663Z" fill="#4D585D"/>
</svg>
