<svg width="16" height="16" viewBox="0 0 16 16" fill="none" xmlns="http://www.w3.org/2000/svg">
<g id="Icon notification">
<g id="Group 841">
<path id="Union" fill-rule="evenodd" clip-rule="evenodd" d="M7.78603 10.2841C7.59573 10.4094 7.34909 10.4094 7.15879 10.2841L0.27764 5.75221C-0.194899 5.441 0.0254455 4.70581 0.591258 4.70581H14.3536C14.9194 4.70581 15.1397 5.441 14.6672 5.75221L7.78603 10.2841ZM0.879275 7.47685C0.499846 7.2321 0 7.50449 0 7.95601V15.4299C0 15.7448 0.255286 16.0001 0.570196 16.0001H14.3766C14.6915 16.0001 14.9468 15.7448 14.9468 15.4299V7.71318C14.9468 7.25506 14.4338 6.98399 14.0553 7.24209L7.78587 11.5173C7.59648 11.6464 7.34818 11.6496 7.15555 11.5253L0.879275 7.47685Z" fill="#4D585D"/>
</g>
</g>
</svg>
