<svg width="16" height="16" viewBox="0 0 16 16" fill="none" xmlns="http://www.w3.org/2000/svg">
<g id="assignment_turned_in_black_24dp 1" clip-path="url(#clip0_3158_16738)">
<path id="Vector" d="M12.5634 2.34689H9.83868C9.5649 1.60449 8.84786 1.06689 8.00046 1.06689C7.15305 1.06689 6.43601 1.60449 6.16223 2.34689H3.43749C2.72046 2.34689 2.13379 2.92289 2.13379 3.62689V12.5869C2.13379 13.2909 2.72046 13.8669 3.43749 13.8669H12.5634C13.2805 13.8669 13.8671 13.2909 13.8671 12.5869V3.62689C13.8671 2.92289 13.2805 2.34689 12.5634 2.34689ZM8.00046 2.34689C8.35897 2.34689 8.65231 2.63489 8.65231 2.98689C8.65231 3.33889 8.35897 3.62689 8.00046 3.62689C7.64194 3.62689 7.3486 3.33889 7.3486 2.98689C7.3486 2.63489 7.64194 2.34689 8.00046 2.34689ZM6.69675 11.3069L4.08934 8.74689L5.00846 7.84449L6.69675 9.49569L10.9925 5.27809L11.9116 6.18689L6.69675 11.3069Z" fill="#18242A"/>
</g>
<defs>
<clipPath id="clip0_3158_16738">
<rect width="16" height="16" fill="white"/>
</clipPath>
</defs>
</svg>
