<svg width="9" height="10" viewBox="0 0 9 10" fill="none" xmlns="http://www.w3.org/2000/svg">
<path d="M1.82459 4.53125L1.44962 5L1.82459 5.46875L5.25 9.34375L4.66989 10L0.25 5L4.66989 -5.07149e-08L5.25 0.656249L1.82459 4.53125Z" fill="white"/>
<path d="M1.82459 4.53125L1.44962 5L1.82459 5.46875L5.25 9.34375L4.66989 10L0.25 5L4.66989 -5.07149e-08L5.25 0.656249L1.82459 4.53125Z" stroke="white"/>
<path d="M5.57459 4.53125L5.19962 5L5.57459 5.46875L9 9.34375L8.41989 10L4 5L8.41989 -5.07149e-08L9 0.656249L5.57459 4.53125Z" fill="white"/>
<path d="M5.57459 4.53125L5.19962 5L5.57459 5.46875L9 9.34375L8.41989 10L4 5L8.41989 -5.07149e-08L9 0.656249L5.57459 4.53125Z" stroke="white"/>
</svg>
