<svg width="16" height="15" viewBox="0 0 16 15" fill="none" xmlns="http://www.w3.org/2000/svg">
<path d="M8.55527 9.5416L8.66667 3.2905H7.25707L7.36846 9.5416H8.55527Z" fill="#FFC600"/>
<path d="M7.35561 11.8981C7.52413 12.0637 7.72693 12.1466 7.96401 12.1466C8.11825 12.1466 8.25964 12.108 8.38818 12.0309C8.51671 11.9538 8.61954 11.8509 8.69666 11.7224C8.77664 11.591 8.81806 11.4468 8.82091 11.2897C8.81806 11.0555 8.73236 10.8555 8.56384 10.6898C8.39532 10.5213 8.19537 10.4371 7.96401 10.4371C7.72693 10.4371 7.52413 10.5213 7.35561 10.6898C7.18709 10.8555 7.10425 11.0555 7.10711 11.2897C7.10425 11.5267 7.18709 11.7295 7.35561 11.8981Z" fill="#FFC600"/>
<path fill-rule="evenodd" clip-rule="evenodd" d="M6.95513 0.603258C7.41951 -0.201087 8.58049 -0.201086 9.04487 0.603259L15.8366 12.3668C16.3009 13.1711 15.7205 14.1766 14.7917 14.1766H1.20832C0.279539 14.1766 -0.300946 13.1711 0.163443 12.3668L6.95513 0.603258ZM8 1.20652L14.7917 12.9701L1.20832 12.9701L8 1.20652Z" fill="#FFC600"/>
</svg>
