<svg width="9" height="11" viewBox="0 0 9 11" fill="none" xmlns="http://www.w3.org/2000/svg">
<path fill-rule="evenodd" clip-rule="evenodd" d="M7.46667 3.55556H6.93333V2.53968C6.93333 1.13778 5.73867 0 4.26667 0C2.79467 0 1.6 1.13778 1.6 2.53968V3.55556H1.06667C0.48 3.55556 0 4.0127 0 4.57143V9.65079C0 10.2095 0.48 10.6667 1.06667 10.6667H7.46667C8.05333 10.6667 8.53333 10.2095 8.53333 9.65079V4.57143C8.53333 4.0127 8.05333 3.55556 7.46667 3.55556ZM4.26667 8.12698C3.68 8.12698 3.2 7.66984 3.2 7.11111C3.2 6.55238 3.68 6.09524 4.26667 6.09524C4.85333 6.09524 5.33333 6.55238 5.33333 7.11111C5.33333 7.66984 4.85333 8.12698 4.26667 8.12698ZM2.66667 2.53968V3.55556H5.86667V2.53968C5.86667 1.69651 5.152 1.01587 4.26667 1.01587C3.38133 1.01587 2.66667 1.69651 2.66667 2.53968Z" fill="#A3A7AA"/>
</svg>
