<svg width="9" height="10" viewBox="0 0 9 10" fill="none" xmlns="http://www.w3.org/2000/svg">
<path d="M7.17541 5.46875L7.55038 5L7.17541 4.53125L3.75 0.65625L4.33011 0L8.75 5L4.33011 10L3.75 9.34375L7.17541 5.46875Z" fill="white"/>
<path d="M7.17541 5.46875L7.55038 5L7.17541 4.53125L3.75 0.65625L4.33011 0L8.75 5L4.33011 10L3.75 9.34375L7.17541 5.46875Z" stroke="white"/>
<path d="M3.42541 5.46875L3.80038 5L3.42541 4.53125L0 0.65625L0.58011 0L5 5L0.58011 10L0 9.34375L3.42541 5.46875Z" fill="white"/>
<path d="M3.42541 5.46875L3.80038 5L3.42541 4.53125L0 0.65625L0.58011 0L5 5L0.58011 10L0 9.34375L3.42541 5.46875Z" stroke="white"/>
</svg>
