<svg width="16" height="15" viewBox="0 0 16 15" xmlns="http://www.w3.org/2000/svg">
<path d="M2.03173 9.30556C2.03173 8.91244 2.28271 8.59375 2.59232 8.59375H12.683C12.9926 8.59375 13.2436 8.91244 13.2436 9.30556V14.2882C13.2436 14.6813 12.9926 15 12.683 15H2.59232C2.28271 15 2.03173 14.6813 2.03173 14.2882V9.30556Z"/>
<path d="M2.03173 6.58348C2.03173 6.9766 2.28271 7.29528 2.59232 7.29528H12.683C12.9926 7.29528 13.2436 6.9766 13.2436 6.58348V5.87167C13.2436 5.47855 12.9926 5.15987 12.683 5.15987H2.59232C2.28271 5.15987 2.03173 5.47855 2.03173 5.87167V6.58348Z"/>
<path fill-rule="evenodd" clip-rule="evenodd" d="M7.63759 4.61925C7.00357 3.76633 5.96219 2.77178 5.05219 2.34375C4.39137 2.03293 3.34427 2.08572 2.97559 2.8125C2.59492 3.56291 2.85467 4.44538 3.58675 4.89619C3.96448 5.1288 4.46128 5.27992 4.96744 5.37821C5.96773 5.57247 7.09198 5.57606 7.63759 5.51714C8.18321 5.57606 9.30746 5.57247 10.3077 5.37821C10.8139 5.27992 11.3107 5.1288 11.6884 4.89619C12.4205 4.44538 12.7313 3.56291 12.3506 2.8125C11.9754 2.07296 10.8321 2.02905 10.1631 2.34375C9.25309 2.77178 8.27161 3.76633 7.63759 4.61925ZM3.53521 3.16384C3.78168 2.67798 4.52132 2.96306 4.87741 3.13055C5.61636 3.47812 6.44168 4.15739 7.01576 4.83793C6.46395 4.84515 5.72682 4.8056 5.05219 4.67459C4.56564 4.5801 4.13395 4.44206 3.83138 4.25573C3.43074 4.00902 3.31872 3.5906 3.53521 3.16384ZM11.74 3.16384C11.4935 2.67798 10.7539 2.96306 10.3978 3.13055C9.65883 3.47812 8.83351 4.15739 8.25942 4.83793C8.81123 4.84515 9.54836 4.8056 10.223 4.67459C10.7095 4.5801 11.1412 4.44206 11.4438 4.25573C11.8444 4.00902 11.9565 3.5906 11.74 3.16384Z"/>
<path d="M13.44 0.215932C13.5332 -0.0719775 13.9391 -0.0719772 14.0324 0.215932L14.1557 0.596823C14.1974 0.72558 14.317 0.812754 14.4519 0.812754H14.851C15.1527 0.812754 15.2782 1.20013 15.0341 1.37807L14.7112 1.61348C14.602 1.69305 14.5564 1.8341 14.5981 1.96286L14.7214 2.34375C14.8146 2.63166 14.4862 2.87107 14.2421 2.69314L13.9192 2.45773C13.8101 2.37816 13.6623 2.37816 13.5531 2.45773L13.2302 2.69314C12.9861 2.87107 12.6577 2.63166 12.751 2.34375L12.8743 1.96286C12.916 1.8341 12.8703 1.69305 12.7612 1.61348L12.4383 1.37807C12.1942 1.20013 12.3196 0.812754 12.6213 0.812754H13.0204C13.1554 0.812754 13.275 0.725579 13.3166 0.596822L13.44 0.215932Z"/>
<path d="M9.18897 0.1225C9.23984 -0.0408334 9.46134 -0.0408333 9.51222 0.1225L9.57952 0.338582C9.60227 0.411627 9.66752 0.461082 9.74114 0.461082H9.95893C10.1236 0.461082 10.192 0.680846 10.0588 0.781792L9.88262 0.915337C9.82306 0.960482 9.79814 1.0405 9.82089 1.11355L9.88819 1.32963C9.93906 1.49296 9.75986 1.62878 9.62668 1.52784L9.45048 1.39429C9.39092 1.34915 9.31027 1.34915 9.25071 1.39429L9.07451 1.52784C8.94132 1.62878 8.76213 1.49296 8.813 1.32963L8.8803 1.11355C8.90305 1.0405 8.87813 0.960482 8.81857 0.915337L8.64237 0.781792C8.50918 0.680846 8.57763 0.461082 8.74226 0.461082H8.96005C9.03367 0.461082 9.09892 0.411627 9.12167 0.338582L9.18897 0.1225Z"/>
<path d="M1.88619 2.53832C1.79296 2.82623 1.38702 2.82623 1.29379 2.53832L1.17045 2.15743C1.12876 2.02867 1.00918 1.9415 0.874257 1.9415H0.475123C0.173424 1.9415 0.0479831 1.55412 0.292063 1.37618L0.614969 1.14077C0.724125 1.0612 0.769801 0.920146 0.728107 0.791389L0.604768 0.410498C0.511537 0.122589 0.839945 -0.116825 1.08402 0.0611132L1.40693 0.296516C1.51609 0.376092 1.6639 0.376092 1.77305 0.296516L2.09596 0.0611132C2.34004 -0.116825 2.66844 0.122589 2.57521 0.410499L2.45187 0.791389C2.41018 0.920146 2.45586 1.0612 2.56501 1.14077L2.88792 1.37618C3.132 1.55412 3.00656 1.9415 2.70486 1.9415H2.30572C2.1708 1.9415 2.05122 2.02867 2.00953 2.15743L1.88619 2.53832Z"/>
<path d="M6.1372 1.69425C6.08633 1.85758 5.86483 1.85758 5.81396 1.69425L5.74666 1.47817C5.72391 1.40512 5.65866 1.35567 5.58503 1.35567H5.36724C5.20262 1.35567 5.13417 1.1359 5.26736 1.03496L5.44355 0.901412C5.50311 0.856268 5.52804 0.776248 5.50528 0.703203L5.43798 0.487121C5.38711 0.323787 5.56631 0.187966 5.69949 0.288911L5.87569 0.422457C5.93525 0.467602 6.01591 0.467602 6.07547 0.422457L6.25166 0.288911C6.38485 0.187966 6.56404 0.323787 6.51317 0.487121L6.44587 0.703203C6.42312 0.776248 6.44804 0.856268 6.50761 0.901412L6.6838 1.03496C6.81699 1.1359 6.74854 1.35567 6.58391 1.35567H6.36612C6.2925 1.35567 6.22725 1.40512 6.2045 1.47817L6.1372 1.69425Z"/>
</svg>
