   <svg
              width="18"
              height="18"
              viewBox="0 0 18 18"
              fill="none"
              xmlns="http://www.w3.org/2000/svg"
            >
              <path
                d="M10.0533 2.25115C6.2358 2.14615 3.1083 5.21365 3.1083 9.00115H1.7658C1.4283 9.00115 1.2633 9.40615 1.5033 9.63865L3.5958 11.7312C3.7458 11.8812 3.9783 11.8812 4.1283 11.7312L6.2208 9.63865C6.4533 9.40615 6.2883 9.00115 5.9508 9.00115H4.6083C4.6083 6.07615 6.9933 3.71365 9.9333 3.75115C12.7233 3.78865 15.0708 6.13615 15.1083 8.92615C15.1458 11.8587 12.7833 14.2512 9.8583 14.2512C8.9208 14.2512 8.0433 13.9962 7.2783 13.5687C6.9858 13.4037 6.6258 13.4637 6.3933 13.7037C6.0483 14.0487 6.1158 14.6412 6.5433 14.8812C7.5258 15.4287 8.6508 15.7512 9.8583 15.7512C13.6458 15.7512 16.7133 12.6237 16.6083 8.80615C16.5108 5.28865 13.5708 2.34865 10.0533 2.25115Z"
                fill="#FFC600"
              />
            </svg>