<svg width="16" height="15" viewBox="0 0 16 15" xmlns="http://www.w3.org/2000/svg">
<path d="M10.9964 0C10.843 0 10.7186 0.113828 10.7186 0.254237V2.54237C10.7186 2.68278 10.843 2.79661 10.9964 2.79661H12.1075C12.2609 2.79661 12.3853 2.68278 12.3853 2.54237V0.254237C12.3853 0.113828 12.2609 0 12.1075 0H10.9964Z"/>
<path d="M5.16309 1.52542H10.1631V2.79661C10.1631 3.07744 10.4118 3.30508 10.7186 3.30508H12.3853C12.6921 3.30508 12.9131 3.07744 12.9131 2.79661V1.52542H14.052C14.6656 1.52542 15.1631 1.98073 15.1631 2.54237V5.08475H0.163086V2.54237C0.163086 1.98073 0.660548 1.52542 1.2742 1.52542H2.38531V2.79661C2.38531 3.07744 2.63404 3.30508 2.94086 3.30508H4.60753C4.91436 3.30508 5.16309 3.07744 5.16309 2.79661V1.52542Z"/>
<path fill-rule="evenodd" clip-rule="evenodd" d="M0.163086 6.35593H15.1631V13.9831C15.1631 14.5447 14.6656 15 14.052 15H1.2742C0.660548 15 0.163086 14.5447 0.163086 13.9831V6.35593ZM7.92727 7.60858C7.84411 7.37434 7.48206 7.37434 7.39891 7.60858L6.78997 9.32384C6.75279 9.42859 6.64613 9.49951 6.52579 9.49951H4.55526C4.28617 9.49951 4.17429 9.81467 4.39199 9.95943L5.98618 11.0195C6.08354 11.0843 6.12428 11.199 6.08709 11.3038L5.47816 13.019C5.39501 13.2533 5.68792 13.448 5.90562 13.3033L7.49981 12.2432C7.59717 12.1784 7.729 12.1784 7.82636 12.2432L9.42056 13.3033C9.63825 13.448 9.93116 13.2533 9.84801 13.019L9.23908 11.3038C9.20189 11.199 9.24263 11.0843 9.33999 11.0195L10.9342 9.95943C11.1519 9.81467 11.04 9.49951 10.7709 9.49951H8.80038C8.68004 9.49951 8.57338 9.42859 8.53619 9.32384L7.92727 7.60858Z"/>
<path d="M3.21864 0C3.06523 0 2.94086 0.113828 2.94086 0.254237V2.54237C2.94086 2.68278 3.06523 2.79661 3.21864 2.79661H4.32975C4.48317 2.79661 4.60753 2.68278 4.60753 2.54237V0.254237C4.60753 0.113828 4.48317 0 4.32975 0H3.21864Z"/>
</svg>
