<svg width="15" height="15" viewBox="0 0 15 15" xmlns="http://www.w3.org/2000/svg">
<path d="M7.70938 1.03412C7.63247 1.18948 7.55846 1.34103 7.49084 1.4807L5.01683 2.37526C4.99922 2.37029 4.97449 2.36337 4.94337 2.35484C4.87755 2.3368 4.78301 2.31151 4.66666 2.28207C4.43431 2.22329 4.11314 2.14752 3.75877 2.07996C3.40546 2.01261 3.01289 1.9522 2.63923 1.92598L2.61268 1.92417L2.69045 1.74653C3.99367 0.656304 5.67282 0 7.50537 0C7.74816 0 7.98825 0.0115195 8.22513 0.0340414C8.2082 0.0649434 8.19123 0.0962134 8.17426 0.127703C8.0249 0.404848 7.86091 0.728059 7.70938 1.03412Z"/>
<path d="M9.06093 0.161289C9.00606 0.254004 8.94165 0.368782 8.86985 0.502022C8.72667 0.767706 8.56722 1.08179 8.4175 1.38419C8.34992 1.52069 8.28457 1.65433 8.22387 1.77945L9.7347 3.19224C9.84268 3.20916 9.99057 3.2329 10.1669 3.26261C10.5458 3.32646 11.0577 3.41821 11.5873 3.52951C12.1151 3.64043 12.6689 3.77251 13.1284 3.91794C13.2155 3.94551 13.3005 3.97395 13.3822 4.00326L13.5998 3.12176C12.5268 1.6328 10.9207 0.552984 9.06093 0.161289Z"/>
<path d="M15 7.90486L14.8044 7.86821C14.7653 7.93589 14.7198 8.01423 14.6688 8.10109C14.4894 8.40647 14.2412 8.81871 13.9668 9.24426C13.6933 9.66849 13.3897 10.1124 13.0996 10.4784C12.9547 10.6612 12.8088 10.8301 12.6681 10.9693C12.6371 10.9998 12.6054 11.0301 12.5728 11.0595L12.2726 12.7553L12.6575 12.9538C14.0149 11.6729 14.8943 9.89143 15 7.90486Z"/>
<path d="M12.0031 13.5047L11.8647 13.4333L9.16411 14.5715L8.92892 14.8653C10.0657 14.6472 11.1113 14.1728 12.0031 13.5047Z"/>
<path d="M7.81429 14.9938L8.49077 14.1488L7.50836 13.1072C7.4302 13.1017 7.33708 13.0948 7.23141 13.0862C6.89426 13.0588 6.42812 13.0146 5.91225 12.9476C5.04202 12.8344 3.98904 12.6514 3.17972 12.3572L2.4051 13.0023C3.74394 14.2421 5.53608 15 7.50537 15C7.60885 15 7.71184 14.9979 7.81429 14.9938Z"/>
<path d="M0.240957 9.3924L0.327777 8.51037C0.323406 8.48839 0.318911 8.46555 0.314308 8.44185C0.262127 8.17324 0.195843 7.79472 0.139013 7.35302C0.10775 7.11004 0.079072 6.84593 0.0572664 6.56894C0.0194674 6.87399 0 7.18472 0 7.5C0 8.15371 0.0836936 8.78788 0.240957 9.3924Z"/>
<path d="M4.47276 3.0474L4.48166 3.04965L4.52589 5.18586C4.05682 5.68042 3.35788 6.5399 2.7659 7.28817C2.43708 7.7038 2.13612 8.09172 1.91742 8.37567L1.91451 8.37945L1.05255 8.09234C1.01069 7.86093 0.964008 7.57415 0.922602 7.25235C0.875151 6.88355 0.691284 4.63816 0.785905 4.38595L2.17853 2.70274C2.30058 2.69952 2.4365 2.70317 2.58389 2.71351C2.91539 2.73677 3.2748 2.79141 3.61072 2.85545C3.9456 2.91929 4.25092 2.99127 4.47276 3.0474Z"/>
<path d="M3.38566 7.77778C3.94791 7.06708 4.57679 6.29461 5.01112 5.82321L7.76809 6.33877C7.80356 6.43562 7.84472 6.54822 7.89028 6.67325C8.04744 7.10452 8.25686 7.68331 8.46619 8.27407C8.67572 8.86539 8.88431 9.46634 9.0402 9.94274C9.11382 10.1677 9.17466 10.3618 9.21809 10.5126L7.57476 12.3205C7.49711 12.315 7.40309 12.3081 7.29547 12.2993C6.96742 12.2726 6.51436 12.2297 6.01416 12.1647C5.16138 12.0538 4.21117 11.8834 3.50569 11.6355L2.43406 8.99952C2.46765 8.95575 2.50424 8.90816 2.54349 8.85719C2.76078 8.57508 3.05955 8.18999 3.38566 7.77778Z"/>
<path d="M8.63264 6.40313C8.58747 6.27918 8.54661 6.1674 8.5113 6.07098L9.88728 4.0164C9.93393 4.02408 9.98344 4.03232 10.0355 4.04109C10.408 4.10386 10.9088 4.19367 11.4247 4.30209C11.9425 4.41089 12.4669 4.53671 12.8898 4.67056C13.0916 4.73442 13.2624 4.7977 13.395 4.85861L14.2063 7.32317L14.1953 7.34251C14.1463 7.42841 14.0753 7.5519 13.9874 7.70144C13.8115 8.00084 13.5693 8.40316 13.3026 8.81669C13.0352 9.23155 12.7474 9.65124 12.4803 9.98821C12.3467 10.1567 12.2227 10.299 12.1126 10.4078L9.94379 10.1805C9.90132 10.0391 9.84942 9.87556 9.79111 9.69737C9.63222 9.2118 9.42111 8.60373 9.21092 8.01057C9.00054 7.41684 8.79026 6.83569 8.63264 6.40313Z"/>
</svg>
