 <svg xmlns="http://www.w3.org/2000/svg" width="14" height="14" viewBox="0 0 14 14" fill="none">
                <path fill-rule="evenodd" clip-rule="evenodd"
                  d="M8.7152 5.10289L11.4982 5.34439C12.0042 5.38464 12.2055 6.01714 11.8202 6.35064L9.70995 8.17914L10.3424 10.8989C10.4574 11.3934 9.9227 11.7844 9.4857 11.5199L7.09945 10.0766L4.7132 11.5141C4.2762 11.7786 3.74145 11.3876 3.85645 10.8931L4.48895 8.17914L2.3787 6.35064C1.99345 6.01714 2.20045 5.38464 2.70645 5.34439L5.4837 5.10864L6.57045 2.54414C6.76595 2.07839 7.43295 2.07839 7.62845 2.54414L8.7152 5.10289ZM4.93745 10.3066L7.09945 9.00139L9.2672 10.3124L8.6922 7.85139L10.6012 6.19539L8.0827 5.97689L7.09945 3.65389L6.12195 5.97114L3.60345 6.18964L5.51245 7.84564L4.93745 10.3066Z"
                  fill="#FFC600" />
              </svg>