 <svg xmlns="http://www.w3.org/2000/svg" width="15" height="14" viewBox="0 0 15 14" fill="none">
                <path fill-rule="evenodd" clip-rule="evenodd"
                  d="M8.91491 5.10289L11.6979 5.34439C12.2039 5.38464 12.4052 6.01714 12.0199 6.35064L9.90966 8.17914L10.5422 10.8989C10.6572 11.3934 10.1224 11.7844 9.68541 11.5199L7.29916 10.0766L4.91291 11.5141C4.47591 11.7786 3.94116 11.3876 4.05616 10.8931L4.68866 8.17914L2.57841 6.35064C2.19316 6.01714 2.40016 5.38464 2.90616 5.34439L5.68341 5.10864L6.77016 2.54414C6.96566 2.07839 7.63266 2.07839 7.82816 2.54414L8.91491 5.10289ZM7.29916 3.65389V9.00139L9.46691 10.3124L8.89191 7.85139L10.8009 6.19539L8.28241 5.97689L7.29916 3.65389Z"
                  fill="#FFC600" />
              </svg>