<svg xmlns="http://www.w3.org/2000/svg" width="24" height="24" viewBox="0 0 24 24" fill="none">
  <path d="M23.6664 21.6765C23.139 22.3168 22.6112 22.9576 22.0838 23.5979C21.7099 24.0514 21.0879 24.1339 20.7016 23.781C18.5666 21.8471 16.4311 19.9133 14.2961 17.9799C13.9094 17.627 13.8316 17.0488 14.1225 16.695C14.5369 16.1918 14.9514 15.6887 15.3662 15.185C15.6572 14.8316 16.2396 14.7972 16.6606 15.1091C18.9678 16.834 21.275 18.5594 23.5816 20.2843C24.0016 20.5963 24.0397 21.2226 23.6664 21.6765ZM21.9945 20.2062L16.7971 15.9259C16.6539 15.808 16.4427 15.8284 16.3252 15.9716C16.2073 16.1148 16.2277 16.326 16.3708 16.4435L21.5682 20.7238C21.6396 20.7825 21.7284 20.807 21.8136 20.7988C21.8988 20.7905 21.9814 20.7495 22.0401 20.6781C22.1576 20.5355 22.1372 20.3242 21.9945 20.2062Z" fill="#FFC600"/>
  <path d="M11.7696 2.51448C11.9175 4.04385 10.7976 5.40354 9.26826 5.55144C7.7389 5.69934 6.3792 4.57945 6.2313 3.05008C6.0834 1.52071 7.2033 0.161018 8.73266 0.0131163C10.262 -0.134786 11.6217 0.985113 11.7696 2.51448Z" fill="#FFC600"/>
  <path d="M13.083 3.0588C12.9524 5.02219 11.4168 6.65898 9.39427 6.85458C7.26452 7.06054 5.35851 5.59466 4.97759 3.52877C4.12005 4.11966 3.29322 4.89587 2.50149 5.85713C-1.35489 10.5392 -0.743048 15.1979 4.27198 19.3289C6.21217 20.9269 8.6606 21.629 11.0528 21.3977C12.4307 21.2644 13.7904 20.8215 15.0236 20.0611C15.2762 19.9048 15.533 19.7243 15.8322 19.4923C16.0518 19.322 16.092 19.0061 15.9217 18.7865C15.7513 18.5668 15.4345 18.5273 15.2159 18.6975C14.9455 18.9063 14.7169 19.0679 14.495 19.2043C12.9383 20.1641 11.1557 20.5568 9.42012 20.4011L18.1019 9.86077C18.5859 11.5298 18.544 13.3492 17.9058 15.0559C17.8131 15.3025 17.6973 15.5625 17.5402 15.8744C17.4151 16.1226 17.5151 16.4249 17.7633 16.55C18.0109 16.6741 18.3138 16.5751 18.4389 16.3269C18.6121 15.9819 18.7421 15.69 18.8477 15.4085C20.2334 11.7042 19.1139 7.52673 16.0629 5.01329C15.0551 4.18333 14.0604 3.53191 13.083 3.0588Z" fill="#FFC600"/>
</svg>