<svg width="23" height="24" viewBox="0 0 23 24" fill="none" xmlns="http://www.w3.org/2000/svg">
<path d="M21.9804 21.8682C21.7601 21.841 21.3399 21.5253 21.1827 21.3687L17.0542 17.2549L15.5745 18.7346L19.6883 22.8631C19.845 23.0202 20.1606 23.4405 20.1878 23.6608C20.2067 23.8124 20.3058 23.9502 20.4523 23.994C20.8316 24.1073 22.4269 22.512 22.3136 22.1327C22.2698 21.9862 22.132 21.8866 21.9804 21.8682Z" fill="#72BF44"/>
<path d="M16.3461 16.3212L16.6553 16.8328L15.1433 18.3447L14.6318 18.0355C12.7125 16.8761 10.565 16.8784 9.28164 16.8798H9.14985C9.13141 16.8798 9.11436 16.8756 9.09593 16.8742C6.90472 16.9337 4.5407 16.0157 2.70201 14.177C-0.503012 10.972 -0.915911 6.16931 1.78221 3.47119C3.61859 1.63481 6.42961 1.24126 9.04847 2.18641C8.83096 2.64125 8.66045 3.1228 8.55723 3.62971C6.47477 2.86382 4.27618 3.13479 2.86099 4.54997C0.757796 6.65317 1.17023 10.4877 3.7808 13.0978C6.3909 15.7079 10.2259 16.1208 12.3291 14.0176C13.1162 13.2305 13.5502 12.201 13.6493 11.084C13.9996 11.1448 14.3581 11.1831 14.7253 11.1831C14.8825 11.1831 15.0364 11.1711 15.1903 11.1596C15.1917 12.4582 15.2419 14.4927 16.3461 16.3212ZM14.6065 16.2954C14.3143 15.6687 14.1129 15.0415 13.9737 14.4369C13.8028 14.6678 13.6157 14.8895 13.4079 15.0968C13.2 15.3047 12.9788 15.4918 12.7475 15.6627C13.3526 15.8019 13.9793 16.0033 14.6065 16.2954Z" fill="#72BF44"/>
<path d="M13.4409 5.38802C12.8024 5.75645 12.085 5.93928 11.3546 5.93928C10.7546 5.93928 10.1462 5.81584 9.56568 5.57096C9.87894 7.95219 11.894 9.7973 14.3494 9.84477C14.1781 8.04535 14.9858 6.34165 16.4581 5.49142C17.3356 4.98444 18.3514 4.82038 19.3687 5.01289C19.3693 4.98287 19.3695 4.95277 19.3695 4.92262C19.3695 2.52097 17.6498 0.520984 15.3746 0.0869019C15.9835 2.17432 15.2243 4.35842 13.4409 5.38802Z" fill="#72BF44"/>
<path d="M14.3782 0C15.062 1.78639 14.4896 3.72376 12.9825 4.59391C11.9567 5.18633 10.6583 5.15999 9.53809 4.5391C9.73205 2.02175 11.8194 0.0347805 14.3782 0Z" fill="#72BF44"/>
<path d="M19.2668 5.92809C18.4427 5.75708 17.6205 5.87942 16.917 6.28553C15.752 6.95775 15.1184 8.32585 15.2641 9.77812C17.2649 9.44367 18.8571 7.90242 19.2668 5.92809Z" fill="#72BF44"/>
</svg>
