<svg
    width="202"
    height="202"
    viewBox="0 0 202 202"
    fill="none"
    xmlns="http://www.w3.org/2000/svg"
>
    <rect width="202" height="202" rx="100" fill="#2C3538" />
    <rect
    x="83.498"
    y="95.708"
    width="49.5833"
    height="24.7917"
    fill="#BE202F"
    />
    <path
    d="M107.561 114.667C111.186 114.667 114.124 111.729 114.124 108.104C114.124 104.48 111.186 101.542 107.561 101.542C103.937 101.542 100.999 104.48 100.999 108.104C100.999 111.729 103.937 114.667 107.561 114.667Z"
    fill="#FFC600"
    />
    <path
    fill-rule="evenodd"
    clip-rule="evenodd"
    d="M135.999 95.3157V120.893C135.999 121.481 135.521 121.958 134.933 121.958H81.6477C81.0595 121.958 80.582 121.481 80.582 120.893V95.3157C80.582 94.7267 81.0595 94.25 81.6477 94.25H134.933C135.521 94.25 135.999 94.7267 135.999 95.3157ZM131.736 113.433C129.381 113.433 127.473 115.341 127.473 117.696H89.1077C89.1077 115.341 87.1994 113.433 84.8449 113.433V102.776C87.1994 102.776 89.1077 100.867 89.1077 98.5128H127.473C127.473 100.867 129.381 102.776 131.736 102.776V113.433Z"
    fill="#FFC600"
    />
    <g filter="url(#filter0_f_9664_17691)">
    <rect
        x="82.041"
        y="94.25"
        width="48.125"
        height="21.875"
        rx="1"
        fill="#BE202F"
    />
    </g>
    <rect
    x="76.209"
    y="88.417"
    width="49.5833"
    height="24.7917"
    fill="#BE202F"
    />
    <path
    d="M100.272 107.376C103.897 107.376 106.835 104.438 106.835 100.813C106.835 97.1888 103.897 94.2507 100.272 94.2507C96.6478 94.2507 93.7096 97.1888 93.7096 100.813C93.7096 104.438 96.6478 107.376 100.272 107.376Z"
    fill="#FFC600"
    />
    <path
    fill-rule="evenodd"
    clip-rule="evenodd"
    d="M128.71 88.0247V113.602C128.71 114.19 128.232 114.667 127.644 114.667H74.3587C73.7704 114.667 73.293 114.19 73.293 113.602V88.0247C73.293 87.4357 73.7704 86.959 74.3587 86.959H127.644C128.232 86.959 128.71 87.4357 128.71 88.0247ZM124.447 106.142C122.092 106.142 120.184 108.05 120.184 110.404H81.8186C81.8186 108.05 79.9103 106.142 77.5558 106.142V95.4846C79.9103 95.4846 81.8186 93.5763 81.8186 91.2218H120.184C120.184 93.5763 122.092 95.4846 124.447 95.4846V106.142Z"
    fill="#FFC600"
    />
    <g filter="url(#filter1_f_9664_17691)">
    <rect
        x="74.75"
        y="86.958"
        width="48.125"
        height="21.875"
        rx="1"
        fill="#BE202F"
    />
    </g>
    <rect
    x="68.916"
    y="81.124"
    width="49.5833"
    height="24.7917"
    fill="#BE202F"
    />
    <path
    d="M92.9792 100.083C96.6035 100.083 99.5417 97.1446 99.5417 93.5202C99.5417 89.8958 96.6035 86.9577 92.9792 86.9577C89.3548 86.9577 86.4167 89.8958 86.4167 93.5202C86.4167 97.1446 89.3548 100.083 92.9792 100.083Z"
    fill="#FFC600"
    />
    <path
    fill-rule="evenodd"
    clip-rule="evenodd"
    d="M121.417 80.7317V106.309C121.417 106.897 120.939 107.374 120.351 107.374H67.0657C66.4774 107.374 66 106.897 66 106.309V80.7317C66 80.1427 66.4774 79.666 67.0657 79.666H120.351C120.939 79.666 121.417 80.1427 121.417 80.7317ZM117.154 98.8487C114.799 98.8487 112.891 100.757 112.891 103.112H74.5256C74.5256 100.757 72.6173 98.8487 70.2628 98.8487V88.1917C72.6173 88.1917 74.5256 86.2833 74.5256 83.9288H112.891C112.891 86.2833 114.799 88.1917 117.154 88.1917V98.8487Z"
    fill="#FFC600"
    />
    <path
    d="M115.584 68L105.584 62.2265V73.7735L115.584 68ZM84.959 69H106.584V67H84.959V69Z"
    fill="#FFC600"
    />
    <path
    d="M84.959 133.625L94.959 127.851V139.399L84.959 133.625ZM115.584 134.625H93.959V132.625H115.584V134.625Z"
    fill="#FFC600"
    />
    <defs>
    <filter
        id="filter0_f_9664_17691"
        x="78.041"
        y="90.25"
        width="56.125"
        height="29.875"
        filterUnits="userSpaceOnUse"
        color-interpolation-filters="sRGB"
    >
        <feFlood flood-opacity="0" result="BackgroundImageFix" />
        <feBlend
        mode="normal"
        in="SourceGraphic"
        in2="BackgroundImageFix"
        result="shape"
        />
        <feGaussianBlur
        stdDeviation="2"
        result="effect1_foregroundBlur_9664_17691"
        />
    </filter>
    <filter
        id="filter1_f_9664_17691"
        x="70.75"
        y="82.958"
        width="56.125"
        height="29.875"
        filterUnits="userSpaceOnUse"
        color-interpolation-filters="sRGB"
    >
        <feFlood flood-opacity="0" result="BackgroundImageFix" />
        <feBlend
        mode="normal"
        in="SourceGraphic"
        in2="BackgroundImageFix"
        result="shape"
        />
        <feGaussianBlur
        stdDeviation="2"
        result="effect1_foregroundBlur_9664_17691"
        />
    </filter>
    </defs>
</svg>