<svg width="16" height="15" viewBox="0 0 16 15" xmlns="http://www.w3.org/2000/svg">
<path fill-rule="evenodd" clip-rule="evenodd" d="M5.08105 10L3.75911 13.804C3.57762 14.5069 2.92534 15 2.17704 15H1.79414C0.802829 15 0.0408219 14.1507 0.179398 13.2003L1.54775 3.81579L1.55098 3.81798C1.62065 2.4247 2.80941 1.31579 4.26568 1.31579H11.0605C12.5168 1.31579 13.7056 2.42478 13.7752 3.81813L13.7784 3.81579L15.1468 13.2003C15.2853 14.1507 14.5233 15 13.532 15H13.1885C12.4221 15 11.7591 14.4833 11.5954 13.7585L10.449 10H5.08105ZM4.4636 3.71164C4.48908 3.38739 4.98014 3.38739 5.00562 3.71164L5.06284 4.43976C5.07302 4.56935 5.17939 4.67234 5.31323 4.6822L6.06524 4.7376C6.40014 4.76228 6.40014 5.23772 6.06524 5.2624L5.31323 5.3178C5.17939 5.32766 5.07302 5.43065 5.06284 5.56024L5.00562 6.28836C4.98014 6.61261 4.48908 6.61261 4.4636 6.28836L4.40638 5.56024C4.3962 5.43065 4.28983 5.32766 4.15599 5.3178L3.40398 5.2624C3.06908 5.23772 3.06908 4.76228 3.40398 4.7376L4.15599 4.6822C4.28983 4.67234 4.3962 4.56935 4.40638 4.43976L4.4636 3.71164ZM9.85332 4.27454C9.63453 4.02781 9.98176 3.69162 10.2366 3.90345L10.8088 4.37914C10.9106 4.46379 11.0611 4.46379 11.1629 4.37914L11.7351 3.90345C11.9899 3.69162 12.3372 4.02781 12.1184 4.27454L11.6271 4.82857C11.5396 4.92718 11.5396 5.07282 11.6271 5.17143L12.1184 5.72546C12.3372 5.97219 11.9899 6.30839 11.7351 6.09655L11.1629 5.62086C11.0611 5.53621 10.9106 5.53621 10.8088 5.62086L10.2366 6.09655C9.98175 6.30839 9.63453 5.97219 9.85332 5.72546L10.3446 5.17143C10.432 5.07282 10.432 4.92718 10.3446 4.82857L9.85332 4.27454Z"/>
<path d="M6.14253 0.526316C6.14253 0.23564 6.3859 0 6.68611 0H8.86046C9.16067 0 9.40404 0.23564 9.40404 0.526316C9.40404 0.816992 9.16067 1.05263 8.86046 1.05263H6.68611C6.3859 1.05263 6.14253 0.816992 6.14253 0.526316Z"/>
</svg>
