<svg width="16" height="16" viewBox="0 0 16 16" xmlns="http://www.w3.org/2000/svg">
<path fill-rule="evenodd" clip-rule="evenodd" d="M12.4107 9.9073C12.4107 11.279 12.0535 12.6042 11.3387 13.8719C10.9465 14.5677 10.4606 15.2082 9.90025 15.773C11.0404 15.4952 12.0849 14.9731 12.9751 14.2653L12.9702 14.2618C14.428 12.1995 14.683 8.88538 14.1024 6.86208C13.7123 6.80519 13.3159 6.77661 12.9143 6.77661C12.5537 6.77661 12.1965 6.80003 11.8441 6.84634C12.2219 7.88809 12.4107 8.90986 12.4107 9.9073ZM14.6971 12.3776C15.5209 11.1198 16 9.61585 16 8C16 7.78904 15.9918 7.57998 15.9758 7.37313C15.6357 7.23431 15.2885 7.11951 14.9352 7.02895C15.0821 7.67334 15.1599 8.40285 15.1599 9.16632C15.1599 10.2165 15.0128 11.3311 14.6971 12.3776ZM15.8616 6.51078C15.6517 5.39583 15.2105 4.36253 14.5897 3.46265C13.6622 3.1033 12.6828 2.92149 11.6674 2.92149C9.26493 2.92149 7.02661 3.96185 5.47762 5.7875C6.15425 6.51729 6.9823 7.12571 7.89743 7.56459C9.38014 6.54735 11.1098 6.01137 12.9147 6.01137C13.9318 6.01079 14.9194 6.17847 15.8616 6.51078ZM13.7062 2.39292C13.1371 1.81386 12.4806 1.32103 11.758 0.935817C11.1121 0.773807 10.4454 0.690475 9.77658 0.690475C7.56553 0.690475 5.44146 1.59928 3.91366 3.19158C4.15839 3.90717 4.51581 4.57776 4.97951 5.19303C6.67091 3.25685 9.08202 2.15586 11.6674 2.15586C12.3544 2.15586 13.0398 2.23627 13.7062 2.39292ZM8.51063 0.0160334C8.34179 0.00539802 8.17152 0 8 0C6.35219 0 4.82073 0.498199 3.54805 1.35219C3.56843 1.68512 3.61299 2.01679 3.6816 2.34465C5.01506 1.08943 6.70689 0.276959 8.51063 0.0160334ZM2.83042 1.89442C1.9171 2.6685 1.17975 3.64383 0.686859 4.75194C0.870022 5.59802 1.19038 6.40383 1.64142 7.15224C2.9498 9.32341 5.04924 10.8043 7.30449 11.1641C7.57002 10.2267 7.66328 9.24689 7.57731 8.26006C6.464 7.72802 5.46719 6.96603 4.68348 6.04643L4.68264 6.04567L4.65093 6.00826L4.48042 5.8083L4.484 5.80375C4.00192 5.19388 3.61652 4.53163 3.33302 3.82627L3.13821 3.28501C3.13001 3.25932 3.12195 3.23358 3.11401 3.20779L3.11438 3.20768C2.98143 2.77658 2.88658 2.33741 2.83042 1.89442ZM0.251002 6.00402C0.443159 6.5385 0.688556 7.05424 0.985603 7.54719C2.38548 9.87043 4.6296 11.4695 7.05761 11.8988C6.9183 12.2557 6.75292 12.6047 6.56189 12.9436C6.39551 13.2387 6.18834 13.5318 5.93861 13.8247C3.93026 13.3427 2.02704 11.8726 0.807232 9.84757C0.464724 9.27883 0.193978 8.6742 0.000130484 8.04618C4.35335e-05 8.0308 0 8.0154 0 8C0 7.31085 0.0871399 6.64205 0.251002 6.00402ZM0.493672 10.7731C1.72595 12.5615 3.47101 13.8858 5.33648 14.4537C5.07936 14.6958 4.79238 14.9387 4.47452 15.1833C2.64358 14.283 1.207 12.7033 0.493672 10.7731ZM5.27583 15.5242C6.16334 14.7956 6.80666 14.0685 7.22888 13.3193C7.98487 11.978 8.37405 10.493 8.37405 8.97368C8.37405 8.71295 8.36247 8.45129 8.3395 8.18924C9.17854 7.61545 10.1042 7.20984 11.079 6.98462C11.9467 9.28756 11.8103 11.4767 10.6721 13.4962C10.1171 14.4803 9.38824 15.3154 8.50075 15.9846C8.33515 15.9948 8.16818 16 8 16C7.04345 16 6.12611 15.8321 5.27583 15.5242Z"/>
</svg>
