<svg width="8" height="8" viewBox="0 0 8 8" fill="none" xmlns="http://www.w3.org/2000/svg">
<path d="M1.08071 1.08071C-0.360237 2.52166 -0.360237 4.85834 1.08071 6.29929C2.52166 7.74024 4.85834 7.74024 6.29929 6.29929C7.74024 4.85834 7.74024 2.52166 6.29929 1.08071C4.85834 -0.360237 2.52166 -0.360237 1.08071 1.08071ZM3.83799 1.54805C4.14955 1.54805 4.39879 1.80508 4.39879 2.11664C4.39879 2.4282 4.14176 2.68523 3.83799 2.68523C3.52643 2.68523 3.2694 2.4282 3.2694 2.10885C3.2694 1.79729 3.52643 1.54805 3.83799 1.54805ZM4.64025 5.35683C4.62467 5.40356 4.59351 5.45808 4.56236 5.48924C4.35985 5.69954 4.1106 5.82416 3.81462 5.82416C3.67442 5.82416 3.54201 5.82416 3.40181 5.8008C3.17593 5.76964 2.88774 5.48924 2.92669 5.19326C2.95784 4.99075 2.989 4.78824 3.02015 4.58573C3.08246 4.23522 3.14478 3.87693 3.20709 3.52643C3.20709 3.50307 3.21488 3.4797 3.21488 3.45633C3.21488 3.30834 3.16814 3.25382 3.02015 3.23824C2.95784 3.23045 2.89553 3.22266 2.83322 3.20709C2.76312 3.18372 2.72417 3.12141 2.73196 3.06689C2.73975 3.00458 2.7787 2.96563 2.85659 2.95005C2.89553 2.94226 2.94226 2.94226 2.989 2.94226C3.16035 2.94226 3.33171 2.94226 3.51085 2.94226C3.69779 2.94226 3.87693 2.94226 4.06387 2.94226C4.19628 2.94226 4.27417 3.00458 4.27417 3.13699C4.27417 3.24603 4.25859 3.35508 4.23522 3.46412C4.16512 3.86914 4.08723 4.26638 4.01713 4.6714C3.99377 4.80382 3.96261 4.93623 3.94703 5.06864C3.93925 5.13095 3.94703 5.20105 3.96261 5.26336C3.98598 5.34904 4.04829 5.39577 4.13397 5.38798C4.20407 5.3802 4.27417 5.35683 4.34427 5.32567C4.39879 5.30231 4.44553 5.26336 4.50005 5.24778C4.59351 5.21663 4.66361 5.27115 4.64025 5.35683Z" fill="#FFC600"/>
</svg>
