<svg
    width="16"
    height="16"
    viewBox="0 0 16 16"
    fill="none"
    xmlns="http://www.w3.org/2000/svg"
    >
    <path
        d="M13.6569 2.34315C16.7811 5.46734 16.7811 10.5327 13.6569 13.6569C10.5327 16.7811 5.46734 16.7811 2.34315 13.6569C-0.781049 10.5327 -0.781049 5.46734 2.34315 2.34315C5.46734 -0.781049 10.5327 -0.781049 13.6569 2.34315Z"
        fill="#18242A"
    />
    <path
        d="M9.71045 5.75224L5 10.4627L5.53731 11L10.2478 6.28955L10.2478 10.7313L11 10.7313L11 5L5.26866 5L5.26866 5.75224L9.71045 5.75224Z"
        fill="white"
    />
    <path
        d="M9.71045 5.75224L5 10.4627L5.53731 11L10.2478 6.28955L10.2478 10.7313L11 10.7313L11 5L5.26866 5L5.26866 5.75224L9.71045 5.75224Z"
        stroke="white"
    />
</svg>