
<svg width="258" height="84" viewBox="0 0 258 84" fill="none" xmlns="http://www.w3.org/2000/svg">
<path d="M32.9544 -3.8147e-05C24.4036 -3.8147e-05 12.7755 3.21974 10.3397 15.7942L0 83.1724H123.108L137.105 -3.8147e-05H32.9544Z" fill="#BE202F"/>
<path d="M166.92 42.5896C166.92 43.6957 166.715 45.104 166.41 46.8743L165.364 52.812C163.895 61.1804 161.404 63.6012 154.254 63.6012C152.062 63.6012 150.182 63.4838 148.672 63.3889C148.475 63.3764 148.282 63.3652 148.098 63.354L152.48 38.9079C155.138 37.8105 158.839 37.5108 160.68 37.5108C165.229 37.5108 166.92 38.8867 166.92 42.5896ZM163.369 27.4533C160.201 27.4533 156.992 28.0113 154.171 29.04L157.068 12.498H145.539L135.099 72.414L135.994 72.5252C143.605 73.4628 147.366 73.7324 152.76 73.7324C167.112 73.7324 174.045 68.0657 176.69 54.1716L177.813 48.2351L177.816 48.2201C178.106 46.5172 178.221 44.8843 178.323 43.4473C178.355 42.9966 178.387 42.5596 178.423 42.064C178.423 32.3684 173.358 27.4533 163.369 27.4533Z" fill="white"/>
<path d="M195.585 46.3916C196.845 40.1306 200.054 37.2105 205.659 37.2105C211.653 37.2105 212.422 40.3266 212.422 43.0408C212.422 43.9584 212.315 45.107 212.109 46.3916H195.585ZM206.407 27.5287C193.865 27.5287 186.43 34.1942 183.674 47.9098L183.152 50.539C182.644 53.0859 182.387 55.5953 182.387 57.9961C182.387 68.5855 188.362 73.7329 200.655 73.7329C206.15 73.7329 211.618 73.1187 216.909 71.9077L217.472 71.7791L218.938 62.7515L217.834 62.8538C212.084 63.3857 206.961 63.8264 202.522 63.8264C194.351 63.8264 193.667 61.1322 193.667 58.3719C193.667 57.443 193.833 56.3281 194.131 54.5703H222.204L222.341 53.8811C223.135 49.8861 223.628 46.7562 223.628 43.4927C223.628 33.1979 217.512 27.5287 206.407 27.5287Z" fill="white"/>
<path d="M246.201 38.1868H256.451L258 28.6548H247.781L249.723 17.8331H238.117L236.176 28.6548H228.312L226.937 37.5101L234.611 38.1106L230.746 59.6316C230.484 60.9537 230.358 62.3607 230.358 63.9325C230.358 70.5269 233.814 73.7329 240.926 73.7329C243.585 73.7329 246.681 73.3084 249.877 72.5044L250.429 72.3658L251.74 63.9912L250.608 64.1335C249.406 64.2846 246.372 64.4269 244.363 64.4269C241.785 64.4269 241.785 64.0361 241.785 63.2558C241.785 62.4818 241.899 61.5829 242.146 60.4031L246.201 38.1868Z" fill="white"/>
<path d="M29.5613 23.8112L30.6961 16.8623C30.6961 16.8623 31.3004 12.3716 38.0458 12.3716H43.2169H75.0589L73.1088 24.2232L39.7175 61.727H67.0151L65.1461 73.0854H19.9756L21.8445 61.4011L55.317 23.8112H29.5613Z" fill="white"/>
<path d="M125.107 23.4854H99.191L96.754 36.7228H120.964L119.178 47.3472H94.965L92.287 61.9742H118.203L116.334 73.0854H75.2256L85.8675 12.3728H126.976L125.107 23.4854Z" fill="white"/>
</svg>
