<svg width="20" height="20" viewBox="0 0 20 20" fill="none" xmlns="http://www.w3.org/2000/svg">
<path fill-rule="evenodd" clip-rule="evenodd" d="M12.3162 10.7055C13.3998 9.98508 14.1139 8.75319 14.1139 7.35452C14.1139 5.1337 12.3135 3.33337 10.0927 3.33337C7.87189 3.33337 6.07157 5.1337 6.07157 7.35452C6.07157 8.78573 6.81928 10.0423 7.94539 10.7549C6.99972 11.1538 6.25874 11.7887 5.69567 12.5032C4.7582 13.6929 4.3057 15.1086 4.17192 16.0642C4.13141 16.3536 4.33316 16.621 4.62255 16.6615C4.91194 16.702 5.17938 16.5003 5.2199 16.2109C5.33303 15.4028 5.72709 14.173 6.52683 13.1582C7.31328 12.1601 8.48314 11.3757 10.1985 11.3757C11.9117 11.3757 13.0423 12.1577 13.7828 13.1476C14.538 14.1572 14.8823 15.3828 14.963 16.1902C14.9921 16.481 15.2514 16.6931 15.5422 16.664C15.8329 16.6349 16.0451 16.3757 16.016 16.0849C15.9204 15.1286 15.5239 13.7087 14.6301 12.5138C14.0686 11.7631 13.3093 11.1015 12.3162 10.7055ZM13.0557 7.35452C13.0557 8.99091 11.7291 10.3175 10.0927 10.3175C8.45632 10.3175 7.12976 8.99091 7.12976 7.35452C7.12976 5.71813 8.45632 4.39157 10.0927 4.39157C11.7291 4.39157 13.0557 5.71813 13.0557 7.35452Z" fill="white"/>
</svg>
