<svg width="37" height="32" viewBox="0 0 37 32" fill="none" xmlns="http://www.w3.org/2000/svg">
<g id="Group 383">
<g id="Group 386">
<g id="Group 382">
<g id="Group 380">
<rect id="Rectangle 218" width="36.1239" height="31.3707" rx="7" fill="#18242A"/>
</g>
</g>
<path id="Vector" d="M20.0727 8.24578L16.7722 10.1513L17.725 11.8016L21.0255 9.89604C22.387 9.11 24.144 9.5808 24.93 10.9423C25.7161 12.3037 25.2453 14.0608 23.8838 14.8468L20.5833 16.7524L21.5361 18.4026L24.8366 16.4971C27.114 15.1822 27.8951 12.2668 26.5803 9.98948C25.2655 7.71213 22.3501 6.93095 20.0727 8.24578ZM18.9331 17.7051L15.6325 19.6107C14.2711 20.3967 12.514 19.9259 11.728 18.5645C10.942 17.203 11.4128 15.446 12.7742 14.6599L16.0747 12.7544L15.122 11.1041L11.8214 13.0097C9.54409 14.3245 8.76291 17.2399 10.0777 19.5172C11.3926 21.7946 14.308 22.5758 16.5853 21.2609L19.8858 19.3554L18.9331 17.7051ZM14.5521 15.8338L21.1531 12.0227L22.1059 13.6729L15.5049 17.484L14.5521 15.8338Z" fill="white"/>
</g>
</g>
</svg>
