<svg width="37" height="32" viewBox="0 0 37 32" fill="none" xmlns="http://www.w3.org/2000/svg">
<g id="Group 381">
<g id="Group 380">
<rect id="Rectangle 218" width="36.1239" height="31.3707" rx="7" fill="#18242A"/>
</g>
<g id="Group 380_2">
<path id="Vector" d="M13.8718 21.6477L14.1534 21.7948C15.3012 22.5085 16.6134 22.8815 17.9489 22.8738C22.0602 22.864 25.4382 19.3245 25.4382 15.0268C25.4382 12.9498 24.6491 10.9552 23.2458 9.48482C21.8444 7.99929 19.9297 7.16211 17.9344 7.16211C13.8418 7.16211 10.4746 10.6825 10.4746 14.9601C10.4746 14.9939 10.4746 15.0273 10.4751 15.0611C10.4874 16.5155 10.8765 17.9391 11.6011 19.1808L11.7887 19.475L11.0381 22.3686L13.8718 21.6477Z" fill="#18242A"/>
<path id="Vector_2" d="M24.3474 9.03384C22.6823 7.34789 20.3982 6.40205 18.0197 6.41318H18.0045C13.1062 6.4132 9.07535 10.4136 9.07535 15.2748C9.07535 15.2976 9.07584 15.32 9.07584 15.3428C9.09429 16.8884 9.49745 18.4054 10.2495 19.759L8.97803 24.3694L13.7165 23.1561C15.0255 23.8694 16.4971 24.237 17.9904 24.2238C22.9068 24.1971 26.9372 20.174 26.9342 15.2942C26.946 12.9497 26.0144 10.695 24.3474 9.03384ZM18.0197 22.7194C16.696 22.7262 15.3957 22.3738 14.2593 21.7002L13.9659 21.5546L11.1443 22.2826L11.8778 19.5164L11.6822 19.2252C10.9557 18.0609 10.5707 16.7186 10.5707 15.3491C10.5707 11.3104 13.9194 7.98703 17.9889 7.98703C22.0584 7.98703 25.4071 11.3104 25.4071 15.3491C25.4071 17.8921 24.0794 20.2613 21.9024 21.6032C20.751 22.3351 19.4115 22.7227 18.0442 22.7194M22.3425 17.3325L21.8046 17.0899C21.8046 17.0899 21.0222 16.7501 20.5332 16.5075C20.4843 16.5075 20.4354 16.459 20.3865 16.459C20.2659 16.4619 20.1481 16.4953 20.0442 16.556C19.94 16.6167 19.9953 16.6046 19.3107 17.381C19.2642 17.4718 19.1689 17.5286 19.0662 17.5266H19.0173C18.9437 17.5144 18.8756 17.4806 18.8217 17.4296L18.5772 17.3325C18.0525 17.1121 17.5722 16.7998 17.159 16.4104C17.0612 16.3134 16.9146 16.2163 16.8167 16.1192C16.4547 15.7751 16.1421 15.3832 15.8876 14.9545L15.8387 14.8575C15.7963 14.7981 15.7633 14.7327 15.7409 14.6633C15.7282 14.5793 15.7455 14.4934 15.7898 14.4207C15.8343 14.3479 15.9854 14.178 16.1321 14.0325C16.2788 13.8869 16.2788 13.7898 16.3766 13.6927C16.4269 13.6235 16.4616 13.5443 16.4785 13.4606C16.4954 13.3769 16.494 13.2906 16.4744 13.2074C16.2465 12.5795 15.9854 11.9639 15.692 11.3633C15.6134 11.2419 15.4909 11.1551 15.3497 11.1206H14.8118C14.714 11.1206 14.6162 11.1692 14.5184 11.1692L14.4695 11.2177C14.3717 11.2662 14.2739 11.3633 14.1761 11.4118C14.0783 11.4603 14.0294 11.6059 13.9316 11.703C13.5898 12.1317 13.4006 12.6607 13.3937 13.2074C13.3991 13.592 13.4823 13.9716 13.6382 14.3236L13.6871 14.4692C14.1262 15.4009 14.7403 16.2409 15.4964 16.9443L15.692 17.1384C15.8344 17.2554 15.9654 17.3854 16.0832 17.5266C17.0964 18.4016 18.2999 19.0325 19.5992 19.3708C19.7459 19.4193 19.9415 19.4193 20.0882 19.4678H20.5772C20.8328 19.4553 21.0828 19.3892 21.3107 19.2737C21.4305 19.2198 21.5449 19.1548 21.653 19.0796L21.7508 18.9825C21.8486 18.8855 21.9464 18.8369 22.0442 18.7399C22.1398 18.6554 22.2222 18.5572 22.2887 18.4487C22.3826 18.2313 22.4486 18.0032 22.4843 17.7693V17.4296C22.4404 17.3904 22.3909 17.3577 22.3376 17.3325" fill="white"/>
</g>
</g>
</svg>
