<svg width="37" height="32" viewBox="0 0 37 32" fill="none" xmlns="http://www.w3.org/2000/svg">
<g id="Group 277">
<rect id="Rectangle 214" width="36.1239" height="31.3707" rx="7" fill="#18242A"/>
<g id="layer1">
<path id="path1009" d="M25.3719 7.1543L19.3393 13.6715L19.0564 13.9771L19.3058 14.3106L26.3873 23.7786H22.0327L17.0076 17.0594L16.6481 16.5786L16.2403 17.0192L9.98335 23.7786H9.69935L16.2381 16.7148L16.521 16.4091L16.2716 16.0756L9.59932 7.1543H13.9539L18.5701 13.3265L18.9297 13.8073L19.3375 13.3667L25.0878 7.1543H25.3719ZM11.0225 7.36711H10.0242L10.6221 8.16657L21.9893 23.3652L22.1393 23.5658H22.3897H24.9638H25.9621L25.3642 22.7663L13.997 7.56764L13.8471 7.36711H13.5966H11.0225Z" fill="white" stroke="white"/>
</g>
</g>
</svg>
