<svg width="19" height="15" viewBox="0 0 19 15" fill="none" xmlns="http://www.w3.org/2000/svg">
<path d="M11.0722 1.24578L7.77172 3.15133L8.7245 4.80159L12.025 2.89604C13.3865 2.11 15.1435 2.5808 15.9296 3.94226C16.7156 5.30372 16.2448 7.06077 14.8833 7.84681L11.5828 9.75236L12.5356 11.4026L15.8361 9.49706C18.1135 8.18223 18.8946 5.26684 17.5798 2.98948C16.265 0.712131 13.3496 -0.069047 11.0722 1.24578ZM9.93257 10.7051L6.63206 12.6107C5.27059 13.3967 3.51355 12.9259 2.72751 11.5645C1.94147 10.203 2.41227 8.44596 3.77373 7.65992L7.07424 5.75437L6.12146 4.10411L2.82095 6.00966C0.543599 7.32449 -0.237579 10.2399 1.07725 12.5172C2.39208 14.7946 5.30748 15.5758 7.58483 14.2609L10.8853 12.3554L9.93257 10.7051ZM5.55163 8.83379L12.1527 5.02268L13.1054 6.67294L6.50441 10.484L5.55163 8.83379Z" fill="white"/>
</svg>
