<svg width="16" height="16" viewBox="0 0 16 16" fill="none" xmlns="http://www.w3.org/2000/svg">
<g id="account_circle_black_24dp 1" clip-path="url(#clip0_5153_49337)">
<g id="Group">
<g id="Vector">
<path d="M5.83951 2.4L2.38272 2.4C1.61907 2.4 1 2.32681 1 3.1V13.68C1 14.409 1.61907 15 2.38272 15H12.4074C13.171 15 13.7901 14.409 13.7901 13.68V11.85H11.1975C9.7657 11.85 8.60494 10.5919 8.60494 9.225C8.60494 7.85811 9.7657 6.6 11.1975 6.6H13.7901V5.47002C13.7901 4.74097 13.171 4.15 12.4074 4.15H2.38272V3.45H3.93827L5.83951 2.4Z" fill="#D9D9D9"/>
<path d="M12.0617 3.45L11.5432 2.4L12.4074 2.4C13.171 2.4 13.7901 3.02681 13.7901 3.8V4.15C13.4444 3.45 12.5802 3.45 12.4074 3.45H12.0617Z" fill="#D9D9D9"/>
<path d="M5.14815 3.4315H11.3704L10.3333 1.50651C9.81481 0.806541 9.2963 0.98152 8.95062 1.15651L5.14815 3.4315Z" fill="#D9D9D9"/>
<path fill-rule="evenodd" clip-rule="evenodd" d="M11.3704 7.3C10.3203 7.3 9.46914 8.16185 9.46914 9.225C9.46914 10.2881 10.3203 11.15 11.3704 11.15H15V7.3H11.3704ZM11.3704 10.45C12.0386 10.45 12.5802 9.90155 12.5802 9.225C12.5802 8.54845 12.0386 8 11.3704 8C10.7022 8 10.1605 8.54845 10.1605 9.225C10.1605 9.90155 10.7022 10.45 11.3704 10.45Z" fill="#D9D9D9"/>
</g>
</g>
</g>
<defs>
<clipPath id="clip0_5153_49337">
<rect width="16" height="16" fill="white"/>
</clipPath>
</defs>
</svg>
