<svg width="32" height="32" viewBox="0 0 32 32" fill="none" xmlns="http://www.w3.org/2000/svg">
<g clip-path="url(#clip0_4668_11309)">
<path d="M16 32.0022C24.8366 32.0022 32 24.8388 32 16.0022C32 7.16564 24.8366 0.00219727 16 0.00219727C7.16344 0.00219727 0 7.16564 0 16.0022C0 24.8388 7.16344 32.0022 16 32.0022Z" fill="#2C3538"/>
<path d="M22.2282 20.6283L22.937 16.0023H18.4999V13.0007C18.4999 11.7362 19.1187 10.5009 21.1077 10.5009H23.126V6.56337C23.126 6.56337 21.2945 6.25061 19.5439 6.25061C15.8899 6.25061 13.5003 8.46465 13.5003 12.4765V16.0023H9.43677V20.6283H13.5003V31.8088C14.3148 31.937 15.1496 32.0023 16.0001 32.0023C16.8506 32.0023 17.6854 31.9348 18.4999 31.8088V20.6283H22.2282Z" fill="white"/>
</g>
<defs>
<clipPath id="clip0_4668_11309">
<rect width="32" height="32" fill="white"/>
</clipPath>
</defs>
</svg>
