<svg width="16" height="16" viewBox="0 0 16 16" fill="none" xmlns="http://www.w3.org/2000/svg">
<path d="M3.84575 2.99991C2.84789 2.99991 1.49089 3.42022 1.20664 5.06166L0 13.8571H14.3666L16 2.99991H3.84575Z" fill="#BE202F"/>
<path d="M2.41126 6.17571L2.56261 5.24893C2.56261 5.24893 2.6432 4.65 3.54285 4.65H4.23252H8.4793L8.21922 6.23066L3.7658 11.2325H7.40649L7.15723 12.7474H1.13281L1.38207 11.1891L5.84631 6.17571H2.41126Z" fill="white"/>
<path d="M14.5633 6.13225H11.1069L10.7819 7.89773H14.0108L13.7725 9.31471H10.5433L10.1861 11.2655H13.6425L13.3932 12.7474H7.91064L9.32996 4.65017H14.8126L14.5633 6.13225Z" fill="white"/>
</svg>
