<svg width="32" height="32" viewBox="0 0 32 32" fill="none" xmlns="http://www.w3.org/2000/svg">
<g clip-path="url(#clip0_555_6123)">
<path d="M16.0244 32C24.8744 32 32.0487 24.8366 32.0487 16C32.0487 7.16344 24.8744 0 16.0244 0C7.17436 0 0 7.16344 0 16C0 24.8366 7.17436 32 16.0244 32Z" fill="#E0E0E0"/>
<path d="M16.0244 31.5137C24.7399 31.5137 31.8052 24.4591 31.8052 15.7568C31.8052 7.05457 24.7399 0 16.0244 0C7.30886 0 0.24353 7.05457 0.24353 15.7568C0.24353 24.4591 7.30886 31.5137 16.0244 31.5137Z" fill="white"/>
<mask id="mask0_555_6123" style="mask-type:luminance" maskUnits="userSpaceOnUse" x="5" y="5" width="22" height="22">
<path d="M26.2527 13.9086H16.2679V18.0423H22.0153C21.4795 20.6685 19.239 22.1761 16.2679 22.1761C12.7611 22.1761 9.93611 19.3554 9.93611 15.8539C9.93611 12.3524 12.7611 9.53168 16.2679 9.53168C17.7778 9.53168 19.1416 10.0667 20.2131 10.942L23.3303 7.82956C21.4308 6.17606 18.9955 5.15479 16.2679 5.15479C10.3258 5.15479 5.55255 9.92074 5.55255 15.8539C5.55255 21.787 10.3258 26.553 16.2679 26.553C21.6256 26.553 26.4962 22.6624 26.4962 15.8539C26.4962 15.2217 26.3988 14.5408 26.2527 13.9086Z" fill="white"/>
</mask>
<g mask="url(#mask0_555_6123)">
<path d="M4.57843 22.1761V9.53174L12.8585 15.8539L4.57843 22.1761Z" fill="#FBBC05"/>
</g>
<mask id="mask1_555_6123" style="mask-type:luminance" maskUnits="userSpaceOnUse" x="5" y="5" width="22" height="22">
<path d="M26.2527 13.9086H16.2679V18.0423H22.0153C21.4795 20.6685 19.239 22.1761 16.2679 22.1761C12.7611 22.1761 9.93611 19.3554 9.93611 15.8539C9.93611 12.3524 12.7611 9.53168 16.2679 9.53168C17.7778 9.53168 19.1416 10.0667 20.2131 10.942L23.3303 7.82956C21.4308 6.17606 18.9955 5.15479 16.2679 5.15479C10.3258 5.15479 5.55255 9.92074 5.55255 15.8539C5.55255 21.787 10.3258 26.553 16.2679 26.553C21.6256 26.553 26.4962 22.6624 26.4962 15.8539C26.4962 15.2217 26.3988 14.5408 26.2527 13.9086Z" fill="white"/>
</mask>
<g mask="url(#mask1_555_6123)">
<path d="M4.57843 9.53167L12.8585 15.8539L16.2679 12.8873L27.9574 10.9906V4.18213H4.57843V9.53167Z" fill="#EA4335"/>
</g>
<mask id="mask2_555_6123" style="mask-type:luminance" maskUnits="userSpaceOnUse" x="5" y="5" width="22" height="22">
<path d="M26.2527 13.9086H16.2679V18.0423H22.0153C21.4795 20.6685 19.239 22.1761 16.2679 22.1761C12.7611 22.1761 9.93611 19.3554 9.93611 15.8539C9.93611 12.3524 12.7611 9.53168 16.2679 9.53168C17.7778 9.53168 19.1416 10.0667 20.2131 10.942L23.3303 7.82956C21.4308 6.17606 18.9955 5.15479 16.2679 5.15479C10.3258 5.15479 5.55255 9.92074 5.55255 15.8539C5.55255 21.787 10.3258 26.553 16.2679 26.553C21.6256 26.553 26.4962 22.6624 26.4962 15.8539C26.4962 15.2217 26.3988 14.5408 26.2527 13.9086Z" fill="white"/>
</mask>
<g mask="url(#mask2_555_6123)">
<path d="M4.57843 22.176L19.1903 10.9906L23.0381 11.477L27.9574 4.18213V27.5256H4.57843V22.176Z" fill="#34A853"/>
</g>
<mask id="mask3_555_6123" style="mask-type:luminance" maskUnits="userSpaceOnUse" x="5" y="5" width="22" height="22">
<path d="M26.2527 13.9086H16.2679V18.0423H22.0153C21.4795 20.6685 19.239 22.1761 16.2679 22.1761C12.7611 22.1761 9.93611 19.3554 9.93611 15.8539C9.93611 12.3524 12.7611 9.53168 16.2679 9.53168C17.7778 9.53168 19.1416 10.0667 20.2131 10.942L23.3303 7.82956C21.4308 6.17606 18.9955 5.15479 16.2679 5.15479C10.3258 5.15479 5.55255 9.92074 5.55255 15.8539C5.55255 21.787 10.3258 26.553 16.2679 26.553C21.6256 26.553 26.4962 22.6624 26.4962 15.8539C26.4962 15.2217 26.3988 14.5408 26.2527 13.9086Z" fill="white"/>
</mask>
<g mask="url(#mask3_555_6123)">
<path d="M27.9574 27.5257L12.8585 15.8539L10.9102 14.395L27.9574 9.53174V27.5257Z" fill="#4285F4"/>
</g>
</g>
<defs>
<clipPath id="clip0_555_6123">
<rect width="32" height="32" fill="white"/>
</clipPath>
</defs>
</svg>
