<svg width="43" height="33" viewBox="0 0 43 33" fill="none" xmlns="http://www.w3.org/2000/svg">
<rect width="42.5303" height="32.5623" rx="7" fill="#18242A"/>
<path d="M10.262 25.601C10.0798 25.6461 9.07787 25.917 8.21252 25.917C7.11945 25.917 5.98083 25.601 5.98083 22.9823C5.98083 20.4089 7.48381 19.9574 8.62242 19.9574C9.44222 19.9574 10.0798 20.2734 10.0798 20.2734V21.0409C10.0798 21.0409 9.35113 20.77 8.62242 20.77C7.89371 20.77 7.02836 21.0861 7.02836 22.9372C7.02836 24.8335 7.71153 25.1043 8.30361 25.1043C8.71351 25.1043 9.26004 24.9689 9.26004 24.9689V23.0275H8.34915L8.25806 22.3051H10.262V25.601ZM10.8996 19.9574H15.1808L15.0442 20.8603H13.6323V25.8719H12.4937V20.9055H10.8541V19.9574H10.8996ZM16.0917 20.0025L18.0957 19.9574C20.6006 19.9574 20.5551 22.6212 19.0977 22.7566C20.6917 22.9823 20.6006 25.3301 19.0977 25.8719H16.1373V20.0025H16.0917ZM17.1848 20.9055V22.4406H18.2323C18.8244 22.3954 19.1432 21.0861 18.2779 20.9055H17.1848ZM17.1848 23.2532V24.9689H18.2323C19.4165 24.9689 19.1432 23.2984 18.2779 23.2532H17.1848ZM21.3294 21.6279C22.8323 20.9506 24.563 21.0861 24.8363 22.2148V25.8719H23.7888V25.2849C22.8779 26.2782 20.6917 26.0976 20.965 24.0659C21.1472 23.1178 22.1492 22.8469 23.6977 22.9823C23.8343 21.673 22.1492 22.3051 21.3294 22.5309V21.6279ZM22.1947 23.9305C21.5115 25.0592 22.8779 25.4204 23.6977 24.5626V23.795C23.1967 23.6144 22.4224 23.6144 22.1947 23.9305ZM27.0224 22.7115V25.917H25.8383V21.2667H26.9313V21.8085C28.5709 20.8603 29.8917 21.1312 30.1195 22.4857V25.8719H28.9353V22.6663C28.7076 21.8536 27.2957 22.3954 27.0224 22.7115ZM30.9848 25.917V19.9574H32.1234V25.8719H30.9848V25.917ZM33.7175 21.2667H35.0838L33.4898 23.3435L35.2205 25.917H33.9452L32.2601 23.2984L33.7175 21.2667ZM23.1056 13.6365H32.2145V4.65186H23.1056V13.6365Z" fill="#FEFEFE"/>
</svg>
