<svg width="86" height="28" viewBox="0 0 86 28" fill="none" xmlns="http://www.w3.org/2000/svg">
<path d="M10.9848 -1.33514e-05C8.13455 -1.33514e-05 4.2585 1.07325 3.44658 5.26474L0 27.7241H41.036L45.7015 -1.33514e-05H10.9848Z" fill="#BE202F"/>
<path d="M55.64 14.1972C55.64 14.566 55.5718 15.0354 55.4702 15.6255L55.1215 17.6047C54.6317 20.3942 53.8014 21.2011 51.4181 21.2011C50.6874 21.2011 50.0606 21.162 49.5575 21.1304C49.4918 21.1262 49.4273 21.1224 49.3661 21.1187L50.8268 12.97C51.7128 12.6042 52.9463 12.5043 53.5601 12.5043C55.0765 12.5043 55.64 12.9629 55.64 14.1972ZM54.4565 9.1518C53.4003 9.1518 52.3308 9.33782 51.3903 9.68073L52.3561 4.1667H48.513L45.0331 24.1387L45.3315 24.1758C47.8683 24.4883 49.1222 24.5782 50.92 24.5782C55.7041 24.5782 58.015 22.6893 58.8968 18.0579L59.271 16.0791L59.2722 16.0741C59.3687 15.5065 59.407 14.9621 59.4412 14.4831C59.4516 14.3329 59.4624 14.1873 59.4744 14.022C59.4744 10.7902 57.7861 9.1518 54.4565 9.1518Z" fill="white"/>
<path d="M65.1952 15.4644C65.6151 13.3774 66.6847 12.404 68.5532 12.404C70.5511 12.404 70.8075 13.4427 70.8075 14.3474C70.8075 14.6533 70.7717 15.0361 70.703 15.4644H65.1952ZM68.8025 9.17671C64.6218 9.17671 62.1436 11.3986 61.2247 15.9704L61.0508 16.8468C60.8814 17.6958 60.7957 18.5323 60.7957 19.3325C60.7957 22.8623 62.7874 24.5781 66.8852 24.5781C68.7167 24.5781 70.5395 24.3734 72.3031 23.9697L72.4908 23.9268L72.9794 20.9176L72.6115 20.9518C70.6947 21.129 68.9872 21.2759 67.5074 21.2759C64.7837 21.2759 64.5556 20.3779 64.5556 19.4578C64.5556 19.1482 64.611 18.7765 64.7104 18.1906H74.068L74.1138 17.9609C74.3785 16.6292 74.5429 15.5859 74.5429 14.4981C74.5429 11.0665 72.5041 9.17671 68.8025 9.17671Z" fill="white"/>
<path d="M82.0669 12.7297H85.4835L86 9.55238H82.5938L83.2409 5.94517H79.3723L78.7252 9.55238H76.1039L75.6457 12.5042L78.2038 12.7043L76.9154 19.878C76.828 20.3187 76.7859 20.7877 76.7859 21.3116C76.7859 23.5097 77.9378 24.5784 80.3087 24.5784C81.1951 24.5784 82.2271 24.4369 83.2925 24.1689L83.4764 24.1227L83.9134 21.3312L83.5359 21.3786C83.1352 21.429 82.1239 21.4764 81.4543 21.4764C80.595 21.4764 80.595 21.3462 80.595 21.0861C80.595 20.8281 80.6328 20.5284 80.7152 20.1352L82.0669 12.7297Z" fill="white"/>
<path d="M9.85373 7.93744L10.232 5.62113C10.232 5.62113 10.4334 4.12423 12.6819 4.12423H14.4056H25.0196L24.3696 8.07477L13.2391 20.576H22.3383L21.7153 24.3622H6.6585L7.28149 20.4674L18.439 7.93744H9.85373Z" fill="white"/>
<path d="M41.7021 7.82852H33.0636L32.2513 12.241H40.3213L39.7258 15.7825H31.6549L30.7623 20.6581H39.4008L38.7778 24.3619H25.0751L28.6224 4.12434H42.3251L41.7021 7.82852Z" fill="white"/>
</svg>
