<svg width="32" height="32" viewBox="0 0 32 32" fill="none" xmlns="http://www.w3.org/2000/svg">
<g clip-path="url(#clip0_4668_11312)">
<path d="M16 32C24.8366 32 32 24.8366 32 16C32 7.16344 24.8366 0 16 0C7.16344 0 0 7.16344 0 16C0 24.8366 7.16344 32 16 32Z" fill="#2C3538"/>
<path d="M20.4874 26.1296H11.5136C10.0411 26.1281 8.62922 25.5425 7.58784 24.5014C6.54647 23.4602 5.96059 22.0485 5.95874 20.5759V11.6022C5.96213 10.1305 6.54865 8.72016 7.58982 7.68007C8.631 6.63998 10.042 6.05494 11.5136 6.0531H20.4874C21.9598 6.05495 23.3715 6.64063 24.4128 7.68172C25.4541 8.72281 26.0401 10.1343 26.0423 11.6068V20.5806C26.0392 22.0523 25.4528 23.4629 24.4115 24.503C23.3703 25.5432 21.9591 26.1281 20.4874 26.1296ZM11.5136 8.00872C10.5602 8.00872 9.64567 8.38717 8.97103 9.06094C8.29639 9.7347 7.91676 10.6487 7.91552 11.6022V20.5759C7.91676 21.5288 8.29591 22.4422 8.9698 23.1159C9.64368 23.7896 10.5573 24.1684 11.5101 24.1694H20.4874C21.4402 24.1684 22.3538 23.7896 23.0277 23.1159C23.7016 22.4422 24.0808 21.5288 24.082 20.5759V11.6022C24.0808 10.6493 23.7016 9.73584 23.0277 9.06217C22.3538 8.3885 21.4402 8.00965 20.4874 8.00872H11.5136Z" fill="white"/>
<path d="M15.9999 19.8589C15.145 19.8589 14.3094 19.6054 13.5986 19.1305C12.8879 18.6556 12.3339 17.9805 12.0067 17.1908C11.6796 16.401 11.594 15.532 11.7608 14.6935C11.9276 13.8551 12.3392 13.085 12.9437 12.4805C13.5481 11.8761 14.3183 11.4644 15.1567 11.2977C15.9951 11.1309 16.8641 11.2165 17.6539 11.5436C18.4437 11.8707 19.1187 12.4247 19.5936 13.1355C20.0686 13.8463 20.322 14.6819 20.322 15.5368C20.3208 16.6827 19.865 17.7813 19.0548 18.5916C18.2445 19.4019 17.1458 19.8577 15.9999 19.8589ZM15.9999 13.176C15.5327 13.176 15.076 13.3146 14.6876 13.5742C14.2991 13.8337 13.9964 14.2027 13.8177 14.6343C13.639 15.066 13.5923 15.5409 13.6835 15.9991C13.7747 16.4573 13.9998 16.8782 14.3302 17.2084C14.6606 17.5387 15.0816 17.7636 15.5398 17.8546C15.9981 17.9456 16.473 17.8986 16.9045 17.7197C17.3361 17.5407 17.7049 17.2378 17.9643 16.8493C18.2237 16.4607 18.362 16.0039 18.3618 15.5368C18.3608 14.9107 18.1117 14.3106 17.6689 13.8681C17.2261 13.4255 16.6259 13.1767 15.9999 13.176Z" fill="white"/>
<path d="M21.2464 11.2774C21.8964 11.2774 22.4233 10.7505 22.4233 10.1006C22.4233 9.45061 21.8964 8.92371 21.2464 8.92371C20.5965 8.92371 20.0696 9.45061 20.0696 10.1006C20.0696 10.7505 20.5965 11.2774 21.2464 11.2774Z" fill="white"/>
</g>
<defs>
<clipPath id="clip0_4668_11312">
<rect width="32" height="32" fill="white"/>
</clipPath>
</defs>
</svg>
