<svg width="102" height="33" viewBox="0 0 102 33" fill="none" xmlns="http://www.w3.org/2000/svg">
<rect width="101.674" height="32.5623" rx="7" fill="#18242A"/>
<g clip-path="url(#clip0_1974_6972)">
<path fill-rule="evenodd" clip-rule="evenodd" d="M36.5209 17.0148L36.8021 15.3955C36.8021 15.3955 34.637 14.6842 32.8749 16.0034V22.4811H34.7461V17.2182C35.4918 16.6104 36.5209 17.0148 36.5209 17.0148Z" fill="white"/>
<mask id="mask0_1974_6972" style="mask-type:luminance" maskUnits="userSpaceOnUse" x="32" y="15" width="5" height="8">
<path d="M32.8749 16.0033C33.7227 15.3687 34.6638 15.204 35.4122 15.2041C36.2192 15.2041 36.8022 15.3955 36.8022 15.3955L36.5209 17.0148C36.5209 17.0148 35.4917 16.6104 34.7461 17.2181V22.481H32.8749V16.0033Z" fill="#03435F"/>
</mask>
<g mask="url(#mask0_1974_6972)">
<path fill-rule="evenodd" clip-rule="evenodd" d="M-81.0323 42.5576L182.483 42.5576V-335.084H-81.0323L-81.0323 42.5576Z" fill="white"/>
</g>
<mask id="mask1_1974_6972" style="mask-type:luminance" maskUnits="userSpaceOnUse" x="32" y="15" width="5" height="8">
<path d="M32.8749 16.0033C33.7227 15.3687 34.6637 15.2041 35.4122 15.2041C36.2192 15.2041 36.8022 15.3955 36.8022 15.3955L36.5209 17.0148C36.5209 17.0148 35.4917 16.6104 34.7461 17.2181V22.481H32.8749V16.0033Z" fill="#03435F"/>
</mask>
<g mask="url(#mask1_1974_6972)">
<path fill-rule="evenodd" clip-rule="evenodd" d="M29.7378 25.6545H39.9392V12.0306H29.7378V25.6545Z" fill="white"/>
</g>
<path fill-rule="evenodd" clip-rule="evenodd" d="M20.3888 13.5487L22.2591 13.1923V15.299H24.1099V16.9838H22.2591V19.4963C22.2591 19.9243 22.3275 20.2641 22.4674 20.5154C22.6057 20.7705 22.8831 20.8969 23.2996 20.8969C23.5033 20.8969 23.7078 20.8771 23.9236 20.8352C24.1333 20.7926 24.3288 20.7378 24.5047 20.6662L24.7693 22.2443C24.5429 22.3425 24.2927 22.4278 24.0168 22.5001C23.7401 22.5717 23.4003 22.609 22.9988 22.609C22.4885 22.609 22.0667 22.5337 21.7313 22.3844C21.3976 22.2351 21.1293 22.0256 20.9293 21.7583C20.7293 21.4933 20.5886 21.1681 20.5097 20.7873C20.4293 20.4072 20.3888 19.9875 20.3888 19.5245V13.5487Z" fill="white"/>
<mask id="mask2_1974_6972" style="mask-type:luminance" maskUnits="userSpaceOnUse" x="20" y="13" width="5" height="10">
<path d="M20.3889 13.5487L22.2592 13.1923V15.299H24.11V16.9838H22.2592V19.4963C22.2592 19.9245 22.3276 20.2641 22.4674 20.5154C22.6057 20.7706 22.8831 20.8969 23.2996 20.8969C23.5033 20.8969 23.7077 20.8771 23.9236 20.8352C24.1332 20.7926 24.3288 20.7378 24.5048 20.6663L24.7693 22.2443C24.543 22.3427 24.2927 22.4279 24.0168 22.5002C23.7401 22.5718 23.4003 22.609 22.9988 22.609C22.4883 22.609 22.0667 22.5337 21.7314 22.3844C21.3976 22.2351 21.1292 22.0256 20.9293 21.7584C20.7293 21.4933 20.5887 21.1681 20.5098 20.7873C20.4293 20.4072 20.3889 19.9876 20.3889 19.5245V13.5487Z" fill="#03435F"/>
</mask>
<g mask="url(#mask2_1974_6972)">
<path fill-rule="evenodd" clip-rule="evenodd" d="M-81.0323 42.5576L182.483 42.5576V-335.084H-81.0323L-81.0323 42.5576Z" fill="white"/>
</g>
<mask id="mask3_1974_6972" style="mask-type:luminance" maskUnits="userSpaceOnUse" x="20" y="13" width="5" height="10">
<path d="M20.3889 13.5487L22.2592 13.1923V15.299H24.11V16.9838H22.2592V19.4963C22.2592 19.9245 22.3276 20.2641 22.4674 20.5154C22.6057 20.7706 22.8831 20.8969 23.2996 20.8969C23.5033 20.8969 23.7077 20.8771 23.9236 20.8352C24.1332 20.7926 24.3288 20.7378 24.5048 20.6663L24.7693 22.2443C24.543 22.3427 24.2927 22.4279 24.0168 22.5002C23.7401 22.5718 23.4003 22.609 22.9988 22.609C22.4883 22.609 22.0667 22.5337 21.7314 22.3844C21.3976 22.2351 21.1292 22.0256 20.9293 21.7584C20.7293 21.4933 20.5887 21.1681 20.5098 20.7873C20.4293 20.4072 20.3889 19.9876 20.3889 19.5245V13.5487Z" fill="#03435F"/>
</mask>
<g mask="url(#mask3_1974_6972)">
<path fill-rule="evenodd" clip-rule="evenodd" d="M17.2516 25.7825H27.9063V10.0187H17.2516V25.7825Z" fill="white"/>
</g>
<path fill-rule="evenodd" clip-rule="evenodd" d="M39.5725 21.0304C39.9146 21.0304 40.1566 20.9922 40.3003 20.9206C40.443 20.8483 40.5122 20.7067 40.5122 20.4995C40.5122 20.3357 40.422 20.1933 40.237 20.0722C40.0521 19.9489 39.7739 19.8118 39.3966 19.6556C39.1041 19.5375 38.838 19.4158 38.5982 19.2901C38.3614 19.1622 38.1584 19.0129 37.9908 18.8354C37.8238 18.6588 37.6945 18.4469 37.6013 18.2002C37.5081 17.9579 37.4638 17.6648 37.4638 17.3189C37.4638 16.6494 37.6945 16.1186 38.1539 15.7293C38.6139 15.3417 39.244 15.1437 40.0484 15.1437C40.4506 15.1437 40.8354 15.1825 41.2038 15.261C41.5715 15.3372 41.8654 15.424 42.0811 15.5116L41.7556 17.0881C41.5376 17.0066 41.3008 16.9351 41.046 16.8726C40.7911 16.8087 40.504 16.7751 40.1867 16.7751C39.601 16.7751 39.3078 16.9533 39.3078 17.306C39.3078 17.3874 39.3206 17.4598 39.3462 17.523C39.3717 17.587 39.4214 17.648 39.4951 17.7066C39.5725 17.7645 39.6733 17.8299 39.804 17.897C39.934 17.9678 40.0994 18.0409 40.3003 18.1239C40.7084 18.2885 41.0474 18.4484 41.3151 18.6099C41.5834 18.7714 41.794 18.9413 41.9496 19.13C42.1044 19.3144 42.2143 19.5186 42.2758 19.7454C42.3376 19.9717 42.3698 20.2329 42.3698 20.5308C42.3698 21.2368 42.1247 21.7706 41.6368 22.1316C41.1466 22.4912 40.4535 22.6724 39.5582 22.6724C38.9733 22.6724 38.4861 22.6198 38.0975 22.5095C37.7073 22.4021 37.4382 22.3092 37.2879 22.2376L37.6013 20.5939C37.9179 20.7295 38.2471 20.8346 38.5795 20.9139C38.9162 20.9916 39.244 21.0304 39.5725 21.0304Z" fill="white"/>
<mask id="mask4_1974_6972" style="mask-type:luminance" maskUnits="userSpaceOnUse" x="37" y="15" width="6" height="8">
<path d="M38.1539 15.7295C38.614 15.3417 39.244 15.1437 40.0483 15.1437C40.4506 15.1437 40.8355 15.1825 41.2039 15.261C41.5714 15.3372 41.8654 15.4239 42.0811 15.5116L41.7557 17.0881C41.5376 17.0066 41.3009 16.9351 41.0459 16.8726C40.7911 16.8086 40.5039 16.7752 40.1867 16.7752C39.601 16.7752 39.3079 16.9532 39.3079 17.306C39.3079 17.3874 39.3206 17.4598 39.3461 17.523C39.3718 17.587 39.4215 17.648 39.4952 17.7066C39.5724 17.7645 39.6733 17.8299 39.804 17.897C39.934 17.9677 40.0994 18.041 40.3002 18.1239C40.7084 18.2885 41.0475 18.4484 41.3151 18.6099C41.5835 18.7714 41.794 18.9412 41.9497 19.13C42.1045 19.3144 42.2142 19.5185 42.2759 19.7454C42.3376 19.9717 42.3697 20.2329 42.3697 20.5308C42.3697 21.2368 42.1246 21.7707 41.6369 22.1316C41.1467 22.4912 40.4536 22.6724 39.5582 22.6724C38.9733 22.6724 38.4862 22.6198 38.0975 22.5095C37.7073 22.4021 37.4382 22.3092 37.2878 22.2376L37.6013 20.5939C37.9179 20.7296 38.2471 20.8346 38.5794 20.9139C38.9162 20.9914 39.244 21.0304 39.5724 21.0304C39.9145 21.0304 40.1567 20.9923 40.3002 20.9206C40.4431 20.8483 40.5122 20.7067 40.5122 20.4995C40.5122 20.3357 40.422 20.1933 40.2371 20.0722C40.0521 19.9489 39.7739 19.8118 39.3966 19.6556C39.1041 19.5375 38.8381 19.4158 38.5981 19.2901C38.3614 19.1622 38.1584 19.0129 37.9909 18.8354C37.8238 18.6586 37.6946 18.4469 37.6013 18.2002C37.5081 17.9578 37.4638 17.6648 37.4638 17.3189C37.4638 16.6495 37.6946 16.1187 38.1539 15.7295Z" fill="#03435F"/>
</mask>
<g mask="url(#mask4_1974_6972)">
<path fill-rule="evenodd" clip-rule="evenodd" d="M-81.0323 42.5576L182.483 42.5576V-335.084H-81.0323L-81.0323 42.5576Z" fill="white"/>
</g>
<mask id="mask5_1974_6972" style="mask-type:luminance" maskUnits="userSpaceOnUse" x="37" y="15" width="6" height="8">
<path d="M38.1539 15.7295C38.614 15.3417 39.244 15.1437 40.0483 15.1437C40.4506 15.1437 40.8355 15.1825 41.2039 15.261C41.5714 15.3372 41.8654 15.4239 42.0811 15.5116L41.7557 17.0881C41.5376 17.0066 41.3009 16.9351 41.0459 16.8726C40.7911 16.8086 40.5039 16.7752 40.1867 16.7752C39.601 16.7752 39.3079 16.9532 39.3079 17.306C39.3079 17.3874 39.3206 17.4598 39.3461 17.523C39.3718 17.587 39.4215 17.648 39.4952 17.7066C39.5724 17.7645 39.6733 17.8299 39.804 17.897C39.934 17.9677 40.0994 18.041 40.3002 18.1239C40.7084 18.2885 41.0475 18.4484 41.3151 18.6099C41.5835 18.7714 41.794 18.9412 41.9497 19.13C42.1045 19.3144 42.2142 19.5185 42.2759 19.7454C42.3376 19.9717 42.3697 20.2329 42.3697 20.5308C42.3697 21.2368 42.1246 21.7707 41.6369 22.1316C41.1467 22.4912 40.4536 22.6724 39.5582 22.6724C38.9733 22.6724 38.4862 22.6198 38.0975 22.5095C37.7073 22.4021 37.4382 22.3092 37.2878 22.2376L37.6013 20.5939C37.9179 20.7296 38.2471 20.8346 38.5794 20.9139C38.9162 20.9914 39.244 21.0304 39.5724 21.0304C39.9145 21.0304 40.1567 20.9923 40.3002 20.9206C40.4431 20.8483 40.5122 20.7067 40.5122 20.4995C40.5122 20.3357 40.422 20.1933 40.2371 20.0722C40.0521 19.9489 39.7739 19.8118 39.3966 19.6556C39.1041 19.5375 38.8381 19.4158 38.5981 19.2901C38.3614 19.1622 38.1584 19.0129 37.9909 18.8354C37.8238 18.6586 37.6946 18.4469 37.6013 18.2002C37.5081 17.9578 37.4638 17.6648 37.4638 17.3189C37.4638 16.6495 37.6946 16.1187 38.1539 15.7295Z" fill="#03435F"/>
</mask>
<g mask="url(#mask5_1974_6972)">
<path fill-rule="evenodd" clip-rule="evenodd" d="M34.1508 25.8459H45.5071V11.9703H34.1508V25.8459Z" fill="white"/>
</g>
<path fill-rule="evenodd" clip-rule="evenodd" d="M48.1345 18.3788C47.9669 19.0674 47.7902 19.7529 47.6015 20.4307C47.4135 21.1108 47.2135 21.7948 47.0069 22.4833H45.5507C45.3996 22.1025 45.235 21.6501 45.059 21.1253C44.8815 20.5983 44.7004 20.0263 44.5102 19.4041C44.3222 18.784 44.1299 18.1275 43.9328 17.4329C43.7351 16.7414 43.5434 16.0422 43.36 15.3346H45.3311C45.3965 15.6598 45.4709 16.0171 45.5513 16.4016C45.6311 16.787 45.7153 17.1839 45.8033 17.5921C45.8912 17.9989 45.9852 18.4077 46.0813 18.8206C46.1784 19.2334 46.2777 19.6286 46.3782 20.0088C46.4873 19.6105 46.5941 19.2037 46.6986 18.7871C46.8016 18.3698 46.9031 17.9599 47 17.5571C47.0956 17.1549 47.1895 16.7642 47.2752 16.388C47.3624 16.0124 47.4399 15.6598 47.5083 15.3346H48.8622C48.9314 15.6598 49.0042 16.0124 49.0891 16.388C49.1718 16.7642 49.2599 17.1549 49.3531 17.5571C49.4433 17.9599 49.5418 18.3698 49.6403 18.7871C49.7417 19.2037 49.8455 19.6105 49.953 20.0088C50.0545 19.6286 50.1553 19.2334 50.2567 18.8206C50.3582 18.4077 50.4536 17.9989 50.5409 17.5921C50.6281 17.1839 50.7123 16.787 50.7935 16.4016C50.8739 16.0171 50.9469 15.6598 51.0137 15.3346H52.9593C52.7745 16.0422 52.5842 16.7414 52.3865 17.4329C52.1873 18.1275 51.997 18.784 51.8069 19.4041C51.6196 20.0263 51.4347 20.5983 51.255 21.1253C51.0739 21.6501 50.9069 22.1025 50.7582 22.4833H49.3021C49.0914 21.7948 48.887 21.1108 48.6855 20.4307C48.4848 19.7529 48.3028 19.0674 48.1345 18.3788Z" fill="white"/>
<mask id="mask6_1974_6972" style="mask-type:luminance" maskUnits="userSpaceOnUse" x="43" y="15" width="10" height="8">
<path d="M51.0137 15.3346H52.9594C52.7745 16.0422 52.5843 16.7414 52.3864 17.4328C52.1873 18.1275 51.9971 18.7841 51.8068 19.4041C51.6196 20.0263 51.4348 20.5983 51.2549 21.1253C51.0738 21.6501 50.907 22.1023 50.7581 22.4833H49.302C49.0914 21.7948 48.887 21.1107 48.6856 20.4306C48.4848 19.7529 48.3029 19.0674 48.1345 18.3788C47.9668 19.0674 47.7901 19.7529 47.6016 20.4306C47.4135 21.1107 47.2135 21.7948 47.0068 22.4833H45.5506C45.3995 22.1023 45.2349 21.6501 45.0589 21.1253C44.8815 20.5983 44.7003 20.0263 44.5102 19.4041C44.3222 18.7841 44.1298 18.1275 43.9328 17.4328C43.7351 16.7414 43.5434 16.0422 43.36 15.3346H45.3311C45.3965 15.6598 45.471 16.017 45.5514 16.4016C45.6311 16.787 45.7152 17.1839 45.8033 17.592C45.8911 17.9987 45.9852 18.4077 46.0814 18.8206C46.1784 19.2334 46.2777 19.6286 46.3783 20.0088C46.4873 19.6105 46.594 19.2036 46.6985 18.7871C46.8015 18.3698 46.9032 17.9599 47.0001 17.5571C47.0955 17.1548 47.1894 16.7641 47.2752 16.388C47.3625 16.0124 47.4399 15.6598 47.5082 15.3346H48.8622C48.9313 15.6598 49.0042 16.0124 49.0891 16.388C49.1718 16.7641 49.2599 17.1548 49.353 17.5571C49.4433 17.9599 49.5417 18.3698 49.6403 18.7871C49.7417 19.2036 49.8456 19.6105 49.953 20.0088C50.0545 19.6286 50.1552 19.2334 50.2567 18.8206C50.3582 18.4077 50.4537 17.9987 50.5409 17.592C50.6281 17.1839 50.7123 16.787 50.7934 16.4016C50.874 16.017 50.9469 15.6598 51.0137 15.3346Z" fill="#03435F"/>
</mask>
<g mask="url(#mask6_1974_6972)">
<path fill-rule="evenodd" clip-rule="evenodd" d="M-81.0323 42.5576L182.483 42.5576V-335.084H-81.0323L-81.0323 42.5576Z" fill="white"/>
</g>
<mask id="mask7_1974_6972" style="mask-type:luminance" maskUnits="userSpaceOnUse" x="43" y="15" width="10" height="8">
<path d="M51.0137 15.3346H52.9594C52.7745 16.0422 52.5843 16.7414 52.3864 17.4328C52.1873 18.1275 51.9971 18.7841 51.8068 19.4041C51.6196 20.0263 51.4348 20.5983 51.2549 21.1253C51.0738 21.6501 50.907 22.1023 50.7581 22.4833H49.302C49.0914 21.7948 48.887 21.1107 48.6856 20.4306C48.4848 19.7529 48.3029 19.0674 48.1345 18.3788C47.9668 19.0674 47.7901 19.7529 47.6016 20.4306C47.4135 21.1107 47.2135 21.7948 47.0068 22.4833H45.5506C45.3995 22.1023 45.2349 21.6501 45.0589 21.1253C44.8815 20.5983 44.7003 20.0263 44.5102 19.4041C44.3222 18.7841 44.1298 18.1275 43.9328 17.4328C43.7351 16.7414 43.5434 16.0422 43.36 15.3346H45.3311C45.3965 15.6598 45.471 16.017 45.5514 16.4016C45.6311 16.787 45.7152 17.1839 45.8033 17.592C45.8911 17.9987 45.9852 18.4077 46.0814 18.8206C46.1784 19.2334 46.2777 19.6286 46.3783 20.0088C46.4873 19.6105 46.594 19.2036 46.6985 18.7871C46.8015 18.3698 46.9032 17.9599 47.0001 17.5571C47.0955 17.1548 47.1894 16.7641 47.2752 16.388C47.3625 16.0124 47.4399 15.6598 47.5082 15.3346H48.8622C48.9313 15.6598 49.0042 16.0124 49.0891 16.388C49.1718 16.7641 49.2599 17.1548 49.353 17.5571C49.4433 17.9599 49.5417 18.3698 49.6403 18.7871C49.7417 19.2036 49.8456 19.6105 49.953 20.0088C50.0545 19.6286 50.1552 19.2334 50.2567 18.8206C50.3582 18.4077 50.4537 17.9987 50.5409 17.592C50.6281 17.1839 50.7123 16.787 50.7934 16.4016C50.874 16.017 50.9469 15.6598 51.0137 15.3346Z" fill="#03435F"/>
</mask>
<g mask="url(#mask7_1974_6972)">
<path fill-rule="evenodd" clip-rule="evenodd" d="M40.2229 25.6569H56.0965V12.1612L40.2229 12.1612V25.6569Z" fill="white"/>
</g>
<path fill-rule="evenodd" clip-rule="evenodd" d="M54.2815 22.4805H56.1489V15.3333H54.2815V22.4805Z" fill="white"/>
<mask id="mask8_1974_6972" style="mask-type:luminance" maskUnits="userSpaceOnUse" x="54" y="15" width="3" height="8">
<path d="M54.2815 22.4806V15.3334H56.149V22.4806H54.2815Z" fill="#03435F"/>
</mask>
<g mask="url(#mask8_1974_6972)">
<path fill-rule="evenodd" clip-rule="evenodd" d="M-81.0322 42.5576L182.483 42.5576V-335.084H-81.0322L-81.0322 42.5576Z" fill="white"/>
</g>
<mask id="mask9_1974_6972" style="mask-type:luminance" maskUnits="userSpaceOnUse" x="54" y="15" width="3" height="8">
<path d="M54.2815 22.4806V15.3334H56.149V22.4806H54.2815Z" fill="#03435F"/>
</mask>
<g mask="url(#mask9_1974_6972)">
<path fill-rule="evenodd" clip-rule="evenodd" d="M51.1443 25.6539H59.2859V12.1597H51.1443V25.6539Z" fill="white"/>
</g>
<path fill-rule="evenodd" clip-rule="evenodd" d="M57.6344 13.5509L59.5033 13.1922V15.3369H61.3527V17.0186H59.5033V19.5335C59.5033 19.9592 59.5724 20.3021 59.71 20.5526C59.8476 20.8062 60.1264 20.9334 60.5438 20.9334C60.746 20.9334 60.9534 20.9151 61.1654 20.8732C61.3796 20.8321 61.5736 20.7735 61.7503 20.7027L62.0128 22.2793C61.7864 22.3796 61.5345 22.465 61.2602 22.5381C60.9826 22.6097 60.6468 22.6462 60.2437 22.6462C59.7326 22.6462 59.3108 22.5717 58.9763 22.4208C58.641 22.2738 58.3733 22.0659 58.1734 21.7963C57.9734 21.5313 57.8337 21.2045 57.7533 20.826C57.672 20.4445 57.6344 20.0225 57.6344 19.5616V13.5509Z" fill="white"/>
<mask id="mask10_1974_6972" style="mask-type:luminance" maskUnits="userSpaceOnUse" x="57" y="13" width="6" height="10">
<path d="M57.6344 13.551L59.5032 13.1923V15.337H61.3527V17.0187H59.5032V19.5337C59.5032 19.9593 59.5725 20.3021 59.71 20.5527C59.8476 20.8063 60.1264 20.9334 60.5437 20.9334C60.7459 20.9334 60.9535 20.9152 61.1655 20.8733C61.3797 20.8321 61.5737 20.7736 61.7502 20.7028L62.0127 22.2793C61.7864 22.3798 61.5345 22.4652 61.2603 22.5382C60.9827 22.6098 60.6468 22.6464 60.2437 22.6464C59.7327 22.6464 59.3108 22.5718 58.9763 22.4209C58.641 22.2738 58.3734 22.0661 58.1735 21.7965C57.9735 21.5314 57.8337 21.2047 57.7532 20.8261C57.6721 20.4446 57.6344 20.0225 57.6344 19.5618V13.551Z" fill="#03435F"/>
</mask>
<g mask="url(#mask10_1974_6972)">
<path fill-rule="evenodd" clip-rule="evenodd" d="M-81.0323 42.5576L182.483 42.5576V-335.084H-81.0323L-81.0323 42.5576Z" fill="white"/>
</g>
<mask id="mask11_1974_6972" style="mask-type:luminance" maskUnits="userSpaceOnUse" x="57" y="13" width="6" height="10">
<path d="M57.6344 13.551L59.5032 13.1923V15.337H61.3527V17.0187H59.5032V19.5337C59.5032 19.9593 59.5725 20.3021 59.71 20.5527C59.8476 20.8063 60.1264 20.9334 60.5437 20.9334C60.7459 20.9334 60.9535 20.9152 61.1655 20.8733C61.3797 20.8321 61.5737 20.7736 61.7502 20.7028L62.0127 22.2793C61.7864 22.3798 61.5345 22.4652 61.2603 22.5382C60.9827 22.6098 60.6468 22.6464 60.2437 22.6464C59.7327 22.6464 59.3108 22.5718 58.9763 22.4209C58.641 22.2738 58.3734 22.0661 58.1735 21.7965C57.9735 21.5314 57.8337 21.2047 57.7532 20.8261C57.6721 20.4446 57.6344 20.0225 57.6344 19.5618V13.551Z" fill="#03435F"/>
</mask>
<g mask="url(#mask11_1974_6972)">
<path fill-rule="evenodd" clip-rule="evenodd" d="M54.4972 25.8198H65.1498V10.0187H54.4972V25.8198Z" fill="white"/>
</g>
<path fill-rule="evenodd" clip-rule="evenodd" d="M62.6732 18.9106C62.6732 18.3934 62.7508 17.906 62.9056 17.4491C63.0604 16.9905 63.2837 16.593 63.5762 16.2525C63.8694 15.9121 64.2242 15.6439 64.6436 15.4437C65.0609 15.2464 65.5375 15.1443 66.0728 15.1443C66.4238 15.1443 66.7464 15.1802 67.0395 15.2472C67.3328 15.3165 67.6185 15.4133 67.8928 15.5389L67.505 17.1559C67.3283 17.0842 67.1365 17.0218 66.9261 16.9654C66.717 16.912 66.4817 16.884 66.2232 16.884C65.6714 16.884 65.2586 17.0705 64.9887 17.4422C64.7142 17.8147 64.5805 18.3029 64.5805 18.9106C64.5805 19.5526 64.7075 20.0514 64.9647 20.4049C65.2173 20.7576 65.6638 20.9351 66.2991 20.9351C66.5253 20.9351 66.7667 20.9113 67.0275 20.8664C67.2862 20.8207 67.5244 20.7492 67.744 20.6487L68.0057 22.3075C67.7875 22.4072 67.517 22.491 67.1907 22.5648C66.8629 22.6366 66.5042 22.6738 66.1119 22.6738C65.5096 22.6738 64.9895 22.5748 64.5556 22.3805C64.1213 22.1864 63.7626 21.9212 63.4829 21.5862C63.201 21.2504 62.9981 20.8543 62.8681 20.3973C62.7379 19.9396 62.6732 19.4431 62.6732 18.9106Z" fill="white"/>
<mask id="mask12_1974_6972" style="mask-type:luminance" maskUnits="userSpaceOnUse" x="62" y="15" width="7" height="8">
<path d="M64.6436 15.4437C65.0609 15.2464 65.5375 15.1443 66.0728 15.1443C66.4238 15.1443 66.7464 15.1801 67.0395 15.247C67.3327 15.3165 67.6185 15.4132 67.8928 15.5389L67.505 17.1558C67.3282 17.0842 67.1365 17.0218 66.926 16.9654C66.7169 16.9119 66.4817 16.8839 66.2231 16.8839C65.6714 16.8839 65.2586 17.0705 64.9887 17.4422C64.7143 17.8146 64.5805 18.3028 64.5805 18.9106C64.5805 19.5526 64.7077 20.0514 64.9647 20.4049C65.2173 20.7576 65.6637 20.9351 66.2989 20.9351C66.5254 20.9351 66.7667 20.9113 67.0275 20.8664C67.2862 20.8207 67.5244 20.7492 67.7439 20.6485L68.0056 22.3075C67.7876 22.4072 67.517 22.4909 67.1906 22.5648C66.8629 22.6365 66.5043 22.6738 66.1119 22.6738C65.5095 22.6738 64.9895 22.5747 64.5557 22.3804C64.1213 22.1862 63.7626 21.9212 63.4828 21.5863C63.2012 21.2504 62.9981 20.8543 62.8681 20.3973C62.738 19.9396 62.6732 19.443 62.6732 18.9106C62.6732 18.3934 62.7508 17.906 62.9056 17.4491C63.0604 16.9905 63.2837 16.5929 63.5761 16.2524C63.8694 15.912 64.2242 15.6439 64.6436 15.4437Z" fill="#03435F"/>
</mask>
<g mask="url(#mask12_1974_6972)">
<path fill-rule="evenodd" clip-rule="evenodd" d="M-81.0323 42.5576L182.483 42.5576V-335.084H-81.0323L-81.0323 42.5576Z" fill="white"/>
</g>
<mask id="mask13_1974_6972" style="mask-type:luminance" maskUnits="userSpaceOnUse" x="62" y="15" width="7" height="8">
<path d="M64.6436 15.4437C65.0609 15.2464 65.5375 15.1443 66.0728 15.1443C66.4238 15.1443 66.7464 15.1801 67.0395 15.247C67.3327 15.3165 67.6185 15.4132 67.8928 15.5389L67.505 17.1558C67.3282 17.0842 67.1365 17.0218 66.926 16.9654C66.7169 16.9119 66.4817 16.8839 66.2231 16.8839C65.6714 16.8839 65.2586 17.0705 64.9887 17.4422C64.7143 17.8146 64.5805 18.3028 64.5805 18.9106C64.5805 19.5526 64.7077 20.0514 64.9647 20.4049C65.2173 20.7576 65.6637 20.9351 66.2989 20.9351C66.5254 20.9351 66.7667 20.9113 67.0275 20.8664C67.2862 20.8207 67.5244 20.7492 67.7439 20.6485L68.0056 22.3075C67.7876 22.4072 67.517 22.4909 67.1906 22.5648C66.8629 22.6365 66.5043 22.6738 66.1119 22.6738C65.5095 22.6738 64.9895 22.5747 64.5557 22.3804C64.1213 22.1862 63.7626 21.9212 63.4828 21.5863C63.2012 21.2504 62.9981 20.8543 62.8681 20.3973C62.738 19.9396 62.6732 19.443 62.6732 18.9106C62.6732 18.3934 62.7508 17.906 62.9056 17.4491C63.0604 16.9905 63.2837 16.5929 63.5761 16.2524C63.8694 15.912 64.2242 15.6439 64.6436 15.4437Z" fill="#03435F"/>
</mask>
<g mask="url(#mask13_1974_6972)">
<path fill-rule="evenodd" clip-rule="evenodd" d="M59.5361 25.8474H71.1426V11.9709H59.5361V25.8474Z" fill="white"/>
</g>
<path fill-rule="evenodd" clip-rule="evenodd" d="M69.2139 22.4807V13.5482L71.0835 13.1926V15.3633C71.2082 15.3183 71.3684 15.2749 71.567 15.2339C71.7623 15.1935 71.954 15.1721 72.1375 15.1721C72.672 15.1721 73.1162 15.252 73.4725 15.4098C73.8274 15.5682 74.1138 15.7929 74.3258 16.083C74.5409 16.3717 74.6897 16.7174 74.7792 17.1143C74.8656 17.514 74.9091 17.959 74.9091 18.4479V22.4807H73.0402V18.6908C73.0402 18.0388 72.9629 17.5773 72.8088 17.3039C72.6539 17.035 72.3668 16.8987 71.9495 16.8987C71.7797 16.8987 71.6246 16.9148 71.4774 16.9452C71.3315 16.9772 71.2 17.0122 71.0835 17.0481V22.4807H69.2139Z" fill="white"/>
<mask id="mask14_1974_6972" style="mask-type:luminance" maskUnits="userSpaceOnUse" x="69" y="13" width="6" height="10">
<path d="M69.2138 13.5482L71.0833 13.1926V15.3634C71.2082 15.3183 71.3684 15.2749 71.5669 15.2339C71.7623 15.1935 71.954 15.1722 72.1375 15.1722C72.672 15.1722 73.1163 15.2522 73.4726 15.4098C73.8274 15.5683 74.1139 15.7929 74.3258 16.0831C74.5407 16.3717 74.6898 16.7174 74.7792 17.1144C74.8656 17.5141 74.9091 17.959 74.9091 18.4481V22.4807H73.0403V18.6908C73.0403 18.0389 72.9627 17.5773 72.8088 17.3039C72.6539 17.0351 72.3667 16.8987 71.9495 16.8987C71.7796 16.8987 71.6246 16.9148 71.4774 16.9453C71.3315 16.9772 71.2 17.0122 71.0833 17.0481V22.4807H69.2138V13.5482Z" fill="#03435F"/>
</mask>
<g mask="url(#mask14_1974_6972)">
<path fill-rule="evenodd" clip-rule="evenodd" d="M-81.0323 42.5576L182.483 42.5576V-335.084H-81.0323L-81.0323 42.5576Z" fill="white"/>
</g>
<mask id="mask15_1974_6972" style="mask-type:luminance" maskUnits="userSpaceOnUse" x="69" y="13" width="6" height="10">
<path d="M69.2138 13.5482L71.0833 13.1926V15.3634C71.2082 15.3183 71.3684 15.2749 71.5669 15.2339C71.7623 15.1935 71.954 15.1722 72.1375 15.1722C72.672 15.1722 73.1163 15.2522 73.4726 15.4098C73.8274 15.5683 74.1139 15.7929 74.3258 16.0831C74.5407 16.3717 74.6898 16.7174 74.7792 17.1144C74.8656 17.5141 74.9091 17.959 74.9091 18.4481V22.4807H73.0403V18.6908C73.0403 18.0389 72.9627 17.5773 72.8088 17.3039C72.6539 17.0351 72.3667 16.8987 71.9495 16.8987C71.7796 16.8987 71.6246 16.9148 71.4774 16.9453C71.3315 16.9772 71.2 17.0122 71.0833 17.0481V22.4807H69.2138V13.5482Z" fill="#03435F"/>
</mask>
<g mask="url(#mask15_1974_6972)">
<path fill-rule="evenodd" clip-rule="evenodd" d="M66.0767 25.6543H78.0462V10.0191H66.0767V25.6543Z" fill="white"/>
</g>
<path fill-rule="evenodd" clip-rule="evenodd" d="M12.8464 22.483V16.0061C12.8464 16.0061 13.7861 15.1934 15.8414 15.1934C17.7118 15.1934 18.7389 16.2057 18.7389 18.4334V22.483H16.8707V18.4334C16.8707 17.0145 16.2151 16.9163 15.655 16.9163C15.0949 16.9163 14.7198 17.2178 14.7198 17.2178V22.483H12.8464Z" fill="white"/>
<mask id="mask16_1974_6972" style="mask-type:luminance" maskUnits="userSpaceOnUse" x="12" y="15" width="7" height="8">
<path d="M12.8464 16.0061C12.8464 16.0061 13.7861 15.1934 15.8415 15.1934C17.7118 15.1934 18.7388 16.2056 18.7388 18.4336V22.483H16.8707V18.4336C16.8707 17.0144 16.2151 16.9163 15.655 16.9163C15.095 16.9163 14.7199 17.218 14.7199 17.218V22.483H12.8464V16.0061Z" fill="#03435F"/>
</mask>
<g mask="url(#mask16_1974_6972)">
<path fill-rule="evenodd" clip-rule="evenodd" d="M-81.0323 42.5576L182.483 42.5576V-335.084H-81.0323L-81.0323 42.5576Z" fill="white"/>
</g>
<mask id="mask17_1974_6972" style="mask-type:luminance" maskUnits="userSpaceOnUse" x="12" y="15" width="7" height="8">
<path d="M12.8464 16.0061C12.8464 16.0061 13.7861 15.1934 15.8415 15.1934C17.7118 15.1934 18.7388 16.2056 18.7388 18.4336V22.483H16.8707V18.4336C16.8707 17.0144 16.2151 16.9163 15.655 16.9163C15.095 16.9163 14.7199 17.218 14.7199 17.218V22.483H12.8464V16.0061Z" fill="#03435F"/>
</mask>
<g mask="url(#mask17_1974_6972)">
<path fill-rule="evenodd" clip-rule="evenodd" d="M9.70947 25.6566H21.8759V12.0201H9.70947V25.6566Z" fill="white"/>
</g>
<path fill-rule="evenodd" clip-rule="evenodd" d="M9.32663 22.4832V13.5491L11.197 13.1926V22.4832H9.32663Z" fill="white"/>
<mask id="mask18_1974_6972" style="mask-type:luminance" maskUnits="userSpaceOnUse" x="9" y="13" width="3" height="10">
<path d="M9.32663 13.5493L11.197 13.1926V22.4832H9.32663V13.5493Z" fill="#03435F"/>
</mask>
<g mask="url(#mask18_1974_6972)">
<path fill-rule="evenodd" clip-rule="evenodd" d="M-81.0323 42.5576L182.483 42.5576V-335.084H-81.0323L-81.0323 42.5576Z" fill="white"/>
</g>
<mask id="mask19_1974_6972" style="mask-type:luminance" maskUnits="userSpaceOnUse" x="9" y="13" width="3" height="10">
<path d="M9.32663 13.5493L11.197 13.1926V22.4832H9.32663V13.5493Z" fill="#03435F"/>
</mask>
<g mask="url(#mask19_1974_6972)">
<path fill-rule="evenodd" clip-rule="evenodd" d="M6.18948 25.6566H14.3341V10.0192H6.18948L6.18948 25.6566Z" fill="white"/>
</g>
<path fill-rule="evenodd" clip-rule="evenodd" d="M31.4124 19.4224H27.2054C27.2054 19.4224 27.2994 20.9403 29.1675 20.9403C30.1028 20.9403 31.038 20.6378 31.038 20.6378L31.2252 22.2593C31.2252 22.2593 30.2908 22.6608 28.9827 22.6608C27.1115 22.6608 25.429 21.65 25.429 18.8161C25.429 16.5875 26.7371 15.1724 28.6069 15.1724C31.4124 15.1724 31.6003 18.2052 31.4124 19.4224ZM28.5151 16.5875C27.2994 16.5875 27.2054 18.0041 27.2054 18.0041H29.8216C29.8216 18.0041 29.7299 16.5875 28.5151 16.5875Z" fill="white"/>
<mask id="mask20_1974_6972" style="mask-type:luminance" maskUnits="userSpaceOnUse" x="25" y="15" width="7" height="8">
<path d="M25.4291 18.8161C25.4291 16.5875 26.7372 15.1724 28.6068 15.1724C31.4123 15.1724 31.6003 18.2053 31.4123 19.4224H27.2055C27.2055 19.4224 27.2995 20.9403 29.1675 20.9403C30.1028 20.9403 31.038 20.6378 31.038 20.6378L31.2252 22.2593C31.2252 22.2593 30.2907 22.6609 28.9826 22.6609C27.1115 22.6609 25.4291 21.6501 25.4291 18.8161ZM28.515 16.5875C27.2995 16.5875 27.2055 18.0042 27.2055 18.0042H29.8217C29.8217 18.0042 29.7299 16.5875 28.515 16.5875Z" fill="#03435F"/>
</mask>
<g mask="url(#mask20_1974_6972)">
<path fill-rule="evenodd" clip-rule="evenodd" d="M-81.0323 42.5576L182.483 42.5576V-335.084H-81.0323L-81.0323 42.5576Z" fill="white"/>
</g>
<mask id="mask21_1974_6972" style="mask-type:luminance" maskUnits="userSpaceOnUse" x="25" y="15" width="7" height="8">
<path d="M25.4291 18.8161C25.4291 16.5875 26.7372 15.1724 28.6068 15.1724C31.4123 15.1724 31.6003 18.2053 31.4123 19.4224H27.2055C27.2055 19.4224 27.2995 20.9403 29.1675 20.9403C30.1028 20.9403 31.038 20.6378 31.038 20.6378L31.2252 22.2593C31.2252 22.2593 30.2907 22.6609 28.9826 22.6609C27.1115 22.6609 25.4291 21.6501 25.4291 18.8161ZM28.515 16.5875C27.2995 16.5875 27.2055 18.0042 27.2055 18.0042H29.8217C29.8217 18.0042 29.7299 16.5875 28.515 16.5875Z" fill="#03435F"/>
</mask>
<g mask="url(#mask21_1974_6972)">
<path fill-rule="evenodd" clip-rule="evenodd" d="M22.292 25.8342H34.6018V11.9989H22.292V25.8342Z" fill="white"/>
</g>
<mask id="mask22_1974_6972" style="mask-type:luminance" maskUnits="userSpaceOnUse" x="77" y="11" width="13" height="17">
<path d="M77.3866 13.1944C77.3866 12.7625 82.7638 11.8306 86.3701 11.8306C87.9341 11.8306 89.1648 12.0059 89.4797 12.4731C91.1035 14.6422 79.6721 28.251 78.7196 27.8382C77.9557 27.6318 84.8142 18.9698 83.6709 15.4625C83.1002 13.6079 77.3866 13.8142 77.3866 13.1944Z" fill="#ED342B"/>
</mask>
<g mask="url(#mask22_1974_6972)">
<path fill-rule="evenodd" clip-rule="evenodd" d="M74.2496 31.0209H92.7744V8.65708H74.2496V31.0209Z" fill="white"/>
</g>
<mask id="mask23_1974_6972" style="mask-type:luminance" maskUnits="userSpaceOnUse" x="87" y="5" width="6" height="6">
<path d="M87.0991 7.83281C87.0991 6.35149 88.208 5.15271 89.5747 5.15271C90.9428 5.15271 92.0503 6.35149 92.0503 7.83281C92.0503 9.31489 90.9428 10.5137 89.5747 10.5137C88.208 10.5137 87.0991 9.31489 87.0991 7.83281Z" fill="#ED342B"/>
</mask>
<g mask="url(#mask23_1974_6972)">
<path fill-rule="evenodd" clip-rule="evenodd" d="M83.9621 13.6873H95.1874V1.97914H83.9621V13.6873Z" fill="white"/>
</g>
</g>
<defs>
<clipPath id="clip0_1974_6972">
<rect width="83" height="23" fill="white" transform="translate(9.17261 5)"/>
</clipPath>
</defs>
</svg>
