<svg width="16" height="16" viewBox="0 0 16 16" fill="none" xmlns="http://www.w3.org/2000/svg">
<g id="casino_black_24dp (3) 1" clip-path="url(#clip0_5153_49357)">
<path id="Vector" fill-rule="evenodd" clip-rule="evenodd" d="M11.41 5.9426C12.0624 5.43975 12.4796 4.67091 12.4796 3.80926C12.4796 2.29442 11.1902 1.06641 9.59961 1.06641C8.48507 1.06641 7.5184 1.66936 7.03961 2.55145C6.56081 1.66936 5.59415 1.06641 4.47961 1.06641C2.88903 1.06641 1.59961 2.29442 1.59961 3.80926C1.59961 4.67091 2.01678 5.43975 2.66926 5.9426H1.59961V13.8664H12.4796V12.3807L14.3996 13.8664V5.9426L12.4796 7.92355V5.9426H11.41ZM7.03961 5.06708C7.22376 5.40634 7.4801 5.70433 7.78926 5.9426H6.28996C6.59912 5.70433 6.85545 5.40634 7.03961 5.06708ZM11.1996 3.80926C11.1996 4.65084 10.4833 5.33307 9.59961 5.33307C8.71595 5.33307 7.99961 4.65084 7.99961 3.80926C7.99961 2.96769 8.71595 2.28545 9.59961 2.28545C10.4833 2.28545 11.1996 2.96769 11.1996 3.80926ZM4.47961 5.33307C5.36327 5.33307 6.07961 4.65084 6.07961 3.80926C6.07961 2.96769 5.36327 2.28545 4.47961 2.28545C3.59595 2.28545 2.87961 2.96769 2.87961 3.80926C2.87961 4.65084 3.59595 5.33307 4.47961 5.33307ZM8.95961 10.4324C9.38627 10.1978 9.38628 9.61125 8.95961 9.37664L6.55961 8.05698C6.13294 7.82238 5.59961 8.11563 5.59961 8.58484V11.2242C5.59961 11.6934 6.13294 11.9866 6.55961 11.752L8.95961 10.4324Z" fill="#D9D9D9"/>
</g>
<defs>
<clipPath id="clip0_5153_49357">
<rect width="16" height="16" fill="white"/>
</clipPath>
</defs>
</svg>
