<svg width="16" height="16" viewBox="0 0 16 16" fill="none" xmlns="http://www.w3.org/2000/svg">
<g clip-path="url(#clip0_2316_8459)">
<path d="M5.82388 4.65859L10.8121 7.23313C11.2064 7.43666 11.1991 8.00304 10.7996 8.19632L5.81146 10.61C5.45388 10.783 5.03846 10.5225 5.03846 10.1253V9.09937H1.53846C1.24108 9.09937 1 8.85829 1 8.56091V6.67629C1 6.37891 1.24108 6.13783 1.53846 6.13783H5.03846V5.13708C5.03846 4.73378 5.4655 4.47362 5.82388 4.65859Z" fill="#D9D9D9"/>
<path d="M1.875 2.16667C1.875 1.52233 2.39733 1 3.04167 1H13.8333C14.4777 1 15 1.52233 15 2.16667V13.8333C15 14.4777 14.4777 15 13.8333 15H3.04167C2.39733 15 1.875 14.4777 1.875 13.8333V10.0417H3.04167V13.25C3.04167 13.5722 3.30283 13.8333 3.625 13.8333H13.25C13.5722 13.8333 13.8333 13.5722 13.8333 13.25V2.75C13.8333 2.42783 13.5722 2.16667 13.25 2.16667H3.625C3.30283 2.16667 3.04167 2.42783 3.04167 2.75V5.375H1.875V2.16667Z" fill="#D9D9D9"/>
</g>
<defs>
<clipPath id="clip0_2316_8459">
<rect width="16" height="16" fill="white"/>
</clipPath>
</defs>
</svg>
