<svg width="43" height="33" viewBox="0 0 43 33" fill="none" xmlns="http://www.w3.org/2000/svg">
<rect width="42.5303" height="32.5623" rx="7" fill="#18242A"/>
<g clip-path="url(#clip0_1974_7097)">
<path d="M13.6588 25.1868V23.9552C13.6588 23.4832 13.3705 23.1753 12.8789 23.1753C12.6299 23.1753 12.3678 23.2603 12.1776 23.5225C12.0332 23.2996 11.8304 23.1753 11.5225 23.1753C11.3192 23.1753 11.1099 23.2342 10.9459 23.4636V23.2146H10.5198V25.1868H10.9524V24.0991C10.9524 23.7519 11.1361 23.5879 11.4244 23.5879C11.7127 23.5879 11.857 23.7715 11.857 24.0991V25.1868H12.2897V24.0991C12.2897 23.7519 12.493 23.5879 12.7616 23.5879C13.0499 23.5879 13.1943 23.7715 13.1943 24.0991V25.1868H13.6588ZM20.0475 23.2146H19.3462V22.6183H18.9135V23.2146H18.5205V23.6075H18.9135V24.5117C18.9135 24.964 19.0971 25.2326 19.5882 25.2326C19.7718 25.2326 19.9812 25.1737 20.119 25.0882L19.9947 24.7214C19.8704 24.8065 19.726 24.8261 19.6279 24.8261C19.4247 24.8261 19.3396 24.7018 19.3396 24.4986V23.6141H20.041V23.2146H20.0475ZM23.6972 23.1753C23.4482 23.1753 23.2846 23.2996 23.186 23.4636V23.2146H22.7534V25.1868H23.186V24.0794C23.186 23.7519 23.3304 23.5683 23.5986 23.5683C23.6837 23.5683 23.7823 23.5879 23.8673 23.6075L23.9916 23.1949C23.907 23.1753 23.7823 23.1753 23.6972 23.1753ZM18.1734 23.3786C17.9701 23.2342 17.6818 23.1753 17.3739 23.1753C16.8823 23.1753 16.5548 23.4244 16.5548 23.8108C16.5548 24.1383 16.8038 24.3219 17.2295 24.3874L17.4328 24.407C17.6556 24.4462 17.7799 24.5117 17.7799 24.6102C17.7799 24.7546 17.6159 24.8593 17.3276 24.8593C17.0393 24.8593 16.8165 24.7546 16.6726 24.656L16.4693 24.9836C16.6922 25.1476 17.0001 25.2326 17.308 25.2326C17.8846 25.2326 18.2121 24.964 18.2121 24.5972C18.2121 24.25 17.9435 24.0664 17.5374 24.0009L17.3342 23.9813C17.1505 23.9617 17.0066 23.9224 17.0066 23.7977C17.0066 23.6533 17.151 23.5748 17.3734 23.5748C17.6225 23.5748 17.865 23.6795 17.9893 23.7388L18.1734 23.3786ZM29.6337 23.1753C29.3846 23.1753 29.2211 23.2996 29.1225 23.4636V23.2146H28.6898V25.1868H29.1225V24.0794C29.1225 23.7519 29.2669 23.5683 29.5351 23.5683C29.6201 23.5683 29.7187 23.5879 29.8037 23.6075L29.928 23.1949C29.8369 23.1753 29.7122 23.1753 29.6337 23.1753ZM24.1294 24.1977C24.1294 24.7939 24.542 25.2265 25.1779 25.2265C25.4662 25.2265 25.6695 25.1677 25.8793 25.0037L25.676 24.6565C25.512 24.7808 25.3485 24.8401 25.1649 24.8401C24.8177 24.8401 24.5686 24.5911 24.5686 24.2047C24.5686 23.8379 24.8177 23.5888 25.1649 23.5692C25.3485 23.5692 25.512 23.6281 25.676 23.7528L25.8793 23.4057C25.676 23.2417 25.4667 23.1828 25.1779 23.1828C24.5425 23.1753 24.1294 23.608 24.1294 24.1977ZM28.1137 24.1977V23.2146H27.681V23.4636C27.5366 23.28 27.3338 23.1753 27.0652 23.1753C26.5082 23.1753 26.0821 23.608 26.0821 24.2042C26.0821 24.8004 26.5148 25.2331 27.0652 25.2331C27.3535 25.2331 27.5567 25.1284 27.681 24.9448V25.1938H28.1137V24.1977ZM26.5344 24.1977C26.5344 23.8505 26.7573 23.5622 27.1306 23.5622C27.4778 23.5622 27.7268 23.8309 27.7268 24.1977C27.7268 24.5448 27.4778 24.8331 27.1306 24.8331C26.7573 24.8135 26.5344 24.5514 26.5344 24.1977ZM21.3773 23.1753C20.8007 23.1753 20.3942 23.5879 20.3942 24.2042C20.3942 24.82 20.8068 25.2331 21.4035 25.2331C21.6918 25.2331 21.9801 25.148 22.2029 24.9644L21.9997 24.6565C21.8357 24.7808 21.6329 24.8598 21.4231 24.8598C21.1544 24.8598 20.8923 24.7355 20.8269 24.3878H22.2814V24.2238C22.3015 23.5814 21.9343 23.1753 21.3773 23.1753ZM21.3773 23.5421C21.646 23.5421 21.8296 23.7061 21.8689 24.014H20.84C20.8862 23.7519 21.0694 23.5421 21.3773 23.5421ZM32.0779 24.1977V22.4352H31.6452V23.4641C31.5008 23.2804 31.298 23.1758 31.0293 23.1758C30.4724 23.1758 30.0462 23.6085 30.0462 24.2047C30.0462 24.8009 30.4789 25.2336 31.0293 25.2336C31.3176 25.2336 31.5209 25.1289 31.6452 24.9453V25.1943H32.0779V24.1977ZM30.492 24.1977C30.492 23.8505 30.7149 23.5622 31.0882 23.5622C31.4354 23.5622 31.6844 23.8309 31.6844 24.1977C31.6844 24.5448 31.4354 24.8331 31.0882 24.8331C30.7214 24.8135 30.492 24.5514 30.492 24.1977ZM16.0829 24.1977V23.2146H15.6502V23.4636C15.5058 23.28 15.303 23.1753 15.0344 23.1753C14.4774 23.1753 14.0513 23.608 14.0513 24.2042C14.0513 24.8004 14.4839 25.2331 15.0344 25.2331C15.3227 25.2331 15.5259 25.1284 15.6502 24.9448V25.1938H16.0829V24.1977ZM14.4844 24.1977C14.4844 23.8505 14.7073 23.5622 15.0806 23.5622C15.4278 23.5622 15.6768 23.8309 15.6768 24.1977C15.6768 24.5448 15.4278 24.8331 15.0806 24.8331C14.7068 24.8135 14.4844 24.5514 14.4844 24.1977Z" fill="white"/>
<path d="M24.5028 8.2485H18.0355V19.8663H24.5028V8.2485Z" fill="#FF5F00"/>
<path d="M18.442 14.0607C18.442 11.702 19.5494 9.60494 21.253 8.2485C20.0013 7.2654 18.4224 6.66919 16.6926 6.66919C12.6103 6.66919 9.30118 9.97173 9.30118 14.0607C9.30118 18.143 12.6037 21.4521 16.6926 21.4521C18.4159 21.4521 19.9952 20.8559 21.253 19.8728C19.5494 18.536 18.442 16.4198 18.442 14.0607Z" fill="#EB001B"/>
<path d="M33.2245 14.0607C33.2245 18.143 29.922 21.4521 25.833 21.4521C24.1098 21.4521 22.5305 20.8559 21.2727 19.8728C22.9959 18.5164 24.0836 16.4264 24.0836 14.0607C24.0836 11.702 22.9763 9.60494 21.2727 8.2485C22.5244 7.2654 24.1033 6.66919 25.833 6.66919C29.922 6.66966 33.2245 9.99182 33.2245 14.0607Z" fill="#F79E1B"/>
</g>
<defs>
<clipPath id="clip0_1974_7097">
<rect width="23.9233" height="23.9233" fill="white" transform="translate(9.30351 3.98718)"/>
</clipPath>
</defs>
</svg>
