<svg width="16" height="16" viewBox="0 0 16 16" fill="none" xmlns="http://www.w3.org/2000/svg">
<g id="assignment_turned_in_black_24dp 1" clip-path="url(#clip0_5153_49345)">
<path id="Vector" d="M12.5624 2.34641H9.8377C9.56392 1.60401 8.84689 1.06641 7.99948 1.06641C7.15207 1.06641 6.43504 1.60401 6.16126 2.34641H3.43652C2.71948 2.34641 2.13281 2.92241 2.13281 3.62641V12.5864C2.13281 13.2904 2.71948 13.8664 3.43652 13.8664H12.5624C13.2795 13.8664 13.8661 13.2904 13.8661 12.5864V3.62641C13.8661 2.92241 13.2795 2.34641 12.5624 2.34641ZM7.99948 2.34641C8.358 2.34641 8.65133 2.63441 8.65133 2.98641C8.65133 3.33841 8.358 3.62641 7.99948 3.62641C7.64096 3.62641 7.34763 3.33841 7.34763 2.98641C7.34763 2.63441 7.64096 2.34641 7.99948 2.34641ZM6.69578 11.3064L4.08837 8.74641L5.00748 7.84401L6.69578 9.49521L10.9915 5.27761L11.9106 6.18641L6.69578 11.3064Z" fill="#D9D9D9"/>
</g>
<defs>
<clipPath id="clip0_5153_49345">
<rect width="16" height="16" fill="white"/>
</clipPath>
</defs>
</svg>
