<svg width="72" height="33" viewBox="0 0 72 33" fill="none" xmlns="http://www.w3.org/2000/svg">
<rect width="72" height="33" rx="7" fill="#18242A"/>
<path d="M42.5084 10.4861H39.5473V17.928H40.1729V15.0642H42.5084C44.0515 15.0642 45.0316 14.1861 45.0316 12.7856C45.0316 11.385 44.0515 10.4861 42.5084 10.4861ZM42.4876 14.5206H40.1729V11.0505H42.4876C43.7596 11.0505 44.3851 11.6776 44.3851 12.7856C44.406 13.8726 43.7596 14.5206 42.4876 14.5206ZM55.3327 12.6602L53.5394 17.1337L51.7669 12.6602H51.0788L53.2266 17.928L52.7887 19.015C52.6219 19.4122 52.4133 19.5795 52.1006 19.5795C51.9338 19.5795 51.8503 19.5376 51.7252 19.4958L51.621 20.0603C51.7878 20.123 51.9338 20.1648 52.1215 20.1648C52.7053 20.1648 53.0598 19.8721 53.31 19.2032L56 12.6602H55.3327ZM49.5357 13.6008C49.0978 13.0364 48.4514 12.681 47.7007 12.681C46.3036 12.681 45.1567 13.9144 45.1567 15.4195C45.1567 16.9246 46.3036 18.158 47.7007 18.158C48.4514 18.158 49.0978 17.8026 49.5357 17.2382V18.0116H50.1404V12.8065H49.5357V13.6008ZM47.7007 17.5517C46.6372 17.5517 45.7614 16.5902 45.7614 15.3986C45.7614 14.207 46.6372 13.2455 47.7007 13.2455C48.7642 13.2455 49.64 14.207 49.64 15.3986C49.64 16.5902 48.785 17.5517 47.7007 17.5517ZM34.5844 10.0471C32.4367 10.0471 30.7059 11.8867 30.7059 14.1235C30.7059 16.3811 32.4367 18.1998 34.5844 18.1998C36.7114 18.1998 38.463 16.3602 38.463 14.1235C38.463 11.8867 36.7114 10.0471 34.5844 10.0471ZM34.5844 17.5936C32.7911 17.5936 31.3106 16.0466 31.3106 14.1235C31.3106 12.2211 32.7703 10.6533 34.5844 10.6533C36.3778 10.6533 37.8583 12.2003 37.8583 14.1235C37.8583 16.0257 36.3778 17.5936 34.5844 17.5936Z" fill="white"/>
<path fill-rule="evenodd" clip-rule="evenodd" d="M21.9743 17.6798C21.3811 18.1864 20.6606 18.4836 19.8834 18.4836C18.359 18.4836 17.0518 17.3409 16.498 15.7145C16.3503 15.1331 16.2706 14.5167 16.2706 13.878C16.2706 13.4817 16.3014 13.0939 16.3599 12.7177C16.8031 10.8404 18.2128 9.46789 19.8834 9.46789C20.9115 9.46789 21.8405 9.98776 22.5066 10.825C23.1532 11.6377 23.5519 12.7494 23.5519 13.9757C23.5519 15.5104 22.9276 16.8658 21.9743 17.6798ZM26.9212 13.5265C26.9084 13.2452 26.8792 12.9691 26.8365 12.6987C26.4684 10.6572 25.1958 8.92628 23.4442 7.92775C23.4384 7.92519 23.4327 7.9223 23.4268 7.91976V7.9181C22.4085 7.34142 21.2295 7.01172 19.9727 7.01172C19.9629 7.01172 19.9531 7.01206 19.9432 7.01208C19.9364 7.01208 19.9297 7.01178 19.9229 7.01178C19.3694 7.01178 18.8309 7.0764 18.3147 7.19843C18.3097 7.19967 18.3046 7.20086 18.2995 7.20214C18.277 7.2075 18.2547 7.21324 18.2322 7.21881C17.6287 7.37474 17.0574 7.61004 16.5294 7.9121C16.5147 7.92051 16.4998 7.92864 16.4852 7.93716C16.4828 7.93851 16.4805 7.93991 16.4782 7.94126C14.3986 9.13732 13 11.3679 13 13.9223C13 14.3051 13 14.934 13 14.934V24.7176H13.9318C15.3471 24.7176 16.4944 23.5743 16.4944 22.1639V19.9118C17.3576 20.4051 18.3371 20.7207 19.3824 20.8076C19.3872 20.808 19.3919 20.8083 19.3967 20.8087C19.4375 20.812 19.4784 20.8153 19.5195 20.8179C19.5682 20.821 19.6171 20.8238 19.6661 20.8259C19.6796 20.8265 19.6931 20.827 19.7066 20.8275C19.7435 20.8289 19.7804 20.8301 19.8175 20.831C19.8564 20.8319 19.8954 20.8323 19.9345 20.8325C19.9482 20.8326 19.962 20.8329 19.9758 20.8329C20.0264 20.8329 20.0768 20.8321 20.1272 20.831C20.1753 20.8298 20.2232 20.8282 20.2711 20.8262C20.2734 20.8262 20.2755 20.8261 20.2777 20.826C21.7856 20.7617 23.1694 20.2231 24.2808 19.3565C25.3422 18.5288 26.1549 17.402 26.5903 16.1046C26.7711 15.5315 26.8845 14.9193 26.9183 14.2812C26.9201 14.2186 26.9212 14.1559 26.9212 14.0929C26.9212 13.9821 26.9183 13.872 26.9131 13.7625C26.9183 13.7076 26.9212 13.6519 26.9212 13.5956V13.5265Z" fill="#1DCF9F"/>
<path fill-rule="evenodd" clip-rule="evenodd" d="M21.6021 20.2151C19.1966 20.2151 17.1639 18.3181 16.5021 15.713C16.3544 15.1317 16.2747 14.5153 16.2747 13.8766C16.2747 13.4803 16.3055 13.0925 16.364 12.7163C16.8222 9.76983 18.9929 7.53808 21.6021 7.53808C22.1528 7.53808 22.6841 7.63755 23.1838 7.82217C23.2657 7.86567 23.4268 7.91976 23.4268 7.91976V7.9181C22.4085 7.34142 21.2295 7.01172 19.9727 7.01172C19.9629 7.01172 19.9531 7.01206 19.9432 7.01208C19.9364 7.01208 19.9297 7.01178 19.9229 7.01178C19.3694 7.01178 18.8309 7.0764 18.3147 7.19843C18.3097 7.19967 18.3046 7.20086 18.2995 7.20214C18.277 7.2075 18.2547 7.21324 18.2322 7.21881C17.6287 7.37474 17.0574 7.61004 16.5294 7.9121C16.5147 7.92051 16.4998 7.92864 16.4852 7.93716C16.4828 7.93851 16.4805 7.93991 16.4782 7.94126C14.3986 9.13732 13 11.3679 13 13.9223C13 14.3051 13 14.934 13 14.934V24.7176H13.9318C15.3471 24.7176 16.4944 23.5743 16.4944 22.1639V19.9118C17.3576 20.4051 18.3371 20.7207 19.3824 20.8076C19.3872 20.808 19.3919 20.8083 19.3967 20.8087C19.4375 20.812 19.4784 20.8153 19.5195 20.8179C19.5682 20.821 19.6171 20.8238 19.6661 20.8259C19.6796 20.8265 19.6931 20.827 19.7066 20.8275C19.7435 20.8289 19.7804 20.8301 19.8175 20.831C19.8564 20.8319 19.8954 20.8323 19.9345 20.8325C19.9482 20.8326 19.962 20.8329 19.9758 20.8329C20.0264 20.8329 20.0768 20.8321 20.1272 20.831C20.1753 20.8298 20.2232 20.8282 20.2711 20.8262C20.2734 20.8262 20.2755 20.8261 20.2777 20.826C21.7856 20.7617 23.1694 20.2231 24.2808 19.3565C23.4938 19.9023 22.5787 20.2151 21.6021 20.2151Z" fill="#1DCF9F"/>
<path fill-rule="evenodd" clip-rule="evenodd" d="M26.592 16.106C26.7729 15.533 26.8863 14.9207 26.9201 14.2826C26.9218 14.2201 26.923 14.1574 26.923 14.0944C26.923 13.9836 26.9201 13.8735 26.9148 13.764C26.9201 13.7091 26.923 13.6534 26.923 13.5971V13.528C26.9101 13.2466 26.8809 12.9706 26.8382 12.7002C26.4702 10.6587 25.1975 8.92774 23.446 7.92921C23.4401 7.92665 23.4344 7.92377 23.4286 7.92123C23.4286 7.92123 23.2674 7.86714 23.1855 7.82364C22.6858 7.63902 22.1546 7.53955 21.6038 7.53955C18.9947 7.53955 16.824 9.7713 16.3658 12.7178C16.8089 10.8404 18.2186 9.46796 19.8893 9.46796C20.9174 9.46796 21.8464 9.98783 22.5125 10.825C23.159 11.6377 23.5577 12.7495 23.5577 13.9758C23.5577 15.5105 22.9335 16.8658 21.9801 17.6799C21.3869 18.1865 20.6664 18.4836 19.8893 18.4836C18.3648 18.4836 17.0577 17.3409 16.5038 15.7145C17.1656 18.3196 19.1984 20.2166 21.6038 20.2166C22.5804 20.2166 23.4956 19.9038 24.2825 19.3579C25.3439 18.5302 26.1566 17.4035 26.592 16.106Z" fill="url(#paint0_linear_1974_7113)"/>
<defs>
<linearGradient id="paint0_linear_1974_7113" x1="16.4794" y1="7.53955" x2="16.4794" y2="19.9438" gradientUnits="userSpaceOnUse">
<stop stop-color="#108767"/>
<stop offset="0.547327" stop-color="#1DCF9F"/>
</linearGradient>
</defs>
</svg>
