<svg width="20" height="20" viewBox="0 0 20 20" fill="none" xmlns="http://www.w3.org/2000/svg">
<path fill-rule="evenodd" clip-rule="evenodd" d="M14.0555 7.77782H13.3888V6.50798C13.3888 4.7556 11.8955 3.33337 10.0555 3.33337C8.2155 3.33337 6.72217 4.7556 6.72217 6.50798V7.77782H6.0555C5.32217 7.77782 4.72217 8.34925 4.72217 9.04766V15.3969C4.72217 16.0953 5.32217 16.6667 6.0555 16.6667H14.0555C14.7888 16.6667 15.3888 16.0953 15.3888 15.3969V9.04766C15.3888 8.34925 14.7888 7.77782 14.0555 7.77782ZM10.0555 13.4921C9.32217 13.4921 8.72217 12.9207 8.72217 12.2223C8.72217 11.5239 9.32217 10.9524 10.0555 10.9524C10.7888 10.9524 11.3888 11.5239 11.3888 12.2223C11.3888 12.9207 10.7888 13.4921 10.0555 13.4921ZM8.0555 6.50798V7.77782H12.0555V6.50798C12.0555 5.45401 11.1622 4.60322 10.0555 4.60322C8.94883 4.60322 8.0555 5.45401 8.0555 6.50798Z" fill="white"/>
</svg>
