<svg width="32" height="32" viewBox="0 0 32 32" fill="none" xmlns="http://www.w3.org/2000/svg">
<g id="Password">
<rect width="32" height="32" rx="7.11111" fill="#2C3538"/>
<path id="password lock" fill-rule="evenodd" clip-rule="evenodd" d="M22.4889 12.4446H21.4222V10.4129C21.4222 7.60905 19.0329 5.3335 16.0889 5.3335C13.1449 5.3335 10.7555 7.60905 10.7555 10.4129V12.4446H9.68888C8.51554 12.4446 7.55554 13.3589 7.55554 14.4764V24.6351C7.55554 25.7525 8.51554 26.6668 9.68888 26.6668H22.4889C23.6622 26.6668 24.6222 25.7525 24.6222 24.6351V14.4764C24.6222 13.3589 23.6622 12.4446 22.4889 12.4446ZM16.0889 21.5875C14.9155 21.5875 13.9555 20.6732 13.9555 19.5557C13.9555 18.4383 14.9155 17.524 16.0889 17.524C17.2622 17.524 18.2222 18.4383 18.2222 19.5557C18.2222 20.6732 17.2622 21.5875 16.0889 21.5875ZM12.8889 10.4129V12.4446H19.2889V10.4129C19.2889 8.72651 17.8595 7.36524 16.0889 7.36524C14.3182 7.36524 12.8889 8.72651 12.8889 10.4129Z" fill="#FFC600"/>
</g>
</svg>
