<svg width="102" height="33" viewBox="0 0 102 33" fill="none" xmlns="http://www.w3.org/2000/svg">
<rect width="101.674" height="32.5623" rx="7" fill="#18242A"/>
<path d="M21.6711 10.7634H10.6833C10.3143 10.7634 10 11.0801 10 11.4657V12.7188C10 13.1043 10.3143 13.421 10.6833 13.421H21.6711C22.0537 13.421 22.3544 13.1043 22.3681 12.7188V11.4795C22.3681 11.0801 22.0537 10.7634 21.6711 10.7634ZM21.6711 17.7173H10.6833C10.5057 17.7173 10.328 17.7862 10.205 17.9239C10.0683 18.0616 10 18.2268 10 18.4196V19.6726C10 20.0582 10.3143 20.3749 10.6833 20.3749H21.6711C22.0537 20.3749 22.3544 20.072 22.3681 19.6726V18.4196C22.3544 18.0202 22.0537 17.7173 21.6711 17.7173ZM16.8742 21.1873H10.6833C10.5057 21.1873 10.328 21.2562 10.205 21.3939C10.082 21.5316 10 21.6968 10 21.8896V23.1427C10 23.5283 10.3143 23.845 10.6833 23.845H16.8605C17.2432 23.845 17.5438 23.5283 17.5438 23.1565V21.9034C17.5575 21.4903 17.2568 21.1736 16.8742 21.1873ZM22.3681 14.2335H10.6833C10.5057 14.2335 10.328 14.3023 10.205 14.44C10.082 14.5777 10 14.743 10 14.9358V16.1888C10 16.5744 10.3143 16.8911 10.6833 16.8911H22.3544C22.7371 16.8911 23.0377 16.5744 23.0377 16.1888V14.9358C23.0514 14.5502 22.7371 14.2472 22.3681 14.2335Z" fill="white"/>
<path d="M35.1461 13.5725C34.8045 13.2145 34.4082 12.9391 33.9572 12.7463C33.5062 12.5535 33.0278 12.4571 32.5359 12.4571C32.0575 12.4434 31.5929 12.5535 31.1556 12.7601C30.8686 12.8978 30.6089 13.0906 30.3902 13.3247V13.1043C30.3902 12.9942 30.3492 12.884 30.2809 12.8014C30.2126 12.7188 30.1032 12.6637 29.9802 12.6637H28.4633C28.3539 12.6637 28.2446 12.705 28.1763 12.8014C28.0943 12.884 28.0533 12.9942 28.067 13.1043V23.4043C28.067 23.5145 28.108 23.6247 28.1763 23.7073C28.2583 23.7899 28.3539 23.8312 28.4633 23.8312H30.0212C30.1306 23.8312 30.2262 23.7899 30.3082 23.7073C30.3902 23.6384 30.4449 23.5283 30.4312 23.4043V19.8792C30.6499 20.1271 30.9369 20.3061 31.2512 20.4162C31.6612 20.5677 32.0849 20.6503 32.5222 20.6503C33.0142 20.6503 33.5062 20.5539 33.9572 20.3611C34.4082 20.1684 34.8181 19.893 35.1598 19.5349C35.5151 19.1632 35.7885 18.7225 35.9798 18.2406C36.1984 17.7035 36.2941 17.1252 36.2804 16.5469C36.2941 15.9685 36.1848 15.3902 35.9798 14.8394C35.7748 14.385 35.5015 13.9443 35.1461 13.5725ZM33.7522 17.3042C33.6702 17.5245 33.5472 17.7173 33.3832 17.8963C33.0688 18.2406 32.6179 18.4333 32.1532 18.4333C31.9209 18.4333 31.6885 18.392 31.4699 18.2819C31.2649 18.1855 31.0736 18.0616 30.9096 17.8963C30.7456 17.7311 30.6226 17.5245 30.5406 17.3042C30.3629 16.836 30.3629 16.3265 30.5406 15.8583C30.6226 15.638 30.7592 15.4452 30.9096 15.28C31.0736 15.1148 31.2649 14.9771 31.4699 14.8807C31.6885 14.7843 31.9209 14.7292 32.1532 14.7292C32.3992 14.7292 32.6179 14.7705 32.8502 14.8807C33.0552 14.9771 33.2465 15.101 33.3968 15.2662C33.5608 15.4315 33.6702 15.6243 33.7658 15.8446C33.9298 16.3265 33.9162 16.836 33.7522 17.3042ZM44.6306 12.6775H43.0863C42.977 12.6775 42.8676 12.7188 42.7993 12.8014C42.7173 12.884 42.6763 12.9942 42.6763 13.1181V13.3109C42.485 13.0768 42.239 12.8978 41.9793 12.7739C41.5557 12.5673 41.091 12.4709 40.6264 12.4709C39.6287 12.4709 38.6857 12.8702 37.9751 13.5725C37.6061 13.9443 37.3191 14.385 37.1278 14.8669C36.9091 15.4039 36.7998 15.9823 36.8134 16.5744C36.7998 17.1527 36.9091 17.7311 37.1278 18.2819C37.3328 18.7638 37.6061 19.2045 37.9751 19.5763C38.6721 20.2923 39.6287 20.6916 40.6127 20.6916C41.0773 20.7054 41.542 20.5952 41.9657 20.3887C42.2253 20.251 42.485 20.072 42.6763 19.8517V20.0582C42.6763 20.1684 42.7173 20.2785 42.7993 20.3611C42.8813 20.43 42.977 20.4851 43.0863 20.4851H44.6306C44.7399 20.4851 44.8493 20.4438 44.9176 20.3611C44.9996 20.2785 45.0406 20.1684 45.0406 20.0582V13.1319C45.0406 13.0217 44.9996 12.9116 44.9313 12.8289C44.8493 12.7325 44.7399 12.6775 44.6306 12.6775ZM42.5396 17.3042C42.4576 17.5245 42.3346 17.7173 42.1707 17.8963C42.0067 18.0616 41.829 18.1993 41.624 18.2956C41.1867 18.5022 40.681 18.5022 40.2437 18.2956C40.0387 18.1993 39.8474 18.0616 39.6834 17.8963C39.5194 17.7311 39.3964 17.5245 39.3144 17.3042C39.1504 16.836 39.1504 16.3265 39.3144 15.8583C39.3964 15.638 39.5194 15.459 39.6834 15.28C39.8474 15.1148 40.025 14.9771 40.2437 14.8807C40.681 14.6741 41.1867 14.6741 41.6103 14.8807C41.8153 14.9771 42.0067 15.101 42.157 15.2662C42.3073 15.4315 42.4303 15.6243 42.526 15.8446C42.7173 16.3265 42.7173 16.836 42.5396 17.3042ZM60.0189 16.3678C59.8003 16.1751 59.5406 16.0098 59.2673 15.8997C58.9803 15.7757 58.666 15.6931 58.3653 15.6243L57.19 15.3902C56.8893 15.3351 56.6707 15.2525 56.5613 15.1561C56.4657 15.0872 56.3974 14.9771 56.3974 14.8531C56.3974 14.7292 56.4657 14.619 56.616 14.5227C56.821 14.4125 57.0397 14.3574 57.272 14.3712C57.5727 14.3712 57.8733 14.44 58.1466 14.5502C58.42 14.6741 58.6796 14.7981 58.9256 14.9633C59.2673 15.1836 59.5679 15.1423 59.7729 14.8944L60.3333 14.2473C60.4426 14.1371 60.4973 13.9994 60.5109 13.8479C60.4973 13.6827 60.4153 13.545 60.2923 13.4348C60.0599 13.2283 59.6773 13.0079 59.1716 12.7876C58.666 12.5673 58.0236 12.4571 57.272 12.4571C56.8073 12.4434 56.3564 12.5122 55.919 12.6499C55.55 12.7739 55.1947 12.9529 54.8804 13.187C54.5934 13.4073 54.3747 13.6827 54.2107 14.0132C54.0604 14.3299 53.9784 14.6741 53.9784 15.0184C53.9784 15.6656 54.1697 16.1888 54.5524 16.5744C54.935 16.9599 55.4407 17.2216 56.0694 17.3455L57.2993 17.6209C57.559 17.6622 57.8323 17.7448 58.0783 17.8688C58.215 17.9239 58.297 18.0616 58.297 18.213C58.297 18.3507 58.2286 18.4747 58.0783 18.5848C57.928 18.695 57.682 18.7638 57.354 18.7638C57.026 18.7638 56.6843 18.695 56.3837 18.5435C56.0967 18.4058 55.837 18.2268 55.591 18.0202C55.4817 17.9376 55.3724 17.8688 55.2357 17.8137C55.099 17.7724 54.9214 17.8137 54.7437 17.9652L54.0741 18.4747C53.8827 18.6124 53.7871 18.8464 53.8417 19.0668C53.8827 19.3009 54.0604 19.5212 54.4021 19.7828C55.2494 20.3612 56.2607 20.6641 57.2857 20.6366C57.764 20.6366 58.2423 20.5815 58.6933 20.4438C59.0896 20.3198 59.4586 20.1408 59.7866 19.893C60.0873 19.6726 60.3333 19.3835 60.4973 19.0392C60.6613 18.7087 60.7433 18.3507 60.7433 17.9789C60.7569 17.6485 60.6886 17.318 60.5519 17.015C60.4153 16.7947 60.2376 16.5606 60.0189 16.3678ZM66.7701 18.2543C66.7018 18.1304 66.5788 18.0478 66.4285 18.0202C66.2918 18.0202 66.1415 18.0616 66.0321 18.1442C65.8408 18.2681 65.6222 18.337 65.4035 18.3507C65.3352 18.3507 65.2532 18.337 65.1848 18.3232C65.1028 18.3094 65.0345 18.2681 64.9798 18.213C64.9115 18.1442 64.8568 18.0616 64.8158 17.9789C64.7612 17.8412 64.7338 17.7035 64.7475 17.5658V14.743H66.7428C66.8658 14.743 66.9751 14.6879 67.0571 14.6053C67.1391 14.5227 67.1938 14.4263 67.1938 14.3023V13.1043C67.1938 12.9804 67.1528 12.8702 67.0571 12.8014C66.9751 12.7188 66.8658 12.6775 66.7565 12.6775H64.7475V10.7497C64.7475 10.6395 64.7065 10.5156 64.6245 10.4467C64.5425 10.3779 64.4468 10.3366 64.3375 10.3228H62.7795C62.6702 10.3228 62.5609 10.3641 62.4789 10.4467C62.3969 10.5293 62.3422 10.6395 62.3422 10.7497V12.6775H61.4539C61.3446 12.6775 61.2352 12.7188 61.1533 12.8152C61.0849 12.8978 61.0439 13.0079 61.0439 13.1181V14.3161C61.0439 14.4263 61.0849 14.5364 61.1533 14.619C61.2216 14.7154 61.3309 14.7567 61.4539 14.7567H62.3422V18.1166C62.3286 18.516 62.4106 18.9153 62.5746 19.2733C62.7249 19.5763 62.9162 19.8379 63.1759 20.0582C63.4219 20.2648 63.7089 20.4162 64.0232 20.4988C64.3375 20.5952 64.6655 20.6503 64.9935 20.6503C65.4172 20.6503 65.8545 20.5815 66.2645 20.4438C66.6471 20.3198 66.9888 20.0995 67.2621 19.8103C67.4398 19.6313 67.4534 19.3422 67.3168 19.1356L66.7701 18.2543ZM75.216 12.6775H73.6716C73.5623 12.6775 73.4667 12.7188 73.3847 12.8014C73.3027 12.884 73.2617 12.9942 73.2617 13.1181V13.3109C73.0703 13.0768 72.838 12.8978 72.5647 12.7739C72.141 12.5673 71.6764 12.4709 71.2117 12.4709C70.2141 12.4709 69.2711 12.8702 68.5604 13.5725C68.1914 13.9443 67.9044 14.385 67.7131 14.8669C67.4944 15.4039 67.3851 15.9823 67.3988 16.5606C67.3851 17.139 67.4944 17.7173 67.7131 18.2681C67.9044 18.7501 68.2051 19.1907 68.5604 19.5625C69.2574 20.2785 70.2004 20.6779 71.198 20.6779C71.6627 20.6916 72.1273 20.5815 72.551 20.3887C72.8243 20.251 73.0703 20.072 73.2617 19.8517V20.0582C73.2617 20.1684 73.3027 20.2785 73.3847 20.3474C73.4667 20.43 73.5623 20.4713 73.6716 20.4713H75.216C75.4483 20.4713 75.6259 20.2923 75.6259 20.0582V13.1319C75.6259 13.0217 75.5849 12.9116 75.5166 12.8289C75.4483 12.7325 75.3389 12.6775 75.216 12.6775ZM73.1387 17.3042C73.0567 17.5245 72.9337 17.7173 72.7697 17.8963C72.6057 18.0616 72.428 18.1993 72.223 18.2956C72.0044 18.392 71.772 18.4471 71.526 18.4471C71.28 18.4471 71.0614 18.392 70.8427 18.2956C70.6377 18.1993 70.4464 18.0616 70.2824 17.8963C70.1184 17.7311 69.9954 17.5245 69.9271 17.3042C69.7631 16.836 69.7631 16.3265 69.9271 15.8583C70.0091 15.638 70.1321 15.4452 70.2824 15.28C70.4464 15.1148 70.6377 14.9771 70.8427 14.8807C71.0614 14.7843 71.2937 14.7292 71.526 14.7292C71.7584 14.7292 71.9907 14.7705 72.223 14.8807C72.428 14.9771 72.6057 15.101 72.7697 15.2662C72.9337 15.4315 73.0567 15.6243 73.1387 15.8446C73.3163 16.3128 73.3163 16.836 73.1387 17.3042ZM83.6891 18.1442L82.8008 17.4557C82.6368 17.318 82.4728 17.2767 82.3361 17.3317C82.2131 17.3868 82.1038 17.4694 82.0081 17.5658C81.8168 17.7999 81.5845 18.0065 81.3385 18.1855C81.0652 18.337 80.7782 18.4196 80.4775 18.392C80.1222 18.392 79.7942 18.2956 79.5072 18.0891C79.2202 17.8825 79.0015 17.6071 78.8922 17.2629C78.8102 17.0288 78.7692 16.7947 78.7692 16.5606C78.7692 16.3128 78.8102 16.0787 78.8922 15.8308C78.9742 15.6105 79.0835 15.4177 79.2475 15.2525C79.4115 15.0872 79.5892 14.9495 79.7942 14.8669C80.0128 14.7705 80.2452 14.7154 80.4912 14.7154C80.7918 14.7017 81.0925 14.7843 81.3522 14.9358C81.6118 15.101 81.8305 15.3075 82.0218 15.5554C82.1038 15.6518 82.2131 15.7344 82.3361 15.7895C82.4728 15.8446 82.6368 15.8033 82.8008 15.6656L83.6891 14.9908C83.7984 14.922 83.8804 14.8118 83.9214 14.6879C83.9761 14.5502 83.9624 14.3987 83.8804 14.2748C83.5388 13.7378 83.0741 13.2971 82.5138 12.9804C81.9261 12.6499 81.2292 12.4709 80.4502 12.4709C79.9035 12.4709 79.3569 12.5811 78.8375 12.7876C78.3456 12.9942 77.9082 13.2833 77.5392 13.6551C77.1702 14.0269 76.8696 14.4676 76.6646 14.9633C76.2409 15.996 76.2409 17.1527 76.6646 18.1855C76.8696 18.6674 77.1566 19.1218 77.5392 19.4799C78.3182 20.251 79.3569 20.6641 80.4502 20.6641C81.2292 20.6641 81.9261 20.4851 82.5138 20.1546C83.0741 19.8379 83.5524 19.3972 83.8941 18.8464C83.9624 18.7225 83.9761 18.571 83.9351 18.4471C83.8804 18.337 83.7984 18.2268 83.6891 18.1442ZM91.9163 19.7553L89.47 16.1475L91.5609 13.366C91.6566 13.242 91.6976 13.063 91.6429 12.9116C91.6019 12.8014 91.5063 12.6912 91.2466 12.6912H89.593C89.4973 12.6912 89.4016 12.7188 89.3197 12.7601C89.2103 12.8152 89.1283 12.8978 89.0737 12.9942L87.4064 15.3489H87.01V9.78576C87.01 9.6756 86.969 9.56544 86.887 9.48282C86.805 9.4002 86.7094 9.35889 86.6 9.35889H85.0557C84.9464 9.35889 84.8371 9.4002 84.7551 9.48282C84.6731 9.56544 84.6321 9.66183 84.6321 9.78576V20.0444C84.6321 20.1684 84.6731 20.2648 84.7551 20.3474C84.8371 20.43 84.9464 20.4713 85.0557 20.4713H86.6C86.7094 20.4713 86.8187 20.43 86.887 20.3474C86.969 20.2648 87.01 20.1546 87.01 20.0444V17.3317H87.4474L89.265 20.1408C89.3743 20.3474 89.5793 20.4713 89.798 20.4713H91.5336C91.7933 20.4713 91.9026 20.3474 91.9573 20.2372C92.0256 20.072 92.0119 19.893 91.9163 19.7553ZM53.4044 12.6775H51.6688C51.5321 12.6775 51.4091 12.7188 51.3135 12.8152C51.2315 12.8978 51.1768 12.9942 51.1495 13.1043L49.8648 17.8963H49.5505L48.1839 13.1043C48.1565 13.0079 48.1155 12.9116 48.0472 12.8152C47.9652 12.7188 47.8559 12.6637 47.7329 12.6637H45.9699C45.7376 12.6637 45.6009 12.7325 45.5326 12.8978C45.4916 13.0355 45.4916 13.187 45.5326 13.3247L47.7192 20.072C47.7602 20.1684 47.8012 20.2785 47.8832 20.3474C47.9652 20.43 48.0882 20.4713 48.2112 20.4713H49.1405L49.0585 20.6916L48.8535 21.3113C48.7852 21.5041 48.6758 21.6693 48.5119 21.7932C48.3615 21.9034 48.1839 21.9722 47.9925 21.9585C47.8285 21.9585 47.6782 21.9172 47.5279 21.8621C47.3775 21.7932 47.2409 21.7106 47.1179 21.6142C47.0085 21.5316 46.8719 21.4903 46.7216 21.4903H46.7079C46.5439 21.5041 46.3936 21.5867 46.3116 21.7382L45.7649 22.5506C45.5462 22.9086 45.6692 23.1289 45.8059 23.2529C46.1066 23.5283 46.4482 23.7348 46.8309 23.8587C47.2545 24.0102 47.6919 24.0791 48.1292 24.0791C48.9218 24.0791 49.5778 23.8587 50.0835 23.4319C50.6028 22.9637 50.9991 22.3578 51.1905 21.6693L53.7324 13.3247C53.7871 13.1732 53.8007 13.0217 53.7461 12.884C53.7324 12.7876 53.6367 12.6775 53.4044 12.6775Z" fill="white"/>
</svg>
