<svg width="32" height="32" viewBox="0 0 32 32" fill="none" xmlns="http://www.w3.org/2000/svg">
<g id="Phone">
<rect width="32" height="32" rx="7.11111" fill="#2C3538"/>
<path id="phone No" fill-rule="evenodd" clip-rule="evenodd" d="M21.5511 19.5367L24.5659 19.8811C25.7646 20.0236 26.6667 21.0331 26.6548 22.2325V24.2871C26.6548 25.629 25.5391 26.7454 24.1979 26.6622C14.0735 26.0328 5.9668 17.9335 5.33773 7.79155C5.25465 6.44958 6.37036 5.33325 7.71158 5.33325H9.76495C10.9756 5.33325 11.9845 6.23581 12.1269 7.43527L12.4711 10.428C12.5542 11.1524 12.305 11.865 11.7946 12.3756L9.59878 14.5726C11.3079 17.9454 14.0616 20.6887 17.4206 22.3988L19.6045 20.2137C20.1149 19.703 20.8271 19.4536 21.5511 19.5367ZM17.1713 12.4469H14.7975V14.822H17.1713V12.4469ZM21.919 12.4469H19.5452V14.822H21.919V12.4469ZM24.2929 12.4469H26.6667V14.822H24.2929V12.4469Z" fill="#FFC600"/>
</g>
</svg>
