<svg width="32" height="32" viewBox="0 0 32 32" fill="none" xmlns="http://www.w3.org/2000/svg">
<rect width="32" height="32" rx="7.11111" fill="#2C3538"/>
<path fill-rule="evenodd" clip-rule="evenodd" d="M21.551 19.5367L24.5657 19.8811C25.7645 20.0236 26.6666 21.0331 26.6547 22.2325V24.2871C26.6547 25.629 25.539 26.7454 24.1978 26.6622C14.0734 26.0328 5.96668 17.9335 5.33761 7.79155C5.25453 6.44958 6.37023 5.33325 7.71145 5.33325H9.76483C10.9755 5.33325 11.9844 6.23581 12.1268 7.43527L12.471 10.428C12.5541 11.1524 12.3048 11.865 11.7945 12.3756L9.59866 14.5726C11.3078 17.9454 14.0615 20.6887 17.4205 22.3988L19.6044 20.2137C20.1148 19.703 20.8269 19.4536 21.551 19.5367ZM17.1712 12.4469H14.7974V14.822H17.1712V12.4469ZM21.9189 12.4469H19.5451V14.822H21.9189V12.4469ZM24.2927 12.4469H26.6666V14.822H24.2927V12.4469Z" fill="white"/>
</svg>
