<svg width="57" height="58" viewBox="0 0 57 58" fill="none" xmlns="http://www.w3.org/2000/svg">
<rect width="57" height="58" rx="28.5" fill="white"/>
<ellipse cx="28.5008" cy="46.2036" rx="13.7586" ry="6.88136" fill="#4D585D"/>
<rect x="24.5684" y="27.5254" width="8.84483" height="16.7119" rx="4.42241" fill="url(#paint0_linear_5095_10219)"/>
<path d="M40.8759 27.5992C40.8759 29.1391 39.6442 31.1841 38.1248 31.1841C36.6053 31.1841 35.3736 29.1391 35.3736 27.5992C35.3736 26.0594 36.6053 24.811 38.1248 24.811C39.6442 24.811 40.8759 26.0594 40.8759 27.5992Z" fill="url(#paint1_linear_5095_10219)"/>
<path d="M22.6313 27.5992C22.6313 29.1391 21.3995 31.1841 19.8801 31.1841C18.3607 31.1841 17.1289 29.1391 17.1289 27.5992C17.1289 26.0594 18.3607 24.811 19.8801 24.811C21.3995 24.811 22.6313 26.0594 22.6313 27.5992Z" fill="url(#paint2_linear_5095_10219)"/>
<path d="M39.1391 24.6043C39.1391 30.2039 34.601 37.6401 29.0031 37.6401C23.4052 37.6401 18.8672 30.2039 18.8672 24.6043C18.8672 19.0047 23.4052 14.4653 29.0031 14.4653C34.601 14.4653 39.1391 19.0047 39.1391 24.6043Z" fill="url(#paint3_linear_5095_10219)"/>
<path d="M39.1391 24.6043C39.1391 24.9203 39.0681 23.3984 37.9109 22.0537C36.8354 23.9363 33.3401 24.5015 30.3826 23.9363C27.425 23.3711 24.4675 22.0537 22.0477 22.0537C19.359 22.0537 19.0039 26.3568 19.0039 26.3568C19.0039 26.3568 18.8672 25.1728 18.8672 24.6043C18.8672 19.0047 23.4052 14.4653 29.0031 14.4653C34.601 14.4653 39.1391 19.0047 39.1391 24.6043Z" fill="#18242A"/>
<path d="M25.543 33.3496C25.543 33.3496 26.8873 34.109 29.0383 34.1565C31.1892 34.2039 32.5335 33.3496 32.5335 33.3496C32.5335 34.4254 30.8568 35.5012 29.0383 35.5012C27.2197 35.5012 25.543 34.1565 25.543 33.3496Z" fill="black"/>
<path d="M22.5859 28.5084C22.5859 28.5084 23.0203 28.2553 24.468 28.2553C25.9158 28.2553 26.3501 28.5084 26.3501 28.5084C26.3501 27.8756 25.3773 27.4326 24.468 27.4326C23.5588 27.4326 22.5859 27.8756 22.5859 28.5084Z" fill="black"/>
<path d="M31.7274 28.5084C31.7274 28.5084 32.1618 28.2553 33.6095 28.2553C35.0573 28.2553 35.4916 28.5084 35.4916 28.5084C35.4916 27.8756 34.5188 27.4326 33.6095 27.4326C32.7003 27.4326 31.7274 27.8756 31.7274 28.5084Z" fill="black"/>
<rect width="1.15868" height="7.24034" rx="0.579338" transform="matrix(0.422515 -0.906356 0.90626 0.422722 10.3145 16.1421)" fill="#FFC600"/>
<rect width="1.15853" height="5.79297" rx="0.579267" transform="matrix(0.76595 -0.6429 0.642675 0.766139 14.9375 11.7729)" fill="#FFC600"/>
<rect x="10.4297" y="22.6006" width="1.15874" height="5.79196" rx="0.579368" transform="rotate(-90 10.4297 22.6006)" fill="#FFC600"/>
<rect width="1.15868" height="7.24034" rx="0.579338" transform="matrix(-0.422515 -0.906356 -0.90626 0.422722 47.668 16.1421)" fill="#FFC600"/>
<rect width="1.15853" height="5.79297" rx="0.579267" transform="matrix(-0.76595 -0.6429 -0.642675 0.766139 43.0449 11.7729)" fill="#FFC600"/>
<rect width="1.15874" height="5.79196" rx="0.579368" transform="matrix(-2.519e-08 -1 -1 2.519e-08 47.5527 22.6006)" fill="#FFC600"/>
<path d="M51.6218 38.1904C51.6218 42.0523 48.492 45.183 44.6312 45.183C40.7704 45.183 37.6406 42.0523 37.6406 38.1904C37.6406 34.3285 40.7704 31.1978 44.6312 31.1978C48.492 31.1978 51.6218 34.3285 51.6218 38.1904Z" fill="#BE202F"/>
<path d="M49.0354 36.3531L47.6455 34.9629L44.1204 38.4891L42.5449 36.9131C42.1611 36.5292 41.5388 36.5292 41.155 36.9131C40.7712 37.297 40.7712 37.9194 41.155 38.3033L44.1204 41.2696L49.0354 36.3531Z" fill="white"/>
<defs>
<linearGradient id="paint0_linear_5095_10219" x1="28.9908" y1="27.5254" x2="28.9908" y2="44.2373" gradientUnits="userSpaceOnUse">
<stop stop-color="#FFC600"/>
<stop offset="0.69863" stop-color="#C88400"/>
</linearGradient>
<linearGradient id="paint1_linear_5095_10219" x1="29.0024" y1="24.811" x2="29.0024" y2="31.1841" gradientUnits="userSpaceOnUse">
<stop stop-color="#FFC600"/>
<stop offset="0.69863" stop-color="#C88400"/>
</linearGradient>
<linearGradient id="paint2_linear_5095_10219" x1="29.0024" y1="24.811" x2="29.0024" y2="31.1841" gradientUnits="userSpaceOnUse">
<stop stop-color="#FFC600"/>
<stop offset="0.69863" stop-color="#C88400"/>
</linearGradient>
<linearGradient id="paint3_linear_5095_10219" x1="29.0031" y1="14.4653" x2="29.0031" y2="37.6401" gradientUnits="userSpaceOnUse">
<stop stop-color="#FFC600"/>
<stop offset="0.69863" stop-color="#C88400"/>
</linearGradient>
</defs>
</svg>
