<svg width="90" height="33" viewBox="0 0 90 33" fill="none" xmlns="http://www.w3.org/2000/svg">
<rect width="89.7125" height="32.5623" rx="7" fill="#18242A"/>
<g clip-path="url(#clip0_1974_7103)">
<path fill-rule="evenodd" clip-rule="evenodd" d="M71.6646 25.8327C71.0139 25.6588 76.8575 18.3617 75.8832 15.4071C75.3971 13.8448 70.5291 14.0187 70.5291 13.4964C70.5291 12.9747 79.9455 11.5875 80.8325 12.8887C82.216 14.7161 72.4762 26.1805 71.6646 25.8327ZM83.0228 8.97968C83.0228 10.2282 82.0793 11.2381 80.9136 11.2381C79.7492 11.2381 78.8043 10.2282 78.8043 8.97968C78.8043 7.73178 79.7492 6.72179 80.9136 6.72179C82.0793 6.72179 83.0228 7.73178 83.0228 8.97968Z" fill="white"/>
<path fill-rule="evenodd" clip-rule="evenodd" d="M12.1712 14.9258C10.8336 14.9258 9.74908 16.0103 9.74908 17.3484C9.74908 18.6863 10.8336 19.7708 12.1712 19.7708C13.5088 19.7708 14.5934 18.6863 14.5934 17.3484C14.5934 16.0103 13.5088 14.9258 12.1712 14.9258ZM15.278 21.6844L14.4262 20.8321C13.7768 21.2536 13.0028 21.499 12.1712 21.499C9.87921 21.499 8.02109 19.6407 8.02109 17.3484C8.02109 15.0557 9.87921 13.1974 12.1712 13.1974C14.4632 13.1974 16.3213 15.0557 16.3213 17.3484C16.3213 18.207 16.0604 19.0049 15.6138 19.6671L16.6437 20.6972L15.278 21.6844ZM67.9644 16.6311L68.2129 15.3054C68.2129 15.3054 66.2937 14.7228 64.7336 15.8025V21.1055H66.3905L66.3903 16.7969C67.053 16.2996 67.9644 16.6311 67.9644 16.6311ZM26.8351 18.1816C26.8351 17.7588 26.9036 17.3604 27.0407 16.9859C27.178 16.6116 27.3762 16.2854 27.6356 16.0073C27.8952 15.7291 28.2101 15.5085 28.581 15.3454C28.9516 15.1824 29.3741 15.1006 29.8486 15.1006C30.1598 15.1006 30.4454 15.1285 30.7048 15.1841C30.9642 15.2397 31.2165 15.3194 31.461 15.4234L31.1164 16.7469C30.9607 16.6874 30.7899 16.6355 30.6048 16.5912C30.4193 16.5465 30.2116 16.5244 29.982 16.5244C29.4926 16.5244 29.1275 16.6763 28.8867 16.9804C28.6458 17.2846 28.5254 17.6848 28.5254 18.1816C28.5254 18.708 28.6384 19.1159 28.8645 19.4049C29.0906 19.6942 29.4852 19.8388 30.0487 19.8388C30.2488 19.8388 30.4639 19.8203 30.6937 19.7832C30.9234 19.7459 31.1347 19.6869 31.3276 19.6052L31.5611 20.962C31.3682 21.0437 31.1273 21.1139 30.8381 21.1732C30.549 21.2327 30.2302 21.2622 29.8818 21.2622C29.3481 21.2622 28.8886 21.1826 28.5032 21.0233C28.1176 20.864 27.8006 20.6469 27.5525 20.3726C27.3036 20.0983 27.1224 19.7739 27.0075 19.3994C26.8925 19.025 26.8351 18.619 26.8351 18.1816ZM46.9575 16.2812C45.8806 16.2812 45.7976 17.4411 45.7976 17.4411H48.1172C48.1172 17.4411 48.0344 16.2812 46.9575 16.2812ZM49.5256 18.6012H45.7976C45.7976 18.6012 45.8806 19.8444 47.5375 19.8444C48.3656 19.8444 49.1943 19.5956 49.1943 19.5956L49.3599 20.9213C49.3599 20.9213 48.5314 21.2526 47.3717 21.2526C45.7147 21.2526 44.2237 20.424 44.2237 18.1042C44.2237 16.2812 45.3833 15.1213 47.0403 15.1213C49.5256 15.1213 49.6913 17.6069 49.5256 18.6012ZM60.8687 16.2812C59.7916 16.2812 59.7089 17.4411 59.7089 17.4411H62.0286C62.0286 17.4411 61.9456 16.2812 60.8687 16.2812ZM63.4368 18.6012H59.7089C59.7089 18.6012 59.7916 19.8444 61.4485 19.8444C62.277 19.8444 63.1052 19.5956 63.1052 19.5956L63.271 20.9213C63.271 20.9213 62.4428 21.2526 61.2829 21.2526C59.6259 21.2526 58.1348 20.424 58.1348 18.1042C58.1348 16.2812 59.2948 15.1213 60.9517 15.1213C63.4368 15.1213 63.6025 17.6069 63.4368 18.6012Z" fill="white"/>
<path fill-rule="evenodd" clip-rule="evenodd" d="M25.5614 21.1062H23.9047V15.2559H25.5614V21.1062Z" fill="white"/>
<path fill-rule="evenodd" clip-rule="evenodd" d="M22.7323 15.2567L22.7351 20.5565C22.7351 20.5565 21.9038 21.2219 20.0812 21.2219C18.4245 21.2219 17.5133 20.3933 17.5133 18.5703V15.2564H19.17V18.5703C19.17 19.7306 19.75 19.8133 20.2468 19.8133C20.7441 19.8133 21.0758 19.5647 21.0758 19.5647L21.0753 15.2567H22.7323ZM34.3888 17.3561C34.5519 17.1792 34.72 16.995 34.8941 16.8034C35.0681 16.6118 35.2368 16.4219 35.3996 16.234C35.5625 16.0457 35.7163 15.867 35.8607 15.6975C36.0052 15.5281 36.1291 15.3805 36.2328 15.255H38.2032C37.8099 15.7068 37.4265 16.1377 37.052 16.5483C36.6777 16.9589 36.2681 17.3824 35.8232 17.819C36.0456 18.0194 36.2753 18.2591 36.5129 18.5376C36.7499 18.8163 36.9798 19.104 37.202 19.4013C37.4248 19.6983 37.6284 19.9954 37.8137 20.2925C37.9992 20.5897 38.155 20.8606 38.2808 21.1056H36.3757C36.2572 20.9124 36.122 20.6989 35.9706 20.4646C35.8189 20.2305 35.6579 19.9962 35.4877 19.7622C35.3173 19.5283 35.1378 19.3034 34.9491 19.0877C34.7605 18.8724 34.5735 18.6902 34.3888 18.5413V21.1056H32.7319V13.7939L34.3888 13.5015V17.3561ZM39.2423 13.7944L40.8992 13.5019V15.226H42.5389V16.6052H40.8992V18.6626C40.8992 19.0113 40.9604 19.2894 41.0826 19.4967C41.2049 19.7044 41.4512 19.8081 41.8222 19.8081C42.0002 19.8081 42.1836 19.7915 42.3726 19.7581C42.5616 19.7247 42.734 19.6786 42.8897 19.619L43.1231 20.9094C42.923 20.991 42.7006 21.0613 42.4559 21.1208C42.2115 21.1798 41.911 21.2094 41.5552 21.2094C41.1028 21.2094 40.7287 21.1484 40.4323 21.026C40.1356 20.9037 39.8985 20.7331 39.7204 20.5145C39.5425 20.2959 39.4182 20.0307 39.3479 19.7192C39.2773 19.4078 39.2423 19.063 39.2423 18.6849V13.7944ZM53.0758 21.2168C52.5936 21.2096 52.2028 21.1575 51.9025 21.0614C51.6024 20.965 51.3648 20.8295 51.1911 20.6551C51.0165 20.4811 50.8979 20.2696 50.835 20.0212C50.772 19.7729 50.7405 19.4928 50.7405 19.1814V13.7938L52.3974 13.5013V18.8476C52.3974 18.9963 52.4084 19.1296 52.4308 19.2484C52.453 19.3669 52.4957 19.4671 52.5587 19.5485C52.6216 19.6303 52.7124 19.697 52.8312 19.7487C52.9497 19.8008 53.1093 19.834 53.3094 19.8487L53.0758 21.2168ZM56.8181 21.2168C56.3359 21.2096 55.945 21.1575 55.6448 21.0614C55.3446 20.965 55.107 20.8295 54.9333 20.6551C54.7589 20.4811 54.6401 20.2696 54.5772 20.0212C54.5143 19.7729 54.4827 19.4928 54.4827 19.1814V13.7938L56.1396 13.5013V18.8476C56.1396 18.9963 56.1509 19.1296 56.173 19.2484C56.1953 19.3669 56.2379 19.4671 56.3009 19.5485C56.3639 19.6303 56.4547 19.697 56.5734 19.7487C56.692 19.8008 56.8515 19.834 57.0515 19.8487L56.8181 21.2168Z" fill="white"/>
</g>
<defs>
<clipPath id="clip0_1974_7103">
<rect width="75.0927" height="19.2716" fill="white" transform="translate(7.97444 6.64539)"/>
</clipPath>
</defs>
</svg>
