<svg width="16" height="16" viewBox="0 0 16 16" fill="none" xmlns="http://www.w3.org/2000/svg">
<path d="M9.89553 11.4603L10.0093 11.3465L9.4403 10.7768C8.40302 11.5287 7.17739 11.9048 5.95239 11.9048C4.42923 11.9048 2.90544 11.3234 1.74343 10.1614C0.581423 8.99935 0 7.47556 0 5.95239C0 4.42923 0.581423 2.90544 1.74343 1.74343C2.90544 0.581423 4.42923 0 5.95239 0C7.47556 0 8.99935 0.581423 10.1614 1.74343C11.3234 2.90544 11.9048 4.42923 11.9048 5.95239C11.9048 7.1776 11.5285 8.40281 10.7766 9.4403L11.346 10.0098L11.4603 9.89553C11.5642 9.79159 11.7335 9.79159 11.8374 9.89553L15.922 13.9802C16.026 14.0841 16.026 14.2534 15.922 14.3573L14.3573 15.9218C14.2534 16.0258 14.0841 16.0258 13.9802 15.9218L9.89553 11.8374C9.79159 11.7334 9.79159 11.5642 9.89553 11.4603ZM1.34385 5.95239C1.34385 7.13141 1.79403 8.31105 2.69399 9.21101C3.59374 10.1108 4.77359 10.5609 5.9526 10.5609C7.13162 10.5609 8.31126 10.1108 9.21101 9.21101C10.1108 8.31126 10.5609 7.13183 10.5609 5.95239C10.5609 4.77338 10.1108 3.59353 9.2108 2.69357C8.31105 1.79382 7.13141 1.34364 5.9526 1.34468C4.77338 1.3449 3.59437 1.79466 2.69399 2.69378C1.79403 3.59374 1.34385 4.77338 1.34385 5.95239Z" fill="white"/>
</svg>
