<svg width="16" height="16" viewBox="0 0 16 16" fill="none" xmlns="http://www.w3.org/2000/svg">
<path d="M8.22334 1.10306C8.1413 1.26878 8.06236 1.43043 7.99023 1.57941L5.35128 2.53361C5.3325 2.52831 5.30612 2.52093 5.27293 2.51183C5.20272 2.49259 5.10188 2.46561 4.97777 2.43421C4.72993 2.37151 4.38734 2.29069 4.00936 2.21863C3.63249 2.14678 3.21375 2.08235 2.81517 2.05438L2.78686 2.05245L2.86982 1.86296C4.25991 0.700058 6.05101 0 8.00573 0C8.2647 0 8.5208 0.0122875 8.77347 0.0363108C8.75542 0.069273 8.73731 0.102628 8.71921 0.136216C8.55989 0.431838 8.38497 0.776596 8.22334 1.10306Z" fill="#18242A"/>
<path d="M9.66499 0.172042C9.60646 0.270937 9.53776 0.393367 9.46117 0.53549C9.30845 0.818886 9.13837 1.15391 8.97867 1.47647C8.90659 1.62207 8.83687 1.76462 8.77213 1.89808L10.3837 3.40505C10.4989 3.42311 10.6566 3.44842 10.8447 3.48011C11.2488 3.54823 11.7949 3.6461 12.3598 3.76482C12.9228 3.88313 13.5135 4.02401 14.0036 4.17914C14.0965 4.20855 14.1872 4.23888 14.2743 4.27014L14.5065 3.32987C13.3619 1.74165 11.6488 0.58985 9.66499 0.172042Z" fill="#18242A"/>
<path d="M16 8.43185L15.7913 8.39275C15.7497 8.46495 15.7011 8.54851 15.6467 8.64116C15.4553 8.9669 15.1906 9.40662 14.8979 9.86055C14.6062 10.3131 14.2823 10.7866 13.9729 11.1769C13.8183 11.372 13.6627 11.5522 13.5126 11.7005C13.4796 11.7332 13.4457 11.7654 13.411 11.7968L13.0908 13.6056L13.5013 13.8174C14.9492 12.451 15.8872 10.5509 16 8.43185Z" fill="#18242A"/>
<path d="M12.8033 14.405L12.6557 14.3289L9.77505 15.5429L9.52418 15.8563C10.7367 15.6237 11.852 15.1177 12.8033 14.405Z" fill="#18242A"/>
<path d="M8.33525 15.9933L9.05682 15.0921L8.00892 13.9811C7.92555 13.9752 7.82622 13.9678 7.7135 13.9586C7.35388 13.9294 6.85666 13.8823 6.3064 13.8107C5.37816 13.6901 4.25498 13.4948 3.3917 13.181L2.56544 13.8691C3.99353 15.1916 5.90516 16 8.00573 16C8.11611 16 8.22596 15.9978 8.33525 15.9933Z" fill="#18242A"/>
<path d="M0.257021 10.0186L0.349629 9.07772C0.344967 9.05429 0.340172 9.02991 0.335262 9.00464C0.279602 8.71812 0.2089 8.31436 0.148281 7.84323C0.114933 7.58404 0.0843435 7.30233 0.0610842 7.00687C0.0207652 7.33226 0 7.66371 0 8C0 8.69729 0.0892732 9.37374 0.257021 10.0186Z" fill="#18242A"/>
<path d="M4.77094 3.25056L4.78044 3.25296L4.82762 5.53159C4.32727 6.05911 3.58174 6.97589 2.95029 7.77405C2.59955 8.21739 2.27853 8.63117 2.04525 8.93404L2.04214 8.93808L1.12272 8.63183C1.07807 8.38499 1.02827 8.0791 0.984109 7.73584C0.933495 7.34245 0.73737 4.94737 0.838299 4.67835L2.32377 2.88292C2.45396 2.87949 2.59894 2.88338 2.75615 2.89442C3.10974 2.91923 3.49312 2.9775 3.85144 3.04581C4.20864 3.11391 4.53431 3.19069 4.77094 3.25056Z" fill="#18242A"/>
<path d="M3.61137 8.2963C4.21111 7.53822 4.88191 6.71425 5.3452 6.21143L8.28596 6.76135C8.3238 6.86466 8.3677 6.98477 8.4163 7.11814C8.58393 7.57816 8.80732 8.19554 9.03061 8.82568C9.2541 9.45642 9.4766 10.0974 9.64288 10.6056C9.7214 10.8455 9.7863 11.0526 9.83263 11.2135L8.07975 13.1418C7.99692 13.1361 7.89663 13.1286 7.78184 13.1193C7.43192 13.0908 6.94865 13.045 6.41511 12.9757C5.50547 12.8574 4.49191 12.6756 3.73941 12.4112L2.59633 9.59949C2.63216 9.5528 2.67119 9.50203 2.71306 9.44767C2.94483 9.14675 3.26352 8.73599 3.61137 8.2963Z" fill="#18242A"/>
<path d="M9.20815 6.83C9.15997 6.69779 9.11639 6.57856 9.07872 6.47572L10.5464 4.28416C10.5962 4.29235 10.649 4.30114 10.7045 4.31049C11.1018 4.37745 11.6361 4.47324 12.1864 4.58889C12.7386 4.70495 13.2981 4.83915 13.7491 4.98193C13.9644 5.05005 14.1466 5.11755 14.288 5.18251L15.1534 7.81138L15.1417 7.83201C15.0894 7.92364 15.0136 8.05536 14.9199 8.21487C14.7323 8.53423 14.4739 8.96337 14.1895 9.40447C13.9042 9.84699 13.5972 10.2947 13.3123 10.6541C13.1699 10.8338 13.0375 10.9856 12.9201 11.1017L10.6067 10.8592C10.5614 10.7084 10.5061 10.5339 10.4439 10.3439C10.2744 9.82592 10.0492 9.17731 9.82499 8.5446C9.60058 7.9113 9.37628 7.2914 9.20815 6.83Z" fill="#18242A"/>
</svg>
