<svg width="32" height="32" viewBox="0 0 32 32" fill="none" xmlns="http://www.w3.org/2000/svg">
<g clip-path="url(#clip0_4668_11305)">
<path d="M16 32C24.8366 32 32 24.8366 32 16C32 7.16344 24.8366 0 16 0C7.16344 0 0 7.16344 0 16C0 24.8366 7.16344 32 16 32Z" fill="#2C3538"/>
<path d="M23.8452 7.2301L17.4589 14.1293L17.176 14.435L17.4255 14.7685L24.9058 24.7697H20.2602L14.9663 17.6911L14.6068 17.2104L14.199 17.6509L7.6094 24.7697H7.23988L14.1586 17.2954L14.4415 16.9898L14.1921 16.6563L7.14223 7.2301H11.7878L16.6516 13.7333L17.0112 14.2141L17.4189 13.7735L23.4757 7.2301H23.8452ZM8.69118 7.5059H7.69285L8.29078 8.30536L20.2483 24.2934L20.3983 24.4939H20.6487H23.3565H24.3549L23.7569 23.6945L11.7994 7.70644L11.6494 7.5059H11.399H8.69118Z" fill="white" stroke="white"/>
</g>
<defs>
<clipPath id="clip0_4668_11305">
<rect width="32" height="32" fill="white"/>
</clipPath>
</defs>
</svg>
