<svg width="32" height="32" viewBox="0 0 32 32" fill="none" xmlns="http://www.w3.org/2000/svg">
<circle cx="16" cy="16" r="16" fill="#1DA1F2"/>
<g clip-path="url(#clip0_555_6116)">
<path d="M13.1448 23.1112C18.8664 23.1112 21.9954 18.5202 21.9954 14.5389C21.9954 14.4086 21.9927 14.2788 21.9866 14.1495C22.5954 13.7228 23.1209 13.1945 23.5383 12.5894C22.9809 12.8294 22.3811 12.9909 21.7519 13.0637C22.3942 12.6908 22.8872 12.1007 23.1198 11.3973C22.5092 11.7482 21.8412 11.9955 21.1445 12.1287C20.5769 11.543 19.7688 11.1768 18.8739 11.1768C17.1561 11.1768 15.7631 12.526 15.7631 14.1892C15.7631 14.4256 15.7904 14.6555 15.8438 14.8762C13.2584 14.7502 10.9659 13.5513 9.43168 11.7283C9.15535 12.1881 9.01 12.7107 9.01048 13.2426C9.01048 14.2879 9.55963 15.2106 10.3948 15.7505C9.90077 15.7359 9.41763 15.6067 8.98595 15.3737C8.98549 15.3863 8.98549 15.3986 8.98549 15.4122C8.98549 16.8712 10.0577 18.0895 11.4811 18.3655C11.2137 18.436 10.9379 18.4717 10.6608 18.4715C10.4607 18.4715 10.2657 18.4525 10.0762 18.4172C10.4722 19.6143 11.6206 20.4854 12.9821 20.5098C11.9174 21.318 10.5762 21.7994 9.11859 21.7994C8.87062 21.7996 8.62286 21.7857 8.37659 21.7577C9.75328 22.6124 11.388 23.111 13.1449 23.111" fill="white"/>
</g>
<defs>
<clipPath id="clip0_555_6116">
<rect width="20.4444" height="13.3333" fill="white" transform="translate(5.33337 9.77783)"/>
</clipPath>
</defs>
</svg>
