<svg width="66" height="33" viewBox="0 0 66 33" fill="none" xmlns="http://www.w3.org/2000/svg">
<rect width="65.1246" height="32.5623" rx="7" fill="#18242A"/>
<path d="M17.3431 24.7181C21.7833 24.7181 25.3828 21.1187 25.3828 16.6785C25.3828 12.2384 21.7833 8.63892 17.3431 8.63892C12.903 8.63892 9.30353 12.2384 9.30353 16.6785C9.30353 21.1187 12.903 24.7181 17.3431 24.7181Z" fill="#EE312A"/>
<path d="M17.3432 20.1085C15.5459 16.0345 14.2279 12.2288 14.2279 12.2288H11.4724C11.4724 12.2288 13.1496 17.1136 16.2648 23.2225H18.4216C21.5368 17.1136 23.214 12.2288 23.214 12.2288H20.4585C20.4585 12.2288 19.1405 16.0345 17.3432 20.1085Z" fill="white"/>
<path d="M55.7548 19.5983H50.3852C50.3852 19.5983 50.5045 21.4026 52.891 21.4026C54.0842 21.4026 55.2775 21.0415 55.2775 21.0415L55.5162 22.9657C55.5162 22.9657 54.3229 23.4468 52.6523 23.4468C50.2659 23.4468 48.118 22.2441 48.118 18.8767C48.118 16.2308 49.7885 14.5471 52.1751 14.5471C55.7548 14.5471 55.9935 18.1551 55.7548 19.5983ZM52.0558 16.2308C50.5045 16.2308 50.3852 17.9145 50.3852 17.9145H53.7263C53.7263 17.9145 53.607 16.2308 52.0558 16.2308Z" fill="white"/>
<path d="M37.2152 16.7625L37.5731 14.8484C37.5731 14.8484 34.809 14.0073 32.5623 15.5662V23.2223H34.9485L34.9483 17.0017C35.9027 16.284 37.2152 16.7625 37.2152 16.7625Z" fill="white"/>
<path d="M30.7012 19.5983H25.3316C25.3316 19.5983 25.4509 21.4026 27.8374 21.4026C29.0306 21.4026 30.2238 21.0415 30.2238 21.0415L30.4625 22.9657C30.4625 22.9657 29.2693 23.4468 27.5987 23.4468C25.2122 23.4468 23.0644 22.2441 23.0644 18.8767C23.0644 16.2308 24.735 14.5471 27.1215 14.5471C30.7012 14.5471 30.9398 18.1551 30.7012 19.5983ZM27.0021 16.2308C25.4509 16.2308 25.3316 17.9145 25.3316 17.9145H28.6727C28.6727 17.9145 28.5534 16.2308 27.0021 16.2308Z" fill="white"/>
<path d="M43.0326 20.351C42.2886 18.5412 41.6885 16.6756 41.2376 14.7715L38.8445 14.7718C38.8445 14.7718 40.0411 19.3931 42.0755 23.2224H43.9896C46.024 19.3931 47.2206 14.7727 47.2206 14.7727H44.8275C44.3766 16.6764 43.7764 18.5416 43.0326 20.351Z" fill="white"/>
</svg>
