<svg width="48" height="33" viewBox="0 0 48 33" fill="none" xmlns="http://www.w3.org/2000/svg">
<rect width="47.1821" height="32.5623" rx="7" fill="#18242A"/>
<g clip-path="url(#clip0_1974_6967)">
<path d="M28.3178 11.1434C26.1001 11.1434 24.1183 12.2975 24.1183 14.4296C24.1183 16.8748 27.6331 17.0436 27.6331 18.272C27.6331 18.7892 27.0427 19.2522 26.0343 19.2522C24.6033 19.2522 23.5337 18.6053 23.5337 18.6053L23.076 20.7569C23.076 20.7569 24.3082 21.3033 25.944 21.3033C28.3687 21.3033 30.2765 20.0926 30.2765 17.9241C30.2765 15.3403 26.7471 15.1764 26.7471 14.0363C26.7471 13.6311 27.2317 13.1872 28.2372 13.1872C29.3717 13.1872 30.2973 13.6577 30.2973 13.6577L30.7452 11.5796C30.7452 11.5796 29.7381 11.1434 28.3178 11.1434ZM8.02814 11.3003L7.97443 11.6139C7.97443 11.6139 8.90742 11.7854 9.74772 12.1273C10.8297 12.5194 10.9068 12.7477 11.089 13.4567L13.0746 21.1416H15.7364L19.837 11.3003H17.1813L14.5464 17.9914L13.4713 12.3197C13.3726 11.6706 12.8732 11.3003 12.2618 11.3003H8.02814ZM20.9049 11.3003L18.8216 21.1416H21.354L23.43 11.3002H20.9049V11.3003ZM35.0289 11.3003C34.4182 11.3003 34.0947 11.6285 33.8573 12.2021L30.1472 21.1416H32.8028L33.3166 19.6516H36.552L36.8644 21.1416H39.2077L37.1634 11.3003H35.0289ZM35.3743 13.9591L36.1615 17.652H34.0525L35.3743 13.9591Z" fill="#D9D9D9"/>
</g>
<defs>
<clipPath id="clip0_1974_6967">
<rect width="31.2332" height="10.1847" fill="white" transform="translate(7.97443 11.131)"/>
</clipPath>
</defs>
</svg>
