<svg width="19" height="19" viewBox="0 0 19 19" fill="none" xmlns="http://www.w3.org/2000/svg">
<path d="M5.87185 15.6477L6.15335 15.7948C7.30116 16.5085 8.6134 16.8815 9.94889 16.8738C14.0602 16.864 17.4382 13.3245 17.4382 9.02676C17.4382 6.94977 16.6491 4.95515 15.2458 3.48482C13.8444 1.99929 11.9297 1.16211 9.93436 1.16211C5.84182 1.16211 2.47461 4.68248 2.47461 8.96007C2.47461 8.99391 2.47461 9.02725 2.47508 9.0611C2.48741 10.5155 2.87653 11.9391 3.60108 13.1808L3.78874 13.475L3.03808 16.3686L5.87185 15.6477Z" fill="#18242A"/>
<path d="M16.3469 3.03384C14.6819 1.34789 12.3977 0.402054 10.0192 0.413183H10.004C5.10572 0.413198 1.07486 4.41356 1.07486 9.27483C1.07486 9.29763 1.07535 9.31996 1.07535 9.34278C1.0938 10.8884 1.49696 12.4054 2.24896 13.759L0.977539 18.3694L5.71599 17.1561C7.02499 17.8694 8.49662 18.237 9.98987 18.2238C14.9063 18.1971 18.9367 14.174 18.9337 9.29424C18.9455 6.94974 18.0139 4.69503 16.3469 3.03384ZM10.0192 16.7194C8.69555 16.7262 7.3952 16.3738 6.25877 15.7002L5.96537 15.5546L3.14382 16.2826L3.87732 13.5164L3.68173 13.2252C2.95517 12.0609 2.57024 10.7186 2.57022 9.34908C2.57022 5.3104 5.91892 1.98703 9.98841 1.98703C14.0579 1.98703 17.4066 5.3104 17.4066 9.34908C17.4066 11.8921 16.0789 14.2613 13.9019 15.6032C12.7505 16.3351 11.4111 16.7227 10.0437 16.7194M14.342 11.3325L13.8041 11.0899C13.8041 11.0899 13.0217 10.7501 12.5327 10.5075C12.4838 10.5075 12.4349 10.459 12.386 10.459C12.2654 10.4619 12.1476 10.4953 12.0437 10.556C11.9395 10.6167 11.9948 10.6046 11.3102 11.381C11.2637 11.4718 11.1684 11.5286 11.0657 11.5266H11.0168C10.9433 11.5144 10.8751 11.4806 10.8212 11.4296L10.5767 11.3325C10.0521 11.1121 9.57169 10.7998 9.15855 10.4104C9.06076 10.3134 8.91406 10.2163 8.81625 10.1192C8.45425 9.77509 8.14162 9.38318 7.88716 8.95453L7.83825 8.85747C7.79577 8.79815 7.76278 8.73267 7.74045 8.66335C7.72766 8.57928 7.74496 8.49342 7.78935 8.4207C7.83385 8.3479 7.98495 8.17803 8.13165 8.03245C8.27836 7.88687 8.27836 7.78981 8.37615 7.69274C8.42642 7.62346 8.46115 7.54431 8.47802 7.4606C8.49489 7.37689 8.4935 7.29056 8.47395 7.20743C8.24606 6.57947 7.9849 5.9639 7.69155 5.36329C7.61292 5.24193 7.49042 5.15509 7.34925 5.12064H6.81134C6.71354 5.12064 6.61575 5.16917 6.51794 5.16917L6.46904 5.21769C6.37124 5.26622 6.27345 5.36329 6.17564 5.41182C6.07784 5.46035 6.02894 5.60595 5.93115 5.703C5.58929 6.13173 5.40014 6.66075 5.39324 7.20743C5.39865 7.59199 5.48179 7.97155 5.63773 8.32363L5.68664 8.46922C6.12572 9.40088 6.7398 10.2409 7.49596 10.9443L7.69155 11.1384C7.83389 11.2554 7.96486 11.3854 8.08275 11.5266C9.09596 12.4016 10.2994 13.0325 11.5987 13.3708C11.7454 13.4193 11.941 13.4193 12.0877 13.4678H12.5767C12.8323 13.4553 13.0823 13.3892 13.3102 13.2737C13.43 13.2198 13.5444 13.1548 13.6525 13.0796L13.7503 12.9825C13.8481 12.8855 13.9459 12.8369 14.0437 12.7399C14.1393 12.6554 14.2217 12.5572 14.2882 12.4487C14.3821 12.2313 14.4481 12.0032 14.4838 11.7693V11.4296C14.4399 11.3904 14.3905 11.3577 14.3371 11.3325" fill="white"/>
</svg>
