<svg width="29" height="25" viewBox="0 0 29 25" fill="none" xmlns="http://www.w3.org/2000/svg">
<rect width="28.1647" height="24.4588" rx="7" fill="#18242A"/>
<mask id="path-2-inside-1_2170_8145" fill="white">
<path d="M6.70632 5.18823L12.3747 12.7673L6.67059 18.9294H7.95446L12.9485 13.5342L16.9834 18.9294H21.3521L15.3647 10.9241L20.6741 5.18823H19.3903L14.7912 10.1569L11.0751 5.18823H6.70632ZM8.5943 6.13382H10.6013L19.4639 17.9838H17.4569L8.5943 6.13382Z"/>
</mask>
<path d="M6.70632 5.18823L12.3747 12.7673L6.67059 18.9294H7.95446L12.9485 13.5342L16.9834 18.9294H21.3521L15.3647 10.9241L20.6741 5.18823H19.3903L14.7912 10.1569L11.0751 5.18823H6.70632ZM8.5943 6.13382H10.6013L19.4639 17.9838H17.4569L8.5943 6.13382Z" fill="white"/>
<path d="M6.70632 5.18823V4.18823H4.70967L5.90551 5.78716L6.70632 5.18823ZM12.3747 12.7673L13.1085 13.4466L13.6744 12.8353L13.1755 12.1683L12.3747 12.7673ZM6.67059 18.9294L5.93674 18.2501L4.38225 19.9294H6.67059V18.9294ZM7.95446 18.9294V19.9294H8.39146L8.68832 19.6087L7.95446 18.9294ZM12.9485 13.5342L13.7493 12.9353L13.0302 11.9738L12.2146 12.8549L12.9485 13.5342ZM16.9834 18.9294L16.1826 19.5283L16.4826 19.9294H16.9834V18.9294ZM21.3521 18.9294V19.9294H23.3488L22.1529 18.3304L21.3521 18.9294ZM15.3647 10.9241L14.6309 10.2448L14.0651 10.8561L14.5639 11.5231L15.3647 10.9241ZM20.6741 5.18823L21.408 5.86753L22.9624 4.18823H20.6741V5.18823ZM19.3903 5.18823V4.18823H18.9532L18.6564 4.50894L19.3903 5.18823ZM14.7912 10.1569L13.9903 10.7558L14.7094 11.7173L15.525 10.8362L14.7912 10.1569ZM11.0751 5.18823L11.8759 4.58931L11.5759 4.18823H11.0751V5.18823ZM8.5943 6.13382V5.13382H6.59765L7.79349 6.73275L8.5943 6.13382ZM10.6013 6.13382L11.4021 5.5349L11.1021 5.13382H10.6013V6.13382ZM19.4639 17.9838V18.9838H21.4606L20.2647 17.3849L19.4639 17.9838ZM17.4569 17.9838L16.6561 18.5827L16.9561 18.9838H17.4569V17.9838ZM5.90551 5.78716L11.5739 13.3662L13.1755 12.1683L7.50712 4.58931L5.90551 5.78716ZM11.6408 12.0879L5.93674 18.2501L7.40445 19.6087L13.1085 13.4466L11.6408 12.0879ZM6.67059 19.9294H7.95446V17.9294H6.67059V19.9294ZM8.68832 19.6087L13.6824 14.2135L12.2146 12.8549L7.2206 18.2501L8.68832 19.6087ZM12.1477 14.1331L16.1826 19.5283L17.7842 18.3305L13.7493 12.9353L12.1477 14.1331ZM16.9834 19.9294H21.3521V17.9294H16.9834V19.9294ZM22.1529 18.3304L16.1655 10.3252L14.5639 11.5231L20.5514 19.5283L22.1529 18.3304ZM16.0986 11.6034L21.408 5.86753L19.9403 4.50893L14.6309 10.2448L16.0986 11.6034ZM20.6741 4.18823H19.3903V6.18823H20.6741V4.18823ZM18.6564 4.50894L14.0573 9.47761L15.525 10.8362L20.1241 5.86752L18.6564 4.50894ZM15.592 9.55798L11.8759 4.58931L10.2743 5.78716L13.9903 10.7558L15.592 9.55798ZM11.0751 4.18823H6.70632V6.18823H11.0751V4.18823ZM8.5943 7.13382H10.6013V5.13382H8.5943V7.13382ZM9.80047 6.73275L18.6631 18.5827L20.2647 17.3849L11.4021 5.5349L9.80047 6.73275ZM19.4639 16.9838H17.4569V18.9838H19.4639V16.9838ZM18.2577 17.3849L9.3951 5.5349L7.79349 6.73275L16.6561 18.5827L18.2577 17.3849Z" fill="white" mask="url(#path-2-inside-1_2170_8145)"/>
</svg>
