<svg width="32" height="32" viewBox="0 0 32 32" fill="none" xmlns="http://www.w3.org/2000/svg">
<rect width="32" height="32" rx="7.11111" fill="#2C3538"/>
<path d="M16.0841 13.699C15.5554 13.699 15.1229 13.9994 14.7925 14.5941C14.4741 15.1708 14.3119 15.8497 14.3119 16.6067C14.3119 17.1534 14.426 17.5859 14.6483 17.8983C14.8766 18.2167 15.177 18.3789 15.5434 18.3789C16.0961 18.3789 16.5347 18.0846 16.8471 17.4958C17.1535 16.9251 17.3037 16.1621 17.3037 15.2189C17.3037 14.7563 17.1955 14.3899 16.9732 14.1195C16.751 13.8372 16.4506 13.699 16.0841 13.699Z" fill="#FFFFFF"/>
<path d="M16 5C9.93228 5 5 9.93228 5 16C5 22.0617 9.93228 27 16 27C22.0617 27 27 22.0677 27 16C27 9.93228 22.0677 5 16 5ZM19.0819 19.6587C18.5593 19.6587 18.1267 19.5205 17.8023 19.2381C17.4779 18.9618 17.3037 18.5953 17.2736 18.1507L17.2676 18.0726H17.0754L17.0573 18.1267C16.6789 19.154 16.018 19.6526 15.0328 19.6526C14.2998 19.6526 13.6991 19.3823 13.2545 18.8536C12.8039 18.319 12.5756 17.562 12.5756 16.6128C12.5756 15.3752 12.894 14.3539 13.5248 13.5789C14.1496 12.8099 14.9186 12.4194 15.7957 12.4194C16.5827 12.4194 17.0694 12.7198 17.2676 13.3326L17.2856 13.3927H17.4599L17.4659 13.3146C17.5079 12.888 17.8624 12.5696 18.2889 12.5696H18.319C18.5533 12.5696 18.7755 12.6718 18.9317 12.84C19.0879 13.0142 19.166 13.2485 19.142 13.4768C18.9618 15.2671 18.8717 16.4866 18.8717 17.0994C18.8717 17.9285 19.112 18.343 19.5866 18.343C20.0612 18.343 20.4577 18.0306 20.7581 17.4178C21.0524 16.823 21.1966 16.036 21.1966 15.0808C21.1966 13.7712 20.7701 12.6778 19.935 11.8427C19.0999 11.0016 17.9164 10.5751 16.4265 10.5751C14.8285 10.5751 13.4828 11.1398 12.4194 12.2572C11.3621 13.3687 10.8214 14.7504 10.8214 16.3484C10.8214 17.9044 11.296 19.148 12.2392 20.0431C13.1764 20.9383 14.4861 21.3949 16.1322 21.3949C17.0093 21.3949 17.8443 21.2747 18.6193 21.0404C18.6794 21.0224 18.7455 21.0104 18.8116 21.0104C19.172 21.0104 19.4664 21.3048 19.4664 21.6652C19.4664 21.9536 19.2862 22.1999 19.0098 22.29C18.1628 22.5604 17.1174 22.6985 15.8979 22.6985C13.8913 22.6985 12.2332 22.1158 10.9776 20.9683C9.72201 19.8209 9.0852 18.2589 9.0852 16.3184C9.0852 14.3359 9.76406 12.6537 11.1098 11.302C12.4555 9.95631 14.2097 9.27144 16.3244 9.27144C18.2829 9.27144 19.893 9.80011 21.1005 10.8454C22.308 11.8908 22.9148 13.2845 22.9148 14.9907C22.9148 16.3965 22.5423 17.538 21.8094 18.379C21.0765 19.2321 20.1573 19.6587 19.0819 19.6587Z" fill="#FFFFFF"/>
</svg>
