<svg width="29" height="25" viewBox="0 0 29 25" fill="none" xmlns="http://www.w3.org/2000/svg">
<rect x="0.223511" width="28.1647" height="24.4588" rx="7" fill="#18242A"/>
<path d="M17.6624 19.3273H11.0113C9.91982 19.3261 8.8734 18.8921 8.10156 18.1204C7.32971 17.3488 6.89547 16.3024 6.8941 15.211V8.55986C6.89661 7.46909 7.33133 6.42378 8.10302 5.65289C8.87472 4.88201 9.92049 4.44839 11.0113 4.44702H17.6624C18.7537 4.44839 19.8 4.88248 20.5718 5.65412C21.3436 6.42575 21.7779 7.47195 21.7795 8.56331V15.2144C21.7773 16.3053 21.3426 17.3507 20.5709 18.1217C19.7991 18.8926 18.7532 19.3261 17.6624 19.3273ZM11.0113 5.89648C10.3046 5.89648 9.62677 6.17698 9.12674 6.67636C8.62671 7.17574 8.34534 7.85317 8.34443 8.55986V15.211C8.34534 15.9172 8.62636 16.5943 9.12583 17.0936C9.6253 17.5929 10.3024 17.8737 11.0087 17.8744H17.6624C18.3686 17.8737 19.0458 17.5929 19.5452 17.0936C20.0447 16.5943 20.3257 15.9172 20.3266 15.211V8.55986C20.3257 7.85362 20.0447 7.17658 19.5452 6.67727C19.0458 6.17796 18.3686 5.89717 17.6624 5.89648H11.0113Z" fill="white"/>
<path d="M14.3363 14.6797C13.7027 14.6797 13.0834 14.4918 12.5566 14.1398C12.0298 13.7878 11.6192 13.2875 11.3767 12.7021C11.1342 12.1167 11.0708 11.4726 11.1944 10.8512C11.318 10.2298 11.6231 9.659 12.0711 9.21098C12.5191 8.76297 13.0899 8.45787 13.7114 8.33426C14.3328 8.21065 14.9769 8.27409 15.5622 8.51656C16.1476 8.75902 16.6479 9.16962 16.9999 9.69643C17.3519 10.2232 17.5398 10.8426 17.5398 11.4762C17.5389 12.3255 17.2011 13.1398 16.6005 13.7404C15.9999 14.3409 15.1857 14.6788 14.3363 14.6797ZM14.3363 9.72648C13.9901 9.72648 13.6516 9.82917 13.3637 10.0216C13.0758 10.214 12.8514 10.4874 12.7189 10.8073C12.5865 11.1273 12.5518 11.4793 12.6195 11.8189C12.6871 12.1585 12.8539 12.4704 13.0988 12.7152C13.3437 12.96 13.6557 13.1266 13.9953 13.1941C14.335 13.2615 14.687 13.2267 15.0068 13.0941C15.3267 12.9615 15.6 12.737 15.7923 12.449C15.9845 12.161 16.0871 11.8225 16.0869 11.4762C16.0862 11.0122 15.9015 10.5674 15.5734 10.2394C15.2452 9.9114 14.8003 9.72694 14.3363 9.72648Z" fill="white"/>
<path d="M18.2249 8.31923C18.7066 8.31923 19.0971 7.92871 19.0971 7.44697C19.0971 6.96523 18.7066 6.57471 18.2249 6.57471C17.7431 6.57471 17.3526 6.96523 17.3526 7.44697C17.3526 7.92871 17.7431 8.31923 18.2249 8.31923Z" fill="white"/>
</svg>
