<svg width="61" height="62" viewBox="0 0 61 62" fill="none" xmlns="http://www.w3.org/2000/svg">
<path d="M23.1116 1.66392C25.5084 1.05848 28.0183 0.736816 30.6034 0.736816C35.1232 0.736816 39.4131 1.72013 43.2705 3.48429C43.9961 9.27642 43.6234 15.1672 42.159 21.0116C41.4459 23.8585 40.4874 26.5945 39.3142 29.1894C36.2662 26.9745 33.1326 24.9275 29.8846 23.0297C30.1761 22.2507 30.4105 21.4459 30.5848 20.6191C32.0461 13.6776 28.9427 6.26322 23.1116 1.66392Z" fill="#FFC600"/>
<path d="M47.5472 5.87458C55.1937 10.9963 60.3891 19.4865 61.0048 29.2189C55.8655 29.9494 51.3138 32.5029 48.0444 36.1928C46.2544 34.616 44.4426 33.1098 42.6022 31.6697C44.0505 28.6145 45.2202 25.3733 46.0678 21.9889C47.4109 16.6259 47.9059 11.2227 47.5472 5.87458Z" fill="#FFC600"/>
<path d="M60.9928 33.2964C60.6916 37.6505 59.4735 41.7526 57.5299 45.4113C55.3808 43.1236 53.2165 40.9565 51.0243 38.9016C53.5531 36.0277 57.0416 33.9959 60.9928 33.2964Z" fill="#FFC600"/>
<path d="M55.3244 48.9529C53.3002 51.7556 50.8101 54.2003 47.9674 56.1737C47.2029 54.2296 46.8075 52.1522 46.8075 50.028C46.8075 47.2324 47.4957 44.592 48.7139 42.263C50.9415 44.3693 53.1403 46.5962 55.3244 48.9529Z" fill="#FFC600"/>
<path d="M44.4725 58.2685C40.3127 60.3971 35.5984 61.5981 30.6034 61.5981C24.5624 61.5981 18.9321 59.8415 14.1965 56.8119C25.0882 53.7114 34.623 45.8568 40.6977 35.3061C42.374 36.6346 44.0263 38.0206 45.6601 39.4675C43.8276 42.5726 42.777 46.1813 42.777 50.028C42.777 52.8888 43.3563 55.6817 44.4725 58.2685Z" fill="#FFC600"/>
<path d="M10.0782 53.654C4.07178 48.18 0.266478 40.3367 0.143555 31.604C2.22907 32.8505 4.54399 33.7554 6.99509 34.271C12.252 35.376 17.5849 34.5917 22.0186 32.0626C24.4902 30.652 26.5205 28.7948 28.018 26.6135C31.277 28.5268 34.4176 30.5961 37.4706 32.8414C31.3843 43.7078 21.368 51.5189 10.0782 53.654Z" fill="#FFC600"/>
<path d="M0.433618 26.9289C0.984937 22.9769 2.29606 19.268 4.21479 15.954C11.5549 18.4144 18.2448 21.2612 24.4846 24.6251C23.3465 26.1877 21.8378 27.5278 20.0193 28.5653C16.4438 30.605 12.112 31.2312 7.82584 30.3314C5.08144 29.7541 2.5522 28.5871 0.433618 26.9289Z" fill="#FFC600"/>
<path d="M6.54827 12.4943C13.6729 14.9368 20.2027 17.7431 26.3138 21.0279C26.4432 20.6228 26.5525 20.2097 26.641 19.7893C27.9415 13.6144 24.3495 6.67619 18.3326 3.30645C13.6779 5.35514 9.63372 8.53369 6.54827 12.4943Z" fill="#FFC600"/>
<rect x="30.5742" y="31.1674" width="30.4306" height="30.4306" rx="15.2153" fill="#2C3538"/>
<path d="M47.0843 59.078C45.5985 59.078 44.2713 58.8219 43.1029 58.3098C41.9416 57.7977 41.022 57.0872 40.344 56.1784C39.6732 55.2624 39.3126 54.2021 39.2621 52.9976H42.6593C42.7025 53.654 42.9225 54.2238 43.3192 54.707C43.7232 55.1831 44.2497 55.5509 44.8988 55.8106C45.548 56.0702 46.2692 56.2001 47.0626 56.2001C47.9354 56.2001 48.7072 56.0486 49.3779 55.7457C50.0559 55.4427 50.5861 55.0208 50.9683 54.4798C51.3506 53.9317 51.5418 53.3006 51.5418 52.5865C51.5418 51.8436 51.3506 51.1908 50.9683 50.6282C50.5933 50.0584 50.0415 49.6112 49.313 49.2867C48.5917 48.9621 47.719 48.7998 46.6948 48.7998H44.8231V46.0734H46.6948C47.5171 46.0734 48.2383 45.9255 48.8586 45.6298C49.4861 45.3341 49.9766 44.923 50.33 44.3964C50.6834 43.8627 50.8602 43.2388 50.8602 42.5247C50.8602 41.8395 50.7051 41.2445 50.3949 40.7396C50.092 40.2275 49.6592 39.8272 49.0966 39.5387C48.5413 39.2501 47.8849 39.1059 47.1276 39.1059C46.4063 39.1059 45.7319 39.2393 45.1044 39.5062C44.4841 39.7659 43.9792 40.1409 43.5897 40.6314C43.2002 41.1146 42.9911 41.6953 42.9622 42.3733H39.7273C39.7634 41.1759 40.1168 40.1229 40.7876 39.2141C41.4656 38.3053 42.3599 37.5948 43.4707 37.0827C44.5815 36.5706 45.8148 36.3146 47.1708 36.3146C48.5917 36.3146 49.8179 36.5923 50.8493 37.1476C51.888 37.6958 52.6886 38.4279 53.2512 39.3439C53.821 40.2599 54.1023 41.2625 54.0951 42.3516C54.1023 43.5922 53.7561 44.6453 53.0564 45.5108C52.364 46.3763 51.4408 46.957 50.2867 47.2527V47.4258C51.7581 47.6494 52.8978 48.2336 53.7056 49.1785C54.5206 50.1233 54.9245 51.2954 54.9173 52.6947C54.9245 53.9136 54.5855 55.0064 53.9003 55.9729C53.2223 56.9394 52.2955 57.7003 51.1198 58.2557C49.9441 58.8039 48.599 59.078 47.0843 59.078Z" fill="#FFC600"/>
</svg>
