<svg width="49" height="48" viewBox="0 0 49 48" fill="none" xmlns="http://www.w3.org/2000/svg">
<path fill-rule="evenodd" clip-rule="evenodd" d="M47.7855 31.6217C47.727 31.4141 47.6878 31.2 47.6485 30.9854C47.6227 30.8442 47.5968 30.7028 47.5653 30.5627C47.5158 30.3326 47.4672 30.102 47.4186 29.8714C47.251 29.0762 47.0832 28.2804 46.8784 27.5006C45.76 23.2825 43.8579 19.1526 41.3392 15.5787C40.3882 14.2197 39.3754 12.9313 38.2482 11.7136C33.713 6.82478 27.8567 3.28614 21.4722 1.44179C19.9399 0.991729 18.3459 0.682894 16.7784 0.409336L16.6199 0.374057C16.5143 0.374057 16.4345 0.45819 16.3695 0.526702C16.3587 0.538155 16.3482 0.549228 16.3381 0.559338C14.3653 2.58137 12.3637 4.57449 10.3609 6.56875L10.3604 6.5693C9.23421 7.69065 8.10769 8.81238 6.98574 9.93981C6.17663 10.7506 5.3792 11.5732 4.58048 12.397C4.17958 12.8106 3.77835 13.2244 3.37516 13.6373C3.10043 13.9179 2.8249 14.1969 2.54952 14.4758C1.90694 15.1265 1.26521 15.7763 0.636407 16.4435C0.821306 17.9348 1.20003 19.4173 1.6139 20.8734C2.39768 23.6443 3.49847 26.2652 4.87225 28.7978C5.4887 29.9274 6.14918 31.0657 6.88888 32.107C7.50533 32.9806 8.14817 33.8896 8.83509 34.7014C11.3625 37.7106 14.4624 40.3933 17.8087 42.4582C22.0094 45.0526 26.8088 46.7822 31.6523 47.6206L31.7492 47.6294L47.7855 31.6217ZM8.27274 19.4871C7.68695 18.9013 7.68695 17.9516 8.27274 17.3658L11.985 13.6535L10.3941 12.0625C9.80827 11.4767 9.80827 10.5269 10.3941 9.94114C10.9798 9.35536 11.9296 9.35536 12.5154 9.94114L14.1064 11.5321L17.2883 8.35015C17.8741 7.76437 18.8239 7.76437 19.4097 8.35015C19.9955 8.93594 19.9955 9.88569 19.4097 10.4715L16.2277 13.6535L21.0007 18.4264L24.1826 15.2444C24.7684 14.6587 25.7182 14.6587 26.304 15.2444C26.8897 15.8302 26.8897 16.78 26.304 17.3658L23.122 20.5477L27.8949 25.3207L31.0769 22.1387C31.6627 21.5529 32.6125 21.5529 33.1982 22.1387C33.784 22.7245 33.784 23.6743 33.1982 24.2601L30.0163 27.442L34.7892 32.215L37.9712 29.033C38.557 28.4472 39.5068 28.4472 40.0925 29.033C40.6783 29.6188 40.6783 30.5686 40.0925 31.1543L36.9106 34.3363L38.5015 35.9273C39.0873 36.5131 39.0873 37.4628 38.5015 38.0486C37.9158 38.6344 36.966 38.6344 36.3802 38.0486L34.7892 36.4576L31.0769 40.17C30.4911 40.7557 29.5414 40.7557 28.9556 40.17C28.3698 39.5842 28.3698 38.6344 28.9556 38.0486L32.6679 34.3363L27.8949 29.5634L24.1826 33.2757C23.5969 33.8615 22.6471 33.8615 22.0613 33.2757C21.4755 32.6899 21.4755 31.7401 22.0613 31.1543L25.7736 27.442L21.0007 22.6691L17.2884 26.3814C16.7026 26.9672 15.7528 26.9672 15.167 26.3814C14.5812 25.7956 14.5812 24.8458 15.167 24.2601L18.8793 20.5477L14.1064 15.7748L10.3941 19.4871C9.80827 20.0729 8.85853 20.0729 8.27274 19.4871Z" fill="#FFC600"/>
<path d="M39.6661 47.8853C41.7443 47.6294 43.8843 46.7381 45.3549 45.2026C47.4948 42.9612 48.1553 39.8285 48.1818 36.8282C48.1872 36.3991 48.1659 35.97 48.1446 35.5409C48.1314 35.2729 48.1181 35.0047 48.1113 34.7368C47.8215 34.9715 47.5576 35.241 47.2954 35.5086L47.2937 35.5103C47.1822 35.6242 47.0705 35.7382 46.9577 35.8486L34.893 47.9294L37.35 48H37.5701L37.7841 47.9948C38.41 47.9797 39.0416 47.9645 39.6661 47.8853Z" fill="#FFC600"/>
<path d="M13.2559 0.0651659L13.3616 0.0916653C13.3327 0.286392 12.6097 0.958732 12.2023 1.33753C12.1113 1.42212 12.036 1.49213 11.9878 1.53885C11.7637 1.7671 11.5442 1.99841 11.3248 2.22959C11.0183 2.55256 10.712 2.87534 10.3938 3.18908C9.90971 3.67418 9.4212 4.15046 8.9327 4.62674C8.44372 5.10348 7.95469 5.58027 7.47013 6.06583C5.77927 7.74252 4.1061 9.45447 2.44169 11.1664C2.15634 11.4594 1.86253 11.744 1.56873 12.0285C1.12809 12.4552 0.687443 12.8819 0.275317 13.3373C0.181361 13.0413 0.184616 12.6529 0.187563 12.3013C0.188483 12.1917 0.189372 12.0857 0.187277 11.9871C0.143256 9.65742 0.398619 7.13362 1.4906 5.03338C1.74601 4.54804 2.02782 4.04504 2.35365 3.60381C3.54248 2.03302 5.15406 1.08001 7.01218 0.49756C8.52684 0.0210545 10.0768 -0.0142247 11.6443 0.00338806L11.803 0.00321205C12.283 0.00241801 12.7802 0.00159387 13.2559 0.0651659Z" fill="#FFC600"/>
</svg>
