<svg width="48" height="48" viewBox="0 0 48 48" fill="none" xmlns="http://www.w3.org/2000/svg">
<path d="M0.0269679 0.77807C-0.136381 0.234056 0.473753 -0.21179 0.935999 0.113811L2.71147 1.36443C3.04627 1.60026 3.05056 2.09838 2.71986 2.34003L1.57181 3.17895C1.24112 3.4206 0.7727 3.26164 0.654386 2.86761L0.0269679 0.77807Z" fill="#FFC600"/>
<path fill-rule="evenodd" clip-rule="evenodd" d="M4.43921 7.98768C2.87687 8.76563 1.32884 8.76473 0.696895 7.88629C-0.0735531 6.81532 0.809375 4.84555 2.66897 3.48668C4.52857 2.12781 6.66064 1.89442 7.43109 2.96539C8.06303 3.84383 7.58262 5.32698 6.36327 6.58171L14.0936 17.3274C14.4789 17.8629 14.3604 18.6117 13.8291 19C13.2978 19.3882 12.5548 19.2689 12.1696 18.7334L4.43921 7.98768ZM6.46906 3.66837C6.49595 3.70576 6.62159 3.95472 6.34841 4.56418C6.20373 4.88695 5.97078 5.24253 5.65347 5.59505L5.37477 5.20764C4.98955 4.67216 4.24655 4.5528 3.71524 4.94105C3.18392 5.3293 3.06549 6.07813 3.45072 6.61361L3.72942 7.00102C3.29833 7.19538 2.89059 7.30798 2.54121 7.34622C1.88154 7.41844 1.68582 7.22069 1.65892 7.1833C1.63203 7.14592 1.50639 6.89696 1.77957 6.2875C2.03682 5.7136 2.57308 5.03602 3.36648 4.45626C4.15988 3.87649 4.96558 3.57345 5.58677 3.50545C6.24645 3.43324 6.44217 3.63099 6.46906 3.66837Z" fill="#FFC600"/>
<path d="M38.946 43.0245L44.0856 39.1406C45.1432 38.3404 46.63 38.5537 47.408 39.6115C48.1979 40.6653 47.9863 42.1638 46.9407 42.96L40.9279 47.5148C40.7276 47.6764 40.4992 47.7937 40.2588 47.8746C39.8501 48.0121 39.4053 48.0406 38.9845 47.9398L11.9315 41.895C10.649 41.6129 9.8509 40.333 10.1308 39.0404C10.4107 37.7478 11.6806 36.9435 12.9631 37.2256L23.0469 39.4742C22.4959 38.7006 22.4988 38.2299 22.8713 37.943L32.7049 31.6057L24.1269 27.2884C23.4214 26.9334 22.9242 26.2389 22.8316 25.4352C22.743 24.6437 23.0392 23.8438 23.6561 23.3265L29.0398 18.7276L16.566 15.1283C14.5931 14.8453 14.7799 12.5729 17.1109 12.9257L35.153 14.4353C36.1148 14.5156 40.7932 17.3159 41.0862 18.2407C41.3792 19.1654 41.0871 20.1793 40.3581 20.8017L34.7019 25.4394L38.2899 29.0665C39.0275 29.4378 39.5248 30.1726 39.5973 30.9965C39.6739 31.8325 39.3216 32.6243 38.6606 33.1295L24.7511 39.8356L38.946 43.0245Z" fill="#FFC600"/>
<path d="M47.7541 10.0064C48.5853 12.5155 47.241 15.2285 44.7515 16.0662C42.2621 16.904 39.5701 15.5491 38.7389 13.0401C37.9077 10.5311 39.252 7.81801 41.7415 6.98029C44.231 6.14257 46.9229 7.49743 47.7541 10.0064Z" fill="#FFC600"/>
<path d="M12.3973 0.110476C11.9351 -0.215123 11.3249 0.230722 11.4883 0.774736L12.1157 2.86427C12.234 3.2583 12.7024 3.41727 13.0331 3.17562L14.1812 2.3367C14.5119 2.09505 14.5076 1.59693 14.1728 1.36109L12.3973 0.110476Z" fill="#FFC600"/>
<path fill-rule="evenodd" clip-rule="evenodd" d="M12.1582 7.88296C12.7902 8.7614 14.3382 8.76229 15.9005 7.98435L19.015 12.0963L21.9273 12.3789L17.8246 6.57838C19.0439 5.32365 19.5244 3.8405 18.8924 2.96205C18.122 1.89108 15.9899 2.12447 14.1303 3.48334C12.2707 4.84221 11.3878 6.81199 12.1582 7.88296ZM17.8097 4.56084C18.0829 3.95138 17.9573 3.70242 17.9304 3.66504C17.9035 3.62765 17.7078 3.42991 17.0481 3.50212C16.4269 3.57012 15.6212 3.87316 14.8278 4.45292C14.0344 5.03269 13.4981 5.71027 13.2409 6.28416C12.9677 6.89363 13.0934 7.14258 13.1203 7.17997C13.1471 7.21735 13.3429 7.4151 14.0025 7.34289C14.3519 7.30464 14.7597 7.19205 15.1907 6.99769L14.912 6.61028C14.5268 6.0748 14.6453 5.32596 15.1766 4.93771C15.7079 4.54947 16.4509 4.66882 16.8361 5.20431L17.1148 5.59172C17.4321 5.23919 17.6651 4.88362 17.8097 4.56084Z" fill="#FFC600"/>
</svg>
