<svg width="49" height="48" viewBox="0 0 49 48" fill="none" xmlns="http://www.w3.org/2000/svg">
<path d="M47.4203 43.5557C46.9857 43.5748 46.0699 43.1198 45.7147 42.8777L36.3855 36.5219L34.0114 39.7458L43.317 46.1337C43.6714 46.3769 44.4194 47.0597 44.5443 47.4614C44.6306 47.7378 44.8673 47.9631 45.1648 47.9982C45.935 48.0894 48.4947 44.6135 48.1511 43.943C48.0184 43.6839 47.7194 43.5421 47.4203 43.5557Z" fill="#FFC600"/>
<path d="M34.7101 35.0071L35.4756 35.862L33.0498 39.1562L31.9597 38.7421C27.8698 37.1899 23.7203 37.8734 21.2404 38.282L20.9857 38.3237C20.9501 38.3295 20.9157 38.3272 20.8797 38.3304C16.6643 39.1343 11.7942 38.1724 7.63715 35.3295C0.390946 30.3741 -1.98349 21.56 2.34539 15.6814C5.29169 11.6803 11.1476 9.35753 17.947 11.4874C17.8012 12.3957 17.7059 13.5905 17.4714 14.3308C12.6456 12.6499 7.39505 13.8041 4.7844 17.3493C1.41002 21.9317 3.46576 28.9428 9.3678 32.9783C15.269 37.0138 22.8161 36.5697 26.1905 31.9874C27.4533 30.2725 28.2587 26.6031 27.0581 23.262C27.0581 23.262 27.9949 21.6347 28.7681 20.9186C29.5826 21.9644 30.3622 23.4467 30.7146 25.9063C31.1435 28.3245 31.976 31.9508 34.7101 35.0071ZM31.3396 35.5094C30.5692 34.4345 29.9742 33.3301 29.5067 32.2481C29.2521 32.7322 28.9633 33.2042 28.6297 33.6562C28.2962 34.109 27.9302 34.5274 27.5392 34.919C28.7542 34.9868 30.0316 35.1636 31.3396 35.5094Z" fill="#FFC600"/>
<path d="M26.3508 3.74275C26.355 3.73444 26.3592 3.72617 26.3635 3.71795C26.3772 3.69124 26.3922 3.66501 26.4084 3.63936C26.7196 3.14733 26.7943 2.54337 26.6142 1.94726C26.3997 1.29166 25.9412 0.735678 25.3269 0.386347C24.7125 0.0370175 23.9858 -0.080967 23.2866 0.0551025C22.9364 0.128577 22.6155 0.2975 22.3622 0.541756C22.1088 0.786014 21.9336 1.09531 21.8575 1.4328L18.8206 14.8133L20.5531 15.8308L26.3508 3.74275Z" fill="#FFC600"/>
<path d="M18.6304 19.1095L17.0476 18.1799L17.9738 16.7153L19.5566 17.6449L18.6304 19.1095Z" fill="#FFC600"/>
<path d="M20.4457 20.1757L21.372 18.7111L22.9548 19.6407L22.0285 21.1053L20.4457 20.1757Z" fill="#FFC600"/>
<path d="M15.9412 19.9293L15.3921 20.7975C14.7163 21.8686 14.5091 23.1544 14.8158 24.3726C15.1226 25.5908 15.9182 26.642 17.0283 27.2955C18.1398 27.9468 19.474 28.1465 20.7381 27.8509C22.0022 27.5553 23.093 26.7885 23.7712 25.7188L24.3203 24.8506L15.9412 19.9293Z" fill="#FFC600"/>
<path d="M23.8439 22.1716L24.7702 20.7069L26.353 21.6366L25.4267 23.1012L23.8439 22.1716Z" fill="#FFC600"/>
<path d="M24.1597 17.9491L22.3803 16.9041L28.2527 4.6611C28.9339 3.64559 30.4603 3.40093 31.6851 4.1203C32.2875 4.46491 32.7341 5.0145 32.9368 5.66073C33.1116 6.23789 33.0474 6.82207 32.7611 7.30508L24.1597 17.9491Z" fill="#FFC600"/>
<path d="M27.7204 20.0404L25.9872 19.0225L34.4792 8.51678C34.5041 8.48583 34.5271 8.45354 34.5482 8.42006C35.2137 7.36766 36.7671 7.10507 38.0106 7.83543C38.6136 8.18021 39.0602 8.73071 39.2618 9.37784C39.2695 9.40259 39.2766 9.42702 39.2834 9.45199C39.376 9.78583 39.3672 10.1383 39.2579 10.4674C39.1487 10.7966 38.9436 11.0885 38.6671 11.3086L27.7204 20.0404Z" fill="#FFC600"/>
</svg>
