<svg width="49" height="48" viewBox="0 0 49 48" fill="none" xmlns="http://www.w3.org/2000/svg">
<path d="M18.297 0.731191C20.1873 0.253689 22.1668 0 24.2056 0C27.7703 0 31.1537 0.775521 34.1959 2.16688C34.7682 6.73501 34.4743 11.381 33.3193 15.9903C32.7569 18.2356 32.001 20.3934 31.0757 22.44C28.6718 20.6931 26.2004 19.0787 23.6388 17.5819C23.8687 16.9676 24.0535 16.3328 24.191 15.6808C25.3435 10.2061 22.8959 4.35856 18.297 0.731191Z" fill="#FFC600"/>
<path d="M37.5689 4.05205C43.5996 8.09146 47.6971 14.7875 48.1826 22.4632C44.1294 23.0394 40.5396 25.0532 37.961 27.9634C36.5493 26.7198 35.1203 25.5319 33.6689 24.3961C34.8111 21.9865 35.7336 19.4303 36.4021 16.7611C37.4614 12.5314 37.8518 8.26998 37.5689 4.05205Z" fill="#FFC600"/>
<path d="M48.1732 25.6791C47.9356 29.1131 46.9749 32.3483 45.4421 35.2338C43.7471 33.4296 42.0401 31.7204 40.3112 30.0997C42.3056 27.8332 45.0569 26.2307 48.1732 25.6791Z" fill="#FFC600"/>
<path d="M43.7026 38.0271C42.1061 40.2375 40.1422 42.1656 37.9003 43.7219C37.2974 42.1887 36.9855 40.5503 36.9855 38.875C36.9855 36.6701 37.5283 34.5877 38.489 32.7508C40.2459 34.412 41.98 36.1683 43.7026 38.0271Z" fill="#FFC600"/>
<path d="M35.144 45.3741C31.8632 47.0528 28.1451 48 24.2056 48C19.4413 48 15.0008 46.6147 11.2659 44.2252C19.8559 41.7799 27.3758 35.5852 32.1668 27.2641C33.4889 28.3119 34.7921 29.4049 36.0806 30.5461C34.6353 32.995 33.8067 35.8412 33.8067 38.875C33.8067 41.1312 34.2636 43.3339 35.144 45.3741Z" fill="#FFC600"/>
<path d="M8.01788 41.7347C3.28072 37.4174 0.279564 31.2316 0.182617 24.3443C1.82742 25.3274 3.65315 26.0411 5.58628 26.4477C9.73226 27.3192 13.9383 26.7007 17.435 24.706C19.3843 23.5935 20.9856 22.1288 22.1666 20.4084C24.7369 21.9174 27.2138 23.5494 29.6216 25.3203C24.8215 33.8903 16.9219 40.0508 8.01788 41.7347Z" fill="#FFC600"/>
<path d="M0.411384 20.6571C0.846198 17.5403 1.88025 14.6151 3.39352 12.0015C9.18253 13.9419 14.4587 16.1872 19.3799 18.8402C18.4823 20.0726 17.2924 21.1295 15.8582 21.9477C13.0383 23.5564 9.62187 24.0503 6.24148 23.3406C4.07702 22.8853 2.08227 21.9649 0.411384 20.6571Z" fill="#FFC600"/>
<path d="M5.23389 9.27289C10.8529 11.1992 16.0028 13.4125 20.8225 16.0032C20.9246 15.6837 21.0108 15.3578 21.0806 15.0263C22.1063 10.1563 19.2733 4.68426 14.5279 2.02662C10.8569 3.64237 7.66732 6.14923 5.23389 9.27289Z" fill="#FFC600"/>
</svg>
