<svg width="49" height="48" viewBox="0 0 49 48" fill="none" xmlns="http://www.w3.org/2000/svg">
<g clip-path="url(#clip0_6545_25604)">
<path fill-rule="evenodd" clip-rule="evenodd" d="M44.3967 21.1644C49.3327 13.6961 47.3318 10.4347 46.3126 8.77357C46.258 8.68455 46.2062 8.60006 46.1584 8.51984C45.3865 7.2227 37.7947 -1.35759 31.2228 0.18484C24.6508 1.72727 25.3452 12.6943 25.3452 12.6943C25.3452 12.6943 24.1896 8.94882 25.3533 4.78437C25.1749 4.11934 23.1879 3.42671 21.773 5.63442C20.847 7.07959 19.773 9.06529 20.1666 11.4817C20.501 13.5349 20.9259 16.353 20.5682 17.5068C20.4973 17.7358 20.4162 18.0014 20.3342 18.2884C20.9372 18.3104 21.4299 18.3735 21.6828 18.5C22.4828 18.9 23.0161 19.6667 23.1828 20C25.0161 19.6667 29.0828 19.2 30.6828 20C32.6828 21 34.6828 24.5 35.6828 26.5C35.9241 26.9826 36.2321 27.7501 36.5629 28.6463C38.9886 27.3577 41.8316 25.0458 44.3967 21.1644ZM30.0315 4.88087C29.2415 5.02266 31.3305 0.00863051 36.5965 3.01827C41.8632 6.0278 44.7902 9.75818 45.6809 11.5952C45.6809 11.5952 34.9371 4.00251 30.0315 4.88087Z" fill="#FFC600"/>
<path d="M28.6536 45.8514C37.363 42.2311 37.0767 38.1814 37.1793 36.3487C37.2638 34.8416 35.7614 23.4839 29.4491 21.0913C23.1368 18.6987 17.5853 28.1823 17.5853 28.1823C17.5853 28.1823 18.7195 24.4303 22.0114 21.6267C22.2349 20.9754 20.974 19.2908 18.5671 20.3313C16.9917 21.0125 14.9915 22.0593 13.9678 24.2832C13.098 26.1729 11.8759 28.7476 10.9346 29.5047C9.99303 30.2624 8.31651 31.6493 7.98316 32.6955C7.64981 33.7417 8.63012 37.33 9.8463 40.1644C11.0622 42.9994 11.7423 44.5589 12.757 45.7599C13.8909 47.1043 19.9438 49.4722 28.6536 45.8514ZM25.8374 24.3204C25.1029 23.9966 29.6369 21.0053 32.3228 26.4436C35.0094 31.8822 35.3527 36.6113 35.065 38.6325C35.065 38.6325 30.3967 26.3328 25.8374 24.3204Z" fill="#FFC600"/>
<path d="M3.57368 38.9812C3.04772 40.271 5.27057 45.2928 6.41306 47.5505C6.47244 47.6676 6.59852 47.7296 6.72578 47.7039C8.83621 47.2736 11.6336 46.6852 11.5912 46.6007C9.46124 42.3926 8.24866 39.2098 7.57206 37.1102C7.52304 36.9582 7.36779 36.8744 7.21615 36.9175C6.23631 37.1934 4.01414 37.9005 3.57368 38.9812Z" fill="#FFC600"/>
<path d="M3.35452 42.2204C2.79686 40.6612 2.29083 38.6353 2.56195 37.9704C3.07679 36.7079 5.69605 35.7031 6.75845 35.3376C6.90928 35.2855 6.99398 35.1231 6.95581 34.9662C6.81839 34.4041 6.7722 34.1174 6.7722 34.1174C3.80593 34.4412 0.656125 36.9361 0.221865 37.5576C-0.145586 38.0835 2.13769 45.0312 4.11908 47.5205C4.38483 47.8549 4.93352 48.0652 5.34891 47.9816C5.56092 47.939 5.80167 47.8912 6.06106 47.8385C5.65901 47.1067 4.21437 44.6247 3.35452 42.2204Z" fill="#FFC600"/>
</g>
<defs>
<clipPath id="clip0_6545_25604">
<rect width="48" height="48" fill="white" transform="translate(0.182617)"/>
</clipPath>
</defs>
</svg>
