<svg width="49" height="48" viewBox="0 0 49 48" fill="none" xmlns="http://www.w3.org/2000/svg">
<path d="M8.0911 10.946C6.79725 11.6944 5.34344 12.0659 3.86342 12.0659C2.64768 12.0659 1.41484 11.8151 0.238532 11.3176C0.873303 16.1552 4.95652 19.9036 9.93195 20C9.58476 16.3444 11.2214 12.8833 14.2049 11.156C15.983 10.1261 18.0414 9.79278 20.1027 10.1839C20.1038 10.1229 20.1044 10.0617 20.1044 10.0005C20.1044 5.12144 16.6196 1.0584 12.0094 0.176544C13.2431 4.41721 11.7047 8.85429 8.0911 10.946Z" fill="#FFC600"/>
<path d="M9.99024 0C11.376 3.62912 10.2161 7.56495 7.16211 9.3327C5.08346 10.5362 2.45247 10.4827 0.182617 9.22136C0.575655 4.10726 4.80521 0.0706578 9.99024 0Z" fill="#FFC600"/>
<path d="M19.8961 12.0431C18.2264 11.6957 16.5603 11.9443 15.1348 12.7693C12.7741 14.1349 11.4902 16.9143 11.7854 19.8646C15.8397 19.1852 19.0659 16.0541 19.8961 12.0431Z" fill="#FFC600"/>
<path d="M9.15725 43.4489L9.66634 43.958C11.4411 42.081 13.725 39.5678 18.6816 34.6115C19.8443 33.4489 20.8226 32.177 21.6917 30.952L24.2567 33.5168C23.0316 34.385 21.7596 35.3641 20.597 36.5267C15.6404 41.483 13.1269 43.7667 11.2498 45.5414L11.5028 45.7944C12.0228 46.3144 12.0424 47.1451 11.5465 47.6409C11.0507 48.1367 10.2199 48.1164 9.69991 47.5972L7.35434 45.2517C6.83432 44.7317 6.8148 43.901 7.31062 43.4052C7.80644 42.9094 8.63722 42.929 9.15725 43.4489Z" fill="#FFC600"/>
<path d="M26.1537 32.209L23 29.0555C23.7902 27.8937 24.5031 26.8693 25.2035 26.1682C27.1633 24.2085 41.4101 8.53776 42.1784 7.77027C43.8743 6.07445 46.0083 7.70859 46.7501 8.44953C47.4942 9.19282 49.137 11.3352 47.4411 13.0318C46.6728 13.8001 31.0018 28.0452 29.042 30.0057C28.34 30.706 27.3148 31.4189 26.1537 32.209Z" fill="#FFC600"/>
</svg>
