<svg width="61" height="61" viewBox="0 0 61 61" fill="none" xmlns="http://www.w3.org/2000/svg">
<path fill-rule="evenodd" clip-rule="evenodd" d="M40.361 22.124C40.361 25.1677 39.5685 28.108 37.9825 30.9209C37.1113 32.4664 36.032 33.8889 34.7871 35.1428C37.3191 34.5264 39.6385 33.367 41.6149 31.7949L41.6025 31.7861C44.8373 27.2101 45.4031 19.8564 44.1149 15.3669C43.2492 15.2407 42.3696 15.1773 41.4785 15.1773C40.6785 15.1773 39.8857 15.2293 39.104 15.332C39.9422 17.6436 40.361 19.9108 40.361 22.124ZM45.4334 27.6086C47.2616 24.8176 48.3247 21.4803 48.3247 17.8948C48.3247 17.4255 48.3065 16.9606 48.2707 16.5005C47.5163 16.1927 46.7463 15.9381 45.9626 15.7372C46.2886 17.167 46.4614 18.7858 46.4614 20.4798C46.4614 22.8112 46.1347 25.2856 45.4334 27.6086ZM48.017 14.587C47.5507 12.1125 46.5708 9.81938 45.1924 7.82253C43.1354 7.02611 40.9636 6.62317 38.7118 6.62317C33.3809 6.62317 28.4143 8.93163 24.9773 12.9826C26.4786 14.6019 28.316 15.9519 30.3466 16.9257C33.6366 14.6686 37.4746 13.4793 41.4794 13.4793C43.7358 13.478 45.9267 13.8499 48.017 14.587ZM43.2311 5.44925C41.9664 4.16319 40.5073 3.06897 38.9013 2.21427C37.4718 1.85669 35.9962 1.67277 34.5162 1.67277C29.6101 1.67277 24.897 3.68932 21.507 7.22248C22.05 8.81029 22.8431 10.2983 23.872 11.6635C27.6251 7.36731 32.9751 4.92432 38.7118 4.92432C40.2346 4.92432 41.7539 5.10237 43.2311 5.44925ZM31.6931 0.178296C31.3229 0.15525 30.9495 0.143555 30.5735 0.143555C26.9175 0.143555 23.5197 1.24878 20.6959 3.14334C20.7412 3.88132 20.84 4.6165 20.9921 5.34322C23.9474 2.56127 27.6961 0.759451 31.6931 0.178296ZM19.1037 4.34624C17.0772 6.06351 15.4411 8.22726 14.3472 10.6856C14.7537 12.5627 15.4645 14.3504 16.4651 16.0108C19.3683 20.8284 24.0267 24.1144 29.0309 24.9127C29.6201 22.8326 29.827 20.6586 29.6363 18.4689C27.1659 17.2884 24.9541 15.5976 23.2152 13.5571L23.2133 13.5554C23.1897 13.5278 23.1663 13.5001 23.1429 13.4724L22.7646 13.0287L22.7725 13.0186C21.7028 11.6654 20.8477 10.1959 20.2186 8.6308L19.7864 7.42979C19.7682 7.37279 19.7503 7.31568 19.7327 7.25845L19.7335 7.25819C19.4387 6.30228 19.2283 5.32851 19.1037 4.34624ZM13.3799 13.463C13.8063 14.649 14.3508 15.7933 15.0099 16.8871C18.1161 22.0422 23.0956 25.5904 28.4831 26.5429C28.174 27.3348 27.807 28.1091 27.3832 28.8613C27.014 29.5161 26.5543 30.1665 26.0002 30.8163C21.5438 29.7467 17.3208 26.4847 14.6142 21.9915C13.8537 20.7287 13.2527 19.3863 12.8225 17.9919C12.8224 17.9595 12.8223 17.9272 12.8223 17.8948C12.8223 16.3646 13.0159 14.8796 13.3799 13.463ZM13.9145 24.0394C16.6491 28.0107 20.5229 30.9513 24.6641 32.2119C24.0929 32.7499 23.4553 33.2895 22.7489 33.8329C18.6845 31.8337 15.496 28.3256 13.9145 24.0394ZM24.5269 34.5895C26.4975 32.9721 27.9259 31.3579 28.8631 29.6949C30.5406 26.7187 31.4042 23.4236 31.4042 20.0524C31.4042 19.4738 31.3785 18.8932 31.3275 18.3118C33.1893 17.0386 35.2431 16.1386 37.4061 15.6388C39.3315 20.7488 39.0288 25.6063 36.5033 30.0873C35.2709 32.2725 33.6523 34.1266 31.6812 35.6119C31.3149 35.6345 30.9455 35.6459 30.5735 35.6459C28.4502 35.6459 26.4141 35.2732 24.5269 34.5895Z" fill="#FFC600"/>
<path fill-rule="evenodd" clip-rule="evenodd" d="M1.62852 35.6459C0.144117 35.6459 0.143555 37.0651 0.143555 38.8157V61.0047H3.11293V54.665H57.7391V61.0047H61.0048V38.8157C61.0048 37.0651 61.0048 35.6459 59.5204 35.6459C58.036 35.6459 57.7391 37.0651 57.7391 38.8157V39.8723H3.11293V38.8157C3.11293 37.0651 3.11293 35.6459 1.62852 35.6459ZM47.0514 41.9856H39.9262V44.0988H47.0514V41.9856ZM47.0514 46.2121H39.9262V48.3253H47.0514V46.2121ZM50.614 48.3253V46.2121H57.7391V48.3253H50.614ZM47.0514 50.4385H39.9262V52.5518H47.0514V50.4385ZM50.614 52.5518V50.4385H57.7391V52.5518H50.614ZM50.614 44.0988V41.9856H57.7391V44.0988H50.614ZM36.3637 52.5518V50.4385H29.2385V52.5518H36.3637ZM36.3637 48.3253V46.2121H29.2385V48.3253H36.3637ZM36.3637 44.0988V41.9856H29.2385V44.0988H36.3637ZM25.6759 41.9856H18.5508V44.0988H25.6759V41.9856ZM25.6759 46.2121H18.5508V48.3253H25.6759V46.2121ZM25.6759 50.4385H18.5508V52.5518H25.6759V50.4385ZM14.9882 52.5518V50.4385H3.11293V52.5518H14.9882ZM14.9882 48.3253V46.2121H3.11293V48.3253H14.9882ZM14.9882 44.0988V41.9856H3.11293V44.0988H14.9882Z" fill="#FFC600"/>
</svg>
