<svg width="49" height="48" viewBox="0 0 49 48" fill="none" xmlns="http://www.w3.org/2000/svg">
<path fill-rule="evenodd" clip-rule="evenodd" d="M31.9451 14.8713C36.3787 14.8713 39.9729 11.2252 39.9729 6.72749C39.9729 4.28822 38.9158 2.09943 37.2409 0.606896C39.843 -1.73083 44.9193 3.43875 44.9193 3.43875C44.9193 3.43875 49.8717 8.91917 47.5747 11.2295C46.7172 12.0915 30.3535 27.2252 24.6188 32.5266C23.5139 33.548 21.8212 33.493 20.7668 32.4181C20.3822 32.026 20.0423 31.6798 19.7296 31.3618C19.3692 31.6886 19.0137 32.0264 18.6654 32.3765C13.1943 37.8765 9.92093 40.9597 7.52071 43.2204L7.52064 43.2205C6.97557 43.7338 6.47553 44.2048 6.00502 44.652L6.34768 44.9965C7.05203 45.7046 7.07847 46.8358 6.4069 47.5109C5.73533 48.1861 4.61006 48.1584 3.9057 47.4514L0.728701 44.2576C0.0243462 43.5495 -0.00209317 42.4183 0.669476 41.7432C1.34105 41.0681 2.46632 41.0946 3.17068 41.8027L3.86023 42.4959C4.30511 42.0229 4.7736 41.5202 5.28429 40.9723C7.5331 38.5593 10.6 35.2686 16.0712 29.7685C16.421 29.4168 16.7585 29.0578 17.0848 28.6938C16.7809 28.3896 16.4514 28.0604 16.0802 27.69C15.0032 26.6152 14.9524 24.8754 15.98 23.7519C18.2549 21.2649 22.3174 16.825 26.2813 12.499C27.7331 13.9651 29.7348 14.8713 31.9451 14.8713Z" fill="#FFC600"/>
<path d="M30.5787 7.36385C29.7173 7.86739 28.7494 8.11726 27.7641 8.11726C26.9547 8.11726 26.1339 7.94856 25.3507 7.61388C25.7733 10.8683 28.4918 13.39 31.8043 13.4549C31.5732 10.9957 32.6628 8.66719 34.6492 7.50517C35.8329 6.81227 37.2034 6.58806 38.5758 6.85116C38.5765 6.81012 38.5769 6.769 38.5769 6.72779C38.5769 3.44543 36.2568 0.712033 33.1874 0.11877C34.0088 2.97166 32.9846 5.95669 30.5787 7.36385Z" fill="#FFC600"/>
<path d="M31.8431 0C32.7657 2.44148 31.9935 5.08929 29.9602 6.27854C28.5763 7.08821 26.8247 7.0522 25.3135 6.20363C25.5752 2.76314 28.3911 0.0475348 31.8431 0Z" fill="#FFC600"/>
<path d="M38.4382 8.10197C37.3265 7.86825 36.2173 8.03545 35.2683 8.59049C33.6966 9.50922 32.8418 11.379 33.0383 13.3638C35.7376 12.9067 37.8855 10.8003 38.4382 8.10197Z" fill="#FFC600"/>
</svg>
