<svg width="48" height="48" viewBox="0 0 48 48" fill="none" xmlns="http://www.w3.org/2000/svg">
<path fill-rule="evenodd" clip-rule="evenodd" d="M33.3131 6.15379L32.0486 5.42002C31.5686 5.14144 31.2998 4.58484 31.3718 4.0171C31.4438 3.44936 31.7047 3.24768 32.3728 2.84596C34.5 1.56701 36.5077 1.04468 38 1.04468C42.1685 1.04468 44.2037 3.40234 45 5.22335C45.7963 7.04435 45.4731 9.22652 45 10.4467C44.3872 12.9673 41.1472 13.9645 38.5467 13.9645C35.472 13.9645 32.9718 11.3526 32.9718 8.14116C32.9718 7.44249 33.0971 6.77557 33.3131 6.15379ZM40.7627 10.4773L35.4768 7.41017C35.4251 7.64529 35.3952 7.88933 35.3958 8.1406C35.3958 9.95581 36.8096 11.4323 38.5472 11.4323C39.4102 11.4323 40.1942 11.0668 40.7627 10.4773Z" fill="#FFC600"/>
<path fill-rule="evenodd" clip-rule="evenodd" d="M36.7136 28.445C37.3078 28.3235 37.919 28.2556 38.5467 28.2556C43.7595 28.2556 48 32.686 48 38.1311C48 43.5762 43.7595 48.0061 38.5472 48C33.8603 48 29.9707 44.4158 29.2315 39.7352L27.0113 39.6967C26.9333 39.9759 26.6666 40.2544 26.6666 40.2544C26.6666 40.2544 26.1333 41.0902 25.0666 41.0902C23.9999 41.0902 23.2541 40.681 22.9333 39.6494C22.9333 39.6494 22.6433 39.6494 22.4561 39.6494L18.7889 39.5981C18.0987 44.3623 14.1516 48.0195 9.4049 47.9944C4.19212 47.966 -0.0265409 43.5138 0.000125729 38.0687C0.0267923 32.6236 4.28918 28.2166 9.50143 28.245C10.0828 28.2483 10.6497 28.3152 11.2017 28.4227L12.1329 25.4364C12.1329 25.4305 12.1327 25.4245 12.1325 25.4185L12.1319 25.4061C12.1311 25.3906 12.1303 25.3747 12.1313 25.3589C12.1393 25.272 12.1548 25.189 12.1777 25.1082L12.1782 25.1048L12.1846 25.0842C12.1898 25.0673 12.1972 25.0516 12.2046 25.0358C12.2093 25.0257 12.2141 25.0156 12.2182 25.0051L12.2236 24.9904C12.2394 24.9472 12.2553 24.9037 12.2764 24.8642L12.279 24.8586C11.822 24.3193 11.4625 23.6707 11.2657 22.8467C10.3564 19.0441 12.9889 13.0313 16.7899 10.2338C18.6481 8.86435 19.8858 8.49662 22.3999 8.49662C25.145 8.49662 27.9999 9.48128 30.3999 11.561C32.9718 13.7896 34.2366 17.5279 34.6666 20.1969C35.2353 20.167 35.8025 20.1208 36.3696 20.0745C37.321 19.997 38.2721 19.9194 39.2292 19.9194C41.0666 19.9194 42.1728 20.4754 42.5728 21.5898C42.9728 22.7041 42.5776 23.1169 41.7355 23.8774C42.2885 24.3388 42.7104 24.8686 42.9728 25.3149C43.3227 25.9116 43.1435 26.6905 42.5728 27.056C42.0048 27.4209 41.2619 27.2354 40.9104 26.6454C40.7024 26.3027 39.5787 24.6547 37.7888 25.5901C36.4838 26.2715 36.2544 26.8354 36.2592 26.9791C36.2758 27.0181 36.2902 27.0577 36.3024 27.0967C36.304 27.1017 36.3056 27.1067 36.3072 27.1123L36.7136 28.445ZM21.9812 37.0952H23.2541C23.2557 37.0554 23.2865 36.9111 23.2918 36.8708C23.7041 33.3006 23.3259 31.6899 22.8929 30.5989C22.1045 29.2422 21.4544 28.8997 20.3618 28.3241C20.0321 28.1504 19.6621 27.9555 19.2358 27.7051C17.8652 26.9009 15.8242 26.8348 14.2454 26.8348L13.5046 29.21C16.4065 30.6563 18.4939 33.5931 18.8486 37.0664L21.9812 37.0952ZM2.42359 38.0815C2.40439 42.1298 5.54038 45.4415 9.41717 45.4622C12.8385 45.4811 15.7062 42.9265 16.3457 39.5424L9.42677 39.3842C9.0433 39.3758 8.68597 39.1786 8.4641 38.8521C8.24224 38.5256 8.18197 38.1077 8.29984 37.7272L10.4422 30.8569C10.1297 30.8107 9.81343 30.7778 9.48917 30.7756C5.61344 30.755 2.44385 34.0316 2.42359 38.0815ZM11.111 36.8903L16.3937 37.0112C16.0534 34.6829 14.6689 32.7083 12.7478 31.6386L11.111 36.8903ZM20.5905 20.608C22.7899 21.5452 24.551 23.4629 25.7329 25.35L33.9718 26.1155C34.0144 25.974 34.0688 25.8364 34.1328 25.6999C34.128 25.6999 34.1234 25.7 34.1187 25.7002L34.1131 25.7003L34.1046 25.7004C32.7999 25.4061 31.1999 24.6884 30.3999 23.4353C29.6152 22.2063 29.6002 22.1487 28.845 19.2553L28.7999 19.0826C28.2905 17.7522 27.5379 17.4383 26.4231 16.9735C26.3707 16.9517 26.3175 16.9295 26.2635 16.9069C25.0203 16.9732 22.6779 18.2825 21.3547 19.6648C20.9654 20.071 20.7313 20.3852 20.5905 20.608ZM27.9062 37.1856L29.1392 37.2068C29.4518 33.7051 31.5232 30.7366 34.4187 29.2612L34.2427 28.6823L27.0486 28.0137C28.2438 31.3795 28.0321 35.6651 27.9062 37.1856ZM36.8806 37.3422L35.1616 31.6988C33.2256 32.8153 31.8496 34.8573 31.5739 37.2491L36.8806 37.3422ZM31.7035 39.7842C32.4246 43.038 35.2155 45.4744 38.5467 45.4744C42.4224 45.4744 45.5765 42.1794 45.5765 38.1306C45.5765 34.0817 42.4224 30.7867 38.5467 30.7867C38.175 30.7867 37.8139 30.8263 37.4576 30.8848L39.7014 38.2531C39.8198 38.6415 39.752 39.066 39.5184 39.3925C39.2907 39.714 38.9296 39.9034 38.5467 39.9034H38.5264L31.7035 39.7842Z" fill="#FFC600"/>
<path d="M0 0H36C36 0 33.5 0.522334 32 1.567C30.5 2.61167 30.5 3.134 30.5 3.134H3.134C1.40314 3.134 0 1.73086 0 0Z" fill="#FFC600"/>
<path d="M6 8.35742H18C18 8.35742 17.5 8.35742 16 9.40209C14.5 10.4468 14 11.4914 14 11.4914H9.134C7.40314 11.4914 6 10.0883 6 8.35742Z" fill="#FFC600"/>
</svg>
