<svg width="49" height="48" viewBox="0 0 49 48" fill="none" xmlns="http://www.w3.org/2000/svg">
<path d="M7.29076 7.19749L7.24275 7.1435C5.56232 5.20731 0.182617 5.12467 0.182617 5.12467L5.37637 10.9655L9.49181 10.9941C10.8295 13.2593 14.1309 18.735 16.0013 20.8385C19.6068 24.8932 23.8571 25.7663 23.8571 25.7663C23.8571 25.7663 23.5479 21.5126 19.9424 17.4579C18.0468 15.3261 12.9011 11.3437 10.8348 9.77357L11.3494 5.84086L6.15564 0C6.15564 0 5.56232 5.20731 7.29076 7.19749Z" fill="#FFC600"/>
<path d="M48.1345 29.104C47.3598 40.2682 37.4344 48.7072 25.9654 47.9532C14.4963 47.1991 5.82691 37.5374 6.6016 26.3732C6.87513 22.4313 8.2895 18.8291 10.5098 15.8513C10.9726 16.5515 11.5644 17.4352 12.1777 18.3304C10.6096 20.7247 9.61832 23.525 9.40787 26.5577C8.73787 36.2132 16.2358 44.5693 26.1549 45.2215C36.074 45.8737 44.6582 38.575 45.3282 28.9195C45.9982 19.264 38.5003 10.908 28.5812 10.2558C24.507 9.98792 20.6581 11.0614 17.4903 13.0886C16.6504 12.3509 15.8733 11.6827 15.3232 11.2145C19.0989 8.60336 23.7892 7.19657 28.7707 7.52411C40.2397 8.2782 48.9092 17.9399 48.1345 29.104Z" fill="#FFC600"/>
<path d="M12.2142 26.7423C12.3624 24.6055 12.97 22.6056 13.9368 20.8277C14.3872 21.442 14.7818 21.9521 15.062 22.2644C15.3265 22.5592 15.6139 22.8554 15.9222 23.1485C15.426 24.3215 15.1131 25.5913 15.0204 26.9268C14.5598 33.5649 19.7147 39.3097 26.534 39.7581C33.3533 40.2065 39.255 35.1887 39.7157 28.5505C40.1763 21.9123 35.0214 16.1676 28.2021 15.7192C25.8703 15.5659 23.6458 16.0517 21.7095 17.0228C21.1941 16.4728 20.4509 15.7613 19.6356 15.0117C22.1876 13.5395 25.2082 12.7782 28.3916 12.9875C36.7609 13.5378 43.0873 20.5882 42.5219 28.735C41.9566 36.8819 34.7137 43.0401 26.3445 42.4898C17.9752 41.9395 11.6488 34.8891 12.2142 26.7423Z" fill="#FFC600"/>
<path d="M17.8267 27.1113C17.878 26.3726 18.0164 25.6599 18.2316 24.982C18.9165 25.4325 19.6523 25.8418 20.4282 26.1847C22.1787 26.9584 24.6616 27.4692 25.6843 27.6279C25.6476 26.8023 25.4847 24.8158 25.1267 23.475C24.8309 22.3671 24.2002 20.7573 23.353 19.288C24.763 18.6517 26.3526 18.3417 28.0125 18.4509C33.2821 18.7974 37.2653 23.2365 36.9094 28.366C36.5535 33.4955 31.9931 37.3729 26.7236 37.0264C21.454 36.6799 17.4708 32.2408 17.8267 27.1113Z" fill="#FFC600"/>
</svg>
