<svg width="25" height="24" viewBox="0 0 25 24" fill="none" xmlns="http://www.w3.org/2000/svg">
<path d="M10.9502 0C10.471 0 10.0826 0.377023 10.0826 0.842105C10.0826 1.30719 10.471 1.68421 10.9502 1.68421H14.4207C14.8999 1.68421 15.2884 1.30719 15.2884 0.842105C15.2884 0.377023 14.8999 0 14.4207 0H10.9502Z" fill="#FF9800"/>
<path fill-rule="evenodd" clip-rule="evenodd" d="M6.76313 14.4C7.2497 14.0183 7.68257 13.6 8.48063 12.8C10.0768 11.2 14.8651 11.2 16.4613 12.8C16.7661 13.1055 17.0124 13.3631 17.2227 13.583C17.5631 13.9389 17.8095 14.1965 18.0574 14.4C19.2428 15.3728 20.1913 16 21.8772 16C24.1335 16 24.6757 14.6412 24.4545 13.1205L22.2704 6.10526L22.2653 6.109C22.1542 3.87965 20.2567 2.10526 17.9323 2.10526H7.08688C4.7625 2.10526 2.86508 3.87952 2.75387 6.10876L2.74872 6.10526L0.56466 13.1205C0.343476 14.6412 0.572496 16 3.142 16C4.76542 16 5.44098 15.4582 6.40439 14.6855C6.51918 14.5934 6.63807 14.4981 6.76313 14.4ZM6.67179 5.93863C6.63112 5.41982 5.84734 5.41982 5.80667 5.93863L5.71533 7.10362C5.69908 7.31096 5.52931 7.47574 5.31568 7.49152L4.11538 7.58016C3.58084 7.61964 3.58084 8.38036 4.11537 8.41984L5.31568 8.50848C5.52931 8.52426 5.69908 8.68904 5.71533 8.89638L5.80667 10.0614C5.84734 10.5802 6.63112 10.5802 6.67179 10.0614L6.76313 8.89638C6.77938 8.68904 6.94915 8.52426 7.16278 8.50848L8.36309 8.41984C8.89762 8.38036 8.89762 7.61964 8.36309 7.58016L7.16278 7.49152C6.94915 7.47574 6.77938 7.31096 6.76313 7.10362L6.67179 5.93863ZM16.4613 7.2C16.4613 7.64183 16.104 8 15.6632 8C15.2224 8 14.8651 7.64183 14.8651 7.2C14.8651 6.75817 15.2224 6.4 15.6632 6.4C16.104 6.4 16.4613 6.75817 16.4613 7.2ZM17.2593 6.4C17.7001 6.4 18.0574 6.04183 18.0574 5.6C18.0574 5.15817 17.7001 4.8 17.2593 4.8C16.8186 4.8 16.4613 5.15817 16.4613 5.6C16.4613 6.04183 16.8186 6.4 17.2593 6.4ZM19.6535 7.2C19.6535 7.64183 19.2962 8 18.8555 8C18.4147 8 18.0574 7.64183 18.0574 7.2C18.0574 6.75817 18.4147 6.4 18.8555 6.4C19.2962 6.4 19.6535 6.75817 19.6535 7.2ZM17.2593 9.6C17.7001 9.6 18.0574 9.24183 18.0574 8.8C18.0574 8.35817 17.7001 8 17.2593 8C16.8186 8 16.4613 8.35817 16.4613 8.8C16.4613 9.24183 16.8186 9.6 17.2593 9.6Z" fill="#FF9800"/>
<rect x="12.5" y="12" width="12" height="12" rx="5.53846" fill="#2C3538"/>
<path d="M18.7079 22.1512C17.97 22.1512 17.3345 21.9935 16.8014 21.6782C16.2716 21.3596 15.862 20.9127 15.5727 20.3373C15.2866 19.7587 15.1436 19.081 15.1436 18.3041C15.1436 17.5369 15.2866 16.8608 15.5727 16.2757C15.862 15.6906 16.2651 15.2339 16.7819 14.9056C17.302 14.5773 17.9099 14.4131 18.6055 14.4131C19.0281 14.4131 19.4376 14.483 19.8342 14.6228C20.2308 14.7626 20.5867 14.982 20.902 15.281C21.2173 15.5801 21.466 15.9685 21.6481 16.4464C21.8301 16.9209 21.9211 17.4979 21.9211 18.1773V18.6941H15.9676V17.6019H20.4925C20.4925 17.2184 20.4145 16.8787 20.2584 16.5829C20.1024 16.2838 19.883 16.0482 19.6002 15.8759C19.3206 15.7036 18.9923 15.6175 18.6152 15.6175C18.2057 15.6175 17.8481 15.7182 17.5426 15.9198C17.2402 16.1181 17.0062 16.3781 16.8404 16.6999C16.6779 17.0185 16.5966 17.3647 16.5966 17.7385V18.5918C16.5966 19.0923 16.6844 19.5182 16.8599 19.8692C17.0387 20.2203 17.2874 20.4885 17.6059 20.6738C17.9245 20.8558 18.2967 20.9468 18.7225 20.9468C18.9988 20.9468 19.2507 20.9078 19.4783 20.8298C19.7058 20.7485 19.9025 20.6283 20.0683 20.469C20.234 20.3097 20.3608 20.113 20.4486 19.879L21.8285 20.1277C21.7179 20.534 21.5197 20.8899 21.2336 21.1955C20.9508 21.4978 20.5949 21.7335 20.1658 21.9025C19.74 22.0683 19.254 22.1512 18.7079 22.1512Z" fill="white"/>
</svg>
