<svg width="61" height="62" viewBox="0 0 61 62" fill="none" xmlns="http://www.w3.org/2000/svg">
<path d="M31.4237 4.48771C31.1116 5.11808 30.8114 5.73298 30.537 6.29969L20.4989 9.9293C20.4275 9.90911 20.3271 9.88105 20.2009 9.84644C19.9338 9.77324 19.5502 9.67062 19.0781 9.55118C18.1354 9.31268 16.8323 9.00524 15.3945 8.73114C13.9609 8.45785 12.3681 8.21275 10.852 8.10637L10.7443 8.09904L11.0598 7.37827C16.3475 2.95477 23.1606 0.29187 30.596 0.29187C31.5811 0.29187 32.5552 0.33861 33.5163 0.42999C33.4476 0.555373 33.3788 0.682248 33.3099 0.810012C32.7039 1.93451 32.0385 3.24591 31.4237 4.48771Z" fill="#FFC600"/>
<path d="M36.9075 0.946288C36.6849 1.32247 36.4235 1.78817 36.1322 2.32878C35.5513 3.40677 34.9043 4.68113 34.2969 5.90812C34.0227 6.46195 33.7575 7.00419 33.5112 7.51183L39.6413 13.2441C40.0794 13.3128 40.6795 13.4091 41.3948 13.5296C42.9322 13.7887 45.0093 14.161 47.1582 14.6126C49.2996 15.0626 51.5466 15.5985 53.4109 16.1886C53.7643 16.3005 54.1091 16.4158 54.4406 16.5347L55.3238 12.9581C50.9698 6.91682 44.4535 2.53556 36.9075 0.946288Z" fill="#FFC600"/>
<path d="M61.0048 32.3652L60.211 32.2165C60.0525 32.4911 59.8678 32.8089 59.6608 33.1614C58.9329 34.4004 57.9258 36.073 56.8126 37.7997C55.7029 39.521 54.471 41.3222 53.2941 42.807C52.7061 43.549 52.1142 44.2343 51.5432 44.7987C51.4177 44.9228 51.2887 45.0456 51.1567 45.165L49.9386 52.0452L51.5003 52.8508C57.0078 47.6535 60.5757 40.4255 61.0048 32.3652Z" fill="#FFC600"/>
<path d="M48.8451 55.086L48.2835 54.7964L37.3261 59.4145L36.3719 60.6065C40.9842 59.7216 45.2265 57.7969 48.8451 55.086Z" fill="#FFC600"/>
<path d="M31.8494 61.1278L34.5941 57.6994L30.6081 53.4734C30.291 53.4511 29.9131 53.4228 29.4844 53.388C28.1164 53.2768 26.2251 53.0976 24.132 52.8255C20.6011 52.3665 16.3288 51.6239 13.045 50.4303L9.90205 53.0475C15.3343 58.078 22.6057 61.1531 30.596 61.1531C31.0158 61.1531 31.4337 61.1446 31.8494 61.1278Z" fill="#FFC600"/>
<path d="M1.12122 38.4008L1.47348 34.822C1.45575 34.7328 1.43751 34.6401 1.41883 34.544C1.20711 33.4541 0.938173 31.9183 0.707589 30.1262C0.580741 29.1403 0.464383 28.0687 0.375908 26.9448C0.222542 28.1825 0.143555 29.4433 0.143555 30.7225C0.143555 33.3749 0.483135 35.948 1.12122 38.4008Z" fill="#FFC600"/>
<path d="M18.2914 12.6564L18.3275 12.6656L18.507 21.3331C16.6038 23.3397 13.7679 26.827 11.366 29.863C10.0318 31.5494 8.81069 33.1234 7.92333 34.2754L7.9115 34.2908L4.41419 33.1259C4.24434 32.1869 4.05493 31.0234 3.88694 29.7177C3.69441 28.2213 2.94838 19.1108 3.3323 18.0875L8.98277 11.258C9.47798 11.2449 10.0295 11.2598 10.6275 11.3017C11.9725 11.3961 13.4308 11.6178 14.7938 11.8776C16.1525 12.1366 17.3913 12.4287 18.2914 12.6564Z" fill="#FFC600"/>
<path d="M13.8806 31.8496C16.1619 28.966 18.7135 25.8317 20.4758 23.9191L31.6619 26.0109C31.8059 26.4039 31.9728 26.8607 32.1577 27.368C32.7954 29.1179 33.6451 31.4663 34.4944 33.8632C35.3446 36.2625 36.1909 38.7008 36.8234 40.6337C37.1221 41.5465 37.369 42.334 37.5452 42.9459L30.8775 50.2812C30.5624 50.2592 30.181 50.2308 29.7443 50.1953C28.4133 50.0871 26.575 49.9129 24.5455 49.6491C21.0854 49.1993 17.23 48.5076 14.3676 47.502L10.0195 36.8067C10.1559 36.6291 10.3043 36.436 10.4636 36.2292C11.3452 35.0845 12.5574 33.5221 13.8806 31.8496Z" fill="#FFC600"/>
<path d="M35.1698 26.272C34.9865 25.7691 34.8207 25.3156 34.6775 24.9244L40.2604 16.5881C40.4497 16.6192 40.6505 16.6527 40.8617 16.6882C42.373 16.9429 44.4052 17.3073 46.4985 17.7472C48.5991 18.1887 50.7271 18.6992 52.4429 19.2423C53.2616 19.5014 53.9547 19.7581 54.4927 20.0053L57.7845 30.005L57.7398 30.0835C57.541 30.432 57.2528 30.9331 56.8963 31.5398C56.1828 32.7546 55.1997 34.387 54.1179 36.0649C53.0327 37.7481 51.865 39.451 50.7813 40.8182C50.2394 41.5019 49.7361 42.0793 49.2896 42.5208L40.4897 41.5984C40.3173 41.0248 40.1068 40.3611 39.8702 39.6381C39.2255 37.668 38.3689 35.2008 37.5161 32.7941C36.6625 30.3851 35.8093 28.0271 35.1698 26.272Z" fill="#FFC600"/>
<rect x="30.5742" y="30.7224" width="30.4306" height="30.4306" rx="14.0449" fill="#2C3538"/>
<path d="M46.3162 55.1057C44.445 55.1057 42.8335 54.7059 41.4816 53.9063C40.138 53.0985 39.0994 51.9651 38.3657 50.5061C37.6403 49.0388 37.2776 47.3201 37.2776 45.35C37.2776 43.4046 37.6403 41.69 38.3657 40.2063C39.0994 38.7225 40.1215 37.5643 41.4322 36.7318C42.7511 35.8992 44.2925 35.483 46.0566 35.483C47.1282 35.483 48.1668 35.6602 49.1725 36.0146C50.1781 36.3691 51.0808 36.9255 51.8803 37.6839C52.6799 38.4422 53.3105 39.4273 53.7721 40.639C54.2338 41.8425 54.4646 43.3057 54.4646 45.0285V46.3392H39.3673V43.5695H50.8417C50.8417 42.5968 50.6439 41.7354 50.2482 40.9852C49.8525 40.2269 49.2961 39.6292 48.579 39.1924C47.8701 38.7555 47.0375 38.537 46.0813 38.537C45.0427 38.537 44.1359 38.7926 43.3611 39.3036C42.5945 39.8065 42.001 40.4659 41.5806 41.282C41.1684 42.0898 40.9623 42.9677 40.9623 43.9157V46.0795C40.9623 47.3489 41.1849 48.4288 41.63 49.319C42.0834 50.2093 42.714 50.8894 43.5218 51.3592C44.3296 51.8208 45.2735 52.0516 46.3533 52.0516C47.054 52.0516 47.6928 51.9527 48.2699 51.7549C48.8469 51.5488 49.3456 51.2438 49.766 50.8399C50.1864 50.436 50.5079 49.9373 50.7304 49.3438L54.2296 49.9744C53.9494 51.0048 53.4465 51.9074 52.7211 52.6822C52.004 53.4488 51.1014 54.0465 50.0133 54.4751C48.9334 54.8955 47.7011 55.1057 46.3162 55.1057Z" fill="#FFC600"/>
</svg>
