<svg width="49" height="48" viewBox="0 0 49 48" fill="none" xmlns="http://www.w3.org/2000/svg">
<path d="M24.8526 3.30918C24.6065 3.80633 24.3697 4.29129 24.1533 4.73824L16.2365 7.60084C16.1801 7.58492 16.101 7.56279 16.0014 7.53549C15.7908 7.47776 15.4883 7.39682 15.1159 7.30262C14.3724 7.11452 13.3447 6.87206 12.2107 6.65588C11.0801 6.44034 9.82387 6.24704 8.62814 6.16314L8.54319 6.15735L8.79207 5.58889C12.9624 2.10017 18.3356 0 24.1998 0C24.9767 0 25.745 0.0368625 26.503 0.108932C26.4489 0.207819 26.3945 0.307883 26.3402 0.408648C25.8623 1.29551 25.3375 2.32979 24.8526 3.30918Z" fill="#FFC600"/>
<path d="M29.1776 0.516126C29.002 0.812812 28.7959 1.1801 28.5661 1.60647C28.108 2.45666 27.5977 3.46172 27.1186 4.42942C26.9024 4.86622 26.6932 5.29386 26.499 5.69423L31.3337 10.2152C31.6792 10.2693 32.1524 10.3453 32.7166 10.4403C33.9292 10.6447 35.5673 10.9383 37.2621 11.2944C38.951 11.6494 40.7231 12.072 42.1934 12.5374C42.4722 12.6256 42.7441 12.7166 43.0056 12.8104L43.7021 9.98962C40.2683 5.22496 35.1289 1.76955 29.1776 0.516126Z" fill="#FFC600"/>
<path d="M48.1826 25.2956L47.5566 25.1783C47.4316 25.3948 47.2859 25.6455 47.1226 25.9235C46.5486 26.9007 45.7543 28.2199 44.8764 29.5816C44.0011 30.9392 43.0295 32.3598 42.1014 33.5308C41.6376 34.116 41.1708 34.6565 40.7205 35.1016C40.6215 35.1995 40.5198 35.2963 40.4156 35.3905L39.4549 40.8168L40.6866 41.4521C45.0303 37.3531 47.8442 31.6526 48.1826 25.2956Z" fill="#FFC600"/>
<path d="M38.5925 43.215L38.1496 42.9866L29.5078 46.6288L28.7551 47.5689C32.3928 46.871 35.7386 45.353 38.5925 43.215Z" fill="#FFC600"/>
<path d="M25.1884 47.98L27.3531 45.2762L24.2094 41.9432C23.9593 41.9255 23.6613 41.9033 23.3231 41.8758C22.2442 41.7881 20.7526 41.6468 19.1018 41.4322C16.3171 41.0702 12.9476 40.4845 10.3577 39.5431L7.87894 41.6073C12.1632 45.5747 17.8981 48 24.1998 48C24.5309 48 24.8605 47.9933 25.1884 47.98Z" fill="#FFC600"/>
<path d="M0.953681 30.0557L1.2315 27.2332C1.21752 27.1629 1.20313 27.0897 1.1884 27.0139C1.02142 26.1544 0.809316 24.9431 0.62746 23.5297C0.527417 22.7521 0.435648 21.907 0.36587 21.0206C0.244913 21.9968 0.182617 22.9911 0.182617 24C0.182617 26.0919 0.450437 28.1212 0.953681 30.0557Z" fill="#FFC600"/>
<path d="M14.4954 9.75167L14.5239 9.75889L14.6655 16.5948C13.1644 18.1773 10.9278 20.9277 9.03349 23.3221C7.98126 24.6522 7.01821 25.8935 6.31837 26.8021L6.30903 26.8143L3.55077 25.8955C3.41682 25.155 3.26744 24.2373 3.13495 23.2075C2.9831 22.0274 2.39473 14.8421 2.69751 14.035L7.15393 8.64876C7.54449 8.63846 7.97943 8.65015 8.45106 8.68325C9.51185 8.75768 10.662 8.9325 11.7369 9.13744C12.8085 9.34173 13.7856 9.57207 14.4954 9.75167Z" fill="#FFC600"/>
<path d="M11.0167 24.8889C12.8159 22.6147 14.8283 20.1428 16.2182 18.6343L25.0405 20.2841C25.154 20.594 25.2857 20.9543 25.4315 21.3544C25.9344 22.7345 26.6046 24.5866 27.2744 26.477C27.9449 28.3693 28.6124 30.2923 29.1113 31.8168C29.3468 32.5366 29.5415 33.1577 29.6805 33.6404L24.4219 39.4255C24.1734 39.4082 23.8725 39.3858 23.5281 39.3578C22.4784 39.2725 21.0286 39.135 19.4279 38.927C16.699 38.5723 13.6584 38.0268 11.4008 37.2336L7.97159 28.7985C8.07911 28.6584 8.19618 28.5061 8.32179 28.343C9.01711 27.4403 9.97317 26.208 11.0167 24.8889Z" fill="#FFC600"/>
<path d="M27.8071 20.49C27.6625 20.0934 27.5318 19.7357 27.4188 19.4271L31.8219 12.8525C31.9712 12.8771 32.1296 12.9034 32.2962 12.9315C33.4881 13.1323 35.0908 13.4197 36.7418 13.7667C38.3985 14.1149 40.0768 14.5175 41.43 14.9458C42.0757 15.1502 42.6224 15.3526 43.0467 15.5475L45.6428 23.4341L45.6076 23.496C45.4508 23.7709 45.2235 24.1661 44.9424 24.6446C44.3796 25.6027 43.6042 26.8901 42.7511 28.2134C41.8952 29.541 40.9742 30.884 40.1195 31.9623C39.6922 32.5015 39.2952 32.9569 38.9431 33.3051L32.0028 32.5776C31.8668 32.1252 31.7008 31.6018 31.5142 31.0316C31.0057 29.4777 30.3302 27.5319 29.6576 25.6338C28.9844 23.7339 28.3115 21.8742 27.8071 20.49Z" fill="#FFC600"/>
</svg>
