<svg width="48" height="48" viewBox="0 0 48 48" fill="none" xmlns="http://www.w3.org/2000/svg">
<path d="M24.67 3.30918C24.4239 3.80633 24.1871 4.29129 23.9707 4.73824L16.0538 7.60084C15.9975 7.58492 15.9184 7.56279 15.8188 7.53549C15.6082 7.47776 15.3056 7.39682 14.9333 7.30262C14.1898 7.11452 13.162 6.87206 12.0281 6.65588C10.8975 6.44034 9.64125 6.24704 8.44552 6.16314L8.36057 6.15735L8.60945 5.58889C12.7797 2.10017 18.153 0 24.0172 0C24.7941 0 25.5624 0.0368625 26.3204 0.108932C26.2662 0.207819 26.2119 0.307883 26.1576 0.408648C25.6797 1.29551 25.1549 2.32979 24.67 3.30918Z" fill="#FFC600"/>
<path d="M28.995 0.516126C28.8194 0.812812 28.6133 1.1801 28.3835 1.60647C27.9253 2.45666 27.4151 3.46172 26.936 4.42942C26.7198 4.86622 26.5106 5.29386 26.3164 5.69423L31.151 10.2152C31.4966 10.2693 31.9698 10.3453 32.534 10.4403C33.7465 10.6447 35.3847 10.9383 37.0795 11.2944C38.7684 11.6494 40.5405 12.072 42.0108 12.5374C42.2896 12.6256 42.5615 12.7166 42.823 12.8104L43.5195 9.98962C40.0856 5.22496 34.9463 1.76955 28.995 0.516126Z" fill="#FFC600"/>
<path d="M48 25.2956L47.3739 25.1783C47.249 25.3948 47.1033 25.6455 46.94 25.9235C46.366 26.9007 45.5717 28.2199 44.6937 29.5816C43.8185 30.9392 42.8469 32.3598 41.9187 33.5308C41.455 34.116 40.9881 34.6565 40.5378 35.1016C40.4389 35.1995 40.3371 35.2963 40.233 35.3905L39.2723 40.8168L40.504 41.4521C44.8477 37.3531 47.6616 31.6526 48 25.2956Z" fill="#FFC600"/>
<path d="M38.4099 43.215L37.967 42.9866L29.3251 46.6288L28.5725 47.5689C32.2102 46.871 35.556 45.353 38.4099 43.215Z" fill="#FFC600"/>
<path d="M25.0057 47.98L27.1705 45.2762L24.0268 41.9432C23.7767 41.9255 23.4786 41.9033 23.1405 41.8758C22.0616 41.7881 20.57 41.6468 18.9192 41.4322C16.1345 41.0702 12.7649 40.4845 10.1751 39.5431L7.69633 41.6073C11.9806 45.5747 17.7155 48 24.0172 48C24.3483 48 24.6779 47.9933 25.0057 47.98Z" fill="#FFC600"/>
<path d="M0.771064 30.0557L1.04889 27.2332C1.0349 27.1629 1.02052 27.0897 1.00578 27.0139C0.838806 26.1544 0.626699 24.9431 0.444842 23.5297C0.3448 22.7521 0.25303 21.907 0.183252 21.0206C0.0622955 21.9968 0 22.9911 0 24C0 26.0919 0.26782 28.1212 0.771064 30.0557Z" fill="#FFC600"/>
<path d="M14.3128 9.75167L14.3413 9.75889L14.4829 16.5948C12.9818 18.1773 10.7452 20.9277 8.85087 23.3221C7.79864 24.6522 6.83559 25.8935 6.13575 26.8021L6.12642 26.8143L3.36816 25.8955C3.2342 25.155 3.08482 24.2373 2.95233 23.2075C2.80048 22.0274 2.21211 14.8421 2.5149 14.035L6.97131 8.64876C7.36187 8.63846 7.79681 8.65015 8.26844 8.68325C9.32923 8.75768 10.4794 8.9325 11.5543 9.13744C12.6259 9.34173 13.6029 9.57207 14.3128 9.75167Z" fill="#FFC600"/>
<path d="M10.8341 24.8889C12.6333 22.6147 14.6457 20.1428 16.0356 18.6343L24.8579 20.2841C24.9714 20.594 25.1031 20.9543 25.2489 21.3544C25.7518 22.7345 26.422 24.5866 27.0918 26.477C27.7623 28.3693 28.4298 30.2923 28.9286 31.8168C29.1642 32.5366 29.3589 33.1577 29.4979 33.6404L24.2392 39.4255C23.9907 39.4082 23.6899 39.3858 23.3455 39.3578C22.2958 39.2725 20.8459 39.135 19.2453 38.927C16.5164 38.5723 13.4757 38.0268 11.2182 37.2336L7.78898 28.7985C7.89649 28.6584 8.01356 28.5061 8.13917 28.343C8.8345 27.4403 9.79055 26.208 10.8341 24.8889Z" fill="#FFC600"/>
<path d="M27.6244 20.49C27.4799 20.0934 27.3492 19.7357 27.2362 19.4271L31.6393 12.8525C31.7886 12.8771 31.947 12.9034 32.1136 12.9315C33.3055 13.1323 34.9082 13.4197 36.5592 13.7667C38.2159 14.1149 39.8942 14.5175 41.2474 14.9458C41.8931 15.1502 42.4397 15.3526 42.8641 15.5475L45.4602 23.4341L45.4249 23.496C45.2682 23.7709 45.0408 24.1661 44.7597 24.6446C44.1969 25.6027 43.4216 26.8901 42.5685 28.2134C41.7126 29.541 40.7916 30.884 39.9369 31.9623C39.5096 32.5015 39.1126 32.9569 38.7604 33.3051L31.8201 32.5776C31.6842 32.1252 31.5182 31.6018 31.3316 31.0316C30.8231 29.4777 30.1475 27.5319 29.475 25.6338C28.8017 23.7339 28.1288 21.8742 27.6244 20.49Z" fill="#FFC600"/>
</svg>
