<svg width="48" height="48" viewBox="0 0 48 48" fill="none" xmlns="http://www.w3.org/2000/svg">
<path d="M30.0304 0.763955C28.1035 0.265302 26.0828 0 24 0C21.919 0 19.8999 0.264852 17.9745 0.762686C18.2984 1.05656 18.5652 1.33796 18.7753 1.57997C19.6934 1.29537 21.2821 0.895095 23.3187 0.748498C23.7715 0.71274 24.2362 0.71274 24.6949 0.748498C26.7261 0.894973 28.3148 1.2947 29.233 1.57927C29.4424 1.33742 29.708 1.05676 30.0304 0.763955Z" fill="#FFC600"/>
<path d="M15.2027 1.6636C9.35467 3.96872 4.62974 8.50407 2.07578 14.2217C2.86813 14.7766 4.09052 15.5505 5.30213 16.2779C6.45646 15.1612 9.06194 12.9942 13.4588 11.1361C13.4975 11.1197 13.5363 11.1041 13.5753 11.0894C13.7588 9.71513 14.4297 6.75131 16.8812 3.03568C16.5238 2.64092 15.9629 2.1123 15.2027 1.6636Z" fill="#FFC600"/>
<path d="M1.19359 16.5047C0.419002 18.863 0 21.3826 0 24C0 26.2351 0.305542 28.3989 0.877138 30.4518L3.9052 28.4834C3.50642 26.6721 2.80018 22.3253 4.06115 18.3136C3.27575 17.8415 2.1492 17.1499 1.19359 16.5047Z" fill="#FFC600"/>
<path d="M1.65928 32.7864C3.94251 38.5872 8.41977 43.2843 14.069 45.8554C15.0217 45.3812 15.8649 44.6624 16.4183 44.1263C14.501 41.5387 13.9168 37.7936 13.746 36.1263C11.9177 35.524 7.48675 33.8098 4.95213 30.6458L1.65928 32.7864Z" fill="#FFC600"/>
<path d="M16.8297 46.9106C19.094 47.6185 21.5024 48 24 48C26.4976 48 28.906 47.6185 31.1703 46.9106C30.5041 46.402 29.9612 45.8848 29.5937 45.5056C28.5999 45.7594 26.727 46.1773 24.7248 46.3221C24.4805 46.34 24.2422 46.3519 23.9979 46.3519C23.7596 46.3519 23.5213 46.3459 23.283 46.3281C21.2695 46.1827 19.392 45.7624 18.4024 45.5089C18.0347 45.8876 17.4935 46.4033 16.8297 46.9106Z" fill="#FFC600"/>
<path d="M33.9278 45.8568C39.5796 43.2855 44.0587 38.5866 46.342 32.7832L43.0609 30.6479C40.5175 33.826 36.0655 35.5413 34.249 36.1352C34.0774 37.8112 33.4933 41.5463 31.5781 44.1229C32.1287 44.6584 32.9717 45.3799 33.9278 45.8568Z" fill="#FFC600"/>
<path d="M47.1239 30.4482C47.6948 28.3963 48 26.2338 48 24C48 21.385 47.5818 18.8677 46.8086 16.5113C45.856 17.1542 44.7352 17.841 43.9517 18.3112C45.2147 22.3261 44.5063 26.6747 44.1076 28.4852L47.1239 30.4482Z" fill="#FFC600"/>
<path d="M45.9269 14.2277C45.1351 14.7825 43.9156 15.5537 42.7071 16.2765C41.5478 15.156 38.9329 12.9796 34.5132 11.1124C34.4855 11.1007 34.4578 11.0895 34.43 11.0788C34.2432 9.69949 33.5671 6.7401 31.1237 3.03258C31.4779 2.63921 32.0365 2.11196 32.7969 1.66342C38.6471 3.96929 43.3735 8.50707 45.9269 14.2277Z" fill="#FFC600"/>
<path d="M15.9621 11.2439C15.9837 11.2553 16.0052 11.2671 16.0266 11.2792C17.9092 12.3242 21.3073 14.2988 24.0064 16.3585C26.7017 14.3001 30.1312 12.3047 32.0407 11.2435L32.046 11.2406C31.8611 10.0397 31.2054 7.35249 28.8891 3.96672C28.2516 3.74621 26.6728 3.2754 24.5221 3.12045C24.1766 3.09661 23.831 3.09661 23.4915 3.12045C21.3229 3.2754 19.756 3.74621 19.1245 3.96672C16.8061 7.35558 16.148 10.0446 15.9621 11.2439Z" fill="#FFC600"/>
<path d="M16.1232 35.9144C16.2862 37.4669 16.8505 41.0771 18.6539 43.0979C19.3867 43.2946 21.3646 43.7892 23.4498 43.9382C23.8132 43.9621 24.1826 43.9621 24.546 43.9382C26.6253 43.7892 28.6092 43.2946 29.342 43.0979C31.0195 41.2081 31.6909 37.7703 31.879 35.9088C28.5829 34.1432 25.397 31.871 24.0064 30.8418C22.6131 31.8722 19.4196 34.148 16.1232 35.9144Z" fill="#FFC600"/>
<path d="M33.2561 33.9439C29.8483 32.15 26.4168 29.6649 25.1954 28.759V18.4487C27.793 16.4224 31.2782 14.3961 33.1906 13.3353C33.3097 13.2638 33.4527 13.2579 33.5778 13.3115C38.469 15.3795 40.9296 17.8468 41.4598 18.4189C43.0386 22.543 41.8768 27.6087 41.6385 28.5385C39.5891 31.7388 34.7276 33.479 33.2561 33.9439Z" fill="#FFC600"/>
<path d="M6.36919 28.5384C8.42459 31.7506 13.2801 33.4849 14.7516 33.9498C18.1594 32.1559 21.597 29.6707 22.8124 28.7649V18.4427C20.2029 16.4045 16.7534 14.402 14.8648 13.3531L14.8589 13.3472C14.7159 13.2637 14.5431 13.2578 14.3882 13.3233C9.53271 15.3794 7.08411 17.8289 6.54792 18.4069C4.96318 22.543 6.13088 27.6027 6.36919 28.5384Z" fill="#FFC600"/>
</svg>
