<svg width="48" height="48" viewBox="0 0 48 48" fill="none" xmlns="http://www.w3.org/2000/svg">
<path d="M48 48V43.425C48 42.525 47.78 41.8 47.34 41.25C46.9 40.7 46.32 40.425 45.6 40.425H44.4V48H48ZM41.76 48V40.425H31.26L28.68 31.575L25.74 40.65L28.5 46.425C28.7 46.975 28.99 47.375 29.37 47.625C29.75 47.875 30.18 48 30.66 48H41.76ZM3.6 48V40.425H2.4C1.68 40.425 1.1 40.7 0.659996 41.25C0.219997 41.8 0 42.525 0 43.425V48H3.6ZM6.24 48H17.34C17.82 48 18.25 47.875 18.63 47.625C19.01 47.375 19.3 46.975 19.5 46.425L35.1374 3.51931C35.7606 1.80924 34.4943 0 32.6742 0C31.5728 0 30.5889 0.688444 30.2114 1.72316L24 18.75L17.7893 1.72517C17.4114 0.689249 16.4263 0 15.3236 0C13.5032 0 12.2356 1.80801 12.8562 3.51939L21.18 26.475L16.74 40.425H6.24V48Z" fill="#FFC600"/>
</svg>
