<svg width="48" height="48" viewBox="0 0 48 48" fill="none" xmlns="http://www.w3.org/2000/svg">
<path d="M19.8917 15.6709C20.7726 18.8938 22.6816 21.2861 25.6187 22.8478L43.4074 32.3062C44.041 31.1148 44.6344 29.982 45.1878 28.9078C45.7411 27.8337 46.1179 26.9411 46.3183 26.2302L35.0964 20.2634C33.4893 19.4089 32.4299 18.1259 31.9183 16.4144C31.4066 14.7029 31.5928 13.0159 32.4767 11.3534C33.1397 10.1065 33.989 9.12754 35.0246 8.41645C36.0602 7.70536 37.4246 7.46227 39.1176 7.68718L45.1412 8.49087C44.0722 6.89176 42.9582 5.54421 41.7994 4.44824C40.6406 3.35227 39.2854 2.39177 37.7337 1.56673C34.6858 -0.0538742 31.5292 -0.417231 28.2638 0.476663C24.9985 1.37056 22.5555 3.34146 20.9349 6.38938C19.3585 9.35418 19.0107 12.448 19.8917 15.6709Z" fill="#FFC600"/>
<path d="M36.6717 17.9022L47.3533 23.5817C47.8711 21.4047 48.078 19.3111 47.9739 17.3009C47.8698 15.2908 47.4492 13.3078 46.712 11.352L38.897 10.6087C38.044 10.4751 37.2832 10.5858 36.6144 10.9411C35.9457 11.2964 35.3977 11.8758 34.9705 12.6793C34.4696 13.6214 34.3716 14.5912 34.6765 15.5885C34.9814 16.5859 35.6465 17.3571 36.6717 17.9022Z" fill="#FFC600"/>
<path d="M0 2.68882C0 2.06488 0.505802 1.55908 1.12974 1.55908H19.7705C20.3944 1.55908 20.9002 2.06488 20.9002 2.68882C20.9002 3.31276 20.3944 3.81856 19.7705 3.81856H1.12974C0.505802 3.81856 0 3.31276 0 2.68882Z" fill="#FFC600"/>
<path d="M4.64004 10.597C4.64004 9.97307 5.14585 9.46726 5.76978 9.46726H16.3813C17.0052 9.46726 17.511 9.97307 17.511 10.597C17.511 11.2209 17.0052 11.7267 16.3813 11.7267H5.76979C5.14585 11.7267 4.64004 11.2209 4.64004 10.597Z" fill="#FFC600"/>
<path d="M6.9802 18.5052C6.9802 17.8812 7.486 17.3754 8.10994 17.3754H17.2958C17.9197 17.3754 18.4255 17.8812 18.4255 18.5052C18.4255 19.1291 17.9197 19.6349 17.2958 19.6349H8.10994C7.486 19.6349 6.9802 19.1291 6.9802 18.5052Z" fill="#FFC600"/>
<path d="M15 28.5C12.6 31.7 4 43 0 48H24L26 46L18 40L19 38.5L31.5 48H48C41 41 26.4 26.2 24 25C21 23.5 18 24.5 15 28.5Z" fill="#FFC600"/>
</svg>
