<svg width="48" height="48" viewBox="0 0 48 48" fill="none" xmlns="http://www.w3.org/2000/svg">
<path d="M25.1684 40.5309C28.4751 36.7407 29.1223 34.782 28.0168 32.6574C26.9113 30.5329 22.7995 24.7615 18.1747 24.5471C13.5499 24.3326 12.0661 28.4872 12.0661 28.4872C12.0661 28.4872 11.7196 25.6308 15.0437 24.4307C15.0774 23.8352 13.3325 22.644 11.6427 23.1397C9.95281 23.6354 8.93218 25.4052 8.13828 26.9955C8.13828 26.9955 7.52425 30.3277 6.92749 31.1835C6.33065 32.0398 5.27658 33.5961 5.24343 34.5465C5.21028 35.4969 6.83412 38.2469 8.47828 40.3132C10.1224 42.38 11.036 43.5142 12.1412 44.2699C13.3768 45.1162 21.8617 44.3211 25.1684 40.5309Z" fill="#FFC600"/>
<path d="M3.07519 40.8342C2.94022 42.0334 5.90898 45.6779 7.36078 47.2821C7.43618 47.3653 7.55353 47.3866 7.65177 47.3346C9.27993 46.4701 11.4339 45.3093 11.3799 45.2492C8.67351 42.2593 6.95251 39.9024 5.91809 38.318C5.84317 38.2033 5.69697 38.1709 5.58277 38.2431C4.84426 38.7077 3.18806 39.8294 3.07519 40.8342Z" fill="#FFC600"/>
<path d="M3.63769 43.5817C2.82434 42.4183 1.94636 40.8542 2.01592 40.236C2.14803 39.0622 4.06094 37.5976 4.84648 37.0386C4.95794 36.959 4.99007 36.8036 4.92288 36.6821C4.68172 36.2475 4.57828 36.0201 4.57828 36.0201C2.22549 37.0013 0.219747 39.8329 0.00676894 40.4542C-0.173443 40.9799 3.28581 46.2122 5.47701 47.8076C5.77102 48.0221 6.26813 48.0654 6.58885 47.8962C6.75254 47.8098 6.93857 47.7122 7.13872 47.6061C6.6422 47.0938 4.89181 45.3756 3.63769 43.5817Z" fill="#FFC600"/>
<path d="M26.3746 27.7976C22.1592 22.4356 18.7656 23.7453 17.5729 23.4667C18.0977 22.056 20.3924 20.4403 22.1207 21.1901C22.8993 21.5279 23.767 23.1162 23.766 23.8496C24.2354 23.7119 25.8501 23.2383 26.6209 24.269C27.3916 25.2998 27.6153 26.7759 27.4404 27.2462C27.9365 27.2054 29.0938 27.5027 29.5112 28.1344C29.9286 28.766 29.9305 29.6578 29.8089 30.3219C30.9127 30.3731 31.0348 31.458 30.9933 32.4128C30.96 33.1766 29.918 34.404 29.5019 34.7355C29.8859 32.813 28.5862 30.6106 26.3746 27.7976Z" fill="#FFC600"/>
<path d="M22.8316 19.5309C19.5249 15.7407 18.8777 13.782 19.9832 11.6574C21.0887 9.53288 25.2005 3.76153 29.8253 3.54706C34.4501 3.33258 35.9339 7.48718 35.9339 7.48718C35.9339 7.48718 36.2804 4.63078 32.9563 3.43071C32.9226 2.83523 34.6675 1.644 36.3573 2.1397C38.0472 2.63539 39.0678 4.40523 39.8617 5.99549C39.8617 5.99549 40.4758 9.32775 41.0725 10.1835C41.6694 11.0398 42.7234 12.5961 42.7566 13.5465C42.7897 14.4969 41.1659 17.2469 39.5217 19.3132C37.8776 21.38 36.964 22.5142 35.8588 23.2699C34.6232 24.1162 26.1383 23.3211 22.8316 19.5309Z" fill="#FFC600"/>
<path d="M44.9248 19.8342C45.0598 21.0334 42.091 24.6779 40.6392 26.2821C40.5638 26.3653 40.4465 26.3866 40.3482 26.3346C38.7201 25.4701 36.5661 24.3093 36.6201 24.2492C39.3265 21.2593 41.0475 18.9024 42.0819 17.318C42.1568 17.2033 42.303 17.1709 42.4172 17.2431C43.1557 17.7077 44.8119 18.8294 44.9248 19.8342Z" fill="#FFC600"/>
<path d="M44.3623 22.5817C45.1757 21.4183 46.0536 19.8542 45.9841 19.236C45.852 18.0622 43.9391 16.5976 43.1535 16.0386C43.0421 15.959 43.0099 15.8036 43.0771 15.6821C43.3183 15.2475 43.4217 15.0201 43.4217 15.0201C45.7745 16.0013 47.7803 18.8329 47.9932 19.4542C48.1734 19.9799 44.7142 25.2122 42.523 26.8076C42.229 27.0221 41.7319 27.0654 41.4111 26.8962C41.2475 26.8098 41.0614 26.7122 40.8613 26.6061C41.3578 26.0938 43.1082 24.3756 44.3623 22.5817Z" fill="#FFC600"/>
<path d="M21.6254 6.79756C25.8408 1.43565 29.2344 2.74529 30.4271 2.46673C29.9023 1.05596 27.6076 -0.55975 25.8793 0.190122C25.1007 0.527919 24.233 2.11616 24.234 2.84961C23.7646 2.71192 22.1499 2.23827 21.3791 3.26903C20.6084 4.29979 20.3847 5.77591 20.5596 6.24617C20.0635 6.20539 18.9062 6.5027 18.4888 7.13437C18.0714 7.76604 18.0695 8.65783 18.1911 9.32191C17.0873 9.37309 16.9652 10.458 17.0067 11.4128C17.04 12.1766 18.082 13.404 18.4981 13.7355C18.1141 11.813 19.4138 9.61059 21.6254 6.79756Z" fill="#FFC600"/>
</svg>
