<svg width="48" height="48" viewBox="0 0 48 48" fill="none" xmlns="http://www.w3.org/2000/svg">
<path d="M34.8211 47.9083L34.9267 47.9348C35.4551 48.0054 36.0099 47.9966 36.5383 47.9966C38.1059 48.0142 39.6558 47.9789 41.1704 47.5024C43.0286 46.92 44.6401 45.967 45.829 44.3962C46.1548 43.955 46.4366 43.452 46.692 42.9666C47.784 40.8664 48.0394 38.3426 47.9953 36.0129C47.9865 35.5982 48.0305 35.051 47.9073 34.6627C47.2204 35.4217 46.4542 36.1011 45.7409 36.8336C44.0765 38.5455 42.4034 40.2575 40.7125 41.9342C39.7438 42.9048 38.7575 43.8402 37.7888 44.8109C37.2428 45.3493 36.7321 45.914 36.1948 46.4612C35.9307 46.717 34.8563 47.6701 34.8211 47.9083ZM2.82771 2.79736C4.29835 1.2619 6.43828 0.370615 8.51656 0.114723C9.2123 0.0264456 9.91679 0.0176663 10.6125 0H10.8326L13.2896 0.0706113L1.22495 12.1514C0.846284 12.522 0.485197 12.928 0.0713255 13.2632C0.0536957 12.5661 -0.00795756 11.869 0.0008574 11.1718C0.0273022 8.17152 0.687777 5.03882 2.82771 2.79736ZM0.397153 16.3783C0.494009 16.7225 0.538029 17.0843 0.617309 17.4373C0.837468 18.4609 1.04 19.4934 1.30418 20.4994C2.4226 24.7175 4.32474 28.8474 6.84339 32.4213C7.79443 33.7803 8.80719 35.0687 9.93442 36.2864C14.4696 41.1752 20.3259 44.7139 26.7105 46.5582C28.2428 47.0083 29.8367 47.3171 31.4042 47.5907L31.5628 47.6259C31.686 47.6259 31.7741 47.5113 31.8445 47.4407C34.9267 44.2815 38.0794 41.1929 41.1969 38.0602C42.4121 36.8424 43.601 35.5982 44.8075 34.3627C45.7233 33.4273 46.6479 32.5096 47.5462 31.5565C47.3613 30.0652 46.9826 28.5827 46.5687 27.1266C45.7849 24.3557 44.6842 21.7348 43.3104 19.2022C42.6939 18.0726 42.0334 16.9343 41.2937 15.893C40.6773 15.0194 40.0344 14.1104 39.3475 13.2986C36.8201 10.2894 33.7203 7.60674 30.3739 5.54177C26.1732 2.94742 21.3738 1.21779 16.5304 0.379448L16.4334 0.370615L0.397153 16.3783ZM10.8679 12.7956C10.8679 12.7956 10.0136 12.0808 9.83751 11.5689L9.81993 11.516C9.73184 11.2513 9.77586 10.9424 9.90798 10.6865C10.0401 10.4218 10.3218 10.2188 10.6037 10.1305C10.9736 10.007 11.3434 10.0688 11.6692 10.2541C12.0303 10.4483 12.6203 11.1189 12.6203 11.1189L15.2711 13.7398C15.2711 13.7398 33.2449 31.6993 37.3661 35.907C37.6127 36.1453 37.9033 36.3923 38.097 36.6747C38.2203 36.8512 38.3084 37.0542 38.3084 37.2748C38.3084 37.3454 38.2996 37.416 38.2819 37.4777L38.2732 37.5307C38.2027 37.8572 38.0002 38.2014 37.7184 38.369C37.4542 38.5367 37.0315 38.5808 36.7321 38.5014C36.2829 38.3779 35.8602 37.7955 35.5432 37.4777C35.2526 37.1777 34.9444 36.8953 34.6537 36.5865C27.0766 28.9891 18.7712 20.5631 10.8679 12.7956Z" fill="#FFC600"/>
</svg>
