<svg width="48" height="48" viewBox="0 0 48 48" fill="none" xmlns="http://www.w3.org/2000/svg">
<path d="M0.430192 14.0672C1.23021 16.9602 2.96389 19.1077 5.63123 20.5095L21.7863 29C22.3616 27.9305 22.9006 26.9136 23.4031 25.9494C23.9056 24.9852 24.2479 24.184 24.4298 23.5458L14.2385 18.1896C12.779 17.4226 11.8169 16.2709 11.3523 14.7345C10.8876 13.1982 11.0567 11.6838 11.8594 10.1915C12.4615 9.07222 13.2328 8.19342 14.1733 7.5551C15.1138 6.91679 16.3529 6.69858 17.8904 6.90047L23.3608 7.62191C22.39 6.18645 21.3783 4.97682 20.326 3.99301C19.2736 3.0092 18.0428 2.147 16.6336 1.40639C13.8656 -0.0483607 10.9989 -0.374532 8.03345 0.427881C5.068 1.23029 2.84939 2.9995 1.37762 5.73549C-0.0540151 8.39687 -0.369823 11.1741 0.430192 14.0672Z" fill="#FFC600"/>
<path d="M15.6692 16.0701L25.3697 21.1684C25.84 19.2141 26.0279 17.3348 25.9334 15.5303C25.8388 13.7259 25.4568 11.9459 24.7874 10.1902L17.6901 9.52303C16.9154 9.40303 16.2245 9.50249 15.6171 9.82141C15.0098 10.1403 14.5122 10.6604 14.1242 11.3817C13.6693 12.2274 13.5803 13.0979 13.8572 13.9932C14.1341 14.8885 14.7381 15.5808 15.6692 16.0701Z" fill="#FFC600"/>
<path d="M0.999926 33L17 48H32L39 43L35 36L23.5 42C18.5 37 7.8 26 5 26C1.5 26 -1.5 28.5 0.999926 33Z" fill="#FFC600"/>
<path d="M40.5 31.5L39.5 29C39.5 29 37.5 31 37 32C36.5 32.9999 37 35 37 35L40.5 42L47 41C47.1667 40.1667 48 38 48 35C48 32.1716 46.5 30.6667 46 30.5L40.5 31.5Z" fill="#FFC600"/>
<path d="M38.5 20C40.5 20 41.5 27 42 30L45.5 29.5C45.5 25 43 17.5 41.5 16C40.5 15 37 13.5 36 15.5C34.1395 19.2209 34.5 25.5 35.5 30.5L38 28C37.5 23 37.5 20 38.5 20Z" fill="#FFC600"/>
<path d="M45.5 43L42 43.5C42 43.5 41.5 46 41 46C40.5 46 39.5 44.5 39.5 44.5L37.5 46C38 46.8333 39 48.0001 39 48.0001H44C44.8755 46.4003 45.2314 45.3339 45.5 43Z" fill="#FFC600"/>
<path d="M13.5 48.0001L0 35V48L13.5 48.0001Z" fill="#FFC600"/>
</svg>
