<svg width="48" height="48" viewBox="0 0 48 48" fill="none" xmlns="http://www.w3.org/2000/svg">
<path d="M25.8466 3.5185C26.7359 5.1064 45.8219 42.0494 46.011 42.4227L45.8739 41.8467C45.8739 43.9537 44.1657 45.667 42.0596 45.667H5.94575C3.83824 45.667 2.12748 43.9537 2.12748 41.8467L1.997 42.4052C2.18073 42.0348 20.5825 5.2595 21.6915 3.30416C22.0323 2.70049 22.7792 2.32722 23.6485 2.33159C24.3927 2.33596 25.358 2.64654 25.8466 3.5185ZM19.8835 2.07788C18.7479 4.08425 0.891995 39.7689 0.133134 41.2868L0 41.5507V41.8482C0 45.2398 2.66933 48 5.94575 48H42.0582C45.332 48 48 45.2398 48 41.8482V41.5405L47.8642 41.2751C47.0721 39.7514 28.5665 3.92678 27.6585 2.29951C26.857 0.866176 25.362 0.00734146 23.6605 5.0843e-05C22.0323 -0.00723977 20.6224 0.769939 19.8835 2.07788Z" fill="#FFC600"/>
<path d="M29.335 13.6688C29.335 16.7975 26.7948 19.3363 23.6688 19.3363C20.5349 19.3363 18 16.7975 18 13.6688C18 10.5389 20.5349 8 23.6688 8C26.7948 8 29.335 10.5389 29.335 13.6688Z" fill="#FFC600"/>
<path d="M23.339 25.237C23.339 28.3683 20.7988 30.9058 17.6675 30.9058C14.5389 30.9058 12 28.3683 12 25.237C12 22.111 14.5389 19.5708 17.6675 19.5708C20.7975 19.5708 23.339 22.111 23.339 25.237Z" fill="#FFC600"/>
<path d="M35.5033 25.237C35.5033 28.3683 32.9658 30.9058 29.8318 30.9058C26.7085 30.9058 24.167 28.3683 24.167 25.237C24.167 22.111 26.7098 19.5708 29.8318 19.5708C32.9658 19.5708 35.5033 22.111 35.5033 25.237Z" fill="#FFC600"/>
<path d="M17.3363 37.6688C17.3363 40.7948 14.8001 43.335 11.6702 43.335C8.54019 43.335 6 40.7948 6 37.6688C6 34.5375 8.54019 32 11.6702 32C14.8001 32 17.3363 34.5375 17.3363 37.6688Z" fill="#FFC600"/>
<path d="M29.6736 37.6688C29.6736 40.7948 27.1334 43.335 24.0048 43.335C20.8748 43.335 18.3359 40.7948 18.3359 37.6688C18.3359 34.5375 20.8748 32 24.0048 32C27.1334 32 29.6736 34.5375 29.6736 37.6688Z" fill="#FFC600"/>
<path d="M42.0062 37.6688C42.0062 40.7948 39.4713 43.335 36.34 43.335C33.214 43.335 30.6738 40.7948 30.6738 37.6688C30.6738 34.5375 33.214 32 36.34 32C39.4713 32 42.0062 34.5375 42.0062 37.6688Z" fill="#FFC600"/>
</svg>
