<svg width="48" height="48" viewBox="0 0 48 48" fill="none" xmlns="http://www.w3.org/2000/svg">
<path d="M47.3327 43.3531C46.278 44.6336 45.2224 45.9153 44.1677 47.1958C43.4198 48.1027 42.1758 48.2678 41.4032 47.5619C37.1332 43.6942 32.8622 39.8265 28.5923 35.9598C27.8187 35.254 27.6631 34.0976 28.245 33.39C29.0739 32.3837 29.9027 31.3773 30.7325 30.3699C31.3145 29.6633 32.4793 29.5944 33.3212 30.2183C37.9355 33.668 42.5499 37.1188 47.1632 40.5686C48.0032 41.1927 48.0795 42.4453 47.3327 43.3531ZM43.989 40.4125L33.5942 31.8519C33.3078 31.616 32.8853 31.6568 32.6504 31.9431C32.4145 32.2295 32.4554 32.652 32.7417 32.8869L43.1365 41.4475C43.2791 41.565 43.4569 41.614 43.6273 41.5975C43.7977 41.581 43.9628 41.4989 44.0803 41.3563C44.3153 41.071 44.2744 40.6485 43.989 40.4125Z" fill="#FFC600"/>
<path d="M23.5393 5.02896C23.8351 8.08769 21.5953 10.8071 18.5365 11.1029C15.4778 11.3987 12.7584 9.15889 12.4626 6.10016C12.1668 3.04143 14.4066 0.322036 17.4653 0.0262326C20.5241 -0.269571 23.2435 1.97023 23.5393 5.02896Z" fill="#FFC600"/>
<path d="M26.166 6.11759C25.9049 10.0444 22.8337 13.318 18.7886 13.7092C14.529 14.1211 10.717 11.1893 9.95517 7.05755C8.2401 8.23933 6.58645 9.79174 5.00298 11.7143C-2.70978 21.0785 -1.4861 30.3958 8.54395 38.6578C12.4243 41.8539 17.3212 43.2581 22.1057 42.7954C24.8614 42.5289 27.5807 41.643 30.0472 40.1221C30.5523 39.8097 31.066 39.4486 31.6643 38.9846C32.1036 38.6439 32.184 38.0123 31.8433 37.573C31.5026 37.1337 30.8691 37.0545 30.4318 37.395C29.8911 37.8127 29.4338 38.1358 28.99 38.4087C25.8766 40.3282 22.3113 41.1136 18.8402 40.8021L36.2039 19.7215C37.1719 23.0596 37.088 26.6985 35.8116 30.1118C35.6262 30.605 35.3946 31.1251 35.0804 31.7488C34.8302 32.2452 35.0301 32.8498 35.5266 33.1C36.0218 33.3482 36.6275 33.1502 36.8777 32.6538C37.2242 31.9638 37.4843 31.3799 37.6955 30.817C40.4669 23.4085 38.2279 15.0535 32.1258 10.0266C30.1102 8.36665 28.1209 7.06381 26.166 6.11759Z" fill="#FFC600"/>
</svg>
