<svg width="45" height="48" viewBox="0 0 45 48" fill="none" xmlns="http://www.w3.org/2000/svg">
<path d="M44.1434 43.737C43.7029 43.6826 42.8623 43.0513 42.5481 42.7379L34.291 34.5104L31.3316 37.4698L39.5592 45.7268C39.8725 46.0411 40.5039 46.8816 40.5582 47.3222C40.596 47.6254 40.7942 47.901 41.0873 47.9885C41.8458 48.2153 45.0365 45.0245 44.8098 44.266C44.7222 43.9729 44.4467 43.7738 44.1434 43.737Z" fill="#FFC600"/>
<path d="M32.8738 32.6431L33.4922 33.6661L30.4683 36.69L29.4452 36.0716C25.6066 33.7528 21.3117 33.7574 18.7449 33.7601H18.4813C18.4445 33.7601 18.4104 33.7518 18.3735 33.7491C13.9911 33.868 9.26304 32.032 5.58567 28.3547C-0.824379 21.9446 -1.65018 12.3392 3.74606 6.94299C7.41882 3.27023 13.0409 2.48314 18.2786 4.37344C17.8436 5.2831 17.5026 6.24622 17.2961 7.26003C13.1312 5.72825 8.73401 6.27018 5.90363 9.10056C1.69724 13.307 2.52211 20.976 7.74324 26.1962C12.9634 31.4164 20.6334 32.2422 24.8398 28.0358C26.4139 26.4616 27.2821 24.4027 27.4803 22.1686C28.1807 22.2902 28.8978 22.3667 29.6323 22.3667C29.9466 22.3667 30.2544 22.3428 30.5623 22.3197C30.565 24.9169 30.6655 28.986 32.8738 32.6431ZM29.3945 32.5915C28.8102 31.338 28.4075 30.0837 28.1291 28.8745C27.7872 29.3362 27.413 29.7795 26.9973 30.1943C26.5817 30.6099 26.1393 30.9841 25.6766 31.3261C26.8868 31.6044 28.1402 32.0072 29.3945 32.5915Z" fill="#FFC600"/>
<path d="M27.0655 10.776C25.7885 11.5129 24.3535 11.8786 22.8927 11.8786C21.6928 11.8786 20.476 11.6317 19.315 11.1419C19.9415 15.9044 23.9716 19.5946 28.8824 19.6895C28.5397 16.0907 30.1551 12.6833 33.0999 10.9828C34.8548 9.96887 36.8865 9.64076 38.921 10.0258C38.9221 9.96573 38.9227 9.90555 38.9227 9.84524C38.9227 5.04194 35.4832 1.04197 30.9328 0.173804C32.1506 4.34864 30.6321 8.71684 27.0655 10.776Z" fill="#FFC600"/>
<path d="M28.94 0C30.3077 3.57279 29.1629 7.44752 26.1486 9.18783C24.0969 10.3727 21.5001 10.32 19.2598 9.07821C19.6477 4.0435 23.8223 0.069561 28.94 0Z" fill="#FFC600"/>
<path d="M38.7171 11.8562C37.0691 11.5142 35.4247 11.7588 34.0177 12.5711C31.6877 13.9155 30.4204 16.6517 30.7117 19.5562C34.7134 18.8873 37.8977 15.8048 38.7171 11.8562Z" fill="#FFC600"/>
</svg>
