<svg width="61" height="62" viewBox="0 0 61 62" fill="none" xmlns="http://www.w3.org/2000/svg">
<path d="M23.1116 1.51561C25.5084 0.910164 28.0183 0.588501 30.6034 0.588501C35.1232 0.588501 39.4131 1.57182 43.2705 3.33598C43.9961 9.1281 43.6234 15.0189 42.159 20.8633C41.4459 23.7102 40.4874 26.4462 39.3142 29.0411C36.2662 26.8262 33.1326 24.7792 29.8846 22.8814C30.1761 22.1024 30.4105 21.2976 30.5848 20.4708C32.0461 13.5293 28.9427 6.1149 23.1116 1.51561Z" fill="#FFC600"/>
<path d="M47.5472 5.72626C55.1937 10.848 60.3891 19.3382 61.0048 29.0706C55.8655 29.8011 51.3138 32.3546 48.0444 36.0445C46.2544 34.4677 44.4426 32.9615 42.6022 31.5214C44.0505 28.4661 45.2202 25.225 46.0678 21.8406C47.4109 16.4776 47.9059 11.0744 47.5472 5.72626Z" fill="#FFC600"/>
<path d="M60.9928 33.1481C60.6916 37.5022 59.4735 41.6043 57.5299 45.2629C55.3808 42.9753 53.2165 40.8082 51.0243 38.7533C53.5531 35.8794 57.0416 33.8475 60.9928 33.1481Z" fill="#FFC600"/>
<path d="M55.3244 48.8046C53.3002 51.6073 50.8101 54.052 47.9674 56.0254C47.2029 54.0813 46.8075 52.0039 46.8075 49.8797C46.8075 47.0841 47.4957 44.4437 48.7139 42.1147C50.9415 44.221 53.1403 46.4479 55.3244 48.8046Z" fill="#FFC600"/>
<path d="M44.4725 58.1202C40.3127 60.2488 35.5984 61.4497 30.6034 61.4497C24.5624 61.4497 18.9321 59.6932 14.1965 56.6635C25.0882 53.5631 34.623 45.7085 40.6977 35.1578C42.374 36.4863 44.0263 37.8723 45.6601 39.3192C43.8276 42.4243 42.777 46.033 42.777 49.8797C42.777 52.7405 43.3563 55.5333 44.4725 58.1202Z" fill="#FFC600"/>
<path d="M10.0782 53.5057C4.07178 48.0316 0.266478 40.1884 0.143555 31.4557C2.22907 32.7022 4.54399 33.6071 6.99509 34.1227C12.252 35.2277 17.5849 34.4434 22.0186 31.9143C24.4902 30.5037 26.5205 28.6465 28.018 26.4652C31.277 28.3785 34.4176 30.4478 37.4706 32.6931C31.3843 43.5595 21.368 51.3706 10.0782 53.5057Z" fill="#FFC600"/>
<path d="M0.433618 26.7806C0.984937 22.8286 2.29606 19.1196 4.21479 15.8057C11.5549 18.266 18.2448 21.1129 24.4846 24.4768C23.3465 26.0394 21.8378 27.3795 20.0193 28.4169C16.4438 30.4567 12.112 31.0829 7.82584 30.1831C5.08144 29.6058 2.5522 28.4388 0.433618 26.7806Z" fill="#FFC600"/>
<path d="M6.54827 12.346C13.6729 14.7885 20.2027 17.5947 26.3138 20.8796C26.4432 20.4745 26.5525 20.0613 26.641 19.641C27.9415 13.4661 24.3495 6.52788 18.3326 3.15813C13.6779 5.20682 9.63372 8.38537 6.54827 12.346Z" fill="#FFC600"/>
<rect x="30.5742" y="31.019" width="30.4306" height="30.4306" rx="14.0449" fill="#2C3538"/>
<path d="M54.6607 37.5628L47.7736 56.5549H43.8169L36.9174 37.5628H40.8864L45.6963 52.1778H45.8941L50.6916 37.5628H54.6607Z" fill="#FFC600"/>
</svg>
