<svg width="61" height="62" viewBox="0 0 61 62" fill="none" xmlns="http://www.w3.org/2000/svg">
<path d="M31.4237 4.63603C31.1116 5.2664 30.8114 5.8813 30.537 6.448L20.4989 10.0776C20.4275 10.0574 20.3271 10.0294 20.2009 9.99476C19.9338 9.92156 19.5502 9.81893 19.0781 9.69949C18.1354 9.46099 16.8323 9.15356 15.3945 8.87946C13.9609 8.60616 12.3681 8.36107 10.852 8.25469L10.7443 8.24735L11.0598 7.52658C16.3475 3.10309 23.1606 0.440186 30.596 0.440186C31.5811 0.440186 32.5552 0.486925 33.5163 0.578306C33.4476 0.703688 33.3788 0.830563 33.3099 0.958328C32.7039 2.08282 32.0385 3.39422 31.4237 4.63603Z" fill="#FFC600"/>
<path d="M36.9075 1.0946C36.6849 1.47079 36.4235 1.93649 36.1322 2.4771C35.5513 3.55509 34.9043 4.82945 34.2969 6.05644C34.0227 6.61027 33.7575 7.1525 33.5112 7.66014L39.6413 13.3924C40.0794 13.4611 40.6795 13.5574 41.3948 13.6779C42.9322 13.937 45.0093 14.3093 47.1582 14.7609C49.2996 15.2109 51.5466 15.7468 53.4109 16.3369C53.7643 16.4488 54.1091 16.5642 54.4406 16.6831L55.3238 13.1065C50.9698 7.06514 44.4535 2.68387 36.9075 1.0946Z" fill="#FFC600"/>
<path d="M61.0048 32.5135L60.211 32.3648C60.0525 32.6394 59.8678 32.9572 59.6608 33.3097C58.9329 34.5487 57.9258 36.2214 56.8126 37.948C55.7029 39.6693 54.471 41.4705 53.2941 42.9553C52.7061 43.6973 52.1142 44.3826 51.5432 44.9471C51.4177 45.0711 51.2887 45.1939 51.1567 45.3133L49.9386 52.1936L51.5003 52.9991C57.0078 47.8018 60.5757 40.5738 61.0048 32.5135Z" fill="#FFC600"/>
<path d="M48.8451 55.2343L48.2835 54.9447L37.3261 59.5629L36.3719 60.7548C40.9842 59.8699 45.2265 57.9452 48.8451 55.2343Z" fill="#FFC600"/>
<path d="M31.8494 61.2761L34.5941 57.8478L30.6081 53.6217C30.291 53.5994 29.9131 53.5711 29.4844 53.5363C28.1164 53.4251 26.2251 53.2459 24.132 52.9738C20.6011 52.5148 16.3288 51.7722 13.045 50.5786L9.90205 53.1958C15.3343 58.2263 22.6057 61.3014 30.596 61.3014C31.0158 61.3014 31.4337 61.2929 31.8494 61.2761Z" fill="#FFC600"/>
<path d="M1.12122 38.5491L1.47348 34.9703C1.45575 34.8811 1.43751 34.7884 1.41883 34.6923C1.20711 33.6024 0.938173 32.0666 0.707589 30.2745C0.580741 29.2886 0.464383 28.217 0.375908 27.0931C0.222542 28.3308 0.143555 29.5916 0.143555 30.8708C0.143555 33.5232 0.483135 36.0963 1.12122 38.5491Z" fill="#FFC600"/>
<path d="M18.2914 12.8047L18.3275 12.8139L18.507 21.4814C16.6038 23.488 13.7679 26.9753 11.366 30.0113C10.0318 31.6977 8.81069 33.2717 7.92333 34.4238L7.9115 34.4391L4.41419 33.2742C4.24434 32.3352 4.05493 31.1717 3.88694 29.866C3.69441 28.3696 2.94838 19.2591 3.3323 18.2358L8.98277 11.4063C9.47798 11.3933 10.0295 11.4081 10.6275 11.45C11.9725 11.5444 13.4308 11.7661 14.7938 12.0259C16.1525 12.285 17.3913 12.577 18.2914 12.8047Z" fill="#FFC600"/>
<path d="M13.8806 31.9979C16.1619 29.1143 18.7135 25.98 20.4758 24.0674L31.6619 26.1592C31.8059 26.5522 31.9728 27.009 32.1577 27.5164C32.7954 29.2662 33.6451 31.6146 34.4944 34.0116C35.3446 36.4108 36.1909 38.8491 36.8234 40.782C37.1221 41.6948 37.369 42.4823 37.5452 43.0942L30.8775 50.4295C30.5624 50.4075 30.181 50.3791 29.7443 50.3436C28.4133 50.2354 26.575 50.0612 24.5455 49.7974C21.0854 49.3476 17.23 48.6559 14.3676 47.6503L10.0195 36.955C10.1559 36.7774 10.3043 36.5843 10.4636 36.3775C11.3452 35.2329 12.5574 33.6704 13.8806 31.9979Z" fill="#FFC600"/>
<path d="M35.1698 26.4203C34.9865 25.9174 34.8207 25.4639 34.6775 25.0727L40.2604 16.7364C40.4497 16.7676 40.6505 16.801 40.8617 16.8366C42.373 17.0912 44.4052 17.4556 46.4985 17.8955C48.5991 18.337 50.7271 18.8475 52.4429 19.3906C53.2616 19.6497 53.9547 19.9064 54.4927 20.1536L57.7845 30.1533L57.7398 30.2318C57.541 30.5803 57.2528 31.0814 56.8963 31.6881C56.1828 32.9029 55.1997 34.5353 54.1179 36.2132C53.0327 37.8964 51.865 39.5993 50.7813 40.9665C50.2394 41.6502 49.7361 42.2276 49.2896 42.6691L40.4897 41.7467C40.3173 41.1732 40.1068 40.5094 39.8702 39.7865C39.2255 37.8163 38.3689 35.3491 37.5161 32.9424C36.6625 30.5334 35.8093 28.1754 35.1698 26.4203Z" fill="#FFC600"/>
<rect x="30.5742" y="30.8707" width="30.4306" height="30.4306" rx="14.0449" fill="#2C3538"/>
<path d="M54.6607 37.4144L47.7736 56.4066H43.8169L36.9174 37.4144H40.8864L45.6963 52.0295H45.8941L50.6916 37.4144H54.6607Z" fill="#FFC600"/>
</svg>
