<svg width="49" height="48" viewBox="0 0 49 48" fill="none" xmlns="http://www.w3.org/2000/svg">
<path fill-rule="evenodd" clip-rule="evenodd" d="M37.4148 29.7219C37.4148 33.8371 36.3432 37.8125 34.1989 41.6156C33.0222 43.7031 31.5645 45.6247 29.8835 47.3188C33.304 46.4855 36.4374 44.9192 39.1079 42.7958L39.0932 42.7854C43.4668 36.5985 44.2317 26.6562 42.49 20.5863C41.3197 20.4156 40.1304 20.3299 38.9256 20.3299C37.8439 20.3299 36.7721 20.4001 35.7151 20.5391C36.8485 23.6643 37.4148 26.7296 37.4148 29.7219ZM44.2741 37.1325C46.7455 33.3592 48.1826 28.8474 48.1826 24C48.1826 23.3671 48.1581 22.7399 48.11 22.1194C47.0896 21.7029 46.0481 21.3585 44.9882 21.0869C45.429 23.02 45.6625 25.2086 45.6625 27.499C45.6625 30.6494 45.2213 33.9931 44.2741 37.1325ZM47.7675 19.5323C47.1378 16.1875 45.8141 13.0876 43.9517 10.3879C41.1692 9.30991 38.2312 8.7645 35.1849 8.7645C27.9775 8.7645 21.2625 11.8856 16.6156 17.3625C18.6455 19.5519 21.1296 21.3772 23.875 22.6938C28.3231 19.6421 33.5122 18.0341 38.9267 18.0341C41.9781 18.0324 44.9409 18.5354 47.7675 19.5323ZM41.3012 7.17877C39.594 5.44158 37.6244 3.96307 35.4566 2.80745C33.5191 2.32144 31.5188 2.07145 29.5125 2.07145C22.8793 2.07145 16.5071 4.79786 11.9237 9.57477C12.6579 11.7215 13.7301 13.7333 15.1213 15.5791C20.1954 9.77058 27.4288 6.46761 35.1849 6.46761C37.2459 6.46761 39.3021 6.70883 41.3012 7.17877ZM25.7147 0.0481119C25.2081 0.016198 24.6973 0 24.1826 0C19.2392 0 14.6449 1.49457 10.8269 4.05649C10.888 5.05533 11.0217 6.05038 11.2275 7.03398C15.2279 3.26828 20.3034 0.830875 25.7147 0.0481119ZM8.67398 5.68318C5.934 8.0054 3.72194 10.9314 2.24326 14.2557C2.79274 16.794 3.75384 19.2115 5.10697 21.4567C9.03211 27.9703 15.3304 32.413 22.0962 33.4923C22.8928 30.68 23.1726 27.7407 22.9146 24.7802C19.5747 23.1841 16.5843 20.8981 14.2332 18.1393L14.2306 18.137C14.1988 18.0997 14.1671 18.0623 14.1355 18.0248L13.624 17.4249L13.6347 17.4113C12.1885 15.5817 11.0323 13.5949 10.1818 11.4788L9.59734 9.85506C9.57275 9.778 9.54855 9.70078 9.52473 9.62341L9.52586 9.62306C9.127 8.32972 8.84243 7.0122 8.67398 5.68318ZM0.935663 18.0119C1.51214 19.6154 2.24835 21.1627 3.13952 22.6416C7.33916 29.6113 14.0715 34.4087 21.3556 35.6964C20.9376 36.767 20.4415 37.814 19.8684 38.8309C19.3692 39.7162 18.7477 40.5955 17.9985 41.4742C11.9735 40.028 6.26382 35.6177 2.60441 29.5427C1.57683 27.8364 0.764556 26.0224 0.183007 24.1382C0.182747 24.0922 0.182617 24.0461 0.182617 24C0.182617 21.9325 0.444051 19.926 0.935663 18.0119ZM1.66354 32.3189C5.36037 37.6845 10.5956 41.6574 16.1921 43.3611C15.4208 44.0875 14.5598 44.8161 13.6062 45.5499C8.11332 42.849 3.80351 38.1097 1.66354 32.3189ZM16.0102 46.5727C18.6727 44.3869 20.6027 42.2054 21.8693 39.958C24.1373 35.9341 25.3049 31.479 25.3049 26.9211C25.3049 26.1389 25.2701 25.3539 25.2012 24.5677C27.7183 22.8464 30.4952 21.6295 33.4197 20.9539C36.0228 27.8627 35.6136 34.4301 32.1991 40.4885C30.534 43.4409 28.3474 45.9462 25.685 47.9537C25.1882 47.9844 24.6872 48 24.1826 48C21.313 48 18.561 47.4964 16.0102 46.5727Z" fill="#FFC600"/>
</svg>
